<svg width="150" height="140" fill="none" xmlns="http://www.w3.org/2000/svg"><path d="M1.025 101.973h.187a6.9 6.9 0 0 1 .042-.484c.01-.072.031-.181.073-.217.146-.121.156-.302.219-.46.104-.265.322-.471.343-.797.26 0 .208-.472.479-.448-.042-.326.364-.241.354-.543.24-.085.354-.387.604-.448.072-.012.197-.024.197-.06.063-.314.281-.254.458-.29.042-.012.125-.012.136-.049.114-.314.354-.23.562-.266.229-.036.458 0 .645-.217.052-.06.188-.06.281-.06.219-.013.437-.013.656-.013.177 0 .27-.096.27-.302V58.99c0-.29-.041-.593.136-.858.042-.073.031-.194.031-.29l.031-.847c0-.084-.01-.18.021-.253.073-.158.167-.315.24-.472.072-.157-.021-.423.229-.46.02 0 .052-.084.062-.132.052-.194.052-.435.281-.484-.01-.35.375-.29.437-.58.01-.06.167-.109.26-.109.167 0 .198-.133.22-.29.114-.024.249-.024.353-.072.104-.06.187-.17.302-.278.187-.012.406-.037.625-.037.176-.012.333-.024.468-.18.073-.085.218-.098.343-.098.542-.012 1.073 0 1.614 0h8.91c.156 0 .219-.096.23-.253.01-.17.01-.339.01-.508v-16.97c0-.303-.042-.617.135-.895.052-.085.042-.242.042-.375.02-.302.02-.592.041-.895 0-.084.01-.23.042-.241.302-.121.208-.435.26-.653.292-.29.51-.616.614-1.003.26-.181.52-.363.76-.544.042-.036.042-.133.063-.206.197-.048.437 0 .551-.302.021-.06.198-.048.302-.072.136-.024.281.024.375-.182.042-.084.208-.12.323-.133.291-.024.583-.024.874-.024H47.92V5.128c0-.314 0-.628.032-.93.02-.158.114-.303.145-.46.042-.205.073-.41.094-.616.02-.218.01-.436.26-.46.01-.072.021-.109.021-.157.031-.193-.01-.447.25-.483-.02-.315.354-.303.354-.593.229-.036.25-.374.458-.423.02 0 .062-.012.062-.024.084-.363.365-.29.583-.35.032-.097.063-.182.104-.278.177-.013.354-.025.52-.049.136-.012.261 0 .344-.181.032-.073.167-.109.25-.109.219-.024.437-.012.656-.012h80.745a.761.761 0 0 1 .437.145c.156.12.385.133.593.17.177.036.375-.025.448.253.01.024.031.06.052.06.187-.012.281.218.416.254.26.085.458.303.604.496.135.181.354.338.406.629.021.133.031.29.198.314.02 0 .062.036.052.048-.052.411.312.64.322 1.016.011.604.052 1.22.052 1.825.011 2.768 0 5.536 0 8.292 0 .326-.02.652-.031.979-.01.29.031.58-.208.798-.073.06-.062.23-.104.35-.021.06-.063.133-.104.145-.115.024-.167.073-.188.206-.01.06-.093.096-.145.145-.042.024-.125.024-.125.06-.083.35-.333.254-.541.29-.136.024-.271 0-.396.17-.115.157-.354.205-.468.072-.229-.278-.511-.23-.781-.266-.021 0-.052-.012-.094-.024-.073-.097-.052-.314-.27-.314-.084 0-.198-.182-.261-.303-.135-.23-.385-.374-.406-.7-.01-.121-.114-.23-.166-.351-.031-.085-.073-.17-.083-.254-.011-.254-.011-.508-.011-.761V5.43c-.042-.06-.052-.072-.062-.084-.011-.012-.021-.012-.032-.024-.052-.013-.093-.025-.145-.025h-21.912c-.052 0-.094.025-.187.037-.011.157-.032.314-.032.483v18.047c.167.012.302.024.448.024h6.485c.198 0 .396 0 .583.012.146.012.271.024.406.145.135.109.333.133.51.157.219.036.448-.012.572.278.271.012.375.326.615.423.249.109.447.327.572.629.052.12.052.266.208.326.063.024.052.242.115.278.302.194.25.532.312.834 0 .024.01.06.021.085.302.29.218.689.218 1.064.011 4.327.011 8.654.011 12.981v4.255c0 .218.031.447.042.713h1.342c.104.363.333.363.604.375.063.314.302.326.552.363.073.12.031.362.25.326.02 0 .083.073.083.109.01.133.052.205.177.23.052.012.083.108.125.169.031.048.062.157.093.157.188.036.188.205.198.35.011.206.083.339.271.363.01.193.021.363.042.532.01.109.01.278.072.314.24.17.188.435.198.677.011.326.011.653.011.98v26.362h7.255V26.233c0-.266-.01-.544.01-.81.011-.23-.062-.496.188-.629.031-.012.041-.096.052-.157.041-.471.395-.713.603-1.051.084-.133.354-.06.323-.363.156-.012.281-.012.417-.036.062-.012.145-.037.187-.097.271-.29.572-.29.833-.012.052.06.145.085.229.097.177.024.364.036.541.06.073.133.062.326.26.314.031 0 .083.073.115.121.021.036.01.121.021.121.343.073.249.532.478.701.052.037.073.17.073.266.021.472.052.93.052 1.402v50.502c0 .217.011.447.021.7.198.013.364.037.541.037 1.104.012 2.197 0 3.3.012.188 0 .396-.072.489.242.011.048.146.048.229.072.219.049.51-.072.604.303.302-.025.375.459.687.423.042 0 .115.06.125.12.031.121.083.194.198.218.041.012.083.085.114.133.042.06.063.181.104.194.167.06.198.23.209.362.02.206.104.302.249.326.073.266 0 .58.282.714.041.024.031.18.041.278.021.338-.01.7.073 1.015.187.713.135 1.426.135 2.151.011 4.328 0 8.655 0 12.983 0 .87.115.688.615.7.27.013.541-.024.791.206.104.097.301.06.458.085.218.036.468-.06.593.278.021.06.177.048.271.072.125.024.249.012.27.206 0 .036.042.096.063.096.302-.048.416.339.676.387.011 0 .032.012.032.012.072.182.208.266.322.387.094.097.156.23.281.314.094.073.063.315.261.339.031 0 .031.157.072.217.073.133.011.363.229.387.032 0 .042.145.073.218.063.145.136.29.198.423.031.06.073.109.083.169.063.592.146 1.172.156 1.765.021 1.136.011 2.272.011 3.408v26.762c0 .496.01.991-.021 1.487-.021.447-.094.894-.156 1.342-.01.06-.063.108-.094.169-.031.036-.083.072-.093.121-.084.241-.094.519-.323.652.01.339-.292.472-.364.762-.24.024-.25.35-.458.447-.136.073-.282.254-.396.411a.596.596 0 0 1-.385.254c-.052.012-.146.036-.156.072-.032.266-.219.23-.365.254-.125.012-.239.024-.281.206-.01.048-.114.096-.177.096-.156.025-.312.025-.479.049-.135.024-.301.012-.385.109-.166.217-.364.181-.572.193H5.688c-.208 0-.395 0-.572-.193-.104-.109-.323-.085-.49-.121-.207-.049-.457.084-.593-.266-.041-.097-.291-.085-.478-.121-.032-.181-.146-.29-.334-.302-.114-.012-.25-.024-.28-.218 0-.036-.042-.084-.063-.084-.146-.025-.23-.097-.27-.278-.022-.073-.22-.085-.23-.146-.031-.217-.187-.217-.27-.326-.084-.109-.094-.314-.271-.338-.02 0-.042-.097-.052-.145-.042-.182-.02-.399-.25-.46-.031-.012-.031-.121-.062-.181-.063-.145-.146-.278-.198-.435a1.8 1.8 0 0 1-.104-.472c-.01-.181-.042-.302-.219-.314.073-11.217.073-22.422.073-33.627Zm83.973-36.601c.072.181.093.411.208.508.125.109.135.205.156.338.02.133.02.326.094.387.177.145.177.326.187.52.01.435.01.882.01 1.317v29.119c.52.109 23.172.084 23.463-.024V85.98c0-1.499 0-3.01.011-4.508 0-.254-.011-.508.208-.69.041-.036.052-.145.062-.23.021-.144.021-.277.032-.41.083-.049.156-.097.229-.133.02-.181.052-.35.072-.52.104-.072.281-.048.271-.278 0-.036.073-.097.115-.133l.156-.181c.041-.048.093-.097.135-.157.052-.06.104-.121.156-.194.042-.048.083-.133.115-.12.197.012.177-.194.229-.315l.478-.072c.032-.097.063-.182.094-.278.146-.012.281-.012.406-.025.094-.012.24-.012.271-.084.156-.29.395-.23.614-.23 2.332 0 4.663 0 6.995-.012.187 0 .385-.024.583-.036V51.193c-.25-.012-.479-.048-.708-.048-8.046 0-16.093 0-24.14-.012-.457 0-.926.145-1.353-.254-.145-.133-.364-.145-.54-.326-.167-.181-.334-.35-.48-.556-.156-.218-.322-.423-.291-.75.01-.072-.083-.157-.125-.241-.135-.278-.125-.569-.031-.846.041-.133.125-.266.156-.411.062-.254-.02-.58.291-.69.021-.012.032-.072.032-.12 0-.121.062-.17.156-.182.041-.012.114-.072.114-.12.021-.17.094-.206.219-.206a.174.174 0 0 0 .125-.073c.125-.29.354-.265.572-.265.802-.013 1.614-.013 2.415-.025h.396c.343-.41.26-.894.26-1.341 0-3.083 0-6.153.01-9.235 0-.423-.03-.81-.322-1.124H79.023c-.48 0-.948-.025-1.426-.037-.115 0-.292 0-.344-.084-.125-.206-.291-.23-.468-.254-.052-.012-.146-.048-.146-.085-.031-.205-.177-.193-.302-.254-.083-.036-.208-.084-.24-.157-.051-.12-.093-.169-.208-.193-.052-.012-.083-.109-.124-.17-.032-.048-.063-.144-.094-.144-.167-.025-.177-.157-.198-.303-.02-.193-.135-.29-.25-.41-.093-.097-.083-.339-.125-.52a.137.137 0 0 0-.052-.06c-.146-.061-.145-.206-.145-.351-.01-.58-.042-1.16-.042-1.74V6.118c0-.133-.01-.254 0-.387.02-.205-.073-.326-.23-.374a2.055 2.055 0 0 0-.468-.049H53.166c-.604 0-.646-.133-.646.738v23.57c0 .133-.01.254.01.387.011.097.042.181.063.29h11.263c.302 0 .614 0 .916.024.084 0 .23.049.25.11.063.205.198.18.323.193l.5.036c.041.109.083.205.114.29.177.024.323.048.427.072.083.121.125.279.187.279.146.024.219.084.24.253 0 .037.062.073.103.085.209.072.22.399.438.46-.021.217.177.205.229.314.073.133.073.326.114.483.01.024.021.06.042.06.24.06.166.303.208.472.031.133.01.326.083.399.219.217.177.507.188.773.01.327.01.653.01.98v27.559c0 .145.01.302.02.447h7.516V50.891c0-.387 0-.761.01-1.148 0-.133.011-.326.074-.399.218-.23.177-.532.218-.822.073-.036.146-.084.219-.12.031-.182.052-.363.083-.569.292.06.209-.435.49-.423-.032-.35.447-.23.364-.592.395-.024.614-.472 1-.46.01 0 .02-.012.03-.024.094-.29.302-.242.49-.242 2.133-.012 4.278-.024 6.412-.024.198 0 .395 0 .583.037.114.012.229.084.333.145.114.072.229.169.375.278-.042.266.395.217.364.556.281.096.229.386.27.616.032.17.053.339.167.496.115.145.094.399 0 .604a1.547 1.547 0 0 0-.146.423c-.041.254.021.544-.27.665-.021.012-.01.085-.031.12-.125.17-.24.363-.396.496-.198.17-.375.411-.666.387-.031 0-.073.073-.104.097-.084.048-.156.12-.24.133-.218.024-.437.024-.656.024H80.74c-.187 0-.385.024-.583.036v12.39c.188.012.354.024.531.024.625.012 1.25 0 1.864.024.124 0 .343.012.374.085.104.242.281.193.437.242.073.024.198.024.198.06.073.363.354.23.469.29.374.4.676.75.968 1.076ZM66.219 113.77H40.56a17.5 17.5 0 0 1-.802-.024.703.703 0 0 1-.26-.109c-.114-.06-.229-.145-.343-.205-.063-.037-.177-.049-.188-.097-.03-.266-.385-.218-.374-.508-.23-.024-.177-.326-.302-.399-.208-.132-.198-.338-.208-.531-.01-.387-.01-.762-.01-1.149 0-.181-.022-.399.04-.544.074-.169.271-.241.282-.471.302-.169.406-.653.79-.713.022 0 .063-.061.063-.097.021-.193.146-.193.271-.205.343-.012.687-.025 1.03-.025h104.2c.093 0 .187-.012.301-.024v-5.246c-.124-.169-.218-.29-.353-.459-.282-.012-.594-.06-.906-.06H6.615c-.323 0-.656.036-1.01.06.031.29-.28.29-.27.568.01.242 0 .484 0 .725v3.868c0 .182.01.363.02.568H31.12c.083.363.343.327.582.375-.01.218.146.254.25.363.105.109.125.338.292.338.052.23.052.484.156.58.135.121.156.242.166.387.01.327.01.653 0 .979 0 .109-.03.266-.093.303-.136.084-.156.205-.156.35-.01.339-.27.496-.427.701-.167.206-.375.447-.677.423-.02 0-.052.024-.052.049-.041.241-.218.205-.354.217-.28.024-.562.024-.843.024H19.158c-.156 0-.302.012-.458.012v10.069h.313c15.718-.012 31.436-.012 47.154-.024.01 0 .02-.012.031-.024l.032-.036c-.01-3.312-.01-6.624-.01-10.009ZM46.431 97.525V69.047c0-.641.062-1.282.02-1.91-.03-.544.344-.907.375-1.402.198-.06.177-.363.323-.448.208-.12.23-.435.458-.507 0-.23.26-.145.27-.254.042-.254.22-.206.344-.29.24-.17.469-.363.77-.375.032 0 .073-.048.073-.072.053-.194.188-.158.302-.17.396-.012.781-.024 1.177-.024H63.22c.208 0 .406-.024.646-.036V36.205c0-.085-.01-.17 0-.254.041-.266-.104-.399-.25-.52-.084-.06-.208-.072-.313-.072h-4.84c-.104 0-.208.024-.343.036-.01.23-.042.447-.042.653v6.044c0 .314 0 .628-.01.93 0 .097-.01.254-.053.278-.26.145-.187.423-.218.665-.02.121-.031.339-.073.35-.219.061-.177.267-.24.424-.093.217-.218.41-.332.616-.282-.048-.209.484-.51.411-.094.314-.344.314-.563.35a8.398 8.398 0 0 0-.093.255c-.313.096-.687-.097-.864.374H44.568c-.209 0-.417-.012-.625-.012-.187 0-.375-.012-.396-.29-.145-.012-.27-.012-.385-.036-.073-.012-.166-.024-.197-.073-.125-.242-.334-.254-.521-.326a.872.872 0 0 0-.187-.254c-.146-.157-.344-.278-.427-.471-.094-.218-.375-.254-.354-.556-.25-.024-.198-.266-.24-.448-.02-.096-.083-.18-.124-.278-.052-.108-.115-.205-.136-.326-.03-.145-.02-.314-.02-.471-.01-1.995-.021-4.001-.021-5.996v-1.281c0-.109-.021-.242-.084-.302-.166-.17-.333-.302-.593-.302-4.632.012-9.254.012-13.886.012h-.406c-.031.193-.073.35-.073.495v17.648h6.267c.177 0 .364-.024.5.181.04.073.176.085.27.085.208.024.416.024.624.048.073.012.177.024.198.073.115.302.364.23.583.302.01.41.323.242.479.35.052.11.083.254.156.278.135.049.167.194.23.254.228.17.27.423.353.677.01.024.031.049.052.049.167.024.156.169.177.314.02.12.063.278.135.338.136.11.125.254.146.411.02.315-.01.653.083.919.125.35.136.689.136 1.04v38.329c.01.447.03.483.427.483H45.9c.156.012.323-.048.53-.084Zm98.629 31.439H5.335v5.041c.01.29.27.616.53.64.292.024.583.024.875.024h137.456c.177-.012.364-.024.562-.048.031-.085.031-.205.083-.23.292-.133.24-.411.24-.664v-4.291c0-.146-.011-.303-.021-.472ZM31.691 97.537c.073-.508.052-38.342-.02-38.644-.375-.097-20.247-.084-20.528.024v38.644c.427.097 20.277.084 20.548-.024Zm37.484-8.026c-.072-.242-.093-.472-.208-.58-.125-.121-.145-.242-.156-.387-.02-.23.02-.496-.073-.665-.208-.35-.198-.725-.198-1.1v-4.557c0-.58-.01-1.16.01-1.74 0-.206 0-.46.094-.617.115-.194.177-.387.146-.592-.073-.484.23-.81.344-1.21.28-.132.177-.652.53-.724.011 0 .021-.049.021-.073 0-.133.052-.193.177-.218.052-.012.094-.096.136-.157.041-.048.073-.145.104-.145.333.012.447-.447.77-.435.188-.302.458-.278.729-.29.208-.012.468.048.614-.06.27-.23.552-.182.843-.182h7.693c.166 0 .333-.024.51-.048v-7.047c-.406-.097-30.135-.072-30.396.012-.073.677-.041 28.55.032 28.877H81.23c.083-.628.051-5.681-.042-6.032h-8.411c-.416 0-.833-.012-1.25-.036-.103 0-.28-.012-.311-.072-.104-.242-.302-.206-.469-.266-.052-.025-.145-.025-.166-.06-.125-.29-.386-.376-.594-.533-.27-.205-.489-.447-.603-.773-.032-.194-.136-.242-.209-.29Zm10.108-60.268h17.769c.333-.012.374-.073.395-.448.031-.592.052-1.184.094-1.777.01-.12.031-.314.094-.35.187-.109.156-.29.208-.46.031-.096.093-.18.146-.265.041-.073.083-.157.135-.23.031-.048.062-.133.104-.145.115-.024.167-.085.177-.23.01-.048.062-.12.114-.133.22-.06.22-.423.469-.423.01-.253.187-.241.323-.241.197 0 .27-.133.312-.315.208-.024.395-.036.572-.048.073-.012.177-.012.209-.06.166-.303.426-.242.655-.242 1.208-.012 2.415 0 3.623-.012.125 0 .26-.012.385-.024.01-.121.021-.194.021-.266V5.539c0-.06-.011-.109-.021-.17 0-.011-.01-.023-.021-.035-.01-.012-.021-.025-.021-.037-.478-.096-25.472-.06-25.742.037v23.909Zm4.903 94.584h47.529v-10.021h-47.53v10.021Zm17.696-94.609c-.011.17-.021.303-.021.424v15.786c0 .205.052.41.073.604h14.375c.094-1.124.031-2.248.042-3.36.01-1.124 0-2.236 0-3.36V29.217h-14.469Zm37.401 68.319c.01-.109.02-.218.02-.327V83.044c0-.181-.02-.363-.031-.544h-3.175c-.01.218-.041.41-.041.604v2.853c0 .338.083.701-.167 1.003-.052.06-.041.194-.041.29-.021.23-.032.448-.052.677-.011.085-.011.218-.053.23-.197.097-.176.314-.229.496-.02.06-.031.157-.062.18-.229.17-.343.46-.51.69-.083.109-.167.254-.281.302-.24.097-.323.435-.604.447-.094.242-.281.218-.458.254-.125.024-.302.024-.375.12-.114.158-.249.17-.395.17-.26.012-.51.024-.77.024H120.92c-.27 0-.541-.012-.801-.024-.083 0-.198 0-.239-.06-.157-.206-.365-.206-.573-.23-.094-.012-.26-.024-.271-.072-.062-.266-.26-.218-.406-.278-.208-.085-.291-.363-.499-.448.031-.254-.281-.145-.281-.314.01-.254-.208-.193-.25-.266-.052-.23-.052-.495-.135-.532-.261-.109-.198-.35-.229-.556-.011-.06-.011-.145-.032-.157-.312-.157-.218-.471-.229-.737-.01-1.342-.01-2.696-.01-4.037 0-.194-.01-.387-.021-.641-1.145.012-2.259-.024-3.393.024v15.049c.395.097 25.419.084 25.732-.024Zm5.777 26.29v-9.996c-.385-.097-8.65-.073-8.942.012v9.984h8.942ZM14.276 113.806h-8.92v9.997c.499.084 8.67.06 8.92-.024v-9.973Zm56.565 10.021h8.713v-10.045h-5.83c-.957 0-1.915-.024-2.883.024v10.021ZM53.697 35.794c-.219-.423-.531-.435-.864-.435-2.332.012-4.664.012-6.995.012h-.448c-.02.218-.052.387-.052.556v5.185c0 .182.031.351.041.556h7.682c.459 0 .625-.193.625-.737v-2.937c.01-.762.01-1.511.01-2.2Zm19.476 45.304c-.01.157-.032.266-.032.374v4.642c0 .121.032.242.042.35.77.085 7.817.049 8.078-.036V81.11c-2.707-.012-5.372-.012-8.088-.012Zm48.195 4.666h10.066c.062-1.088.052-2.164.01-3.24-.52-.085-9.774-.06-10.107.036 0 1.04-.052 2.091.031 3.204Z" fill="#000"/><path d="M114.833 69.918c-.187.084-.437.048-.479.374-.219.06-.489-.012-.604.315-.01.036-.135.048-.208.048-.208.012-.416.012-.624.012H95.045c-.198 0-.396 0-.583-.012-.177-.012-.375.048-.448-.242-.01-.036-.104-.06-.156-.06a2.693 2.693 0 0 0-.344-.049c-.072-.12-.041-.362-.26-.314-.02 0-.052-.012-.062-.036-.042-.17-.083-.326-.27-.326-.074-.339-.376-.556-.344-.968.041-.447.01-.906.02-1.353 0-.133-.01-.29.156-.339.032-.012.084-.072.084-.12.031-.23.156-.387.291-.557.146-.18.281-.338.49-.374.01 0 .03 0 .03-.012.188-.424.542-.266.834-.315.176-.036.364-.012.551-.012h17.759c.27 0 .541 0 .801.024.26.025.552-.024.718.303.271-.037.281.386.521.41.062.303.406.424.364.798-.01.133.021.315.104.4.25.29.115.64.125.966 0 .049-.031.121-.062.133-.125.06-.125.194-.146.314-.042.17 0 .375-.219.484-.083.048-.104.326-.166.508Zm-.261-8.402c-.166.037-.312.06-.468.085-.031.085-.073.17-.125.302h-8.411c-.146 0-.291.012-.437-.024-.104-.024-.187-.109-.281-.157-.083-.049-.156-.109-.229-.157-.031-.024-.104-.024-.104-.037 0-.29-.354-.23-.365-.495-.249-.073-.208-.472-.458-.568-.041-.012-.062-.17-.072-.266-.011-.556-.011-1.1 0-1.656 0-.145.02-.29.177-.326.031-.013.072-.049.072-.085.011-.194.104-.266.229-.375.094-.084.125-.302.302-.314.052-.302.396-.218.479-.496.021-.06.177-.072.271-.072.229-.012.468-.024.697-.024h7.318c.187 0 .364.036.552.012.229-.037.312.205.478.29.157.084.386 0 .427.29.25.06.261.387.458.52.073.048.094.217.115.338.031.218.041.435.208.605.135.145.052.785-.052.99a1.153 1.153 0 0 0-.135.424c-.042.217-.021.459-.25.568-.011.302-.365.314-.396.628ZM58.165 15.753a2.402 2.402 0 0 1-.093-.278c-.104-.024-.209-.024-.302-.06-.083-.037-.146-.11-.219-.182a1.256 1.256 0 0 0-.24-.194c-.114-.205-.072-.531-.343-.64-.01 0-.01-.024-.01-.036.042-.387-.208-.677-.26-1.028-.021-.145.052-.326.093-.483.021-.06.094-.11.105-.17.041-.205 0-.495.104-.604.135-.145.208-.29.26-.483.01-.025 0-.073.02-.085.167-.145.323-.302.49-.435.125-.097.343-.024.406-.29.01-.049.177-.073.27-.073.448-.012.906-.012 1.354 0 .135 0 .302-.024.354.206.01.024.03.048.052.06.229.06.416.145.593.375.208.266.437.544.5.87.03.17.104.326.187.484.094.18.083.87 0 1.063a4.656 4.656 0 0 0-.187.484c-.052.193 0 .435-.25.495-.031.23-.167.327-.344.411-.041.025-.041.145-.062.218-.167.024-.312.06-.458.085-.031.084-.073.169-.115.278-.635.012-1.27.012-1.905.012Zm2.456 7.047c-.135.024-.281.048-.437.073-.031.084-.073.169-.115.278h-1.905c-.03-.097-.072-.182-.104-.278-.093-.013-.187-.037-.28-.049-.115-.012-.199-.048-.24-.205-.031-.097-.156-.145-.27-.242-.053-.17-.042-.46-.292-.568-.021-.012-.032-.049-.032-.073.032-.338-.124-.616-.239-.906-.073-.194-.02-.387.063-.568a2.16 2.16 0 0 0 .145-.411c.042-.182-.01-.4.209-.484.051-.024.072-.145.093-.217.031-.157.136-.23.219-.339.166-.23.354-.35.593-.387.219-.41.573-.253.874-.29a4.42 4.42 0 0 1 .802.012c.167.012.375-.048.458.23.01.036.104.048.167.06.156.06.354.037.374.315.26.012.25.362.448.483.073.036.104.206.125.327.041.217.114.41.198.616a1.28 1.28 0 0 1-.021 1.052c-.052.108-.156.23-.146.326.052.399-.281.58-.354.895-.01.024-.062.036-.093.06-.157.084-.157.084-.24.29ZM23.25 77.689c-.074.036-.209.072-.209.12-.01.194-.094.254-.25.29-.041.013-.073.158-.114.266a4.708 4.708 0 0 0-.334.06c-.052.013-.145.037-.156.074-.052.265-.229.217-.374.217-.354.012-.708 0-1.083 0-.062-.375-.323-.314-.562-.35-.083-.11-.052-.375-.281-.339-.02 0-.073-.085-.073-.12.01-.218-.156-.182-.24-.243-.083-.23-.02-.52-.26-.664-.041-.025-.052-.182-.052-.278-.01-.472-.02-.931-.02-1.402v-2.321c-.24.012-.438-.06-.552.23-.021.06-.125.096-.188.096H16.9c-.125 0-.187-.085-.27-.218-.084-.145-.27-.193-.385-.374-.063-.097-.188-.157-.23-.315-.01-.06-.135-.084-.208-.133-.052-.23-.01-.52-.26-.652-.02-.012-.041-.073-.041-.109.01-.423.01-.846.03-1.27 0-.084.074-.168.126-.24.02-.037.083-.05.083-.073 0-.327.208-.52.333-.762.063-.12.125-.157.219-.23.125-.096.229-.254.343-.374.23-.254.427-.532.718-.713.167-.11.271-.327.417-.484.156-.17.322-.326.489-.496.135-.145.26-.314.406-.471.167-.17.281-.399.49-.532.135-.085.145-.35.353-.35-.01-.29.344-.242.344-.52.24-.097.343-.447.635-.46a.323.323 0 0 0 .312-.18c.042-.073.166-.11.26-.122.27-.012.542-.012.802 0 .114 0 .25 0 .302.182.01.036.052.084.083.072.302-.024.479.23.697.387a.656.656 0 0 1 .115.133c.031.048.062.157.093.157.177 0 .177.194.26.29.074.097.271.073.26.29.23.037.261.35.459.448.156.084.26.278.385.423.083.108.177.18.281.265.094.085.073.303.25.29.229.412.687.532.906.956.25.024.26.423.5.459.03.266.28.326.395.52.135.23.291.41.312.713.437.435.198 1.015.24 1.535.01.109 0 .217-.115.278-.042.024-.052.12-.083.17-.094.144.02.398-.208.495-.136.06-.115.374-.334.374-.01.327-.405.218-.447.52-.01.036-.125.06-.198.073-.52.012-1.051.012-1.572 0-.062 0-.166-.037-.187-.085-.115-.29-.333-.23-.562-.254-.01.157-.021.29-.021.435 0 1.052 0 2.104-.01 3.143 0 .218 0 .435-.177.605-.177.169-.177.374-.24.568Zm34.133 7.071c-.135-.157-.229-.254-.301-.363a1.034 1.034 0 0 1-.125-.241c-.052-.157-.01-.375-.23-.436-.04-.012-.062-.169-.062-.265-.01-.532 0-1.076 0-1.62.313-.085.26-.399.323-.665.125-.048.281-.085.27-.314.271-.073.375-.46.688-.447.177 0 .364-.025.479-.23.03-.049.135-.06.197-.06.188-.013.365-.013.552-.013.166 0 .333-.024.458.182.042.06.156.108.229.096.344-.072.51.315.78.411.053.302.407.375.396.726 0 .048.021.132.042.157.24.12.187.362.198.58.01.326.01.653 0 .979-.01.218.052.496-.209.604-.03.013-.03.097-.041.158-.063.18-.042.435-.281.47-.052.315-.354.255-.469.424-.197.29-.427.23-.666.278a.845.845 0 0 0-.354.181c-.156.133-.374.157-.468.037-.208-.254-.458-.218-.708-.254-.073-.012-.146-.012-.24-.024-.062-.327-.322-.303-.458-.351Zm1.589-6.697h-.77c-.083 0-.208.013-.25-.036-.135-.157-.333-.254-.437-.399-.094-.12-.208-.169-.281-.266-.083-.108-.073-.302-.25-.302-.052-.326-.375-.483-.354-.858.021-.363 0-.737 0-1.1 0-.193-.02-.399.177-.508.052-.036.073-.145.094-.23.031-.156.031-.302.218-.374.115-.048.136-.338.334-.35.03-.29.25-.254.405-.315.042-.024.125-.012.136-.048.135-.314.395-.218.614-.23.27-.012.541-.012.802 0 .177.012.374-.036.478.206.01.024.063.024.094.048.135.097.354-.024.427.242.041.181.333.133.312.399.292.036.208.435.427.568.073.036.094.23.104.35.01.484.01.967 0 1.439 0 .169-.031.314-.187.459-.115.109-.198.339-.334.484-.177.18-.28.483-.562.52-.01 0-.03 0-.03.011-.167.484-.532.254-.813.315-.104 0-.229-.025-.354-.025Z" fill="#000"/><path d="M84.998 65.373c.073.18.094.41.209.507.125.11.135.206.156.339.02.133.02.326.094.387.176.145.176.326.187.52.01.434.01.882.01 1.317V97.56c.52.11 23.172.085 23.463-.024V85.982c0-1.5 0-3.01.01-4.509 0-.254-.01-.508.209-.689.041-.036.052-.145.062-.23.021-.145.021-.278.031-.41.084-.049.156-.097.229-.134.021-.18.052-.35.073-.52.104-.072.281-.048.271-.277 0-.036.073-.097.114-.133l.156-.181c.042-.049.094-.097.136-.158.052-.06.104-.12.156-.193.042-.048.083-.133.114-.12.198.011.177-.194.229-.315.157-.024.313-.049.479-.073.031-.096.063-.181.094-.278.146-.012.281-.012.406-.024.094-.012.239-.012.271-.085.156-.29.395-.23.614-.23 2.331 0 4.663 0 6.995-.011.187 0 .385-.024.583-.037v-26.18c-.25-.012-.479-.048-.708-.048-8.047 0-16.093 0-24.14-.012-.458 0-.926.145-1.353-.254-.145-.133-.364-.145-.541-.327-.166-.18-.333-.35-.479-.556-.156-.217-.323-.423-.291-.75.01-.072-.084-.156-.125-.24-.136-.279-.125-.569-.031-.847.041-.133.124-.266.156-.41.062-.255-.021-.581.291-.69.021-.012.031-.072.031-.12 0-.122.063-.17.157-.182.041-.012.114-.073.114-.12.02-.17.094-.206.219-.206a.174.174 0 0 0 .125-.073c.124-.29.353-.266.572-.266.802-.012 1.614-.012 2.415-.024h.396c.343-.411.26-.895.26-1.342 0-3.082 0-6.152.01-9.235 0-.423-.031-.81-.322-1.124H79.023c-.478 0-.947-.024-1.426-.036-.114 0-.291 0-.343-.085-.125-.205-.292-.23-.469-.253-.052-.013-.145-.049-.145-.085-.031-.206-.177-.193-.302-.254-.083-.036-.208-.084-.24-.157-.052-.12-.093-.17-.208-.193-.052-.013-.083-.11-.125-.17-.03-.048-.062-.145-.093-.145-.167-.024-.177-.157-.198-.302-.021-.193-.136-.29-.25-.41-.094-.098-.083-.34-.125-.52a.137.137 0 0 0-.052-.061c-.146-.06-.146-.206-.146-.35-.01-.58-.041-1.161-.041-1.741V6.12c0-.133-.01-.254 0-.387.02-.205-.073-.326-.23-.375a2.056 2.056 0 0 0-.468-.048H53.166c-.603 0-.645-.133-.645.737v23.57c0 .134-.01.255.01.388.01.096.042.181.063.29h11.263c.302 0 .614 0 .916.024.083 0 .229.048.25.109.062.205.198.181.323.193l.5.036c.04.11.082.206.114.29.177.025.322.049.426.073.084.12.125.278.188.278.145.024.218.085.24.254 0 .036.062.072.103.085.209.072.219.398.438.459-.021.217.176.205.228.314.073.133.073.327.115.484.01.024.02.06.042.06.24.06.166.302.208.471.031.133.01.327.083.4.219.217.177.507.188.773.01.326.01.653.01.979v27.559c0 .145.01.303.02.448h7.516V50.892c0-.387 0-.762.01-1.149 0-.132.011-.326.074-.398.218-.23.176-.532.218-.822.073-.037.146-.085.219-.121.031-.181.052-.363.083-.568.291.06.208-.435.49-.423-.032-.35.447-.23.364-.593.395-.024.614-.471.999-.459.01 0 .02-.012.031-.024.094-.29.302-.242.49-.242 2.133-.012 4.278-.024 6.412-.024.197 0 .395 0 .582.036.115.012.23.085.334.145.114.073.229.17.374.278-.041.266.396.218.365.556.28.097.229.387.27.617.032.169.052.338.167.495.114.145.094.4 0 .605a1.55 1.55 0 0 0-.146.423c-.041.254.021.544-.27.665-.021.012-.01.084-.032.12-.125.17-.24.363-.395.496-.198.17-.375.411-.666.387-.032 0-.073.072-.105.096-.083.049-.156.121-.239.133-.219.025-.437.025-.656.025h-3.997c-.187 0-.385.024-.583.036v12.39c.187.012.354.024.531.024.625.012 1.25 0 1.863.024.125 0 .344.012.375.085.104.241.281.193.437.241.073.025.198.025.198.06.073.363.354.23.468.29.375.4.677.75.968 1.077ZM31.689 97.537c.073-.507.052-38.341-.021-38.643-.375-.097-20.246-.085-20.527.024V97.56c.426.097 20.277.085 20.548-.024Z" fill="#FF9B36"/><path d="M114.829 69.918c-.187.084-.437.048-.479.374-.219.06-.489-.012-.604.315-.01.036-.135.048-.208.048-.208.012-.416.012-.624.012H95.041c-.198 0-.396 0-.583-.012-.177-.012-.375.048-.448-.242-.01-.036-.104-.06-.156-.06a2.693 2.693 0 0 0-.344-.049c-.072-.12-.041-.362-.26-.314-.02 0-.052-.012-.062-.036-.042-.17-.084-.326-.27-.326-.074-.339-.376-.556-.344-.968.041-.447.01-.906.02-1.353 0-.133-.01-.29.157-.339.03-.012.083-.072.083-.12.031-.23.156-.387.291-.557.146-.18.281-.338.49-.374.01 0 .03 0 .03-.012.188-.424.542-.266.834-.315.177-.036.364-.012.551-.012h17.759c.27 0 .541 0 .801.024.26.025.552-.024.718.303.271-.037.282.386.521.41.062.303.406.424.364.798-.01.133.021.315.104.4.25.29.115.64.125.966 0 .049-.031.121-.062.133-.125.06-.125.194-.146.314-.042.17 0 .375-.219.484-.083.048-.104.326-.166.508Zm-.257-8.402c-.166.037-.312.06-.468.085-.031.085-.073.17-.125.302h-8.411c-.146 0-.291.012-.437-.024-.104-.024-.187-.109-.281-.157-.083-.049-.156-.109-.229-.157-.031-.024-.104-.024-.104-.037 0-.29-.354-.23-.365-.495-.249-.073-.208-.472-.458-.568-.041-.012-.062-.17-.072-.266-.011-.556-.011-1.1 0-1.656 0-.145.02-.29.177-.326.031-.013.072-.049.072-.085.011-.194.104-.266.229-.375.094-.084.125-.302.302-.314.052-.302.396-.218.479-.496.021-.06.177-.072.271-.072.229-.012.468-.024.697-.024h7.318c.187 0 .364.036.552.012.229-.037.312.205.478.29.157.084.386 0 .427.29.25.06.261.387.458.52.073.048.094.217.115.338.031.218.041.435.208.605.135.145.052.785-.052.99a1.153 1.153 0 0 0-.135.424c-.042.217-.021.459-.25.568-.011.302-.365.314-.396.628ZM58.165 15.753a2.402 2.402 0 0 1-.093-.278c-.104-.024-.209-.024-.302-.06-.083-.037-.146-.11-.219-.182a1.256 1.256 0 0 0-.24-.194c-.114-.205-.072-.531-.343-.64-.01 0-.01-.024-.01-.036.042-.387-.208-.677-.26-1.028-.021-.145.052-.326.093-.483.021-.06.094-.11.105-.17.041-.205 0-.495.104-.604.135-.145.208-.29.26-.483.01-.025 0-.073.02-.085.167-.145.323-.302.49-.435.125-.097.343-.024.406-.29.01-.049.177-.073.27-.073.448-.012.906-.012 1.354 0 .135 0 .302-.024.354.206.01.024.03.048.052.06.229.06.416.145.593.375.208.266.437.544.5.87.03.17.104.326.187.484.094.18.083.87 0 1.063a4.656 4.656 0 0 0-.187.484c-.052.193 0 .435-.25.495-.031.23-.167.327-.344.411-.041.025-.041.145-.062.218-.167.024-.312.06-.458.085-.031.084-.073.169-.115.278-.635.012-1.27.012-1.905.012Zm2.45 7.047c-.135.024-.28.048-.437.073-.031.084-.073.169-.114.278h-1.906c-.03-.097-.072-.182-.104-.278-.093-.013-.187-.037-.28-.049-.115-.012-.198-.048-.24-.205-.031-.097-.156-.145-.27-.242-.053-.17-.042-.46-.292-.568-.02-.012-.031-.049-.031-.073.03-.338-.125-.616-.24-.906-.073-.194-.02-.387.063-.568a2.16 2.16 0 0 0 .145-.411c.042-.182-.01-.4.209-.484.052-.024.072-.145.093-.217.032-.157.136-.23.219-.339.166-.23.354-.35.593-.387.219-.41.573-.253.875-.29a4.42 4.42 0 0 1 .801.012c.167.012.375-.048.458.23.01.036.104.048.167.06.156.06.354.037.374.315.26.012.25.362.448.483.073.036.104.206.125.327.042.217.114.41.198.616a1.28 1.28 0 0 1-.021 1.052c-.052.108-.156.23-.146.326.052.399-.28.58-.354.895-.01.024-.062.036-.093.06-.157.084-.157.084-.24.29ZM23.25 77.689c-.074.036-.209.072-.209.12-.01.194-.094.254-.25.29-.041.013-.073.158-.114.266a4.708 4.708 0 0 0-.334.06c-.052.013-.145.037-.156.074-.052.265-.229.217-.374.217-.354.012-.708 0-1.083 0-.062-.375-.323-.314-.562-.35-.083-.11-.052-.375-.281-.339-.02 0-.073-.085-.073-.12.01-.218-.156-.182-.24-.243-.083-.23-.02-.52-.26-.664-.041-.025-.052-.182-.052-.278-.01-.472-.02-.931-.02-1.402v-2.321c-.24.012-.438-.06-.552.23-.021.06-.125.096-.188.096H16.9c-.125 0-.187-.085-.27-.218-.084-.145-.27-.193-.385-.374-.063-.097-.188-.157-.23-.315-.01-.06-.135-.084-.208-.133-.052-.23-.01-.52-.26-.652-.02-.012-.041-.073-.041-.109.01-.423.01-.846.03-1.27 0-.084.074-.168.126-.24.02-.037.083-.05.083-.073 0-.327.208-.52.333-.762.063-.12.125-.157.219-.23.125-.096.229-.254.343-.374.23-.254.427-.532.718-.713.167-.11.271-.327.417-.484.156-.17.322-.326.489-.496.135-.145.26-.314.406-.471.167-.17.281-.399.49-.532.135-.085.145-.35.353-.35-.01-.29.344-.242.344-.52.24-.097.343-.447.635-.46a.323.323 0 0 0 .312-.18c.042-.073.166-.11.26-.122.27-.012.542-.012.802 0 .114 0 .25 0 .302.182.01.036.052.084.083.072.302-.024.479.23.697.387a.656.656 0 0 1 .115.133c.031.048.062.157.093.157.177 0 .177.194.26.29.074.097.271.073.26.29.23.037.261.35.459.448.156.084.26.278.385.423.083.108.177.18.281.265.094.085.073.303.25.29.229.412.687.532.906.956.25.024.26.423.5.459.03.266.28.326.395.52.135.23.291.41.312.713.437.435.198 1.015.24 1.535.01.109 0 .217-.115.278-.042.024-.052.12-.083.17-.094.144.02.398-.208.495-.136.06-.115.374-.334.374-.01.327-.405.218-.447.52-.01.036-.125.06-.198.073-.52.012-1.051.012-1.572 0-.062 0-.166-.037-.187-.085-.115-.29-.333-.23-.562-.254-.01.157-.021.29-.021.435 0 1.052 0 2.104-.01 3.143 0 .218 0 .435-.177.605-.177.169-.177.374-.24.568Z" fill="#000"/></svg>