<svg width="139" height="135" fill="none" xmlns="http://www.w3.org/2000/svg"><g clip-path="url(#a)"><path d="M138.9 12.3v78.8h-17.3c-.2.2-.3.4-.3.7v7.1c0 .2 0 .5.2.7h3c.1.2 0 .4 0 .5V114c0 .3-.1.4-.3.4h-36c-.2 0-.4 0-.6.2v1.6c0 .1 0 .3-.1.4H51.6c-.1-.7 0-1.4-.1-2-.2-.2-.4-.2-.6-.2H15c-.2 0-.3-.1-.4-.4V99.7c0-.1 0-.2.1-.3h2.9c.2-.2.3-.5.3-.7v-6.8c0-.3-.1-.6-.4-.8H.1V12.3h17.1c.1 0 .2 0 .3-.1.2-.1.2-.2.2-.3V.3c0-.1 0-.2.1-.2.1-.1.2-.1.2-.1h103.2c.1.2 0 .4 0 .6v11.5c.2.2.3.2.5.2h17.2ZM34.2 87c.2.1.5.1.7.1h69.9c.1-.2 0-.5 0-.7V16.7c-.3-.1-.5-.1-.8-.1H34.6c-.1 0-.3 0-.4.1V87Zm74.7-70.4V87c.2.1.4 0 .6 0h25.6V16.6c-.1 0-.2-.1-.4-.1h-25.4c-.1 0-.2 0-.4.1ZM4 16.6V87h26v-.3c.1-2.4 0-69.7 0-70.2-.1 0-.2-.1-.3-.1H4.3c-.1.1-.2.1-.3.2Zm113.1 82.9c.1-.3.1-.5.1-.7v-7.1c0-.2 0-.4-.2-.6H22.3c-.3 0-.3.1-.4.3v1.8c.2.1.4.1.6.1h19.9c.1 0 .2.1.3.1v3.9c-.1.1-.2.1-.4.1H21.9c-.1.2-.1.5-.1.7v.7c0 .2 0 .5.1.7h95.2ZM21.9 12.3c.2 0 .3.1.4.1h94.6c.2 0 .3-.1.3-.3V4.4c0-.1 0-.2-.1-.2-.2-.1-.4 0-.6 0H21.9v8.1Zm61.5 100.2c.1-.2.1-.4.1-.6v-8.1c0-.1 0-.2-.1-.3H55.6v8.7c0 .1 0 .2.1.2h27.6c0 .2 0 .1.1.1Zm-31.9-8.8c-.2-.2-.4-.2-.6-.2H38.8c-.1 0-.2 0-.3.1v6.3c0 .2.1.3.3.3h11.9c.3 0 .6-.1.8-.3v-6.2Zm49-.1H88.1c-.5 0-.6 0-.6.6v5.9c.2.2.5.3.8.3H100c.4 0 .5-.1.5-.5v-6.3Zm-72 6.4c.2.3.5.3.8.3h4.3c.3 0 .6 0 .8-.2v-6.5h-5.5c-.2 0-.3 0-.4.1v6.3Zm76.2-6.4v6.4c.3.1.5.2.8.2h4.3c.3 0 .6-.1.8-.3v-6.1c0-.3-.1-.4-.4-.4h-5c-.2.2-.4.2-.5.2Zm-86 0v6.1c0 .5 0 .6.6.6h4.9c.2 0 .3-.1.4-.4v-6.3h-5.9Zm96 0c-.1.2-.1.4-.1.6v5.7c0 .2.1.3.3.4h5c.2 0 .3-.1.4-.2v-6.5h-5.6Zm-70.8 30.7c-.5.1-15.8.1-20.8 0h-.3c-.2-.3-.2-.6-.2-.9v-15.7c0-.3 0-.6.2-.8h.3c3.3-.1 13 0 13.5 0 0 .1.1.2.1.3v3.6h-9.1c-.2 0-.4 0-.6.1 0 .1-.1.2-.1.3v2h9.7c.1.1.1.3.1.4v3.6c-.1.1-.3.1-.4.1h-9.4c0 .1-.1.2-.1.2v2.2c0 .1 0 .2.1.2.2.1.3.1.5.1h12.3c.2 0 .3-.1.3-.3v-11.9c0-.2.1-.3.3-.3h3.3c.5 0 .6 0 .6.6v15.2c-.1.5-.1.8-.3 1Zm55.3-6.8c-.2.7-.1 1.4-.1 2.1 0 .2 0 .4.1.6h12.9c.1-.1.1-.3.1-.5v-11.6c0-.3.1-.3.4-.3h3.2c.4 0 .4 0 .4.4v16c0 .1-.1.1-.1.2-.4 0-20.7.1-21.1 0-.1-.2-.2-.4-.2-.6V118c0-.3 0-.6.2-.8.4-.1 13.3-.1 13.8 0 0 .1.1.2.1.3v3.7c-.1 0-.2 0-.2.1h-8.9c-.2 0-.4 0-.5.1-.2.5-.1 1.1-.1 1.7 0 .2 0 .4.1.7h9.6c0 .1.1.2.1.3v3.7c-.2.1-.3 0-.5 0h-8.8c-.2-.3-.3-.3-.5-.3Z" fill="#000"/><path d="M71.4 83.7c-.3.1-3.3.1-3.8 0-.2-.2-.2-.5-.2-.8V62c0-.3 0-.5-.1-.8-.4-.1-.9 0-1.3 0h-4c-.1.2-.1.3-.1.5v7.6c-.1 0-.2.1-.3.1H47.3c-.1-.2 0-.4 0-.5v-7.5H42c-.3 0-.3.1-.4.4v21.4c0 .2 0 .5-.1.7h-3.7c-.3 0-.3-.1-.4-.4v-26c0-.2.1-.3.4-.4h14.5c0-.1.1-.2.1-.3V27.2c.1 0 .2-.1.4-.1h33.6c.2 0 .2.1.3.3v29.5c.1 0 .2.1.3.1h14.3c.2 0 .3.1.3.3v25.5c0 .2 0 .5-.1.7-.1.1-.3.1-.4.1h-3.5c-.1-.1-.1-.3-.1-.4V61.5c0-.2-.1-.3-.3-.3h-5.4c-.1.2-.1.4-.1.6v7.4H77.1c-.1-.2-.1-.3-.1-.5v-7c0-.2 0-.4-.1-.6-.4-.1-5 0-5.4 0-.2.3-.2.6-.2.9v21.1c.2.3.2.5.1.6ZM56.5 31.3v25.4c0 .3.1.3.3.4h25.4c.1 0 .2-.1.2-.2V31.8c0-.5-.1-.5-.5-.5h-5.1c-.1.2 0 .4 0 .6v7.5c-.2.1-.4.1-.6.1H62.4c-.1 0-.2 0-.3-.1v-7.6c0-.2 0-.3-.1-.5h-5.5Zm1.3 30c-.4-.1-6-.1-6.4 0v.4c-.1 1.5 0 3.3.1 3.6.1.1.3 0 .5 0h5.7c.1 0 .2 0 .3-.1-.2-.4-.2-3.6-.2-3.9Zm23.5-.1c0 .1-.1.2-.1.4V65c0 .1 0 .2.1.3h6.2c.1 0 .2 0 .2-.1v-4c-.4-.1-3.5-.1-6 0h-.4Zm-8.6-25.9v-4c-.2-.1-.4 0-.6 0h-5.7c-.1 0-.2 0-.2.1-.1.5 0 3.6 0 4h.3c1.3 0 5.8 0 6.2-.1Z" fill="#FF9B36"/><path d="M53.2 84.6h-8.4c-.2 0-.3 0-.5-.1v-3.9c.1-.1.2-.1.3-.1h8.6c0 .1.1.2.1.4v3.5c-.1 0-.1.1-.1.2Zm29.9-4v4c-.1 0-.2 0-.3.1h-8.4c-.2 0-.2-.1-.2-.3v-3.1c0-.3 0-.5.2-.6.4-.2 8.3-.2 8.7-.1Z" fill="#FF9B36"/><path d="M128.3 34.9c.4-.1 2-.1 3.7-.1h.3V64c0 .1 0 .2-.1.3h-3.5c-.5 0-.5 0-.5-.5V35.3c.1-.1.1-.3.1-.4Zm0-13.7h4v3.9l-.1.1h-3.9v-4Zm4 10.8c-.1 0-.1.1-.1.1h-3.9v-4c.1 0 .1 0 .2-.1h3.9c.1.4 0 .9 0 1.3v1.4c-.1.5 0 .9-.1 1.3ZM27.2 64.4h-3.4c-.5 0-.6 0-.6-.6v-29h3.9v28.9c.3.2.3.4.1.7Zm-3.9-39.1v-4h4v4c-.1 0-.1.1-.2.1h-3.7c.1-.1 0-.1-.1-.1Zm0 6.7v-4h3.9v4h-3.9c.1.1.1.1 0 0ZM88 6h24.4v4H87.9V6.2c.1 0 .1-.1.1-.2ZM74.4 6c.4-.1 3-.1 3.8 0h.2v4h-4c-.1-.5 0-.9 0-1.3V6Zm6.9 0c.4-.1 3.5-.1 4 0 0 .1.1.2.1.2V10h-3.9V6c-.3.1-.3.1-.2 0Z" fill="#000"/><path d="M59.3 54.5v-3.4c0-.5 0-.6.6-.6h8.3c0 .1.1.2.1.3v3.7H60c-.3.2-.5.2-.7 0Z" fill="#FF9B36"/></g><defs><clipPath id="a"><path fill="#fff" d="M0 0h138.9v134.4H0z"/></clipPath></defs></svg>