<svg width="133" height="140" fill="none" xmlns="http://www.w3.org/2000/svg"><path d="M132.109 9.94c-2.725-.2-3.159-.723-3.424-4.385H3.915v128.89h124.842V32.31c0-2.342 1.182-3.588 3.159-3.314.072 0 .144.075.217.1V140H.492C.468 93.217.468 46.608.468 0h131.641v9.94Z" fill="#000"/><path d="M132.109 22.121c-1.278.125-2.435-.124-3.062-1.42-.53-1.046-.41-2.067.265-3.039.7-.996 1.76-1.021 2.821-1.021-.024 1.843-.024 3.662-.024 5.48Z" fill="#000"/><path d="M66.291 127.446H14.575c-.53 0-1.036.025-1.567-.05-1.205-.149-2.146-1.096-2.266-2.366-.048-.524-.048-1.072-.048-1.62V16.517c0-.448-.025-.922.024-1.37.12-1.47 1.06-2.466 2.459-2.59.41-.026.796-.026 1.206-.026H118.2c.483 0 .965-.025 1.447.05 1.157.15 2.073 1.096 2.194 2.292.072.523.048 1.071.048 1.62v108.012c-.072 1.819-1.037 2.84-2.772 2.915-.434.025-.893 0-1.327 0-17.166.025-34.332.025-51.499.025Zm-45.013-5.605V37.816c0-3.936 2.17-6.153 5.98-6.153 1.494 0 2.965-.025 4.46 0 3.158.025 5.448 2.366 5.52 5.63.025.822 0 1.62 0 2.566h12.756c10.85.025 18.999 8.445 18.999 19.68v2.192h28.643c2.507 0 4.87.523 7.015 1.868 4.485 2.815 6.655 6.975 6.655 12.406-.024 14.747 0 29.494 0 44.267v1.569h5.111V18.211H16.143v103.63h5.135Zm84.602-27.178H72.078c-13.55-.025-23.99-10.488-24.375-24.463-.097-3.462-2.219-5.605-5.594-5.63-3.207-.024-6.413 0-9.62 0-3.785 0-5.859 2.168-5.859 6.104v38.911c0 .448.024.872.049 1.295h79.201V94.663ZM37.287 59.015h4.943c2.459-.025 4.629.797 6.654 2.193.458.323 1.085.498 1.64.523 3.809.05 7.618.024 11.428.024h1.494c1.375-8.569-4.629-16.117-12.923-16.291-4.17-.075-8.342-.025-12.513-.025-.217 0-.458.05-.723.1v13.476Zm16.01 13.677h44.169c2.266 0 3.303 1.07 3.303 3.412v12.879h5.183V76.08c-.024-5.405-3.279-8.743-8.51-8.743H52.91c.12 1.893.266 3.562.386 5.356Zm-16.01 49.124h58.081v-5.206H37.287v5.206Zm-5.545-63.05V37.343h-5.063V60.21c1.711-.498 3.35-.971 5.063-1.445Zm52.945 30.267V78.371h-5.039v10.662h5.04Zm5.57-10.712v10.662h5.015V78.321h-5.015ZM74.103 88.983V78.371h-5.111c0 3.313-.024 6.527.024 9.765 0 .3.458.822.723.822 1.423.075 2.87.025 4.364.025ZM63.52 78.371h-8.511c1.953 3.961 4.653 6.8 8.51 8.744v-8.744Zm-36.792 38.164v5.256h5.015v-5.256h-5.015Zm74.114 0v5.256h5.015v-5.256h-5.015Z" fill="#FF9B36"/><path d="M36.636 79.043c-1.471 0-2.653-1.245-2.653-2.765s1.206-2.74 2.7-2.715c1.496 0 2.677 1.245 2.653 2.765-.024 1.52-1.23 2.715-2.7 2.715Zm-.053 13.676c-1.471-.025-2.653-1.296-2.628-2.815.024-1.52 1.23-2.716 2.724-2.69 1.47.024 2.652 1.27 2.604 2.79 0 1.544-1.206 2.74-2.7 2.715Zm11.887 8.171c1.471.025 2.677 1.295 2.653 2.79-.024 1.495-1.278 2.715-2.725 2.715-1.47 0-2.652-1.27-2.628-2.79.024-1.544 1.206-2.74 2.7-2.715Zm35.73.024c1.495.025 2.652 1.271 2.628 2.79-.048 1.545-1.253 2.741-2.724 2.716-1.447-.025-2.676-1.345-2.628-2.815 0-1.52 1.23-2.715 2.724-2.691Zm-32.979-10.96c0 1.52-1.157 2.765-2.652 2.765-1.519.025-2.652-1.146-2.652-2.74 0-1.594 1.085-2.765 2.628-2.765 1.519 0 2.676 1.196 2.676 2.74Zm-14.732 10.96c1.47 0 2.7 1.221 2.7 2.715 0 1.495-1.205 2.765-2.676 2.765-1.447 0-2.676-1.245-2.7-2.74.024-1.519 1.205-2.74 2.676-2.74Zm23.821 5.48c-1.446 0-2.652-1.27-2.652-2.765 0-1.519 1.182-2.715 2.676-2.715 1.471 0 2.677 1.246 2.653 2.765 0 1.495-1.206 2.715-2.677 2.715Zm11.887.001c-1.447-.025-2.652-1.295-2.628-2.815.024-1.519 1.23-2.715 2.724-2.69 1.495.025 2.652 1.246 2.628 2.79-.024 1.545-1.23 2.74-2.724 2.715Zm23.843 0c-1.447 0-2.677-1.271-2.677-2.765 0-1.495 1.23-2.74 2.7-2.716 1.495 0 2.677 1.221 2.653 2.741 0 1.494-1.206 2.74-2.677 2.74Z" fill="#FF9B36"/></svg>