<svg width="139" height="140" fill="none" xmlns="http://www.w3.org/2000/svg"><path d="M.697 0H138.83v139.27c-.478.754-1.219.73-1.96.73H2.37c-2.032 0-2.128-.097-2.128-2.213C.22 92.587.22 47.388.242 2.213.242 1.459.53.729.697 0Zm27.99 28.496v83.032h81.651V28.496H28.687ZM4.33 15.95h130.365V3.72H4.33v12.23Zm0 120.33h130.365v-12.23H4.33v12.23ZM20.942 23.293c-.143.097-.287.194-.406.292v41.333c0 .414.024.803-.024 1.216-.12 1.07-.98 1.848-2.032 1.824-1.028 0-1.912-.827-2.008-1.873-.047-.389-.024-.802-.024-1.215V20.254H4.354v99.492h12.095V75.009c0-.414-.024-.803.023-1.216.12-.973 1.028-1.726 1.984-1.75 1.004 0 1.865.704 2.008 1.701.072.438.024.9.024 1.338v41.382c.143.097.287.17.454.267.86-.996 1.673-2.042 2.606-2.966.693-.705 1.004-1.41 1.004-2.431-.024-21.275-.024-42.55-.024-63.8 0-6.395 0-12.79-.024-19.16 0-.486-.048-1.118-.335-1.458-1.004-1.24-2.127-2.432-3.227-3.623Zm113.729 96.526V20.253h-11.999v99.566h11.999ZM23.858 20.205a3.487 3.487 0 0 0-.263.365c1.196 1.118 2.343 2.26 3.586 3.355.287.243.788.34 1.195.34 27.44.025 54.856.025 82.297 0 .31 0 .741.049.908-.121 1.291-1.216 2.51-2.48 3.968-3.94h-91.69Zm94.607 3.04c-1.171 1.166-2.127 2.163-3.131 3.111-.646.584-.861 1.24-.861 2.116.024 11.33.024 22.636.024 33.966v49.115c0 .462-.024 1.069.239 1.361 1.124 1.264 2.367 2.456 3.729 3.842V23.244Zm-94.87 96.185c.096.098.192.219.287.316h91.356c.096-.146.191-.267.311-.413-.98-.875-2.032-1.678-2.94-2.626-.693-.705-1.387-1.021-2.39-1.021-21.943.024-43.886.024-65.828.024-5.283 0-10.565 0-15.872.025-.454 0-1.004.073-1.314.34-1.267 1.07-2.414 2.237-3.61 3.355Z" fill="#000"/><path d="M70.302 107.492c-3.633-.024-6.023-1.094-7.983-3.087-7.1-7.173-14.175-14.37-21.274-21.567-1.888-1.92-3.752-3.841-5.64-5.762-3.682-3.793-3.682-10.407.023-14.175 6.191-6.322 12.43-12.62 18.644-18.941 2.75-2.796 5.498-5.617 8.247-8.413 3.991-4.06 10.397-4.06 14.365-.024 6.143 6.249 12.286 12.522 18.453 18.795 2.749 2.796 5.522 5.592 8.27 8.388 3.968 4.06 3.944 10.577-.024 14.613A18508.253 18508.253 0 0 0 82.086 99.03c-1.864 1.897-3.68 3.818-5.593 5.617-1.96 1.872-4.302 2.869-6.19 2.844Zm31.934-37.443c-.072-1.92-.86-3.501-2.199-4.839a13167.88 13167.88 0 0 1-25.695-26.137c-3.084-3.16-6.621-3.137-9.705.048-2.988 3.088-6 6.128-8.987 9.191-5.617 5.714-11.258 11.404-16.852 17.142-2.7 2.771-2.677 6.394.024 9.166 2.654 2.723 5.33 5.446 7.984 8.145 5.928 6.03 11.88 12.036 17.783 18.065 3.18 3.259 6.693 3.259 9.872-.024 3.036-3.136 6.12-6.224 9.179-9.36 5.57-5.666 11.138-11.307 16.684-16.972 1.219-1.216 1.84-2.699 1.912-4.425Z" fill="#FF9B36"/><path d="M65.99 77.009c4.39 2.828 9.985-.287 10.165-5.605.083-2.218.062-4.454.042-6.673-.01-.98-.018-1.955-.018-2.924 0-.906.004-1.813.008-2.722.01-2.277.02-4.563-.032-6.844-.077-3.903-3.01-6.84-6.722-6.787-3.652.053-6.538 2.957-6.564 6.818-.048 6.3-.024 12.624 0 18.92 0 2.474 1.062 4.482 3.12 5.817Zm2.032-7.01c.085.183.19.368.302.55.188.303.417.629.632.934l.243.349c.288.417.49.744.565.968-.514.117-.907-.008-1.184-.266-.308-.287-.541-.808-.552-1.567a313.72 313.72 0 0 1-.006-.968Z" fill="#FF9B36" stroke="#FF9B36"/><path d="M63.983 87.87c-.023-3.379 2.797-6.272 6.096-6.297 3.322-.024 6.167 2.82 6.19 6.2.024 3.404-2.748 6.25-6.095 6.273-3.37.05-6.167-2.771-6.19-6.175Zm4.183 1.954c1.1.025-1.252 1.094-1.228 0 .048-1.045 2.28.025 1.228 0-1.027-.024-.648-.488-.672.557-.024 1.119-.403-.581.672-.557Z" fill="#FF9B36"/></svg>