<svg width="153" height="126" fill="none" xmlns="http://www.w3.org/2000/svg"><path d="M.075 91.776h.193a5.8 5.8 0 0 1 .043-.436c.011-.065.033-.163.076-.195.15-.11.16-.272.225-.414.108-.24.333-.424.355-.718.268 0 .214-.424.493-.402-.042-.294.376-.218.366-.49.247-.076.365-.348.622-.402.076-.011.205-.022.205-.055.064-.283.29-.228.472-.26.043-.012.129-.012.14-.044.118-.283.365-.207.58-.24.236-.032.472 0 .665-.196.054-.054.194-.054.29-.054.226-.01.451-.01.677-.01.182 0 .28-.088.28-.273V53.09c0-.26-.044-.532.139-.772.043-.065.032-.174.032-.26l.032-.762c0-.076-.01-.163.022-.229.075-.141.171-.282.247-.424.075-.141-.022-.38.236-.413.021 0 .054-.076.064-.12.054-.174.054-.392.29-.435-.01-.316.387-.261.451-.522.011-.055.172-.098.269-.098.172 0 .204-.12.225-.261.118-.022.258-.022.365-.066.108-.054.194-.152.312-.25.193-.01.419-.032.644-.032.183-.011.344-.022.483-.163.076-.077.226-.088.355-.088.558-.01 1.106 0 1.664 0h9.193c.16 0 .225-.087.236-.228.01-.152.01-.305.01-.457V32.236c0-.272-.042-.554.14-.805.054-.076.043-.217.043-.337.022-.272.022-.533.043-.805 0-.076.011-.207.043-.218.312-.108.215-.391.269-.587.3-.261.526-.555.633-.903.269-.163.537-.326.784-.49.043-.032.043-.12.065-.184.204-.044.45 0 .569-.272.021-.055.204-.044.311-.066.14-.021.29.022.387-.163.043-.076.215-.109.333-.12.3-.021.601-.021.902-.021h22.906V4.615c0-.283 0-.565.032-.837.022-.142.118-.272.15-.414.043-.185.076-.37.097-.555.022-.195.01-.391.269-.413.01-.065.021-.098.021-.141.032-.174-.01-.403.258-.436-.022-.282.365-.271.365-.533.236-.032.258-.337.472-.38.022 0 .065-.011.065-.022.086-.326.376-.261.601-.316a2.45 2.45 0 0 1 .108-.25c.182-.01.365-.022.537-.043.14-.011.268 0 .354-.163.032-.066.172-.098.258-.098.225-.022.45-.011.676-.011h83.303c.161.01.301.032.451.13.161.11.397.12.612.153.183.032.387-.022.462.228.011.022.032.054.054.054.193-.01.29.196.429.229.269.076.473.272.623.446.14.163.365.304.419.566.021.12.032.26.204.282.021 0 .064.033.054.044-.054.37.322.577.333.914.01.544.053 1.099.053 1.642.011 2.492 0 4.983 0 7.463 0 .294-.021.588-.032.881-.011.261.032.523-.215.718-.075.055-.064.207-.107.316-.022.054-.065.12-.108.13-.118.022-.171.066-.193.185-.011.055-.096.087-.15.13-.043.023-.129.023-.129.055-.086.316-.344.229-.558.261-.14.022-.28 0-.409.153-.118.141-.365.185-.483.065-.236-.25-.526-.207-.805-.24-.022 0-.054-.01-.097-.021-.075-.087-.054-.283-.279-.283-.086 0-.204-.163-.269-.272-.139-.207-.397-.337-.418-.63-.011-.11-.118-.208-.172-.316-.032-.076-.075-.153-.086-.229-.011-.228-.011-.457-.011-.685V4.887c-.043-.054-.054-.065-.064-.076-.011-.01-.022-.01-.032-.022-.054-.01-.097-.021-.151-.021H112.34c-.054 0-.097.021-.194.032-.01.142-.032.283-.032.435v16.242c.172.011.312.022.462.022h6.69c.204 0 .408 0 .602.01.15.012.279.023.419.131.139.098.343.12.526.142.225.032.462-.011.59.25.28.011.387.294.634.38.258.099.462.295.591.567.053.108.053.239.214.293.065.022.054.218.119.25.311.175.257.48.322.751 0 .022.01.055.021.076.312.261.226.62.226.958.01 3.894.01 7.789.01 11.683v3.83c0 .196.033.402.043.642h1.386c.107.326.343.326.623.337.064.283.311.294.569.326.075.109.032.327.257.294.022 0 .086.065.086.098.011.12.054.185.183.206.054.011.086.098.129.153.032.043.064.141.096.141.194.033.194.185.205.316.01.185.085.304.279.326.01.174.021.326.043.479.01.098.01.25.075.282.247.153.193.392.204.61.011.294.011.587.011.88v23.728h7.485V23.61c0-.239-.011-.489.01-.728.011-.207-.064-.446.194-.566.032-.01.043-.087.053-.142.043-.424.408-.641.623-.946.086-.12.365-.054.333-.326.161-.011.29-.011.43-.033.064-.01.15-.032.193-.087.279-.261.591-.261.859-.01.054.054.15.075.236.086.183.022.376.033.559.055.075.12.064.293.268.283.033 0 .086.065.118.108.022.033.011.109.022.109.354.065.258.479.494.631.054.033.075.152.075.24.022.424.054.837.054 1.261v45.452c0 .195.01.402.021.63.204.011.376.033.559.033 1.138.011 2.266 0 3.404.011.193 0 .408-.065.505.218.01.043.15.043.236.065.225.043.526-.065.623.272.311-.022.386.413.709.38.042 0 .118.055.128.11.033.108.086.173.204.195.043.011.086.076.119.12.042.054.064.163.107.174.172.054.204.207.215.326.021.185.107.272.257.294.076.24 0 .522.29.642.043.022.033.163.043.25.022.305-.01.631.076.914.193.642.139 1.284.139 1.936.011 3.895 0 7.79 0 11.684 0 .783.118.62.634.631.279.01.558-.022.816.185.107.087.311.054.472.076.226.033.484-.054.612.25.022.055.183.044.28.066.129.021.257.01.279.184 0 .033.043.088.064.088.312-.044.43.304.698.348.011 0 .033.01.033.01.075.164.214.24.333.349.096.087.161.206.289.282.097.066.065.283.269.305.032 0 .032.141.075.196.075.12.011.326.236.348.033 0 .043.13.076.196.064.13.139.26.204.38.032.055.075.099.085.153.065.533.151 1.055.162 1.588.021 1.023.01 2.045.01 3.068v24.085c0 .446.011.893-.021 1.339-.022.402-.097.805-.161 1.207-.011.054-.065.098-.097.152-.032.033-.086.066-.097.109-.085.218-.096.468-.332.588.01.304-.301.424-.376.685-.247.022-.258.315-.473.403-.139.065-.29.228-.408.369a.625.625 0 0 1-.397.229c-.054.011-.151.032-.161.065-.033.239-.226.207-.376.229-.129.01-.247.021-.29.184-.011.044-.118.088-.183.088-.161.021-.322.021-.494.043-.139.022-.311.011-.397.098-.172.196-.376.163-.591.174H4.886c-.215 0-.408 0-.59-.174-.108-.098-.333-.076-.505-.109-.215-.043-.473.076-.612-.239-.043-.087-.301-.076-.494-.109-.032-.163-.15-.261-.344-.272-.118-.011-.258-.022-.29-.196 0-.032-.043-.076-.064-.076-.15-.022-.237-.087-.28-.25-.021-.065-.225-.076-.236-.131-.032-.195-.193-.195-.279-.293-.086-.098-.097-.283-.28-.305-.02 0-.042-.087-.053-.131-.043-.163-.021-.359-.258-.413-.032-.011-.032-.109-.064-.163-.064-.131-.15-.25-.204-.392a1.446 1.446 0 0 1-.107-.424c-.011-.163-.043-.272-.226-.283.075-10.095.075-20.18.075-30.264Zm86.631-32.941c.075.163.097.37.215.457.129.098.14.185.16.304.022.12.022.294.097.348.183.131.183.294.194.468.01.392.01.794.01 1.186v26.207c.537.098 23.905.076 24.206-.022v-10.4c0-1.349 0-2.709.011-4.058 0-.228-.011-.457.215-.62.043-.032.053-.13.064-.206.021-.131.021-.25.032-.37.086-.044.161-.087.236-.12.022-.163.054-.316.076-.468.107-.065.29-.043.279-.25 0-.033.075-.087.118-.12l.161-.163c.043-.043.097-.087.14-.141.053-.055.107-.11.161-.174.043-.044.086-.12.118-.11.204.012.182-.173.236-.282.161-.022.322-.044.494-.065.032-.087.065-.163.097-.25.15-.011.29-.011.419-.022.096-.011.247-.011.279-.076.161-.262.408-.207.633-.207 2.406 0 4.811 0 7.217-.011.193 0 .397-.022.601-.033V46.074c-.257-.01-.494-.043-.73-.043-8.301 0-16.602 0-24.903-.011-.473 0-.956.13-1.397-.229-.15-.12-.375-.13-.558-.293-.172-.164-.344-.316-.494-.5-.161-.197-.333-.382-.3-.675.01-.066-.087-.142-.13-.218-.14-.25-.128-.511-.032-.761.043-.12.13-.24.161-.37.065-.229-.021-.522.301-.62.022-.011.032-.066.032-.11 0-.108.065-.151.161-.162.043-.011.118-.066.118-.11.022-.151.097-.184.226-.184a.187.187 0 0 0 .129-.065c.129-.261.365-.24.59-.24.827-.01 1.665-.01 2.492-.021h.408c.354-.37.269-.806.269-1.208 0-2.774 0-5.537.01-8.311 0-.381-.032-.73-.333-1.012H80.542c-.494 0-.977-.022-1.471-.033-.118 0-.301 0-.355-.076-.129-.185-.3-.207-.483-.228-.054-.011-.15-.044-.15-.077-.033-.184-.183-.174-.312-.228-.086-.033-.215-.076-.247-.141-.053-.11-.096-.153-.215-.174-.053-.011-.085-.098-.128-.153-.033-.043-.065-.13-.097-.13-.172-.022-.183-.142-.204-.272-.022-.174-.14-.261-.258-.37-.097-.087-.086-.305-.129-.468a.13.13 0 0 0-.053-.054c-.15-.055-.15-.185-.15-.316-.012-.522-.044-1.044-.044-1.566V5.507c0-.12-.01-.228 0-.348.022-.185-.075-.293-.236-.337a2.419 2.419 0 0 0-.483-.044h-21.66c-.623 0-.666-.12-.666.664v21.214c0 .12-.011.228.01.348.011.087.043.163.065.26h11.619c.312 0 .634 0 .945.023.086 0 .236.043.258.097.064.185.204.164.333.174l.515.033c.043.098.086.185.118.261.183.022.333.044.44.066.087.108.13.25.194.25.15.021.226.076.247.228 0 .033.065.065.108.076.214.066.225.36.45.414-.02.195.183.185.237.283.075.12.075.293.118.435.01.021.021.054.043.054.247.054.172.272.215.424.032.12.01.294.086.36.225.195.182.456.193.696.01.293.01.587.01.88v24.804c0 .13.011.272.022.403h7.754V45.802c0-.348 0-.685.01-1.033 0-.12.011-.294.075-.36.226-.206.183-.478.226-.74.075-.032.15-.075.225-.108.033-.163.054-.326.086-.511.301.054.215-.392.505-.381-.032-.315.462-.207.376-.533.408-.022.634-.424 1.031-.413.01 0 .021-.011.032-.022.097-.261.312-.218.505-.218 2.201-.01 4.414-.021 6.615-.021.204 0 .408 0 .602.032.118.011.236.076.343.13.118.066.236.153.387.25-.043.24.408.197.376.501.29.087.236.348.279.555.032.152.053.305.172.446.118.13.096.36 0 .544-.065.12-.13.25-.15.38-.044.23.02.49-.28.6-.021.01-.01.075-.032.108-.129.152-.247.326-.408.446-.204.152-.387.37-.688.348-.032 0-.075.065-.107.087-.086.044-.161.109-.247.12-.225.022-.451.022-.677.022h-4.123c-.193 0-.398.021-.602.032v11.15c.194.012.365.023.548.023.644.01 1.289 0 1.922.021.13 0 .355.011.387.077.107.217.29.174.451.217.075.022.204.022.204.054.075.327.365.207.483.262.387.359.698.674.999.968Zm-19.373 43.558H40.862c-.28 0-.559-.011-.827-.022-.097-.01-.183-.054-.269-.097-.118-.055-.236-.131-.354-.185-.065-.033-.183-.044-.194-.087-.032-.24-.397-.196-.386-.457-.236-.022-.183-.294-.312-.359-.214-.12-.204-.305-.214-.479-.011-.348-.011-.685-.011-1.033 0-.164-.022-.36.043-.49.075-.152.28-.218.29-.424.311-.153.419-.588.816-.642.021 0 .064-.054.064-.087.022-.174.15-.174.28-.185.354-.011.708-.022 1.063-.022h107.496c.097 0 .194-.01.312-.022v-4.721a13.524 13.524 0 0 0-.365-.413c-.29-.011-.612-.055-.935-.055H5.842c-.333 0-.677.033-1.042.055.033.26-.29.26-.279.51.01.219 0 .436 0 .654v3.48c0 .164.01.327.022.512H31.12c.086.326.355.294.602.337-.011.196.15.229.258.327.107.098.128.304.3.304.054.207.054.436.161.522.14.11.161.218.172.349.01.293.01.587 0 .881 0 .098-.032.239-.097.272-.14.076-.16.185-.16.315-.011.305-.28.446-.44.631-.173.185-.388.403-.699.381-.021 0-.054.022-.054.043-.043.218-.225.185-.365.196-.29.022-.58.022-.87.022H18.782c-.16 0-.311.011-.472.011v9.062h.322c16.216-.011 32.431-.011 48.647-.022.011 0 .022-.011.032-.022a.881.881 0 0 0 .033-.032c-.011-2.981-.011-5.962-.011-9.008Zm-20.415-14.62V62.141c0-.577.065-1.153.022-1.719-.032-.49.354-.816.386-1.262.204-.054.183-.326.333-.402.215-.11.237-.392.473-.457 0-.207.268-.13.279-.229.043-.228.225-.185.354-.26.247-.153.484-.327.795-.338.032 0 .075-.044.075-.065.054-.174.194-.142.312-.153.408-.01.805-.021 1.213-.021h13.08c.215 0 .419-.022.666-.033V32.584c0-.076-.01-.152 0-.228.043-.24-.107-.359-.258-.468-.086-.054-.215-.065-.322-.065h-4.993c-.108 0-.215.022-.355.033-.01.206-.043.402-.043.587v5.44c0 .282 0 .565-.01.837 0 .087-.011.229-.054.25-.269.13-.194.381-.226.599-.021.108-.032.304-.075.315-.226.054-.182.24-.247.38-.097.197-.226.37-.344.556-.29-.044-.214.435-.526.37-.097.282-.354.282-.58.315a7.055 7.055 0 0 0-.096.228c-.322.088-.71-.087-.892.338H44.996c-.215 0-.43-.011-.644-.011-.194 0-.387-.011-.408-.261-.15-.011-.28-.011-.398-.033-.075-.01-.172-.022-.204-.065-.129-.218-.343-.229-.537-.294a.802.802 0 0 0-.193-.228c-.15-.142-.354-.25-.44-.425-.097-.195-.387-.228-.365-.5-.258-.022-.204-.24-.247-.402-.022-.088-.086-.164-.13-.25-.053-.099-.117-.186-.139-.294-.032-.131-.021-.283-.021-.425-.011-1.795-.022-3.6-.022-5.396v-1.153c0-.098-.021-.217-.086-.272-.172-.152-.343-.272-.612-.272-4.779.011-9.547.011-14.326.011h-.418c-.033.174-.076.316-.076.446V48.13h6.465c.183 0 .376-.022.516.163.043.066.182.077.279.077.215.021.43.021.644.043.075.01.183.022.204.065.118.272.376.207.602.272.01.37.333.218.494.316.053.098.086.228.16.25.14.043.173.174.237.228.236.153.28.381.365.61.01.021.032.043.054.043.172.022.16.152.182.283.022.109.065.25.14.305.14.098.129.228.15.37.022.282-.01.587.086.826.13.316.14.62.14.936v34.496c.01.403.032.435.44.435h9.483c.16.011.332-.043.547-.076Zm101.752 28.295H4.521v4.536c.01.261.28.555.548.577.3.021.601.021.902.021h141.807c.183-.01.376-.021.58-.043.032-.076.032-.185.086-.207.301-.119.247-.37.247-.598v-3.862c0-.131-.011-.272-.021-.424ZM31.712 87.783c.075-.457.054-34.507-.021-34.78-.387-.086-20.888-.075-21.178.023v34.779c.44.087 20.92.076 21.199-.022Zm38.67-7.223c-.074-.218-.096-.425-.214-.523-.129-.108-.15-.217-.161-.348-.022-.206.021-.446-.075-.598-.215-.316-.204-.653-.204-.99V74c0-.522-.011-1.045.01-1.567 0-.185 0-.413.097-.555.118-.174.183-.348.15-.533-.075-.435.237-.728.355-1.088.29-.12.182-.587.548-.652.01 0 .021-.044.021-.066 0-.12.054-.174.183-.195.053-.011.096-.087.14-.142.042-.043.074-.13.107-.13.343.01.461-.403.794-.392.194-.272.473-.25.752-.261.215-.01.483.044.634-.054.279-.207.569-.164.87-.164h7.936c.171 0 .343-.021.526-.043v-6.342c-.42-.088-31.09-.066-31.358.01-.075.61-.043 25.696.032 25.99H82.82c.085-.566.053-5.113-.043-5.429h-8.678c-.43 0-.86-.01-1.29-.032-.106 0-.29-.011-.321-.066-.108-.217-.312-.185-.484-.239-.053-.022-.15-.022-.171-.054-.13-.261-.398-.338-.612-.48-.28-.184-.505-.402-.623-.695-.033-.174-.14-.218-.215-.261ZM80.81 26.318h18.332c.343-.01.386-.065.408-.402.032-.533.053-1.066.096-1.6.011-.108.033-.282.097-.315.193-.098.161-.26.215-.413.032-.087.096-.163.15-.24.043-.065.086-.141.14-.206.032-.044.064-.12.107-.13.118-.023.172-.077.183-.207.01-.044.064-.11.118-.12.225-.055.225-.38.483-.38.011-.23.193-.218.333-.218.204 0 .279-.12.322-.283.215-.022.408-.033.591-.044.075-.01.182-.01.215-.054.171-.272.44-.218.676-.218 1.246-.01 2.492 0 3.737-.01.129 0 .269-.012.398-.023.01-.108.021-.173.021-.239V4.986c0-.055-.011-.099-.021-.153 0-.011-.011-.022-.022-.033-.011-.01-.021-.022-.021-.032-.494-.087-26.278-.055-26.558.032v21.518Zm5.058 85.126h49.034v-9.018H85.868v9.018Zm18.257-85.147c-.011.152-.022.271-.022.38v14.208c0 .185.054.37.075.544h14.831c.096-1.012.032-2.024.043-3.024.01-1.012 0-2.013 0-3.025v-9.083h-14.927Zm38.584 61.486c.011-.098.022-.196.022-.294V74.74c0-.163-.022-.326-.032-.49h-3.276c-.01.197-.043.37-.043.545v2.567c0 .305.086.631-.171.903-.054.055-.043.174-.043.261-.022.207-.033.403-.054.61-.011.076-.011.195-.054.206-.204.087-.182.283-.236.446-.022.055-.032.142-.064.163-.237.153-.355.414-.527.62-.086.098-.172.229-.29.273-.247.087-.333.391-.623.402-.096.218-.289.196-.472.228-.129.022-.311.022-.387.11-.118.14-.257.151-.408.151-.268.011-.526.022-.794.022h-11.491c-.279 0-.558-.01-.827-.022-.086 0-.204 0-.247-.054-.161-.185-.376-.185-.591-.207-.096-.01-.268-.021-.279-.065-.064-.24-.268-.196-.419-.25-.214-.076-.3-.326-.515-.403.032-.228-.29-.13-.29-.282.011-.229-.215-.174-.258-.24-.053-.206-.053-.446-.139-.478-.269-.098-.204-.316-.237-.5-.01-.055-.01-.131-.032-.142-.322-.142-.225-.424-.236-.664-.011-1.207-.011-2.426-.011-3.633 0-.174-.011-.349-.021-.577-1.182.011-2.331-.022-3.501.022v13.544c.408.087 26.224.076 26.546-.022Zm5.961 23.661v-8.996c-.398-.087-8.925-.066-9.225.01v8.986h9.225Zm-134.924-9.018H4.543v8.997c.515.076 8.945.054 9.203-.022v-8.975Zm58.355 9.018h8.989v-9.04h-6.014c-.988 0-1.976-.022-2.975.022v9.018Zm-17.687-79.23c-.225-.38-.548-.391-.891-.391-2.406.01-4.811.01-7.217.01h-.462c-.021.197-.053.349-.053.501v4.667c0 .163.032.316.043.5h7.925c.472 0 .644-.173.644-.663v-2.644c.011-.685.011-1.36.011-1.98Zm20.093 40.774c-.011.141-.033.24-.033.337v4.178c0 .109.033.217.043.315.795.076 8.065.044 8.334-.032v-4.787c-2.792-.011-5.542-.011-8.344-.011Zm49.721 4.2h10.384c.065-.98.054-1.948.011-2.916-.537-.076-10.084-.055-10.427.032 0 .936-.054 1.882.032 2.883Z" fill="#000"/><path d="M117.486 62.926c-.194.076-.451.044-.494.337-.226.055-.505-.01-.623.283-.011.033-.14.044-.215.044-.215.01-.43.01-.644.01H97.07c-.203 0-.407 0-.6-.01-.183-.011-.387.043-.462-.218-.011-.032-.108-.054-.161-.054a3.14 3.14 0 0 0-.355-.044c-.075-.108-.043-.326-.268-.282-.022 0-.054-.011-.065-.033-.043-.152-.086-.294-.279-.294-.075-.304-.386-.5-.354-.87.043-.403.01-.816.021-1.219 0-.12-.01-.26.161-.304.032-.011.086-.065.086-.109.032-.207.161-.348.3-.5.151-.164.29-.305.506-.338.01 0 .032 0 .032-.01.193-.381.558-.24.859-.283.183-.033.376-.011.57-.011h18.32c.279 0 .558 0 .827.021.268.022.569-.021.741.273.279-.033.29.348.537.37.064.271.418.38.375.717-.01.12.022.283.108.36.258.26.118.576.129.87 0 .043-.033.108-.065.12-.129.054-.129.173-.15.282-.043.153 0 .337-.226.435-.086.044-.107.294-.171.457Zm-.27-7.562a8.834 8.834 0 0 1-.484.076c-.032.077-.075.153-.129.272h-8.677c-.15 0-.3.011-.451-.021-.107-.022-.193-.098-.29-.142-.086-.043-.161-.098-.236-.141-.032-.022-.107-.022-.107-.033 0-.261-.365-.207-.376-.446-.258-.065-.215-.424-.473-.511-.043-.011-.064-.152-.075-.24-.011-.5-.011-.99 0-1.49 0-.13.022-.261.183-.294.032-.01.075-.043.075-.076.011-.174.107-.24.236-.337.097-.076.129-.272.312-.283.053-.272.408-.196.494-.446.021-.054.182-.065.279-.065.236-.011.483-.022.719-.022h7.55c.193 0 .376.033.569.01.236-.032.322.186.494.262.161.076.397 0 .44.261.258.054.269.348.473.468.075.043.096.196.118.305.032.195.043.391.215.543.139.131.053.707-.054.892a.969.969 0 0 0-.14.381c-.043.196-.021.414-.257.511-.011.273-.376.283-.408.566ZM59.022 14.177a1.957 1.957 0 0 1-.097-.25c-.107-.022-.215-.022-.311-.054-.086-.033-.15-.098-.226-.163a1.273 1.273 0 0 0-.247-.174c-.118-.185-.075-.48-.354-.577-.01 0-.01-.022-.01-.033.042-.348-.216-.609-.27-.924-.02-.13.054-.294.097-.436.022-.054.097-.097.108-.152.043-.185 0-.446.107-.544a.926.926 0 0 0 .269-.435c.01-.022 0-.065.021-.076.172-.13.333-.272.505-.392.129-.087.354-.021.419-.26.01-.044.182-.066.279-.066.462-.01.934-.01 1.396 0 .14 0 .311-.022.365.185a.13.13 0 0 0 .054.054c.236.055.43.13.612.337.215.24.45.49.515.784.032.152.108.293.194.435.096.163.085.783 0 .957-.076.142-.14.294-.194.435-.053.175 0 .392-.257.447-.033.206-.172.293-.355.37-.043.021-.043.13-.064.195-.172.022-.322.055-.473.076-.032.076-.075.153-.118.25-.655.011-1.31.011-1.965.011Zm2.536 6.343c-.14.021-.29.043-.451.065-.032.076-.075.152-.118.25h-1.965c-.033-.087-.076-.163-.108-.25-.096-.011-.193-.033-.29-.044-.118-.01-.204-.043-.247-.184-.032-.088-.16-.131-.279-.218-.054-.152-.043-.413-.3-.511-.022-.011-.033-.044-.033-.066.032-.304-.129-.555-.247-.816-.075-.174-.021-.348.065-.51a1.82 1.82 0 0 0 .15-.37c.043-.164-.01-.36.215-.436.053-.022.075-.13.096-.196.033-.141.14-.206.226-.304a.912.912 0 0 1 .612-.349c.225-.37.59-.228.902-.26.28-.022.558-.011.827.01.172.011.387-.043.473.207.01.033.107.043.171.054.161.055.365.033.387.283.268.011.258.327.462.435.075.033.107.185.129.294.043.196.118.37.204.555.14.283.15.63-.022.946-.054.098-.161.207-.15.294.053.36-.29.522-.365.805-.011.022-.065.033-.097.055-.161.076-.161.076-.247.26Zm-38.553 49.4c-.075.032-.214.065-.214.108-.011.175-.097.229-.258.262-.043.01-.075.141-.118.239a5.51 5.51 0 0 0-.344.054c-.054.011-.15.033-.161.066-.054.239-.236.195-.387.195-.365.011-.73 0-1.116 0-.065-.337-.333-.282-.58-.315-.086-.098-.054-.337-.29-.305-.022 0-.075-.076-.075-.108.01-.196-.162-.164-.247-.218-.086-.207-.022-.468-.269-.598-.043-.022-.054-.163-.054-.25-.01-.425-.021-.838-.021-1.263V65.7c-.247.01-.451-.055-.57.207-.02.054-.128.087-.193.087h-1.653c-.13 0-.194-.077-.28-.196-.085-.13-.279-.174-.397-.337-.064-.088-.193-.142-.236-.283-.01-.055-.14-.077-.215-.12-.054-.207-.01-.468-.268-.588-.022-.01-.043-.065-.043-.097.01-.381.01-.762.032-1.143 0-.076.075-.152.129-.217.021-.033.086-.044.086-.066 0-.293.214-.467.343-.685.065-.109.13-.141.226-.207.129-.087.236-.228.354-.337.236-.228.44-.478.741-.642.172-.098.28-.293.43-.435.16-.152.333-.294.504-.446.14-.13.269-.283.42-.424.171-.152.29-.36.504-.479.14-.076.15-.315.365-.315-.01-.261.355-.218.355-.468.247-.087.354-.403.655-.413.128 0 .236-.033.322-.164.043-.065.172-.097.268-.108.28-.011.559-.011.827 0 .118 0 .258 0 .311.163.011.032.054.076.086.065.312-.022.494.207.72.348a.615.615 0 0 1 .118.12c.032.043.064.141.097.141.182 0 .182.174.268.261.075.087.28.066.269.261.236.033.268.316.472.403.161.076.269.25.398.38.085.099.182.164.29.24.096.076.075.272.257.261.236.37.709.479.934.86.258.021.269.38.516.413.032.24.29.294.408.468.14.206.3.37.322.642.451.391.204.913.247 1.381.01.098 0 .196-.118.25-.043.022-.054.11-.086.153-.096.13.022.359-.215.446-.14.054-.118.337-.343.337-.011.294-.42.196-.462.468-.01.032-.129.054-.204.065-.537.01-1.085.01-1.622 0-.064 0-.171-.033-.193-.076-.118-.261-.344-.207-.58-.229-.01.142-.021.261-.021.392 0 .947 0 1.893-.011 2.829 0 .195 0 .391-.183.543-.182.153-.182.338-.247.512Zm35.21 6.364c-.14-.142-.237-.229-.312-.327a.893.893 0 0 1-.129-.217c-.053-.141-.01-.337-.236-.392-.043-.01-.064-.152-.064-.24-.011-.478 0-.967 0-1.457.322-.076.268-.359.332-.598.13-.044.29-.076.28-.283.279-.065.386-.413.708-.402.183 0 .376-.022.494-.207.033-.044.14-.055.204-.055.194-.01.376-.01.57-.01.171 0 .343-.022.472.163a.305.305 0 0 0 .236.087c.355-.066.527.283.806.37.053.272.419.337.408.652 0 .044.021.12.043.142.247.108.193.326.204.522.01.294.01.587 0 .881-.01.196.054.446-.215.544-.032.01-.032.087-.043.142-.064.163-.043.391-.29.424-.053.283-.365.228-.483.38-.204.262-.44.207-.687.25a.924.924 0 0 0-.365.164c-.162.12-.387.141-.484.033-.215-.229-.472-.196-.73-.229-.075-.01-.15-.01-.247-.022-.064-.293-.333-.272-.472-.315Zm1.64-6.027h-.795c-.086 0-.215.011-.258-.032-.14-.142-.343-.229-.45-.36-.097-.108-.215-.152-.29-.239-.087-.098-.076-.272-.258-.272-.054-.293-.387-.435-.366-.772.022-.326 0-.664 0-.99 0-.174-.021-.36.183-.457.054-.033.075-.13.097-.207.032-.141.032-.272.225-.337.118-.043.14-.304.344-.315.032-.261.258-.229.419-.283.043-.022.129-.011.14-.044.139-.283.407-.196.633-.206.28-.011.558-.011.827 0 .182.01.386-.033.494.184.01.022.064.022.096.044.14.087.365-.022.44.218.044.163.344.12.323.359.3.032.215.391.44.51.075.033.097.208.108.316.01.436.01.87 0 1.295a.474.474 0 0 1-.194.413c-.118.098-.204.305-.343.435-.183.164-.29.436-.58.468-.011 0-.033 0-.033.011-.171.435-.547.229-.837.283-.108 0-.236-.022-.365-.022Z" fill="#000"/><path d="M86.707 58.835c.076.163.097.37.215.457.129.098.14.185.161.305.022.12.022.294.097.348.182.13.182.294.193.468.01.391.01.794.01 1.186v26.206c.538.098 23.906.076 24.206-.021v-10.4c0-1.35 0-2.71.011-4.058 0-.229-.011-.457.215-.62.043-.033.054-.13.064-.207.022-.13.022-.25.033-.37.085-.043.161-.087.236-.12.021-.163.054-.315.075-.467.107-.066.29-.044.279-.25 0-.033.075-.088.118-.12l.161-.163c.043-.044.097-.087.14-.142.054-.054.107-.109.161-.174.043-.043.086-.12.118-.109.204.011.183-.174.236-.282l.494-.066c.033-.087.065-.163.097-.25.15-.01.29-.01.419-.022.097-.01.247-.01.279-.076.161-.261.408-.207.634-.207 2.405 0 4.811 0 7.216-.01.194 0 .398-.022.602-.033V46.075c-.258-.011-.494-.044-.731-.044-8.301 0-16.602 0-24.903-.01-.473 0-.956.13-1.396-.23-.15-.119-.376-.13-.559-.293-.171-.163-.343-.315-.494-.5-.16-.196-.332-.381-.3-.675.01-.065-.086-.141-.13-.217-.139-.25-.128-.512-.031-.762.043-.12.129-.24.16-.37.065-.228-.02-.522.301-.62.022-.01.033-.065.033-.109 0-.108.064-.152.16-.163.044-.01.119-.065.119-.109.021-.152.096-.185.225-.185a.186.186 0 0 0 .13-.065c.128-.261.364-.24.59-.24.827-.01 1.664-.01 2.491-.021h.408c.355-.37.269-.805.269-1.208 0-2.774 0-5.537.01-8.31 0-.382-.032-.73-.332-1.012H80.544c-.495 0-.978-.022-1.472-.033-.118 0-.3 0-.354-.076-.13-.185-.301-.207-.484-.229-.053-.01-.15-.043-.15-.076-.032-.185-.183-.174-.312-.228-.085-.033-.214-.076-.247-.142-.053-.109-.096-.152-.214-.174-.054-.01-.086-.098-.13-.152-.031-.044-.063-.13-.096-.13-.172-.023-.182-.142-.204-.273-.021-.174-.14-.26-.257-.37-.097-.087-.086-.304-.13-.467a.13.13 0 0 0-.053-.055c-.15-.054-.15-.185-.15-.315-.011-.522-.043-1.045-.043-1.567V5.508c0-.12-.011-.229 0-.348.021-.185-.076-.294-.237-.337a2.42 2.42 0 0 0-.483-.044h-21.66c-.623 0-.666-.12-.666.664v21.213c0 .12-.01.229.01.348.011.087.044.163.065.261h11.62c.311 0 .633 0 .945.022.085 0 .236.044.257.098.065.185.204.163.333.174l.516.033c.043.098.086.185.118.26.182.023.333.044.44.066.086.109.129.25.193.25.15.022.226.076.247.229 0 .032.065.065.108.076.215.065.225.359.45.413-.02.196.183.185.237.283.075.12.075.294.118.435.011.022.022.055.043.055.247.054.172.272.215.424.032.12.01.294.086.359.225.196.182.457.193.696.01.294.01.588.01.881v24.804c0 .13.012.272.022.402h7.754V45.803c0-.348 0-.686.01-1.034 0-.12.011-.294.076-.359.225-.206.182-.478.225-.74.076-.032.15-.076.226-.108.032-.163.053-.327.086-.512.3.055.214-.391.504-.38-.032-.316.462-.207.376-.534.408-.021.634-.424 1.031-.413.011 0 .022-.01.033-.022.096-.26.31-.217.504-.217 2.202-.011 4.414-.022 6.615-.022.204 0 .409 0 .602.033.118.01.236.076.343.13.118.066.237.153.387.25-.043.24.408.196.376.5.29.088.236.349.28.556.031.152.053.304.17.446.12.13.098.359 0 .544a1.28 1.28 0 0 0-.15.38c-.042.229.022.49-.279.599-.021.01-.01.076-.032.108-.129.153-.247.327-.408.447-.204.152-.386.37-.687.348-.032 0-.075.065-.108.087-.085.043-.16.108-.247.12-.225.021-.45.021-.676.021h-4.124c-.193 0-.397.022-.601.033v11.15c.193.011.365.022.547.022.645.011 1.29 0 1.923.022.129 0 .354.01.386.076.108.218.29.174.451.218.076.021.204.021.204.054.076.326.366.207.484.261.386.36.698.675.998.968ZM31.71 87.784c.075-.457.054-34.508-.021-34.78-.387-.087-20.887-.076-21.177.022v34.78c.44.086 20.92.076 21.198-.022Z" fill="#F47400"/><path d="M117.482 62.926c-.194.076-.451.044-.494.337-.226.055-.505-.01-.623.283-.011.033-.14.044-.215.044-.215.01-.43.01-.644.01H97.067c-.204 0-.408 0-.601-.01-.183-.011-.387.043-.462-.218-.01-.032-.108-.054-.161-.054a3.134 3.134 0 0 0-.355-.044c-.075-.108-.043-.326-.268-.282-.022 0-.054-.011-.064-.033-.044-.152-.087-.294-.28-.294-.075-.304-.386-.5-.354-.87.043-.403.01-.816.021-1.219 0-.12-.01-.26.161-.304.033-.011.086-.065.086-.109.032-.207.161-.348.301-.5.15-.164.29-.305.505-.338.01 0 .032 0 .032-.01.193-.381.558-.24.86-.283.182-.033.375-.011.568-.011h18.321c.279 0 .558 0 .827.021.268.022.569-.021.741.273.279-.033.29.348.537.37.064.271.418.38.376.717-.011.12.021.283.107.36.258.26.118.576.129.87 0 .043-.032.108-.065.12-.129.054-.129.173-.15.282-.043.153 0 .337-.226.435-.085.044-.107.294-.171.457Zm-.266-7.562a8.834 8.834 0 0 1-.484.076c-.032.077-.075.153-.129.272h-8.677c-.15 0-.3.011-.451-.021-.107-.022-.193-.098-.29-.142-.086-.043-.161-.098-.236-.141-.032-.022-.107-.022-.107-.033 0-.261-.365-.207-.376-.446-.258-.065-.215-.424-.473-.511-.043-.011-.064-.152-.075-.24-.011-.5-.011-.99 0-1.49 0-.13.022-.261.183-.294.032-.01.075-.043.075-.076.011-.174.107-.24.236-.337.097-.076.129-.272.312-.283.053-.272.408-.196.494-.446.021-.054.182-.065.279-.065.236-.011.483-.022.719-.022h7.55c.193 0 .376.033.569.01.236-.032.322.186.494.262.161.076.397 0 .44.261.258.054.269.348.473.468.075.043.096.196.118.305.032.195.043.391.215.543.139.131.053.707-.054.892a.969.969 0 0 0-.14.381c-.043.196-.021.414-.257.511-.011.273-.376.283-.408.566ZM59.022 14.177a1.957 1.957 0 0 1-.097-.25c-.107-.022-.215-.022-.311-.054-.086-.033-.15-.098-.226-.163a1.273 1.273 0 0 0-.247-.174c-.118-.185-.075-.48-.354-.577-.01 0-.01-.022-.01-.033.042-.348-.216-.609-.27-.924-.02-.13.054-.294.097-.436.022-.054.097-.097.108-.152.043-.185 0-.446.107-.544a.926.926 0 0 0 .269-.435c.01-.022 0-.065.021-.076.172-.13.333-.272.505-.392.129-.087.354-.021.419-.26.01-.044.182-.066.279-.066.462-.01.934-.01 1.396 0 .14 0 .311-.022.365.185a.13.13 0 0 0 .054.054c.236.055.43.13.612.337.215.24.45.49.515.784.032.152.108.293.194.435.096.163.085.783 0 .957-.076.142-.14.294-.194.435-.053.175 0 .392-.257.447-.033.206-.172.293-.355.37-.043.021-.043.13-.064.195-.172.022-.322.055-.473.076-.032.076-.075.153-.118.25-.655.011-1.31.011-1.965.011Zm2.528 6.343c-.14.021-.29.043-.45.065-.033.076-.076.152-.119.25h-1.965c-.032-.087-.075-.163-.108-.25-.096-.011-.193-.033-.29-.044-.118-.01-.204-.043-.247-.184-.032-.088-.16-.131-.279-.218-.053-.152-.043-.413-.3-.511-.022-.011-.033-.044-.033-.066.033-.304-.129-.555-.247-.816-.075-.174-.021-.348.065-.51a1.82 1.82 0 0 0 .15-.37c.043-.164-.01-.36.215-.436.054-.022.075-.13.097-.196.032-.141.14-.206.225-.304a.912.912 0 0 1 .612-.349c.226-.37.59-.228.902-.26.28-.022.559-.011.827.01.172.011.387-.043.473.207.01.033.107.043.171.054.162.055.366.033.387.283.269.011.258.327.462.435.075.033.107.185.129.294.043.196.118.37.204.555.14.283.15.63-.022.946-.053.098-.16.207-.15.294.054.36-.29.522-.365.805-.01.022-.065.033-.097.055-.16.076-.16.076-.247.26Zm-38.545 49.4c-.075.032-.214.065-.214.108-.011.175-.097.229-.258.262-.043.01-.075.141-.118.239a5.51 5.51 0 0 0-.344.054c-.054.011-.15.033-.161.066-.054.239-.236.195-.387.195-.365.011-.73 0-1.116 0-.065-.337-.333-.282-.58-.315-.086-.098-.054-.337-.29-.305-.022 0-.075-.076-.075-.108.01-.196-.162-.164-.247-.218-.086-.207-.022-.468-.269-.598-.043-.022-.054-.163-.054-.25-.01-.425-.021-.838-.021-1.263V65.7c-.247.01-.451-.055-.57.207-.02.054-.128.087-.193.087h-1.653c-.13 0-.194-.077-.28-.196-.085-.13-.279-.174-.397-.337-.064-.088-.193-.142-.236-.283-.01-.055-.14-.077-.215-.12-.054-.207-.01-.468-.268-.588-.022-.01-.043-.065-.043-.097.01-.381.01-.762.032-1.143 0-.076.075-.152.129-.217.021-.033.086-.044.086-.066 0-.293.214-.467.343-.685.065-.109.13-.141.226-.207.129-.087.236-.228.354-.337.236-.228.44-.478.741-.642.172-.098.28-.293.43-.435.16-.152.333-.294.504-.446.14-.13.269-.283.42-.424.171-.152.29-.36.504-.479.14-.076.15-.315.365-.315-.01-.261.355-.218.355-.468.247-.087.354-.403.655-.413.128 0 .236-.033.322-.164.043-.065.172-.097.268-.108.28-.011.559-.011.827 0 .118 0 .258 0 .311.163.011.032.054.076.086.065.312-.022.494.207.72.348a.615.615 0 0 1 .118.12c.032.043.064.141.097.141.182 0 .182.174.268.261.075.087.28.066.269.261.236.033.268.316.472.403.161.076.269.25.398.38.085.099.182.164.29.24.096.076.075.272.257.261.236.37.709.479.934.86.258.021.269.38.516.413.032.24.29.294.408.468.14.206.3.37.322.642.451.391.204.913.247 1.381.01.098 0 .196-.118.25-.043.022-.054.11-.086.153-.096.13.022.359-.215.446-.14.054-.118.337-.343.337-.011.294-.42.196-.462.468-.01.032-.129.054-.204.065-.537.01-1.085.01-1.622 0-.064 0-.171-.033-.193-.076-.118-.261-.344-.207-.58-.229-.01.142-.021.261-.021.392 0 .947 0 1.893-.011 2.829 0 .195 0 .391-.183.543-.182.153-.182.338-.247.512Z" fill="#000"/></svg>