<svg width="126" height="126" fill="none" xmlns="http://www.w3.org/2000/svg"><path d="M.907 0h124.265v125.027c-.43.677-1.097.655-1.763.655H2.412c-1.827 0-1.913-.087-1.913-1.986-.022-40.577-.022-81.154 0-121.71C.499 1.31.757.655.907 0Zm25.18 25.582v74.54H99.54v-74.54H26.087ZM4.176 14.319h117.276V3.339H4.176v10.98Zm0 108.024h117.276v-10.98H4.176v10.98ZM19.12 20.911a5.38 5.38 0 0 0-.366.262v37.106c0 .371.022.72-.021 1.092-.108.96-.882 1.658-1.828 1.637-.924 0-1.72-.742-1.806-1.681-.043-.35-.021-.72-.021-1.091V18.182H4.197V107.5h10.88V67.338c0-.371-.021-.72.022-1.092.107-.873.925-1.55 1.785-1.571.903 0 1.677.633 1.806 1.528.064.392.021.807.021 1.2v37.15c.13.088.259.153.409.24.774-.895 1.505-1.833 2.344-2.663.623-.633.903-1.266.903-2.182-.022-19.1-.022-38.198-.022-57.275 0-5.741 0-11.482-.021-17.2 0-.437-.043-1.005-.301-1.31-.903-1.113-1.914-2.183-2.903-3.252Zm102.311 86.654V18.182h-10.795v89.383h10.795ZM21.743 18.139c-.086.109-.172.218-.236.327 1.075 1.004 2.107 2.03 3.225 3.012.258.218.71.306 1.075.306 24.686.022 49.35.022 74.035 0 .279 0 .666.043.817-.11 1.161-1.09 2.258-2.226 3.569-3.535H21.743Zm85.109 2.728c-1.054 1.048-1.914 1.943-2.817 2.794-.581.524-.774 1.113-.774 1.899.021 10.171.021 20.321.021 30.493v44.091c0 .415-.021.961.215 1.223 1.011 1.135 2.129 2.204 3.355 3.448V20.867Zm-85.345 86.349c.086.088.172.197.258.284h82.184c.086-.131.172-.24.279-.371-.881-.786-1.827-1.506-2.645-2.357-.623-.633-1.247-.917-2.15-.917-19.74.022-39.48.022-59.219.022-4.752 0-9.504 0-14.278.021-.408 0-.903.066-1.182.306-1.14.96-2.172 2.008-3.247 3.012Z" fill="#000"/><path d="M63.523 96.5c-3.268-.023-5.418-.983-7.181-2.773-6.387-6.439-12.752-12.9-19.138-19.36-1.699-1.725-3.376-3.45-5.075-5.174-3.311-3.405-3.311-9.342.022-12.725 5.57-5.675 11.181-11.329 16.772-17.004 2.473-2.51 4.946-5.042 7.419-7.552 3.59-3.645 9.353-3.645 12.923-.022 5.526 5.61 11.052 11.241 16.6 16.873 2.473 2.51 4.967 5.02 7.44 7.53 3.57 3.645 3.548 9.495-.022 13.118a16219.742 16219.742 0 0 0-19.159 19.492c-1.677 1.703-3.311 3.427-5.031 5.042-1.764 1.681-3.87 2.576-5.57 2.554Zm28.728-33.615c-.064-1.724-.774-3.143-1.978-4.344a11839.43 11839.43 0 0 1-23.115-23.464c-2.774-2.838-5.957-2.816-8.73.044-2.688 2.772-5.398 5.5-8.086 8.25-5.053 5.13-10.128 10.237-15.16 15.389-2.43 2.488-2.408 5.74.022 8.229 2.387 2.444 4.795 4.889 7.182 7.312 5.333 5.413 10.687 10.804 15.998 16.218 2.86 2.924 6.021 2.924 8.881-.022 2.73-2.816 5.505-5.588 8.257-8.404 5.01-5.086 10.02-10.15 15.01-15.235 1.096-1.092 1.655-2.423 1.72-3.973Z" fill="#F47400"/><path d="m59.617 69.176.001.001c3.983 2.56 9.057-.262 9.22-5.074.076-1.992.057-4.002.039-5.994-.008-.879-.016-1.755-.016-2.623 0-.813.003-1.627.007-2.442.008-2.045.017-4.098-.03-6.147-.069-3.53-2.73-6.19-6.097-6.143-3.312.048-5.93 2.678-5.954 6.171-.044 5.657-.022 11.334 0 16.987 0 2.238.963 4.057 2.83 5.264Zm1.907-6.122c.055.103.115.206.178.307.17.274.377.568.57.843l.218.31c.236.343.404.611.482.803-.42.08-.739-.03-.963-.239-.264-.246-.471-.698-.481-1.37l-.004-.654Z" fill="#F47400" stroke="#F47400"/><path d="M57.84 78.884c-.022-3.034 2.516-5.631 5.483-5.653 2.99-.022 5.548 2.532 5.57 5.566.02 3.056-2.473 5.61-5.484 5.632-3.032.043-5.547-2.489-5.569-5.545Zm3.763 1.754c.99.022-1.127.982-1.105 0 .043-.938 2.051.022 1.105 0-.925-.022-.584-.438-.605.5-.021 1.004-.363-.522.605-.5Z" fill="#F47400"/></svg>