<svg width="126" height="126" fill="none" xmlns="http://www.w3.org/2000/svg"><path d="M.91.001h124.264v125.027c-.43.677-1.097.655-1.763.655H2.414c-1.827 0-1.913-.087-1.913-1.986C.479 83.12.479 42.543.5 1.987.5 1.311.759.656.909.001Zm25.179 25.582v74.54h73.454v-74.54H26.089ZM4.177 14.32h117.277V3.34H4.177v10.98Zm0 108.024h117.277v-10.98H4.177v10.98ZM19.122 20.912a5.179 5.179 0 0 0-.366.262V58.28c0 .371.022.72-.021 1.091-.108.961-.882 1.66-1.828 1.638-.924 0-1.72-.742-1.806-1.681-.043-.35-.022-.72-.022-1.092V18.184H4.2v89.318h10.88V67.339c0-.371-.021-.72.022-1.092.107-.873.925-1.55 1.785-1.571.903 0 1.677.633 1.806 1.528.064.392.021.807.021 1.2v37.15c.13.088.258.153.409.24.774-.895 1.505-1.833 2.344-2.663.623-.633.903-1.266.903-2.182-.022-19.1-.022-38.198-.022-57.275 0-5.741 0-11.482-.021-17.2 0-.437-.043-1.005-.301-1.31-.903-1.113-1.914-2.183-2.903-3.252Zm102.311 86.654V18.183h-10.795v89.383h10.795ZM21.745 18.14c-.086.109-.172.218-.236.327 1.075 1.004 2.107 2.03 3.225 3.012.258.218.71.306 1.075.306 24.686.022 49.35.022 74.035 0 .279 0 .666.043.817-.11 1.161-1.09 2.258-2.226 3.569-3.535H21.745Zm85.109 2.728c-1.054 1.048-1.914 1.943-2.817 2.794-.581.524-.774 1.113-.774 1.899.021 10.172.021 20.321.021 30.493v44.091c0 .415-.021.961.215 1.222 1.011 1.136 2.129 2.205 3.355 3.449V20.868Zm-85.345 86.349c.086.088.172.197.258.284h82.184c.086-.131.172-.24.279-.371-.881-.786-1.827-1.506-2.645-2.357-.623-.633-1.247-.917-2.15-.917-19.74.022-39.48.022-59.219.022-4.752 0-9.504 0-14.278.021-.408 0-.903.066-1.182.306-1.14.96-2.172 2.008-3.247 3.012Z" fill="#000"/></svg>