<svg width="167" height="129" fill="none" xmlns="http://www.w3.org/2000/svg"><path d="M61.23 25.242h-7.938c-.117 0-.175.059-.292.059 0 .116-.059.175-.059.233v27.143c0 .058.059.116.059.233.058 0 .175.059.233.059h32.805c.058 0 .117-.059.233-.059 0-.058.059-.175.059-.233V25.534c0-.058-.059-.175-.059-.233-.116 0-.233-.059-.35-.059H78.45c-.117 0-.234.059-.409.059v11.265c0 .584-.233 1.05-.584 1.518-.583.7-1.284 1.05-2.218 1.109-.642 0-1.109-.234-1.634-.467-1.226-.584-2.393-1.226-3.62-1.81-.233-.116-.408-.116-.583 0l-1.05.526c-.818.408-1.635.817-2.51 1.226-.35.175-.76.408-1.168.467-.642.116-1.226.058-1.81-.292-.933-.526-1.517-1.285-1.517-2.335V26.235a4.593 4.593 0 0 1-.117-.993Zm-16.751 83.413c.116-.292.058-.642.058-.934V81.454c0-.175-.058-.292-.058-.467-.175 0-.35-.058-.526-.058h-7.18c-.175 0-.291.058-.525.058v10.915c0 .467 0 .876-.292 1.284-.175.292-.408.642-.642.876-.233.292-.642.35-.934.584-.35.233-.7.175-1.05.175-.292 0-.584 0-.876-.117-1.05-.467-2.043-.992-3.035-1.518-.467-.233-.934-.408-1.401-.7-.117-.058-.292-.058-.35 0-.234.233-.526.233-.76.35-.933.584-1.984.993-2.976 1.576-.292.175-.642.35-.992.35-.642.059-1.285.117-1.927-.233-.817-.467-1.517-1.343-1.517-2.276v-10.45c0-.292.058-.584-.117-.876-.175 0-.292-.058-.409-.058h-7.296c-.175 0-.292.058-.467.117v27.376c0 .117.058.175.058.292a.443.443 0 0 0 .234.058h32.688c.117.059.175 0 .292-.058Z" fill="#F47400"/><path d="M83.526 114.375c.059-1.226-.525-3.152-1.109-4.086a8.72 8.72 0 0 0-3.093-3.093c-1.11-.643-2.977-1.168-4.203-1.11-2.277.117-4.261.876-5.896 2.569-1.517 1.576-2.276 3.502-2.393 5.72-.058 1.226.526 3.152 1.168 4.203.758 1.284 1.75 2.335 3.035 3.035 1.284.701 2.685 1.168 4.203 1.109 2.218-.058 4.202-.875 5.837-2.51 1.634-1.634 2.335-3.619 2.451-5.837Z" fill="#fff"/><path d="M47.339 25.183V22.09c0-.641.7-1.75 1.401-2.1.467-.234.992-.35 1.518-.35H89.19c.876 0 1.635.35 2.16 1.05.292.35.584.992.584 1.4v1.402c0 .175.058.35.116.642.7-1.693 1.518-3.152 2.277-4.67-.526-.584-1.168-.817-1.751-1.226l-2.102-1.226c-.934-.525-1.81-1.109-2.743-1.634-.642-.409-1.284-.759-1.926-1.167-.234-.117-.409-.176-.642-.176H69.579c-.934 0-1.693-.466-2.219-1.167-.291-.35-.525-.817-.525-1.343V2.827c0-.875.35-1.634 1.05-2.16.41-.291.876-.583 1.402-.583h19.087c1.518 0 1.226-.117 2.86.817 1.926 1.109 3.736 2.276 5.604 3.386 1.576.933 3.152 1.867 4.786 2.801.759.467 1.46.876 2.218 1.343a54.66 54.66 0 0 1 2.277-1.635c1.226-.817 2.451-1.576 3.736-2.218a28.534 28.534 0 0 1 2.334-1.109c.467-.233.934-.467 1.46-.583.467-.117.875-.35 1.284-.526.35-.116.759-.116 1.051-.35.642-.058 1.167-.467 1.809-.525.175 0 .292-.059.467-.117.058 0 .117-.117.234-.117.758 0 1.4-.408 2.159-.408.175 0 .409 0 .526-.059.467-.233 1.05-.233 1.517-.292.409-.058.759-.116 1.168-.175.35-.058.7-.116.992-.116a59.972 59.972 0 0 1 6.479 0c.292 0 .584.058.876.116l1.226.175c.467.059.933 0 1.4.234.176.058.351.058.526.117.408.058.817 0 1.167.233.059 0 .117.058.175.058.526.059.993.234 1.518.35.759.176 1.518.468 2.218.701.467.175.992.292 1.459.467.526.234 1.109.409 1.635.7.992.468 2.043.993 3.035 1.518 1.751.934 3.386 2.043 4.962 3.21 2.276 1.693 4.261 3.62 6.129 5.78.758.875 1.517 1.809 2.159 2.801.818 1.226 1.693 2.452 2.335 3.794.409.818.876 1.518 1.226 2.335.292.642.642 1.284.817 1.985.117.467.35.875.526 1.284.116.35.291.759.408 1.109.175.584.292 1.167.467 1.751l.175.526c.059.116.117.175.117.291 0 .526.117.993.35 1.46 0 .992.467 1.926.409 2.977 0 .116 0 .291.058.408.292 1.168.292 2.277.292 3.444v3.152c0 .817-.058 1.635-.233 2.452-.059.35-.117.759-.117 1.109-.059.467-.059.934-.234 1.4-.058.176-.058.35-.058.526 0 .409-.058.759-.234 1.167-.058.117-.058.234-.058.409-.058.35 0 .7-.233.992-.059.059-.059.117-.059.175-.117.993-.525 1.927-.817 2.86-.584 1.518-1.167 3.036-1.926 4.495-.642 1.226-1.284 2.393-1.985 3.502-1.576 2.51-3.385 4.729-5.428 6.771a37.383 37.383 0 0 1-4.962 4.145c-1.459 1.05-2.977 1.926-4.495 2.743-.758.409-1.517.76-2.276 1.11-.7.291-1.401.525-2.101.758-.351.117-.759.234-1.109.409-.526.292-1.109.233-1.635.584-.117.058-.233.058-.408.058-.234.058-.526.117-.759.233-.234.117-.584.117-.876.175-.292.059-.408.176-.467.468v14.184c0 .175-.058.408.117.642.233.058.467 0 .7-.117.351-.175.759-.234 1.168-.234h7.121c.409 0 .817.059 1.226.234.409.175.876.117 1.226.467 1.401.525 2.51 1.46 3.444 2.627a8.712 8.712 0 0 1 1.401 2.86c.291.875.291 1.693.291 2.568v19.73c0 .467-.058.934-.233 1.401-.175.408-.234.875-.409 1.284-.583 1.342-1.459 2.451-2.568 3.385-.7.584-1.576.934-2.393 1.343-.759.058-1.46.408-2.218.408-2.102-.058-4.203 0-6.363 0-.642 0-1.284.059-1.868-.291-.467 0-.875-.234-1.284-.409a7.944 7.944 0 0 1-2.918-2.101c-.759-.818-1.285-1.752-1.693-2.802-.059-.759-.467-1.401-.409-2.16.059-.876 0-1.809 0-2.685v-.642c-.467-.117-.934-.058-1.342-.058h-4.086c0 .233-.059.408-.059.583v2.86c0 .467 0 .876-.233 1.285-.175.35-.175.817-.35 1.167-.584 1.401-1.518 2.51-2.685 3.502-.701.584-1.518.876-2.277 1.284-.759.059-1.518.409-2.335.409-2.16-.058-4.319 0-6.479 0-.525 0-1.051-.058-1.518-.233-.408-.176-.875-.234-1.284-.409a8.51 8.51 0 0 1-2.918-2.043 7.911 7.911 0 0 1-1.693-2.86 6.783 6.783 0 0 1-.467-2.452v-20.138c0-1.284.408-2.451.992-3.619.701-1.342 1.693-2.393 2.977-3.21.642-.409 1.343-.642 2.043-.934.992-.35 2.043-.35 3.035-.35h5.137c.642 0 1.284 0 1.868.291.175.059.35.059.525.059.234-.234.117-.526.117-.7v-14.01c-.058-.293-.175-.468-.525-.526-.584-.117-1.226-.175-1.81-.409-.875-.35-1.809-.467-2.685-.934-.292-.175-.7-.116-.934-.35-1.459-.467-2.802-1.167-4.144-1.868a26.852 26.852 0 0 1-3.502-2.16c-.643-.466-1.343-.933-1.985-1.4-.175-.117-.292-.175-.525-.175H90.3l-3.852 3.502c-2.16 1.984-4.32 3.91-6.48 5.895-.525.467-.992.934-1.459 1.401-.292.234-.233.467 0 .7.7.643 1.401 1.343 2.102 1.985 1.867 1.693 3.735 3.327 5.603 5.02 1.05.934 2.043 1.926 3.094 2.86.292.292.642.526.992.876h4.437c.933 0 1.692.409 2.218 1.109.291.408.525.817.525 1.343v25.624c-.059.993-.642 1.81-1.518 2.335-.467.234-.875.292-1.342.292h-8.172c-.467.525-.993.992-1.46 1.518-.642.7-1.4 1.284-2.218 1.809-.758.467-1.459.993-2.334 1.168-.468.35-1.11.35-1.635.583-.175.059-.35.059-.525.117-.234.059-.467 0-.642.117-.409.233-.876.233-1.284.233h-2.394c-.408 0-.817 0-1.167-.233-.058-.058-.175-.058-.234-.058-.7.058-1.284-.292-1.926-.467-.35-.059-.7-.234-1.05-.409-1.868-.817-3.503-1.985-4.845-3.561-.175-.233-.409-.408-.584-.642-.058-.058-.117-.175-.175-.233H2.802c-1.226 0-2.043-.526-2.627-1.635-.058-.525-.175-.875-.175-1.225v-8.639c0-.993.642-1.868 1.518-2.335.408-.234.758-.292 1.225-.292h2.744c.058-.175.058-.35.117-.467v-30.06c-.059-.992.408-1.693 1.109-2.277.35-.291.759-.525 1.284-.525h39.575c.818-.058 1.985.759 2.394 1.518.175.467.292.875.292 1.342v30.412c.467.233.933.116 1.342.116.409 0 .817.059 1.284-.058.117-.292.059-.584.059-.876V94.704c0-1.051.525-1.81 1.459-2.335.467-.234.934-.35 1.46-.35.525 0 1.05-.059 1.575-.059.467-.35.876-.759 1.343-1.109.992-.934 2.043-1.868 3.035-2.802 2.393-2.218 4.845-4.378 7.238-6.596.526-.467.526-.642 0-1.109-1.576-1.46-3.152-2.86-4.728-4.32a200.76 200.76 0 0 1-3.736-3.443c-.992-.934-2.043-1.868-3.093-2.86H39.109c-1.168 0-1.927-.526-2.452-1.576-.175-.35-.292-.7-.292-1.051V55.478c.059-.934.642-1.751 1.46-2.218.466-.234.933-.35 1.459-.35h7.296c.292 0 .584.058.817-.059.117-.7.117-2.51 0-3.152l-.116-.116c-.76-.176-1.576-.292-2.277-.526-.7-.233-1.46-.175-2.101-.525-.175-.058-.35-.058-.526-.058l-.7-.176c-.117-.058-.233-.116-.35-.116-.409-.059-.817-.059-1.226-.292-.759 0-1.46-.409-2.218-.467-.175 0-.409-.059-.525-.117-.292-.175-.642-.175-.993-.233-.35-.059-.7-.234-1.05-.292-.35-.059-.76 0-1.051-.234-.059-.058-.175-.058-.234-.058-.467-.058-.934-.117-1.4-.292-.76 0-1.46-.409-2.219-.467-.233 0-.408-.117-.583-.175-.175-.058-.35-.117-.526-.117-.35-.058-.758-.058-1.05-.233-.409-.117-.584-.117-.76-.117-.291-.058-.641 0-.875-.233-.058-.059-.175-.059-.233-.059-.467-.058-.934-.117-1.343-.292-.759 0-1.459-.408-2.218-.467-.233 0-.409-.117-.584-.175-.175-.058-.35-.117-.525-.117-.35-.058-.7-.058-.992-.233-.117-.058-.234-.058-.409-.058-.117 0-.292 0-.408-.059-.35-.117-.7-.233-1.051-.292-.35-.058-.759 0-1.05-.233-.06-.058-.176-.058-.293-.058-.408-.059-.817-.176-1.225-.292-.76-.234-1.518-.35-2.335-.526-.175-.058-.35-.116-.526-.116-.175-.059-.408-.117-.583-.176-.35-.058-.7-.058-.993-.291-.058-.059-.116-.059-.175-.059-.583 0-1.05-.233-1.634-.35-1.11-.233-2.16-.7-3.152-1.226-1.81-.992-3.327-2.335-4.495-4.027a8.704 8.704 0 0 1-1.342-2.51c-.175-.467-.409-.993-.584-1.46-.058-.175-.117-.35-.117-.525-.058-.175 0-.409-.117-.525C0 30.029 0 29.386 0 28.744v-.817c0-.934.35-1.576 1.05-2.16.41-.35.876-.584 1.402-.584h43.72c.35.059.7.059 1.167 0ZM156.552 56.53c.233-.467.525-.876.758-1.343a17.41 17.41 0 0 0 .934-1.81c.292-.583.526-1.108.759-1.692l.35-1.05c.175-.468.292-.935.467-1.402.292-.758.467-1.517.642-2.276.176-.642.351-1.343.351-1.985 0-.058 0-.116.058-.175.234-.35.234-.817.234-1.226.058-.467.058-.875.116-1.342.059-.35.117-.7.175-.992 0-1.226.059-2.51.059-3.736 0-.35 0-.7-.117-1.051-.175-.642-.175-1.226-.233-1.868 0-.292 0-.642-.117-.934-.117-.35-.175-.7-.234-1.109 0-.175 0-.292-.058-.467-.175-.7-.467-1.342-.584-2.043-.175-.934-.584-1.81-.817-2.685-.175-.7-.584-1.342-.876-1.985a30.355 30.355 0 0 0-1.867-3.619c-1.109-1.809-2.394-3.56-3.853-5.136a36.794 36.794 0 0 0-5.02-4.495 22.007 22.007 0 0 0-3.152-1.984c-.642-.35-1.342-.7-1.985-1.051-.933-.467-1.867-.817-2.801-1.226-.292-.117-.584-.292-.876-.35a16.916 16.916 0 0 1-2.276-.7c-.117-.059-.234-.059-.409-.059-.759-.117-1.518-.467-2.335-.467h-.058c-.526-.292-1.051-.233-1.635-.292-.35 0-.758-.058-1.109-.116a5.11 5.11 0 0 0-.934-.117h-4.261c-.233 0-.525 0-.759.117a4.037 4.037 0 0 1-1.167.175c-.584 0-1.226 0-1.809.291-.759 0-1.518.292-2.219.41-.175.057-.35.057-.525.116-.992.292-1.985.642-2.977.934-.467.175-.875.35-1.284.525-.584.292-1.167.584-1.751.817-.817.292-1.576.76-2.277 1.168-.934.583-1.867 1.167-2.801 1.868-.701.583-1.46 1.109-2.16 1.692-2.102 1.868-4.028 3.97-5.604 6.304-1.342 1.985-2.393 4.086-3.385 6.246-.175.35-.292.7-.409 1.05l-.525 1.577c-.175.642-.467 1.226-.584 1.868-.117.759-.467 1.459-.409 2.218 0 .058 0 .175-.058.233-.233.35-.175.76-.233 1.168-.059.467 0 .934-.117 1.4a7.248 7.248 0 0 0-.175 1.577v3.035c0 .642 0 1.284.233 1.868.059.117.059.292.059.467.058.7-.059 1.4.291 2.101 0 .7.175 1.343.409 1.985v.058c.175.584.234 1.226.467 1.81.234.467.175 1.05.525 1.459.117.759.526 1.46.817 2.218.35.934.876 1.81 1.343 2.744.234.408.525.817.817 1.284.234-.059.409-.117.526-.234 1.109-.642 2.159-1.342 3.268-2.043.818-.525 1.576-.992 2.335-1.517.993-.642 1.985-1.226 2.977-1.868 1.109-.642 2.16-1.343 3.269-1.985.409-.233.817-.525 1.284-.7.934-.409 1.81-.993 2.802-1.226.817-.467 1.751-.642 2.627-.992.525-.176 1.05-.35 1.576-.41.116 0 .175-.057.292-.116.175-.058.408-.117.583-.175.234-.058.467 0 .642-.058.526-.292 1.109-.234 1.693-.292.175 0 .409 0 .525-.058.584-.234 1.226-.234 1.868-.234h3.736c1.343-.058 2.627.409 3.911.409.058 0 .117 0 .175.058.35.233.817.233 1.226.233.117 0 .292 0 .408.059.584.35 1.285.292 1.868.584.526.233 1.109.291 1.635.525l2.101.875c1.284.526 2.452 1.226 3.677 1.868 1.635.934 3.269 2.043 4.904 3.036 1.926 1.225 3.911 2.451 5.895 3.677.409.292.642.584 1.168.584ZM103.2 61.2c.175.233.234.408.35.525a30.637 30.637 0 0 0 5.721 4.903c.934.642 1.926 1.226 2.918 1.81 1.051.583 2.219 1.05 3.269 1.634.35.175.701.292 1.051.35l1.576.525c.7.234 1.459.467 2.16.642.642.117 1.284.35 1.926.35.058 0 .117 0 .175.06.409.233.876.233 1.284.233.467.058.934.058 1.401.116.467.059.876.175 1.343.175h3.502c.35 0 .7-.058 1.051-.116.525-.059 1.05-.175 1.576-.175.934 0 1.809-.467 2.743-.409.058 0 .117 0 .175-.058.292-.175.584-.175.934-.234.175 0 .292-.058.467-.117.584-.175 1.168-.408 1.693-.583.35-.117.759-.234 1.109-.35.467-.176.934-.234 1.342-.468.643-.35 1.285-.583 1.868-.933a35.579 35.579 0 0 0 4.086-2.394c1.868-1.225 3.561-2.685 5.137-4.32.35-.35.759-.7.992-1.225-.175-.117-.292-.292-.467-.409-.759-.408-1.517-.934-2.218-1.4-1.401-.876-2.86-1.693-4.261-2.569a195.213 195.213 0 0 0-4.553-2.86c-1.109-.642-2.16-1.226-3.327-1.634-.292-.292-.7-.234-.992-.409-.526-.292-1.109-.409-1.635-.525-.759-.175-1.459-.526-2.218-.526-.058 0-.117 0-.175-.058-.35-.175-.759-.175-1.167-.233-.409-.059-.818 0-1.168-.117a5.76 5.76 0 0 0-1.401-.175h-2.685c-.233 0-.467 0-.7.058-.526.175-1.109.175-1.635.233-.291 0-.642.059-.934.117-.291.059-.583.117-.817.175-.292.059-.583.175-.934.234-.175.058-.292.117-.467.117-.583.058-1.05.467-1.634.467-.584.291-1.167.467-1.751.7a37.042 37.042 0 0 0-3.386 1.751c-1.05.642-2.101 1.343-3.152 1.985-1.868 1.167-3.677 2.335-5.545 3.444-.992.642-1.751 1.167-2.627 1.692ZM61.231 25.241h-7.938c-.117 0-.175.058-.292.058 0 .117-.058.175-.058.234v27.142c0 .059.058.117.058.234.058 0 .175.058.233.058H86.04c.058 0 .117-.058.234-.058 0-.059.058-.175.058-.234V25.534c0-.059-.058-.175-.058-.234-.117 0-.234-.058-.35-.058H78.45c-.117 0-.234.058-.409.058v11.266c0 .584-.233 1.05-.583 1.517-.584.7-1.285 1.051-2.219 1.11-.642 0-1.109-.234-1.634-.468-1.226-.583-2.393-1.225-3.619-1.809-.233-.117-.408-.117-.584 0l-1.05.525c-.817.409-1.635.817-2.51 1.226-.35.175-.76.409-1.168.467-.642.117-1.225.059-1.81-.292-.933-.525-1.517-1.284-1.517-2.335V26.234c-.058-.292-.117-.584-.117-.992ZM44.48 108.654c.117-.292.058-.642.058-.934V81.453c0-.175-.058-.292-.058-.467-.175 0-.35-.058-.526-.058h-7.18c-.174 0-.291.058-.525.058v10.916c0 .467 0 .875-.291 1.284-.175.292-.409.642-.642.875-.234.292-.642.35-.934.584-.35.234-.7.175-1.051.175-.292 0-.584 0-.876-.116-1.05-.467-2.043-.993-3.035-1.518-.467-.234-.934-.409-1.4-.7-.118-.059-.293-.059-.351 0-.233.233-.525.233-.759.35-.934.583-1.985.992-2.977 1.576-.292.175-.642.35-.992.35-.642.058-1.284.117-1.926-.234-.818-.467-1.518-1.342-1.518-2.276V81.803c0-.291.058-.583-.117-.875-.175 0-.292-.058-.408-.058h-7.297c-.175 0-.292.058-.467.116v27.376c0 .117.059.175.059.292a.435.435 0 0 0 .233.059h32.688c.117.058.175 0 .292-.059Zm2.802-77.75c-.117-.059-.175-.059-.234-.059H6.654c-.116 0-.175.059-.35.059 0 .175 0 .35.058.467.117.292.292.525.467.817.584.934 1.343 1.693 2.277 2.335.525.35 1.05.642 1.693.817.642.175 1.226.467 1.926.467.117 0 .175.058.292.117.233.058.525.116.759.175.175.058.35 0 .467.058.583.409 1.342.175 1.926.526.525 0 1.05.116 1.517.35.117.058.234 0 .292.058.292.059.584.117.817.175.176.059.35.117.526.117.759.058 1.4.467 2.16.467.408.233.875.292 1.342.292.058 0 .175 0 .234.058.292.175.583.175.934.234.175 0 .408 0 .525.116.292.175.584.175.934.234l.7.175c.175.058.409.175.584.175.759.059 1.4.467 2.16.467.408.234.875.292 1.342.35.059 0 .175 0 .234.059.292.233.584.233.875.233.117 0 .292 0 .409.058.409.234.934.234 1.342.35.584.176 1.11.234 1.693.41.467.116.934.233 1.401.291.117 0 .175.059.292.059.7.233 1.46.35 2.218.525h.234c.116 0 .233 0 .291.058.35.234.818.234 1.226.292.175 0 .35.117.526.175.233.059.467.175.7.175.7.059 1.343.467 2.101.467.059 0 .117 0 .175.059.292.233.643.175.993.233.175 0 .35 0 .467.117.292.175.584.175.934.233.292.059.583.117.875.234.059-.117.117-.175.117-.234V31.312c0-.233 0-.292-.058-.408Zm-5.429 33.271h55.861c.117 0 .234-.058.409-.116-.467-.642-.876-1.285-1.343-1.868-.758-.934-1.342-1.927-1.984-2.919-.175-.233-.292-.467-.584-.642H42.32c-.175 0-.292.058-.467.058v5.487Zm66.777 45.997v9.398c0 .758.233 1.459.7 2.043.117.116.175.233.292.35.584.467 1.284.7 2.043.7h4.903c.526 0 .993-.116 1.46-.292a2.725 2.725 0 0 0 1.4-1.4c.234-.526.292-1.051.292-1.635v-18.854c.059-.584-.233-1.109-.467-1.576a1.505 1.505 0 0 0-.583-.642c-.584-.408-1.226-.642-1.985-.642h-4.903c-.876 0-.934 0-1.693.35-.292.117-.584.35-.817.642-.467.584-.701 1.226-.701 2.043.117 3.152.059 6.304.059 9.515Zm27.843.058v9.398c0 .642.175 1.226.467 1.693.584.875 1.401 1.284 2.451 1.342h5.254c.642 0 1.226-.233 1.751-.583.175-.117.35-.234.525-.467.409-.584.701-1.226.642-1.985v-19.263c0-.525-.233-1.05-.467-1.459-.467-.759-1.342-1.226-2.334-1.284h-5.487c-.584 0-1.051.234-1.46.467a1.83 1.83 0 0 0-.642.525c-.467.642-.7 1.284-.7 2.043v9.573Zm-44.654 6.771c.117-.292.058-.583.058-.817V98.439c0-.233.059-.467-.117-.759H59.014c-.175 0-.292.059-.408.059-.117.817-.175 15.585-.059 18.795 0 .175.059.292.059.467.467.117 1.984.175 2.626.059.117 0 .175-.059.234-.117-.059-.409-.117-.817-.117-1.226v-2.51c0-.525 0-.992.234-1.459.058-.175.058-.35.058-.525 0-.176 0-.351.058-.467.292-.467.234-1.109.584-1.518.234-.876.759-1.693 1.226-2.452.759-1.225 1.751-2.276 2.918-3.21a11.799 11.799 0 0 1 2.686-1.751c.467-.234.933-.526 1.459-.642.642-.175 1.226-.526 1.926-.467.117 0 .292 0 .409-.059.467-.233.934-.233 1.4-.233H76.7c.233 0 .467 0 .7.058.409.175.817.234 1.226.234.175 0 .35.058.467.116.467.234 1.05.234 1.46.584 1.342.467 2.45 1.168 3.56 2.043 1.4 1.109 2.451 2.452 3.385 3.911.409.642.876 1.868 1.11 2.743 0 .059.058.176.058.234.175.233.175.525.233.817l.175.876c.059.233.117.525.117.759.059 1.342.117 2.685-.175 4.027 0 .059.058.117.058.117.526.175 2.043.175 2.744.058Zm-8.289-2.626c.059-1.226-.525-3.152-1.109-4.086a8.723 8.723 0 0 0-3.094-3.094c-1.109-.642-2.976-1.168-4.202-1.109-2.277.117-4.261.875-5.896 2.568-1.517 1.576-2.276 3.502-2.393 5.721-.058 1.225.525 3.152 1.167 4.202.76 1.284 1.752 2.335 3.036 3.036 1.284.7 2.685 1.167 4.203 1.109 2.218-.059 4.202-.876 5.837-2.51 1.634-1.635 2.334-3.619 2.451-5.837ZM5.72 117.06c.35.116.7.058 1.051.058h45.646c.175 0 .292-.058.467-.117v-2.159c0-.176-.058-.292-.116-.467H6.012c-.117 0-.175.058-.292.058-.116.584-.116 1.868 0 2.627Zm125.148-16.695v-21.48c0-.175-.058-.409-.058-.584-.117-.058-.175-.058-.292-.058h-4.903c-.117 0-.175.058-.292.117v21.655c0 .175.058.292.058.467 1.868-.117 3.619-.117 5.487-.117ZM99.523 12.517c-.292-.175-.525-.35-.759-.525-.876-.526-1.693-.993-2.568-1.518a155.406 155.406 0 0 0-3.21-1.926c-1.285-.818-2.627-1.576-3.97-2.394-.35-.233-.7-.467-1.226-.467H72.964c-.175 0-.35 0-.525.059-.117.759-.117 2.043 0 2.685h13.6c.7 0 1.284.175 1.868.525.7.409 1.284.817 1.985 1.226 1.109.584 2.16 1.284 3.21 1.926 1.518.817 2.919 1.751 4.436 2.685.76-.758 1.343-1.517 1.985-2.276ZM81.66 69.954c-.35-.175-.642-.117-.934-.117H66.368c-.117 0-.292 0-.35.175.292.35.7.643 1.05.934l6.13 5.604c.642.584.642.584 1.284 0 1.81-1.693 3.677-3.327 5.487-4.962.525-.583 1.109-1.109 1.692-1.634Zm0 21.948a107.06 107.06 0 0 0-2.86-2.627l-3.152-2.802-1.576-1.4c-.292-.234-.408-.234-.642 0a7.005 7.005 0 0 0-.7.641l-6.48 5.954c-.116.059-.233.117-.175.35.059 0 .117.059.175.059h14.943c.175-.059.234-.117.467-.175Zm-9.34-60.181c.06-.233.06-.409.06-.525V25.65c0-.116-.06-.233-.06-.408h-5.077c-.117 0-.175.058-.292.058 0 .117-.059.175-.059.234v5.778c0 .117.059.234.117.467.292-.35.759-.233.992-.583.76-.35 1.343-.467 2.219-.409.116 0 .291 0 .408.058.467.292 1.05.584 1.693.876ZM30.588 87.407c.058-.817.058-1.518.058-2.276v-2.043c0-.7.058-1.401-.058-2.16-.176 0-.292-.058-.41-.058h-4.494c-.175 0-.291.058-.408.058-.117.642-.175 4.144-.059 5.895 0 .176.059.292.059.467h.175c.525-.233.992-.467 1.46-.7a2.358 2.358 0 0 1 1.984 0c.525.233 1.05.525 1.693.817Zm94.794 18.679c-.116.467-.058.875-.058 1.342v2.685c0 .467-.058.876.058 1.343.117 0 .234.058.351.058h4.728c.116 0 .233-.058.35-.058.058-.759.058-4.67 0-5.312-.059 0-.117-.058-.234-.058h-4.903c-.058-.059-.175-.059-.292 0Z" fill="#000"/><path d="M128.126 16.837h16.694c1.051 0 1.868.467 2.393 1.343.584.933 1.168 1.926 1.752 2.86l2.276 3.852c.759 1.343 1.576 2.627 2.335 3.97.584.992 1.226 1.984 1.809 2.976.467.76.642 1.576.467 2.393-.175.701-.583 1.343-1.225 1.752-.467.233-.934.408-1.46.408h-8.464c-.408 0-.758 0-1.167-.233-.35-.175-.759-.234-1.109-.35-.7-.234-1.459-.467-2.16-.76-.467-.174-1.05-.233-1.517-.466-.467-.234-1.051-.234-1.46-.526-.817-.116-1.517-.583-2.393-.408h-13.834c-.525 0-1.051 0-1.518.292-.466.233-.992.291-1.517.408-.234.059-.467.234-.701.292-.233.059-.525.117-.758.234-.526.233-1.11.291-1.635.525-.525.233-1.109.233-1.634.584-.759.116-1.46.467-2.277.467-2.568-.059-5.136 0-7.705 0h-.467c-.583.058-1.05-.175-1.459-.467-.409-.234-.7-.642-.934-1.11-.35-.7-.35-1.4-.175-2.042.117-.467.409-.876.642-1.285.467-.817 1.051-1.634 1.518-2.451.759-1.284 1.517-2.627 2.276-3.911.584-.934 1.109-1.868 1.693-2.802.7-1.167 1.401-2.335 2.101-3.444.292-.467.526-.992 1.051-1.342.467-.292.934-.584 1.518-.584h1.05c5.37-.175 10.682-.175 15.994-.175Zm5.487 11.09c0-.116.058-.175.058-.291v-4.729c0-.116-.058-.233-.116-.35-.234 0-.409-.058-.584-.058h-9.456c-.292 0-.584-.058-.876.175-.058.409 0 .876-.058 1.284v2.685c0 .467-.059.876.058 1.284.759.059 10.332.059 10.974 0Zm-16.636-5.37c-.175-.058-.233-.116-.292-.116h-3.268c-.351 0-.526.116-.643.466-.058.176-.175.292-.291.468-.643 1.05-1.226 2.1-1.868 3.151-.759 1.226-1.518 2.51-2.277 3.736-.058.117-.058.292-.117.467.584.117 1.11.059 1.635.059.584 0 1.226.116 1.751-.292.058 0 .117 0 .175-.059.525-.175 1.109-.292 1.635-.525.35-.175.758-.117 1.05-.292.467-.292.993-.292 1.459-.525.351-.117.701-.234 1.051-.525v-6.013Zm22.298 6.13c.292.116.525.291.817.35.234.058.467.175.759.233.467.117.876.292 1.343.467.525.175 1.05.292 1.576.467.467.175.992.35 1.459.525.058 0 .175.059.233.059.817 0 1.576 0 2.394-.059.058 0 .058-.058.175-.116-.059-.117-.059-.292-.117-.41-.817-1.4-1.693-2.8-2.51-4.202-.642-.992-1.284-1.984-1.868-3.035-.175-.35-.409-.526-.759-.526h-3.035c-.117 0-.234.059-.35.117-.117 2.043-.117 4.028-.117 6.13Zm-64.209 88.431c-.76.058-1.401-.35-1.927-.876-.525-.525-.758-1.167-.758-2.043-.059-1.401 1.459-2.802 2.977-2.743 1.225.058 2.743 1.284 2.684 2.918-.058 1.46-1.459 2.919-2.976 2.744Z" fill="#000"/></svg>