<svg width="141" height="139" fill="none" xmlns="http://www.w3.org/2000/svg"><path d="M140.609 137.506c-.737.268-1.474.722-2.231.763-2.15.103-4.299.041-6.427.041H3.081c-2.456 0-2.702-.247-2.702-2.661v-82.82c0-1.693.389-2.085 2.108-2.105h.614c44.929 0 89.857 0 134.785.02.901 0 1.802.413 2.723.64v86.122ZM4.104 55.056v76.157c0 2.847 0 2.806 2.825 2.847.982.021 1.269-.248 1.248-1.259-.061-4.333-.02-8.645-.02-12.978 0-1.609.778-2.393 2.354-2.455.368-.021.757 0 1.126 0h116.916V64.63c0-1.32 0-1.32-1.331-1.32H12.373v46.898c0 .372.041.764-.02 1.135-.143.949-.655 1.651-1.617 1.878-.942.227-1.74-.103-2.17-.929-.286-.536-.389-1.238-.389-1.857-.02-18.033-.02-36.066-.02-54.079v-1.279c-1.412-.02-2.661-.02-4.053-.02Zm124.469 66.665H12.393v1.115c0 3.322.042 6.664-.02 9.986-.02 1.011.287 1.259 1.27 1.259 6.713-.042 13.427-.021 20.14-.021.369 0 .717-.041 1.024-.062.061-.186.102-.248.102-.309 0-1.754.02-3.508.02-5.262 0-1.981.738-2.744 2.703-2.744h21.246c1.883 0 2.681.805 2.702 2.703.02 1.589.02 3.157 0 4.746 0 .618.123.949.839.949 5.731-.021 11.442-.021 17.173 0 .635 0 .84-.248.819-.846-.02-1.486 0-2.951 0-4.436 0-2.373.696-3.095 3.03-3.095h19.628c.267 0 .553 0 .819.02 1.392.103 2.17.929 2.17 2.332.02 1.65 0 3.301 0 4.952 0 .33.041.66.041.969.204.042.307.104.409.104 7.123 0 14.246 0 21.349.02.716 0 .716-.412.716-.928v-11.452ZM12.455 58.956h116.077v-3.858H12.455v3.858Zm120.335-3.9v76.115c0 2.848 0 2.806 2.804 2.868 1.064.021 1.289-.309 1.289-1.341-.02-25.502-.02-51.004-.02-76.507v-1.155c-1.412.02-2.681.02-4.073.02Zm-93.664 75.001c0 1.094.04 2.063-.02 3.013-.042.804.286.99 1.023.99 1.74-.041 3.48-.021 5.22-.021 3.643 0 7.286.021 10.93-.02.327 0 .941-.248.941-.413.082-1.176.04-2.373.04-3.549H39.127Zm62.715-.062H87.554c-2.988 0-2.947 0-2.927 3.033 0 .764.226 1.032 1.003 1.011 1.638-.041 3.275-.02 4.913-.02 3.438 0 6.877.02 10.316-.021.327 0 .941-.33.962-.536.082-1.094.02-2.229.02-3.467Z" fill="#000"/><path d="M76.766 34.692c0 1.898.02 3.631 0 5.364-.02 2.27-.86 4.148-2.743 5.448-1.986 1.382-4.176 1.506-6.304.453-2.293-1.134-3.419-3.156-3.5-5.715-.042-1.774 0-3.57 0-5.591-1.085.619-1.986 1.176-2.948 1.65-1.351.681-2.681 1.548-4.135 1.857-3.03.66-5.854-1.197-6.918-4.25-.921-2.62.348-5.88 2.865-7.366 1.577-.929 3.153-1.837 4.933-2.868-1.35-.784-2.558-1.506-3.766-2.208-1.494-.846-2.886-1.733-3.643-3.425-1.167-2.6-.676-5.468 1.371-7.345 2.108-1.94 5.076-2.208 7.553-.702 1.474.888 2.989 1.733 4.708 2.724 0-1.28-.062-2.352.02-3.425.103-1.486.02-3.075.492-4.457C65.835 1.659 68.64.235 71.996.874c2.6.496 4.729 3.199 4.79 6.17.041 1.815 0 3.631 0 5.674 1.208-.702 2.231-1.341 3.296-1.898 1.228-.62 2.456-1.403 3.786-1.672 3.03-.619 5.854 1.238 6.919 4.271.92 2.62-.369 5.88-2.887 7.346-1.576.907-3.152 1.857-4.871 2.868 1.637.97 3.152 1.857 4.667 2.744 2.251 1.32 3.48 3.28 3.357 5.9-.144 2.724-1.597 4.602-4.115 5.592-2.026.805-3.93.351-5.751-.742-1.126-.681-2.272-1.342-3.418-2.023-.287-.103-.574-.206-1.003-.412Zm-4.299 1.052c.02-1.547-.04-3.095.02-4.642.083-2.064 1.781-2.889 3.521-1.857a262.36 262.36 0 0 0 7.778 4.457c1.085.598 2.21.247 2.723-.702.552-1.052.245-2.166-.82-2.806a1498.084 1498.084 0 0 0-7.736-4.54c-1.658-.97-1.7-2.991-.062-3.94 2.416-1.403 4.83-2.786 7.226-4.189.491-.289.982-.64 1.31-1.073.573-.804.41-1.877-.226-2.558-.593-.64-1.78-.702-2.742-.124-2.477 1.444-4.933 2.889-7.39 4.333-1.883 1.093-3.52.165-3.581-2.022-.02-.887 0-1.795 0-2.682 0-2.167.02-4.333-.041-6.48-.041-1.196-.86-1.918-1.986-1.897-1.064.02-1.78.701-1.903 1.857-.041.371-.041.763-.041 1.134 0 2.683.02 5.365-.02 8.027-.021 1.98-1.413 2.992-3.112 2.29-.716-.289-1.35-.763-2.026-1.155-2.006-1.156-3.992-2.353-5.998-3.488-1.146-.64-2.292-.35-2.845.62-.614 1.031-.327 2.166.819 2.867a345.212 345.212 0 0 0 7.553 4.437c.84.474 1.412 1.072 1.412 2.084 0 .949-.511 1.547-1.31 2.021a475.85 475.85 0 0 0-7.737 4.54c-1.003.598-1.29 1.712-.757 2.744.47.887 1.535 1.28 2.538.867.348-.145.675-.33.982-.516 2.416-1.403 4.81-2.806 7.226-4.21 1.023-.598 2.23-.412 2.804.537.328.557.47 1.28.491 1.94.062 2.847 0 5.694.041 8.542.02 1.444.696 2.166 1.904 2.187 1.29.02 1.985-.681 2.026-2.167-.02-1.485-.04-2.97-.04-4.436Z" fill="#9FD8FF"/><path d="M70.586 67.354h50.884c.533 0 1.106.04 1.617.185.86.248 1.372.888 1.372 1.837v41.926c0 1.011-.594 1.65-1.556 1.877-.491.124-1.003.124-1.515.124H19.598c-.306 0-.613.021-.92-.02-1.433-.104-2.17-.888-2.17-2.332V70.263c0-2.311.593-2.93 2.886-2.93 17.07.02 34.141.02 51.192.02Zm-35.022 41.658h1.208c2.681 0 5.383-.042 8.064.02 1.065.021 1.29-.309 1.29-1.341-.041-11.575-.02-23.13-.02-34.705v-1.258H35.563v37.284Zm69.818 0V71.728h-10.52v28.556c0 2.579.02 5.158-.021 7.716-.02.743.184 1.073.982 1.012.921-.062 1.843-.021 2.764-.021 2.231.02 4.482.021 6.795.021ZM20.704 71.666v37.346c3.377 0 6.673.02 9.968-.042.205 0 .573-.516.594-.804.061-1.259.02-2.538.02-3.818 0-10.502-.02-21.004.02-31.506 0-.97-.286-1.217-1.207-1.197-2.252.062-4.503.02-6.734.02h-2.661Zm55.101 18.652c0-5.86-.02-11.74.02-17.6 0-.805-.225-1.073-1.043-1.052-2.825.041-5.65.062-8.474 0-.9-.02-1.147.268-1.147 1.155.02 11.7.02 23.398 0 35.097 0 .846.246 1.135 1.085 1.114 2.784-.041 5.588-.062 8.372 0 .962.021 1.208-.309 1.187-1.238-.02-5.818 0-11.657 0-17.476Zm44.478 18.632V71.749c-.389-.021-.716-.063-1.044-.063-2.783 0-5.588.042-8.371-.02-.921-.02-1.208.227-1.208 1.197.041 7.593.02 15.165.02 22.758 0 4.126.021 8.232-.02 12.359 0 .805.246 1.073 1.044 1.073 2.886-.041 5.793-.021 8.679-.021.266-.021.532-.062.9-.082Zm-69.838.02c.43.021.777.062 1.146.062 2.681 0 5.383-.041 8.064.021 1.044.02 1.31-.268 1.31-1.321-.04-11.575-.02-23.15-.02-34.725V71.75h-10.52c.02 12.441.02 24.78.02 37.221Zm29.638-37.242c-.02.33-.061.557-.061.805 0 11.843 0 23.686-.02 35.55 0 .825.347.97 1.043.949 2.763-.021 5.526-.062 8.27.021 1.043.02 1.289-.289 1.289-1.321-.041-11.616-.02-23.212-.02-34.828v-1.155c-3.542-.021-6.96-.021-10.501-.021Z" fill="#F47400"/></svg>