<svg width="125" height="128" fill="none" xmlns="http://www.w3.org/2000/svg"><path d="M124.737 9.773c-2.58-.18-2.991-.654-3.242-3.966H3.335v116.586h118.228V30.008c0-2.118 1.119-3.245 2.991-2.997.069 0 .137.067.206.09v100.317H.093C.07 85.101.07 42.942.07.782h124.667v8.99Z" fill="#000"/><path d="M124.737 20.792c-1.21.113-2.306-.112-2.9-1.284-.502-.947-.388-1.87.251-2.75.662-.9 1.667-.923 2.671-.923-.022 1.667-.022 3.312-.022 4.957Z" fill="#000"/><path d="M62.404 116.062H13.428c-.503 0-.982.022-1.484-.045-1.142-.135-2.032-.992-2.147-2.141-.045-.473-.045-.969-.045-1.464v-96.69c0-.405-.023-.833.023-1.24.114-1.329 1.004-2.23 2.329-2.343.388-.022.753-.022 1.141-.022h98.318c.456 0 .913-.023 1.37.045 1.096.135 1.963.991 2.077 2.073.069.473.046.969.046 1.465v97.703c-.068 1.645-.982 2.569-2.626 2.636-.411.023-.844 0-1.255 0-16.257.023-32.514.023-48.771.023Zm-42.629-5.07V34.988c0-3.56 2.055-5.566 5.663-5.566 1.416 0 2.808-.022 4.224 0 2.991.023 5.16 2.14 5.229 5.093.022.743 0 1.464 0 2.32h12.078c10.275.023 17.992 7.64 17.992 17.802v1.983h27.126c2.374 0 4.612.473 6.644 1.69 4.247 2.546 6.302 6.309 6.302 11.221-.023 13.34 0 26.68 0 40.041v1.42h4.84V17.254H14.912v93.738h4.863Zm80.12-24.584H67.884c-12.832-.022-22.719-9.486-23.084-22.127-.091-3.132-2.1-5.07-5.297-5.093-3.037-.022-6.074 0-9.11 0-3.585 0-5.549 1.96-5.549 5.521v35.197c0 .405.023.788.046 1.171h75.005V86.408ZM34.936 54.164h4.681c2.329-.023 4.384.72 6.302 1.983.434.292 1.027.45 1.552.473 3.608.045 7.216.022 10.823.022h1.416c1.301-7.751-4.384-14.579-12.239-14.736-3.95-.068-7.9-.023-11.85-.023-.205 0-.434.045-.685.09v12.19Zm15.161 12.37h41.829c2.147 0 3.129.97 3.129 3.087v11.65h4.909V69.599c-.023-4.89-3.105-7.91-8.06-7.91H49.732c.114 1.713.251 3.223.365 4.845Zm-15.16 44.435H89.94v-4.709H34.936v4.709Zm-5.252-57.03v-19.38H24.89v20.686c1.621-.45 3.174-.879 4.795-1.307Zm50.14 27.377v-9.644h-4.772v9.644h4.772Zm5.275-9.69v9.645h4.749v-9.644h-4.75Zm-15.298 9.645v-9.6h-4.84c0 2.998-.024 5.904.022 8.834 0 .27.434.743.685.743 1.347.068 2.717.023 4.133.023Zm-10.024-9.6h-8.06c1.85 3.583 4.407 6.152 8.06 7.91v-7.91Zm-34.842 34.521v4.755h4.749v-4.755h-4.75Zm70.187 0v4.755h4.75v-4.755h-4.75Z" fill="#F47400"/><path d="M34.32 72.28a2.507 2.507 0 0 1-2.511-2.501c0-1.375 1.141-2.479 2.557-2.456 1.416 0 2.534 1.126 2.511 2.5-.022 1.375-1.164 2.457-2.557 2.457Zm-.046 12.37c-1.392-.023-2.511-1.172-2.489-2.546.023-1.375 1.165-2.456 2.58-2.434 1.393.023 2.512 1.15 2.466 2.524 0 1.397-1.141 2.479-2.557 2.456Zm11.256 7.391c1.393.023 2.535 1.172 2.512 2.524-.023 1.352-1.21 2.456-2.58 2.456a2.492 2.492 0 0 1-2.489-2.523c.023-1.398 1.142-2.48 2.557-2.457Zm33.84.022c1.416.022 2.512 1.149 2.49 2.523a2.528 2.528 0 0 1-2.58 2.457c-1.37-.023-2.535-1.217-2.49-2.547 0-1.374 1.165-2.456 2.58-2.433ZM48.133 82.15a2.493 2.493 0 0 1-2.512 2.5c-1.439.023-2.512-1.036-2.512-2.478 0-1.442 1.028-2.501 2.49-2.501 1.438 0 2.534 1.081 2.534 2.478Zm-13.95 9.914c1.393 0 2.557 1.104 2.557 2.456 0 1.352-1.142 2.5-2.534 2.5-1.37 0-2.535-1.126-2.558-2.478a2.523 2.523 0 0 1 2.535-2.478Zm22.559 4.956c-1.37 0-2.511-1.148-2.511-2.5 0-1.375 1.118-2.456 2.534-2.456 1.393 0 2.534 1.126 2.511 2.5 0 1.353-1.141 2.457-2.534 2.457ZM68 97.021c-1.37-.022-2.51-1.172-2.488-2.546.023-1.375 1.165-2.456 2.58-2.434 1.416.023 2.512 1.127 2.489 2.524-.023 1.397-1.165 2.479-2.58 2.456Zm22.577-.001c-1.37 0-2.534-1.15-2.534-2.501 0-1.352 1.164-2.479 2.557-2.456 1.416 0 2.535 1.104 2.512 2.478 0 1.353-1.142 2.48-2.535 2.48Z" fill="#F47400"/></svg>