<svg width="125" height="127" fill="none" xmlns="http://www.w3.org/2000/svg"><path d="M18.113 18.872c1.3.745 2.438 1.433 3.637 2.083 3.372 1.853 6.744 3.687 10.116 5.54 3.799 2.102 7.618 4.204 11.417 6.306 6.155 3.4 12.31 6.82 18.466 10.203 3.798 2.101 7.638 4.146 11.457 6.247.59.325 1.036.287 1.584 0 3.535-1.834 7.09-3.649 10.645-5.464l16.942-8.713c.143-.076.264-.19.549-.4a219.732 219.732 0 0 0-3.149-1.778c-6.643-3.63-13.285-7.241-19.928-10.871-5.221-2.847-10.422-5.694-15.642-8.541-.711-.382-1.443-.803-1.32-1.739.142-1.089 1.32-1.51 2.518-.86a488.338 488.338 0 0 1 7.029 3.764c3.494 1.911 6.988 3.822 10.462 5.732 3.86 2.121 7.72 4.242 11.6 6.382 3.758 2.063 7.475 4.146 11.254 6.171.934.497 1.34 1.07 1.34 2.102-.061 3.879-.02 7.757-.04 11.636 0 .63.142.994.772 1.357 5.281 2.846 10.543 5.75 15.825 8.617.893.477 1.32 1.07 1.32 2.044-.02 10.853-.02 21.686 0 32.538 0 .918-.325 1.262-1.32 1.529-1.158.306-2.215 1.032-3.291 1.624-7.232 3.917-14.464 7.853-21.696 11.789-7.456 4.07-14.89 8.177-22.346 12.247-4.977 2.713-9.974 5.407-14.951 8.12-.67.363-1.32.363-2.011-.019-8.025-4.394-16.07-8.789-24.093-13.183-7.456-4.089-14.87-8.178-22.326-12.247-3.84-2.102-7.699-4.185-11.579-6.248C.48 94.343.277 93.655.277 92.757c.02-6.171.02-12.343.02-18.514 0-4.586.021-9.171-.02-13.738 0-.974.325-1.567 1.26-2.063 3.819-2.026 7.577-4.127 11.396-6.153.67-.363.833-.783.833-1.452-.02-10.336.02-20.673-.04-31.01 0-1.203.507-1.853 1.543-2.407 3.982-2.12 7.923-4.318 11.905-6.458 4.814-2.599 9.649-5.178 14.463-7.776 1.077-.574 2.174-1.166 3.21-1.816 1.016-.63 1.95-.687 3.007-.095 1.787 1.013 3.636 1.949 5.444 2.923 1.036.554 1.28 1.032.873 1.72-.467.802-1.28.974-2.255.458-1.604-.879-3.168-1.796-4.794-2.636-.304-.153-.853-.153-1.137 0A2904.205 2904.205 0 0 0 28.9 12.968c-3.555 1.93-7.09 3.879-10.787 5.904Zm54.423 63.606c.02-.287.06-.401.06-.535 0-9.802.02-19.584-.02-29.386 0-.382-.345-.879-.69-1.108-1.32-.803-2.723-1.529-4.084-2.274a7574.269 7574.269 0 0 1-17.308-9.42c-4.225-2.311-8.43-4.642-12.655-6.935a7555.054 7555.054 0 0 0-17.125-9.324c-1.3-.707-2.6-1.395-3.962-2.121-.06.23-.101.325-.101.401 0 9.897-.02 19.775.02 29.673 0 .286.284.688.569.84 3.474 1.93 6.988 3.822 10.482 5.732 3.433 1.873 6.866 3.745 10.32 5.618 4.225 2.312 8.43 4.623 12.656 6.916 4.408 2.389 8.796 4.777 13.204 7.165 2.803 1.586 5.647 3.134 8.634 4.758ZM3.487 62.454c-.02.287-.06.478-.06.65.1 9.706.182 19.393.324 29.099 0 .344.325.822.67 1.013 1.22.745 2.5 1.375 3.738 2.063 8.207 4.547 16.414 9.114 24.621 13.661 7.923 4.395 15.846 8.751 23.768 13.127.874.477 1.767.936 2.722 1.432.061-.267.102-.363.102-.458 0-9.821.02-19.661-.02-29.481 0-.306-.325-.746-.63-.918-6.785-3.764-13.61-7.47-20.416-11.215l-17.003-9.343a4584.52 4584.52 0 0 0-13.347-7.318 277.202 277.202 0 0 1-4.469-2.312ZM71.073 85c-.833-.459-1.422-.784-2.031-1.108-4.754-2.58-9.528-5.14-14.282-7.72-3.839-2.101-7.658-4.222-11.497-6.343a3389.35 3389.35 0 0 0-14.403-7.872c-4.348-2.369-8.675-4.738-13.042-7.07-.325-.171-.935-.19-1.26-.018-2.133 1.07-4.245 2.197-6.358 3.324a190.013 190.013 0 0 0-3.291 1.815c.914.497 1.645.88 2.377 1.261 5.2 2.847 10.4 5.713 15.622 8.56 6.277 3.44 12.574 6.86 18.872 10.28 6.135 3.343 12.27 6.706 18.445 10.03.325.172.914.134 1.26-.019 1.157-.535 2.234-1.165 3.351-1.758 2.012-1.088 4.023-2.158 6.237-3.362Zm22.57 21.38c.406-.134.65-.191.832-.287 4.205-2.273 8.39-4.566 12.575-6.84 4.753-2.598 9.487-5.197 14.26-7.757.63-.344.813-.688.813-1.318-.02-9.63-.02-19.26-.02-28.89 0-.286-.041-.592-.061-.974-.305.153-.488.23-.65.325-4.795 2.617-9.589 5.254-14.403 7.872-4.063 2.216-8.146 4.452-12.23 6.649-.792.42-1.157.917-1.157 1.853.04 9.382.02 18.763.02 28.125.02.363.02.745.02 1.242Zm-31.407 16.89c.325-.114.59-.153.813-.267 2.803-1.529 5.586-3.057 8.39-4.586 6.114-3.343 12.229-6.687 18.364-9.993.67-.363.934-.745.934-1.471-.02-9.534-.02-19.068-.02-28.602 0-.325-.04-.65-.061-1.07-.305.133-.488.21-.65.305-3.291 1.796-6.562 3.612-9.853 5.408-5.647 3.076-11.315 6.133-16.982 9.19-.65.344-.935.726-.935 1.49.04 9.534.02 19.069.02 28.603-.02.286-.02.611-.02.993Zm12.839-40.697c1.26-.65 2.316-1.184 3.372-1.757 7.984-4.357 15.947-8.732 23.951-13.031.894-.478 1.178-.994 1.178-1.95-.041-9.38-.02-18.762-.02-28.143v-1.223c-.305.134-.447.191-.589.268-2.662 1.47-5.323 2.98-8.004 4.432-6.338 3.42-12.676 6.84-19.035 10.242-.61.324-.873.725-.873 1.432.02 9.535.02 19.088.02 28.622v1.108Zm31.487-31.984v15.075l13.814-7.547a2826.332 2826.332 0 0 1-13.814-7.528Z" fill="#000"/><path d="M60.978 8.937c.041 1.223-.873 1.987-1.808 1.624a21.555 21.555 0 0 1-3.534-1.777c-.69-.42-.813-1.166-.325-1.853.487-.688 1.178-.803 1.95-.42.955.477 1.93.916 2.824 1.451.406.287.69.765.893.975Z" fill="#000"/><path d="M22.134 40.558v-8.006c0-.382-.06-.821.122-1.127.244-.382.711-.84 1.097-.879.447-.038 1.057.287 1.382.63.264.287.264.822.284 1.262.02 5.368.02 10.737.02 16.106 0 .192 0 .383-.02.574-.102.898-.63 1.413-1.442 1.413-.854 0-1.382-.439-1.422-1.413-.061-1.682-.02-3.363-.02-5.044v-3.516Zm30.819 15.208v8.388c0 1.108-.447 1.624-1.341 1.624-.894 0-1.483-.611-1.483-1.586v-16.89c0-.993.61-1.605 1.463-1.586.832.02 1.34.593 1.34 1.567.04 2.809.02 5.636.02 8.483ZM29.145 44.322v-8.197c0-1.146.487-1.72 1.401-1.738.935 0 1.463.554 1.463 1.681.02 5.598.02 11.197 0 16.795 0 1.108-.488 1.586-1.442 1.566-.935-.019-1.402-.535-1.422-1.605v-8.502Zm9.831 3.784v8.387c0 1.128-.406 1.605-1.36 1.624-.996.02-1.484-.458-1.484-1.643-.02-5.56-.02-11.139 0-16.699 0-1.242.57-1.796 1.626-1.681.934.114 1.198.688 1.198 1.49.02 2.866.02 5.694.02 8.522Zm7.029 3.992v8.006c0 .382.041.821-.162 1.108-.264.382-.732.84-1.138.86-.426.038-1.015-.306-1.3-.65-.264-.306-.284-.84-.284-1.261-.02-5.407-.02-10.814 0-16.202 0-.402 0-.918.243-1.185.346-.344.915-.688 1.382-.669.406.02.853.497 1.117.86.203.287.142.745.142 1.108v8.025Zm21.289 11.579c0 2.732.02 5.464-.02 8.196 0 .478-.102 1.07-.386 1.433-.59.726-1.93.42-2.316-.496-.122-.287-.142-.612-.142-.937V55.365c0-.821.142-1.547 1.178-1.72 1.016-.152 1.645.383 1.666 1.53.04 1.814.02 3.63.02 5.445v3.057Zm-7.271-3.955v8.292c0 1.09-.528 1.758-1.381 1.758-.833 0-1.524-.764-1.524-1.796 0-5.56-.02-11.12 0-16.661 0-1.223.691-1.758 1.829-1.548.873.153 1.076.764 1.076 1.49-.02 2.828 0 5.637 0 8.465ZM8.93 81.293v-8.407c0-1.032.447-1.528 1.34-1.586 1.016-.057 1.605.459 1.605 1.51.02 2.33 0 4.642 0 6.974v9.82c0 1.185-.63 1.796-1.645 1.7-.853-.095-1.3-.61-1.3-1.642v-8.37Zm16.962 7.739v8.292c0 1.127-.568 1.681-1.604 1.605-.691-.057-1.158-.344-1.22-1.032a8.857 8.857 0 0 1-.06-1.05v-15.84c0-.23 0-.44.02-.669.081-.936.65-1.509 1.483-1.49.813.038 1.422.669 1.422 1.567-.04 2.885-.04 5.75-.04 8.617ZM16 85.21v-8.387c0-1.07.447-1.586 1.402-1.605.914 0 1.442.516 1.442 1.586.02 5.636.02 11.253 0 16.89 0 1.07-.528 1.605-1.442 1.605-.955 0-1.402-.516-1.402-1.586V85.21Zm13.977 7.68c0-2.827-.02-5.655 0-8.483 0-1.146.813-1.738 1.89-1.452.812.21.975.841.975 1.49.02 1.338.02 2.676.02 3.994v12.381c0 1.414-.467 2.121-1.442 2.14-.975.019-1.463-.669-1.463-2.083.02-2.636.02-5.311.02-7.986Zm13.977 7.701c0-2.79-.02-5.598 0-8.388.02-1.395 1.036-2.14 2.113-1.49.427.248.731.974.752 1.49.101 1.548.04 3.115.04 4.662v11.923c0 1.242-.386 1.7-1.34 1.738-1.057.039-1.544-.439-1.565-1.662-.02-2.541 0-5.082 0-7.623v-.65Zm7.336 3.897V96.1c0-1.089.446-1.643 1.36-1.643.853 0 1.483.63 1.483 1.605.02 5.617.02 11.254 0 16.871 0 1.032-.569 1.605-1.463 1.586-.893-.019-1.36-.573-1.36-1.643-.02-2.79-.02-5.579-.02-8.388Zm-14.266-7.814v-8.388c0-1.222.427-1.738 1.361-1.7.935.02 1.402.592 1.402 1.739v16.68c0 1.222-.833 1.929-1.869 1.586-.772-.268-.914-.86-.914-1.529.04-2.79.02-5.598.02-8.388Zm58.485-7.413c0-3.65.02-7.318-.02-10.967 0-.898.304-1.433 1.157-1.91 6.948-3.746 13.855-7.548 20.782-11.33 1.239-.689 2.438-.096 2.458 1.241.122 7.433.203 14.865.325 22.317.02.879-.366 1.413-1.138 1.834a5669.702 5669.702 0 0 0-18.912 10.184 85.53 85.53 0 0 1-2.296 1.184c-1.24.593-2.336 0-2.336-1.318-.02-3.745-.02-7.49-.02-11.235Zm15.398-17.616c-1.93 1.07-3.616 2.044-5.343 2.942-.63.325-.751.765-.751 1.376.02 6.038.02 12.075.02 18.113 0 .306.02.612.041 1.013.264-.096.467-.153.629-.23 1.504-.84 2.966-1.738 4.51-2.522.691-.344.914-.745.914-1.49-.04-6-.02-12.018-.02-18.017v-1.185Zm-12.534 26.96c.873-.478 1.584-.899 2.336-1.243.711-.305.955-.726.955-1.47-.041-6.038-.02-12.095-.02-18.133 0-.306-.041-.611-.061-1.07-.833.44-1.504.879-2.215 1.166-.792.324-1.015.84-1.015 1.643.04 5.98.02 11.96.02 17.94v1.166Zm18.669-30.38c-.935.497-1.605.936-2.316 1.242-.792.344-.975.86-.975 1.662.041 5.942.02 11.884.02 17.826 0 .325.041.65.081 1.166.874-.459 1.544-.84 2.255-1.165.732-.325.975-.803.975-1.586-.04-5.98-.02-11.961-.02-17.922-.02-.344-.02-.669-.02-1.223ZM88.505 94.477c0 3.63-.04 7.241.02 10.871.021.994-.345 1.605-1.239 2.083l-19.745 10.547c-.528.286-1.036.592-1.605.802-1.097.401-2.072-.21-2.072-1.299-.02-7.566 0-15.133-.02-22.699 0-.86.589-1.223 1.239-1.567 2.356-1.28 4.733-2.56 7.11-3.84 4.53-2.427 9.06-4.872 13.59-7.299.061-.038.122-.076.163-.095 1.36-.707 2.519-.096 2.519 1.356.06 3.688.04 7.414.04 11.14Zm-15.093 17.73c.325-.114.589-.172.812-.286 1.504-.841 2.987-1.72 4.51-2.503.63-.325.813-.726.813-1.357-.02-6.076-.02-12.132-.02-18.208 0-.287-.041-.593-.082-1.032-1.869 1.032-3.555 2.025-5.281 2.923-.59.306-.773.63-.752 1.242.02 5.465.02 10.929.02 16.394-.02.917-.02 1.834-.02 2.827Zm12.27-26.863c-.853.477-1.504.955-2.235 1.222-.894.344-1.016.918-1.016 1.72.02 5.904.02 11.808.02 17.731 0 .363.041.726.062 1.242.914-.478 1.665-.898 2.437-1.28.59-.287.833-.669.833-1.338-.04-6.076-.02-12.133-.02-18.208-.02-.287-.061-.574-.081-1.09Zm-15.399 8.464c-.934.496-1.645.917-2.397 1.26-.67.306-.893.727-.893 1.415.02 6.076.02 12.132.02 18.208 0 .306.04.593.06 1.013.773-.42 1.382-.841 2.073-1.089.975-.382 1.158-1.032 1.137-1.949-.04-5.847-.02-11.693-.02-17.54.02-.363.02-.707.02-1.318Zm7.008-28.163c0-3.687.02-7.375-.02-11.062 0-.86.284-1.395 1.097-1.835a4433.05 4433.05 0 0 0 21.127-11.406c1.3-.707 2.498-.02 2.519 1.471.02 3.821 0 7.643 0 11.445 0 3.496-.021 6.993.02 10.49.02 1.031-.447 1.642-1.361 2.12a2146.427 2146.427 0 0 0-14.647 7.872c-2.194 1.185-4.367 2.37-6.582 3.535-1.076.554-2.153-.134-2.173-1.376-.02-2.732 0-5.464 0-8.216.02-1.012.02-2.025.02-3.038Zm15.317-17.903c-1.97 1.07-3.799 2.045-5.586 3.096-.264.153-.407.707-.407 1.07-.02 6.133-.02 12.266-.02 18.4 0 .267.04.515.081.897 1.707-.955 3.27-1.891 4.896-2.694.792-.401 1.117-.84 1.097-1.7-.04-5.98-.02-11.942-.02-17.922.02-.344-.02-.669-.04-1.147ZM80.48 74.606c.955-.496 1.666-.898 2.397-1.242.691-.325.894-.783.874-1.51-.04-5.98-.02-11.94-.02-17.921v-1.242c-.894.497-1.585.917-2.316 1.242-.752.325-.955.802-.955 1.567.04 5.98.02 11.941.02 17.922v1.184Zm18.344-30.322c-.954.516-1.706.917-2.478 1.3-.59.305-.813.687-.813 1.356.041 6.076.02 12.133.02 18.209 0 .305.041.592.062 1.012.772-.401 1.401-.783 2.051-1.07.935-.382 1.158-.993 1.158-1.93-.06-5.808-.02-11.636-.02-17.444.02-.401.02-.821.02-1.433Z" fill="#F47400"/></svg>