<svg width="132" height="94" fill="none" xmlns="http://www.w3.org/2000/svg"><g clip-path="url(#a)"><path d="M25.5 42.8c0-.2.1-.3.1-.4V19.1c.1-1.1.9-1.9 2-2h5.9c.6 0 .6 0 .6-.6V6.9c0-.3 0-.7.1-1 .2-.8 1.1-1.5 1.7-1.5h6.3c.4 0 .5-.1.5-.5V2.3c0-.7.3-1.2.8-1.7.4-.4.8-.6 1.3-.6h46.3c.4 0 .7 0 1.1.1.9.2 1.6 1 1.6 2v17.3c-.1 1-.8 1.7-1.7 1.9-.2 0-.4.1-.7.1h-1.7c-.1 0-.2.1-.2.2v12.2c0 .5 0 1.1-.1 1.6-.4 2-1.5 3.5-3.3 4.4-.9.5-1.8.7-2.8.7H70.6c-.4 0-.7 0-1-.2-1-.4-1.6-1.6-1.2-2.6.1-.4.4-.7.7-1l2.6-2.6 5.4-5.4 6.2-6.2.6-.6.2-.2c.1-.1.1-.1.1-.2s-.1-.1-.2-.1h-.5c-.2 0-.5 0-.7-.1-.7-.1-1.5-.8-1.6-1.6 0-.2-.1-.5-.1-.7v-5.7c0-.3-.1-.3-.4-.4H44.9c-.7 0-1.3-.3-1.7-.8-.3-.3-.4-.7-.4-1.2v-2c0-.2-.1-.3-.3-.3h-3.7c-.2 0-.3.1-.3.3v7.7c0 .6 0 .6.6.6h10c.9.1 1.5.5 1.9 1.2.1.3.2.6.2.9v23.1c0 .2.1.3.3.3H67c.6 0 1.2.2 1.8.3.7.2 1.3.4 2 .7.5.2.9.5 1.3.8 1.4 1 2.6 2.3 3.4 3.8.3.6.6 1.2.8 1.9.3 1.2.6 2.4.5 3.7-.1.7-.2 1.4-.4 2.1-.2.7-.4 1.3-.7 1.9-.3.7-.8 1.4-1.2 2-1.1 1.1-2.2 2.1-3.5 2.8-.5.3-1.1.5-1.7.7-1 .3-2 .5-3.1.5H27.8c-.8 0-1.7-.1-2.5-.3-.7-.2-1.4-.4-2-.7-1.3-.6-2.4-1.4-3.4-2.5-1.2-1.4-2.1-2.9-2.5-4.7-.2-.9-.3-1.7-.3-2.6 0-.2 0-.5.1-.8 0-.1 0-.3.1-.4.1-1.2.4-2.3.9-3.3 1-2.1 2.5-3.7 4.5-4.8.6-.4 1.3-.6 2-.9.2 0 .5 0 .8-.1Zm21.4 4h-20c-.5.1-1 .2-1.5.4-1.1.4-2 1.1-2.7 2.1-.4.6-.8 1.2-1 1.9-.2.5-.3.9-.3 1.4 0 .7-.1 1.3.1 2 0 .3.1.7.3 1 .4 1 1.1 1.9 1.9 2.6.6.5 1.2.8 1.9 1.1.4.1.7.2 1.1.3.5.1 1.1.1 1.6.1h37.2c.4 0 .9 0 1.3-.1.9 0 1.7-.4 2.4-.8.8-.4 1.4-1 2-1.7.8-1 1.2-2.2 1.2-3.5v-.7c0-.5-.1-1-.3-1.5-.2-.7-.5-1.3-1-1.9-.7-1-1.6-1.7-2.8-2.1-.8-.3-1.6-.5-2.4-.5h-.5c-6.1-.1-12.3-.1-18.5-.1Zm-8.6-12.7h8.2c.2 0 .3-.1.3-.3V21.6c0-.2-.1-.3-.3-.3H30.1c-.2 0-.3.1-.3.3v12.2c0 .1.1.2.3.3h8.2ZM63.9 8.5h16.7c.4 0 .4-.1.4-.4V4.6c0-.2-.1-.2-.3-.2H47.5c-.5 0-.6.1-.6.6v3.4c0 .2.1.2.3.2h.4c5.4-.1 10.9-.1 16.3-.1Zm-34 34c.1 0 .2.1.3.1h16.1c.4 0 .5-.1.5-.5v-3.3c0-.2-.1-.3-.4-.4H30.3c-.4 0-.5.1-.5.5v3.3c.1 0 .1.1.1.3ZM75.6 36c.1.2.3.2.4.2h7.3c1-.1 1.7-1 1.8-1.8v-7.5c0-.1-.1-.1-.1-.2-.1 0-.1 0-.1.1-3.1 3-6.1 6.1-9.2 9.1 0 0 0 .1-.1.1Zm9.7-23.1c-.1.1-.1.3-.1.4v3.1c0 .5 0 .6.6.6h3.1c.6 0 .6 0 .6-.6V13c0-.2-.1-.2-.3-.3h-3.5c-.2.1-.3.1-.4.2Zm2-4.4h1.9c.3 0 .3-.1.4-.3V4.6c0-.2-.1-.3-.3-.3h-3.5c-.5 0-.5.1-.5.5V8c0 .4.1.5.5.5h1.5Z" fill="#FF9B36"/><path d="M53.7 72.4h-51c-.3 0-.7 0-1-.1-.5-.1-1-.4-1.3-.8-.2-.4-.4-.9-.4-1.4V25.7c.1-.7.3-1.3.9-1.7.8-.6 1.8-.6 2.6.1.2.2.5.4.7.6l7.8 7.8.3.3c.3.4.5.8.5 1.3v33.8c0 .2.1.3.3.3h80.3c.2 0 .2-.1.3-.3V36.4c0-.4 0-.8.2-1.2.4-.6.9-1.1 1.7-1.1h22.1c.9 0 1.7.1 2.5.3.9.2 1.7.5 2.5.8 1.2.5 2.4 1.2 3.5 2 1.6 1.2 2.8 2.7 3.8 4.4.5.8.9 1.7 1.2 2.7.2.5.3 1 .4 1.5.3 1.3.4 2.6.4 3.9v37.6c0 .9-.5 1.5-1.3 1.9-.3.1-.6.1-.9.2h-12.2c-.3 0-.6 0-.8-.1-.7-.1-1.2-.5-1.5-1.1-.1-.2-.2-.4-.2-.7v-4.4c0-.4 0-.8-.1-1.2v-.3c-.1-1.3-.5-2.5-1.1-3.7-1-1.9-2.4-3.3-4.3-4.4-.6-.3-1.2-.6-1.9-.8-1.2-.4-2.4-.5-3.6-.5H78c-8.2.2-16.2.2-24.3.2Zm74-12.7c-.2-.1-.4-.1-.6-.1h-23.2c-.8-.2-1.4-.7-1.6-1.5-.1-.3-.1-.6-.1-1V44.6c0-.3.1-.6.2-.9.4-.7 1-1.1 1.8-1.2h21.2c.1 0 .1-.1.1-.2l-.1-.1c-.6-.7-1.2-1.3-1.8-1.8-.8-.6-1.6-1.1-2.5-1.4-.8-.3-1.6-.5-2.4-.6h-.2c-.4-.1-.9-.1-1.3-.1H98.6c-.3 0-.4.1-.4.4v28.9c0 .5.1.5.5.5h7.1c.2 0 .4 0 .6.1.5.1 1 .2 1.6.3.7.2 1.5.4 2.2.7 1.4.6 2.7 1.3 3.8 2.3 1.6 1.3 2.8 2.9 3.8 4.7.1.3.3.4.7.4h9c.6 0 .6 0 .6-.6V60.1c-.3-.1-.3-.3-.4-.4ZM4.3 31v37c0 .1.1.2.2.2h3.9c.1 0 .2-.1.2-.2V35.6c0-.3-.1-.6-.3-.8l-2.5-2.5c-.4-.5-.8-.9-1.1-1.3-.1 0-.2-.1-.4 0Zm117.1 24.4h6.1c.3 0 .3-.1.3-.4v-6.3c0-.4-.1-.8-.1-1.2-.1-.7-.1-.6-.7-.6h-11.6c-.3 0-.4.1-.4.4v7.9c0 .1.1.2.2.2h6.2Zm6.3 25.6h-8.4c-.2 0-.2.1-.2.3 0 .3.1.5.1.8v2.6c0 .5 0 .6.6.6h7.4c.5 0 .5 0 .5-.5v-3.3c.1-.3 0-.4 0-.5Zm-17.1-25.7c.2-.2.1-.4.1-.6v-7.4c0-.5 0-.5-.5-.5h-3.1c-.6 0-.6-.1-.6.6V55c0 .3.1.3.3.3h3.3c.2.1.4 0 .5 0Z" fill="#000"/><path d="M72.3 85.1c0-.1.1-.1.1-.2.1-.4.1-.7.1-1.1.1-.9.4-1.8.8-2.6.7-1.3 1.6-2.4 2.9-3.2.5-.3 1.1-.6 1.6-.8.7-.3 1.4-.4 2.2-.5.6-.1 1.3-.1 1.9 0 .6.1 1.1.2 1.6.4.4.1.7.3 1.1.4 1.8.9 3.2 2.3 4 4.2.4.9.7 1.9.7 2.9 0 .2 0 .3.1.5.1.1.3.1.4.1h3.7c.1-.2.1-.3.1-.5 0-.8.2-1.5.4-2.2.7-2 1.9-3.5 3.6-4.6.6-.4 1.2-.7 1.9-.9.4-.1.9-.2 1.3-.3.5-.1 1.1-.1 1.6-.1 1 0 1.9.2 2.8.6 1.2.5 2.3 1.2 3.1 2.1.8.8 1.4 1.8 1.8 2.9.3.9.5 1.9.6 2.8 0 .6 0 1.2-.2 1.8-.1.4-.2.8-.3 1.1-.1.4-.3.8-.5 1.1-.7 1.4-1.8 2.6-3.2 3.4-.9.5-1.8.9-2.8 1.1-.9.2-1.9.2-2.8.1-.5 0-1-.2-1.6-.3-1-.3-1.9-.8-2.8-1.5-.7-.6-1.4-1.2-1.8-2-.2-.3-.4-.4-.7-.4h-5.7c-.3 0-.5.1-.7.4-.7 1-1.5 1.9-2.6 2.6-.8.5-1.7.9-2.6 1.1-1 .2-1.9.2-2.9.1-.5 0-1-.2-1.5-.3-1.2-.4-2.3-1-3.2-1.9-.5-.5-.9-1-1.3-1.6-.2-.3-.4-.4-.7-.4H58.3c-.2 0-.3.1-.4.3-.4.6-.9 1.2-1.4 1.7-.8.7-1.7 1.3-2.7 1.7-.4.2-.8.3-1.3.4-.9.3-1.9.2-2.9.1-.5 0-1-.2-1.5-.3-1.2-.4-2.3-1-3.3-1.9-.5-.4-.9-.9-1.2-1.5-.2-.4-.5-.5-.9-.5h-5.5c-.3 0-.5.1-.7.4-.7 1.1-1.6 1.9-2.7 2.6-.8.5-1.7.9-2.7 1.1-.9.2-1.9.2-2.8.1-.5 0-1-.2-1.5-.3-1.5-.5-2.8-1.3-3.8-2.5-.3-.3-.6-.7-.8-1.1-.1-.2-.3-.3-.5-.3h-5.9c-.3 0-.6.1-.8.4-.7 1-1.6 1.9-2.6 2.5-.9.6-1.9.9-2.9 1.1-.7.2-1.5.2-2.2.1-.6-.1-1.1-.2-1.7-.3-.9-.3-1.8-.7-2.5-1.2-1.1-.8-2-1.9-2.7-3.1-.4-.8-.7-1.6-.8-2.4.5-.4.4-.8.4-1.2 0-.8.1-1.6.3-2.4.2-.6.4-1.3.7-1.8.6-1.1 1.3-1.9 2.3-2.7.6-.4 1.2-.8 1.9-1.1.6-.2 1.2-.5 1.9-.5.5-.1 1.1-.2 1.6-.1.8 0 1.6.2 2.4.4.9.3 1.8.7 2.6 1.3 1.3.9 2.2 2.2 2.9 3.6.2.4.3.8.4 1.3.2.5.2 1 .2 1.5v.3c0 .1.1.2.2.2h3.5c.5 0 .5 0 .5-.5 0-.3 0-.6.1-1v-.1c.1-.9.5-1.8.9-2.6.7-1.2 1.6-2.1 2.7-2.9.7-.5 1.5-.8 2.3-1.1.9-.3 1.8-.4 2.7-.4.7 0 1.5.1 2.2.4.7.2 1.4.5 2.1.9 1 .6 1.8 1.4 2.5 2.3.6.8 1.1 1.7 1.3 2.7.1.6.3 1.1.3 1.7 0 .5 0 .6.6.6h3.3c.3 0 .4-.1.4-.4 0-.6.1-1.3.3-1.9.2-.7.4-1.3.8-1.9.9-1.6 2.2-2.8 3.9-3.6.7-.3 1.4-.5 2.1-.6.4-.1.8-.1 1.3-.1.9 0 1.7.1 2.5.4 1.6.5 3 1.4 4.1 2.6.8.9 1.4 2 1.7 3.2.2.6.3 1.3.3 2v.2c0 .1.1.2.2.2h12c0-.2.2-.3.3-.3ZM8.6 80.9c-2.3-.1-4.3 2-4.3 4.3 0 2.2 1.8 4.2 4.3 4.2 2.4 0 4.2-2 4.2-4.3s-1.9-4.2-4.2-4.2Zm68.1 4.2c-.1 2.2 1.8 4.3 4.2 4.3 2.4 0 4.2-1.9 4.3-4.2 0-2.4-1.9-4.3-4.2-4.3-2.4 0-4.4 2-4.3 4.2Zm-21.3 0c0-.6-.1-1.2-.4-1.8-.6-1.3-1.6-2.1-3-2.4-1.2-.2-2.4 0-3.4.7-1.1.8-1.7 1.9-1.8 3.3 0 .9.2 1.7.7 2.5.8 1.2 2 1.9 3.5 1.9.4 0 .9 0 1.3-.2.8-.2 1.5-.6 2-1.3.6-.7 1-1.5 1-2.5.1.1.1 0 .1-.2Zm46.9-4.2c-2.4-.1-4.3 1.9-4.3 4.2 0 2.2 1.8 4.3 4.2 4.3 2.5 0 4.3-1.9 4.3-4.2 0-2.4-1.9-4.3-4.2-4.3Zm-72.4 0c-2.3-.1-4.3 1.8-4.3 4.2 0 2.3 1.7 4.3 4.2 4.3 2.4 0 4.3-2 4.3-4.2 0-2.3-1.9-4.3-4.2-4.3Zm29.8-29.7c.2-.1.4-.1.6-.1h7.6c.2 0 .3.1.3.3v3.7c0 .2-.1.2-.3.3h-8c-.1 0-.2-.1-.2-.2v-4Zm-25.6 0v3.6c0 .5-.1.5-.5.5h-7.7c-.2-.1-.2-.3-.2-.4v-3.6c0-.1.1-.2.2-.2h7.8s.2 0 .4.1Z" fill="#000"/></g><defs><clipPath id="a"><path fill="#fff" d="M0 0h132v93.7H0z"/></clipPath></defs></svg>