<svg width="122" height="139" fill="none" xmlns="http://www.w3.org/2000/svg"><path d="M121.883 138.162c-.64.273-1.281.735-1.939.777-1.868.105-3.736.042-5.586.042H2.348c-2.135 0-2.348-.252-2.348-2.708V52.01c0-1.721.338-2.12 1.832-2.14h.534c39.05 0 78.1 0 117.151.02.783 0 1.565.42 2.366.65v87.622ZM3.238 54.277v77.483c0 2.897 0 2.855 2.455 2.897.854.021 1.103-.252 1.085-1.281-.053-4.408-.018-8.796-.018-13.204 0-1.637.676-2.435 2.046-2.498.32-.021.659 0 .979 0h101.619V64.018c0-1.344 0-1.344-1.156-1.344H10.425v47.716c0 .377.036.776-.018 1.154-.124.966-.569 1.68-1.405 1.91-.818.231-1.512-.105-1.886-.944-.249-.546-.338-1.26-.338-1.89C6.76 92.273 6.76 73.926 6.76 55.6v-1.302c-1.227-.02-2.312-.02-3.522-.02Zm108.184 67.826H10.443v1.134c0 3.38.036 6.78-.018 10.16-.018 1.029.25 1.281 1.103 1.281 5.836-.042 11.67-.021 17.506-.021.32 0 .623-.042.89-.063.053-.189.089-.252.089-.315 0-1.785.017-3.569.017-5.353 0-2.016.64-2.792 2.349-2.792h18.466c1.637 0 2.33.818 2.349 2.75.017 1.616.017 3.211 0 4.828 0 .63.106.966.73.966 4.98-.021 9.944-.021 14.925 0 .552 0 .73-.252.712-.861-.018-1.512 0-3.002 0-4.513 0-2.415.605-3.149 2.633-3.149h17.061c.231 0 .48 0 .712.021 1.21.105 1.886.944 1.886 2.372.017 1.679 0 3.359 0 5.038 0 .336.035.672.035.987.178.042.267.105.356.105 6.191 0 12.382 0 18.555.021.623 0 .623-.42.623-.945v-11.651ZM10.496 58.245h100.891V54.32H10.497v3.925Zm104.591-3.967v77.44c0 2.897 0 2.855 2.437 2.918.925.021 1.121-.315 1.121-1.365-.018-25.946-.018-51.893-.018-77.839v-1.175c-1.227.02-2.33.02-3.54.02Zm-81.41 76.306c0 1.113.036 2.099-.017 3.065-.036.819.249 1.008.89 1.008 1.511-.042 3.024-.021 4.536-.021 3.166 0 6.333.021 9.5-.021.285 0 .818-.252.818-.42.071-1.197.036-2.414.036-3.611H33.678Zm54.51-.063H75.77c-2.597 0-2.56 0-2.543 3.086 0 .777.196 1.05.872 1.029 1.423-.042 2.846-.021 4.27-.021 2.988 0 5.977.021 8.966-.021.284 0 .818-.336.836-.546.071-1.113.018-2.267.018-3.527Z" fill="#000"/><path d="M63.407 33.278c0 1.86.022 3.558 0 5.256-.023 2.224-.94 4.063-2.998 5.337-2.17 1.354-4.565 1.475-6.892.444-2.506-1.111-3.737-3.093-3.826-5.6-.045-1.738 0-3.496 0-5.477-1.186.606-2.17 1.152-3.222 1.617-1.477.667-2.931 1.516-4.52 1.82-3.311.646-6.399-1.173-7.563-4.165-1.006-2.567.38-5.761 3.133-7.216 1.723-.91 3.446-1.8 5.392-2.81-1.476-.768-2.797-1.476-4.117-2.163-1.633-.829-3.154-1.698-3.982-3.356-1.276-2.547-.739-5.357 1.499-7.196 2.304-1.9 5.549-2.163 8.256-.687 1.611.869 3.267 1.698 5.146 2.668 0-1.253-.067-2.305.023-3.356.111-1.455.022-3.012.537-4.366C51.458.915 54.523-.48 58.193.147c2.842.485 5.169 3.133 5.236 6.044.045 1.779 0 3.558 0 5.559 1.32-.687 2.439-1.314 3.602-1.86 1.343-.606 2.685-1.374 4.14-1.637 3.311-.607 6.399 1.213 7.563 4.184 1.006 2.567-.403 5.761-3.155 7.197-1.723.889-3.446 1.819-5.326 2.81 1.79.95 3.446 1.819 5.102 2.688 2.461 1.293 3.804 3.214 3.67 5.781-.157 2.668-1.746 4.508-4.498 5.478-2.215.789-4.296.344-6.287-.727-1.231-.668-2.484-1.314-3.737-1.982-.313-.1-.626-.202-1.096-.404Zm-4.699 1.031c.022-1.516-.045-3.032.022-4.548.09-2.021 1.947-2.83 3.849-1.82a296.773 296.773 0 0 0 8.502 4.367c1.186.586 2.417.242 2.976-.687.604-1.031.269-2.123-.895-2.75-2.82-1.495-5.638-2.971-8.458-4.447-1.812-.95-1.857-2.93-.067-3.86 2.64-1.375 5.28-2.73 7.899-4.104.537-.283 1.074-.627 1.432-1.051.626-.789.447-1.84-.246-2.507-.65-.627-1.947-.687-2.999-.121-2.707 1.415-5.392 2.83-8.077 4.245-2.059 1.071-3.849.162-3.916-1.981-.022-.87 0-1.759 0-2.628 0-2.123.023-4.245-.044-6.347-.045-1.173-.94-1.88-2.17-1.86-1.164.02-1.947.687-2.082 1.82-.044.363-.044.747-.044 1.111 0 2.628.022 5.256-.023 7.863-.022 1.941-1.544 2.932-3.4 2.244-.784-.283-1.477-.748-2.216-1.132-2.193-1.132-4.363-2.304-6.556-3.416-1.253-.627-2.506-.344-3.11.606-.671 1.011-.358 2.123.895 2.81a389.1 389.1 0 0 0 8.257 4.346c.917.465 1.543 1.051 1.543 2.042 0 .93-.559 1.516-1.432 1.981a537.682 537.682 0 0 0-8.457 4.447c-1.097.586-1.41 1.678-.828 2.689.514.869 1.678 1.253 2.774.849a8.45 8.45 0 0 0 1.074-.506c2.64-1.374 5.258-2.749 7.899-4.123 1.118-.587 2.438-.405 3.065.525.358.546.515 1.253.537 1.9.067 2.79 0 5.58.045 8.369.022 1.415.76 2.123 2.08 2.143 1.41.02 2.171-.667 2.216-2.123-.023-1.455-.045-2.91-.045-4.346Z" fill="#9FD8FF"/><path d="M61.022 66.79h44.227c.463 0 .961.041 1.406.188.747.252 1.192.903 1.192 1.869v42.656c0 1.028-.516 1.679-1.352 1.91-.427.126-.872.126-1.317.126H16.706c-.267 0-.534.021-.8-.021-1.246-.105-1.887-.903-1.887-2.372V69.749c0-2.35.516-2.98 2.509-2.98 14.837.02 29.675.02 44.494.02Zm-30.44 42.383h1.05c2.33 0 4.679-.042 7.01.021.925.021 1.12-.315 1.12-1.365-.035-11.776-.017-23.532-.017-35.309v-1.28h-9.163v37.933Zm60.684 0V71.24h-9.144v29.053c0 2.624.017 5.248-.018 7.851-.018.756.16 1.092.854 1.029.8-.063 1.6-.021 2.401-.021 1.94.021 3.897.021 5.907.021Zm-73.6-37.996v37.996c2.936 0 5.8.021 8.665-.042.177 0 .498-.525.515-.819.054-1.28.018-2.582.018-3.883 0-10.686-.018-21.37.018-32.055 0-.987-.25-1.24-1.05-1.218-1.957.063-3.914.02-5.853.02h-2.313ZM65.56 90.154c0-5.962-.018-11.945.017-17.906 0-.82-.195-1.092-.907-1.071-2.455.042-4.91.063-7.365 0-.783-.021-.997.273-.997 1.175.018 11.903.018 23.806 0 35.708 0 .861.214 1.155.943 1.134 2.42-.042 4.857-.063 7.277 0 .836.021 1.05-.315 1.032-1.26-.018-5.92 0-11.86 0-17.78Zm38.658 18.956V71.26c-.338-.02-.622-.062-.907-.062-2.419 0-4.857.042-7.276-.021-.8-.021-1.05.23-1.05 1.217.036 7.726.018 15.43.018 23.155 0 4.198.018 8.376-.018 12.574 0 .819.214 1.092.907 1.092 2.509-.042 5.035-.021 7.544-.021.231-.021.462-.063.782-.084Zm-60.7.021c.373.021.675.063.995.063 2.331 0 4.68-.042 7.01.021.907.021 1.139-.273 1.139-1.344-.036-11.776-.018-23.553-.018-35.33v-1.28h-9.145c.018 12.658.018 25.212.018 37.87Zm25.76-37.891c-.018.336-.053.567-.053.819 0 12.05 0 24.099-.018 36.169 0 .84.302.987.907.966 2.402-.021 4.803-.063 7.187.021.908.021 1.121-.294 1.121-1.344-.035-11.818-.018-23.616-.018-35.435v-1.175c-3.077-.021-6.048-.021-9.126-.021Z" fill="#FF9B36"/></svg>