<svg width="137" height="139" fill="none" xmlns="http://www.w3.org/2000/svg"><g clip-path="url(#a)"><path d="M128 125.4v-14.5c.1-.5 0-.9 0-1.3v-.4l-.2-.2-.1-.1c-.1-.1-.1-.2-.2-.3-.1-.2-.2-.4-.3-.5-.1-.1-.1-.2-.3-.3-.1-.1-.2-.2-.2-.3 0-.2-.2-.4-.3-.5 0-.1-.1-.2-.3-.3-.1-.3-.3-.5-.5-.7-.1-.2-.2-.3-.3-.4-.1-.2-.2-.4-.3-.5l-.1-.4h-.3c0-.1-.1-.1-.1-.2-.1-.2-.2-.3-.3-.5-.1-.1-.1-.2-.2-.3-.1-.1-.2-.3-.3-.4-.1-.1-.2-.3-.3-.4-.1-.1-.2-.2-.2-.3v-.4l-.3-.1c-.1-.1-.1-.2-.2-.3 0-.1-.1-.2-.2-.3-.1-.2-.2-.3-.3-.5 0-.1-.1-.1-.1-.2s-.1-.1-.1-.1c-.1-.2-.2-.3-.3-.4-.1-.1-.1-.2-.3-.3-.1-.1-.2-.2-.2-.3-.1-.1-.2-.3-.3-.5-.1-.1-.1-.2-.3-.3 0-.1-.1-.2-.2-.3 0-.1-.1-.2-.1-.2l-.2-.2c-.1-.1-.2-.3-.2-.3 0-.1-.1-.3-.3-.4-.1-.1-.1-.3-.3-.4 0-.1-.1-.2-.2-.3 0-.1-.1-.2-.1-.2-.1-.1-.1-.2-.2-.2-.1-.2-.2-.3-.3-.3 0-.1-.1-.1-.1-.2v-.1c-.1-.1-.2-.3-.4-.5 0-.1-.1-.2-.3-.3 0 0 0-.1-.1-.1-.1-.1-.1-.2-.2-.2 0 0 0-.1-.1-.1-.1-.1-.1-.2-.2-.3-.1-.1-.2-.2-.2-.3-.1-.2-.2-.3-.3-.5-.1-.1-.1-.2-.3-.3-.1-.1-.1-.2-.2-.3 0 0 0-.1-.1-.1 0 0 0-.1-.1-.1l-.2-.4h-.1c0-.1-.1-.1-.1-.2-.1-.1-.1-.3-.3-.5-.1-.1-.1-.2-.2-.2v-.2l-.3-.2c-.1-.1-.2-.3-.3-.5 0 0-.1-.1-.1-.2-.1-.1-.1-.2-.2-.2l-.1-.1-.4-.4s-.1 0-.1-.1c-.1-.1-.3-.3-.6-.4-.1 0-.1-.1-.2-.2-.2-.2-.4-.3-.6-.3-.1-.1-.3-.2-.6-.3-.3-.2-.6-.3-.7-.3h-.2c-.2-.2-.5-.2-.7-.2H87.1c-.3 0-.8 0-1.2.4-.3.2-.5.5-.5 1v36.9h-4.2v-.5c0-.2 0-.6-.3-1v-.1c-.1-.2-.2-.4-.4-.5-.1-.1-.2-.3-.4-.4-.4-.4-.5-.4-1-.6-.3-.2-.6-.2-.8-.2h-7.1c-.1-.2-.2-.3-.3-.4-.1-.1-.1-.2-.3-.3l-.3-.3c-.1-.1-.2-.2-.2-.3l-.1-.3h-.2c-.1-.1-.1-.2-.3-.2-.1-.1-.2-.2-.3-.2l-.2-.2v-.3l-.6-.1s-.1 0-.1-.1c-.1-.1-.2-.1-.3-.2-.1-.1-.1-.1-.3-.2-.1-.1-.2-.1-.3-.1-.2-.2-.5-.3-.6-.3-.3-.2-.6-.3-.8-.3-.3-.2-.6-.2-.8-.3h-.6c-.3-.1-.6-.2-.8-.2h-2c-.2 0-.5 0-.8.2-.1 0-.2 0-.3.1h-.3c-.2 0-.4 0-.7.2 0 0-.1 0-.2.1h-.1c-.1 0-.3.1-.5.2-.1 0-.1 0-.2.1-.2.1-.3.2-.4.2-.2 0-.4.1-.6.3h-.1c-.2.1-.3.2-.4.3-.1.1-.2.1-.3.2-.2.1-.4.2-.5.4-.1 0-.2.1-.2.2-.1.1-.2.1-.3.3l-.3.3-.3.3c-.2.2-.3.4-.4.5 0 0-.1.1-.1.2s-.1.1-.2.2l-.1.1h-2.6v-5h14.9c.2 0 .5 0 .8-.2h1c.2 0 .5 0 .7-.2h.2c.2 0 .5 0 .7-.2 0 0 .1-.1.3-.1.3 0 .5-.2.6-.3.1 0 .4-.1.6-.2 0 0 .1-.1.2-.1s.4-.1.6-.3h.1c.1 0 .3-.1.5-.2.3-.1.5-.3.7-.4l.1-.1h.1c.1-.1.3-.1.5-.3.1 0 .1 0 .2-.1s.2-.1.3-.2c.2-.1.3-.2.3-.3.1 0 .2-.1.3-.2.3-.1.4-.2.5-.4.1-.1.2-.1.3-.3l.3-.3c.1-.1.2-.2.3-.2l.2-.2.4-.4.5-.5c.1-.1.2-.1.3-.3.1-.1.2-.2.3-.4.2-.2.3-.3.3-.5.1-.1.2-.2.2-.3.2-.2.3-.4.3-.5.1-.1.2-.3.2-.4.2-.2.3-.4.3-.5.2-.1.3-.3.3-.5.2-.2.2-.4.3-.6l.2-.1.1-.4v-.1l.2-.1v-.4c0-.1.1-.2.1-.4 0 0 0-.1.1-.1.1-.1.1-.3.1-.4.2-.3.2-.6.3-.7v-.2c.2-.3.2-.7.3-1v-.3c.2-.2.2-.5.2-.7v-1.1c0-.3 0-.6.1-.8.1-.6.1-1.1.1-1.6V99c0-.4 0-.7-.1-1-.1-.2-.1-.5-.1-.8v-1.1c0-.2 0-.6-.2-.9v-.5c0-.1 0-.4-.2-.6V94c0-.2 0-.5-.3-.9V93c0-.1-.1-.4-.2-.6v-.1c0-.1-.1-.4-.3-.6v-.1c0-.1-.1-.3-.3-.5V91c0-.1-.1-.3-.3-.5 0-.1 0-.1-.1-.2s-.1-.2-.2-.3c-.1-.2-.2-.3-.3-.4-.1-.2-.1-.4-.3-.6-.1-.1-.2-.2-.2-.3 0-.1-.1-.3-.4-.5l-.3-.3c-.1-.2-.2-.3-.3-.4l-.1-.1c-.1-.2-.2-.3-.3-.4l-.1-.1c-.1-.2-.3-.3-.5-.5l-.1-.1-.1-.1c-.1-.1-.2-.2-.3-.2h-.1l-.1-.1c-.1-.1-.3-.3-.5-.4l-.2-.2c-.1-.1-.2-.2-.4-.3-.1-.1-.2-.2-.4-.3-.1-.1-.2-.2-.4-.2-.1-.2-.3-.3-.6-.3-.1-.1-.2-.1-.3-.2-.1-.1-.3-.2-.6-.3-.2-.2-.4-.2-.6-.3-.2-.2-.5-.2-.6-.3-.2-.2-.5-.2-.7-.3h-.1c-.1-.1-.2-.1-.3-.2-.1-.1-.3-.1-.4-.1h-.1s-.1 0-.1-.1c-.1 0-.2-.1-.4-.2h-.1c-.2 0-.4-.1-.6-.1-.3-.1-.5-.2-.7-.2h-.4c.4-.9.1-.9-.2-.9H18.3c-.2 0-.6 0-.9.2h-.7c-.2 0-.4.1-.6.2H16c-.3 0-.6.1-.8.2-.1.1-.2.1-.3.1-.1 0-.3 0-.5.2h-.1c-.3 0-.5.2-.7.3 0 0-.1.1-.2.1-.1.1-.3.1-.4.2-.2 0-.4.1-.6.3-.2 0-.4.1-.6.3-.1 0-.2.1-.3.2-.3 0-.4.2-.6.3-.1 0-.2.1-.3.2-.2.1-.4.2-.5.4-.1 0-.2.1-.3.2-.2.1-.4.3-.5.4l-.1.1c-.1.1-.2.1-.3.2-.3.2-.5.4-.8.7-.2.1-.3.3-.4.4-.2.1-.3.3-.4.5l-.1.1-.3.3c-.1.1-.2.2-.3.4-.1.1-.2.2-.3.5-.1.1-.2.2-.2.3 0 .4-.1.6-.1.7 0 0-.1.1-.1.2 0 0-.1.1-.1.2-.1.1-.2.3-.3.6-.2.2-.2.4-.3.6-.2.1-.3.4-.3.5-.2.2-.2.4-.3.5v.3l-.2.1v.3c0 .2-.1.3-.2.5-.2.2-.2.5-.2.6v.2c-.2.2-.2.5-.2.6v.5c-.2.4-.2.8-.2 1.1v.5c0 .5 0 1-.1 1.4v2.8c.1.5.1.9.1 1.4v.9c0 .2 0 .5.2.7v.5c0 .2 0 .4.2.7.1.1.1.2.1.4 0 .3.1.5.3.7 0 .2.1.5.3.8 0 .1 0 .3.2.5l.1.1c0 .1.1.3.3.5v.1c.1.2.2.3.2.4 0 .3.2.4.3.5v.1c.1.2.2.3.3.4 0 .1.1.1.1.2v.1c.1.1.2.3.3.5.1.1.2.2.2.3.1.2.2.3.3.4.1.2.2.3.3.4v.4l.4.1c0 .1.1.1.2.2l.3.3c.1.1.1.2.2.2v.3l.4.1.2.2.1.1c.1.1.2.2.3.2l.3.3v.2l.4.1.2.3h.2l.2.2.2.2c.1.1.2.1.3.2.1.1.3.2.5.3.1.1.3.2.4.2.2.2.5.3.6.3h.1c.1.1.2.1.4.2.2.2.4.2.5.2h.1c.2.1.4.2.6.2h.1l.9.3c.3.2.7.2.9.3h.1c.4.2.7.2 1 .3h.6c.3.2.6.2.9.2h12.7v5.1h-2.5l-.1-.1c-.1-.1-.1-.1-.1-.2-.1-.2-.2-.3-.3-.4 0 0 0-.1-.1-.1-.1-.2-.2-.3-.3-.3v-.5h-.4c-.1-.1-.2-.2-.3-.2-.1-.1-.3-.2-.4-.3H27l-.2-.2h-.2c-.1-.1-.2-.2-.3-.2-.1-.1-.3-.2-.5-.3-.2-.2-.4-.3-.5-.3-.2-.2-.5-.3-.6-.3-.3-.2-.6-.3-.8-.3-.3-.2-.6-.2-.8-.3h-.4c-.3-.1-.6-.2-.9-.2h-2c-.2 0-.4 0-.7.1-.1.1-.3.1-.4.1h-.3c-.2 0-.4 0-.7.2h-.1c-.1 0-.1 0-.2.1-.2.1-.4.1-.5.2-.1.1-.2.1-.3.1-.1 0-.2.1-.3.2-.2 0-.4.1-.6.3-.2.1-.3.2-.4.2-.2 0-.4.2-.5.3-.1.1-.2.2-.3.2-.2.1-.3.2-.3.3-.1.1-.2.2-.3.2l-.1.1-.5.5c-.1.1-.1.2-.2.2-.1.1-.2.3-.3.4 0 .1-.1.1-.1.2l-.2.2v.1H5c-.1 0-.4 0-.7.2 0 0-.1 0-.2.1h-.2c-.1 0-.4.1-.6.3-.1 0-.2.1-.4.3-.1.1-.2.2-.2.3-.2.1-.3.3-.3.4-.1.1-.2.2-.2.4-.1.2-.1.4-.1.5 0 .1 0 .3-.1.3-.1.2-.1.5-.1.6v3.4c0 .3 0 .5.1.7 0 .1.1.2.1.3 0 .1 0 .5.3.7.1.2.2.4.4.5l.3.3c.2.3.5.4.6.4.2.3.6.3.7.3H5c.3.1.6.1.9.1h5.9l.1.1c.1.3.2.5.3.6.1.1.1.2.2.3v.1c.1.1.2.3.3.5.1.2.2.3.3.3v.1l.2.2.3.3.4.4c.1.1.2.1.3.2.2.2.3.3.6.5 0 0 .1 0 .1.1.1.1.2.2.4.3.2.2.4.3.5.3.1.1.3.2.6.3.1.1.3.3.6.3.3.2.5.2.7.3h.1c.3.2.6.2.8.3h.5c.2.2.5.2.6.2h1.7c.1 0 .4 0 .6-.2h.8c.3 0 .5-.1.6-.2h.1c.2 0 .5 0 .8-.3.1 0 .2 0 .3-.1.1-.1.2-.1.3-.2h.1c.1 0 .3-.1.5-.3h.1c.1 0 .2-.1.4-.3.1 0 .3-.1.5-.3 0 0 .1 0 .1-.1.1-.1.2-.2.4-.3l.1-.1.3-.3.1-.1.5-.5.1-.1c.1-.1.2-.2.3-.4l.1-.1c.1-.1.2-.2.2-.3.2-.1.3-.3.4-.6.1-.1.2-.3.2-.3 0-.1.1-.1.1-.2l.1-.1h23.9l.1.1c.1.2.2.3.2.4 0 .1.1.1.1.1.1.2.2.4.3.5l.3.3c.3.5.7 1 1.3 1.4.1.1.2.1.2.2.1 0 .1.1.2.1l.2.3h.2c.1.1.1.1.3.2.1 0 .2.1.2.1.1.1.3.2.4.3.2.2.4.3.6.3.1.1.2.2.4.2.1 0 .2.1.3.1.3.2.6.2.7.3h.2c.3.2.6.2.7.2h.7c.3.2.6.2.7.2h1.5c.1 0 .5 0 .8-.2h.6c.2 0 .5 0 .8-.3h.4c.1 0 .4-.1.6-.2.2 0 .4-.1.6-.3.1 0 .1 0 .2-.1.2-.1.3-.1.3-.2l.6-.3c.1-.1.2-.2.3-.2h.1c.1 0 .3-.1.5-.3.1-.1.2-.1.3-.3l.4-.2v-.2l.2-.2.3-.3.1-.1c.1-.1.2-.2.2-.3l.4-.4c.1-.1.1-.2.1-.3.2-.1.2-.3.3-.4v-.1c.1-.1.1-.2.2-.4v-.1h4.9c.3 0 .6 0 .9-.1h.6c.3 0 .5-.1.6-.3.2-.1.4-.2.5-.3.1-.1.3-.2.4-.4.2-.2.3-.5.4-.6.3-.3.3-.7.3-.8v-.1c0-.2 0-.5.1-.7h4.2v.2c0 .1 0 .5.3.8 0 .1.1.3.2.4l.3.3c.1.1.1.2.3.4 0 0 .1.1.2.1l.3.3.1.1c.1.1.3.3.6.4.3.2.6.3.7.3h.5c.4.2.8.2 1.1.2h8.6c0 .1.1.3.3.4.1.1.1.3.3.5 0 .1.1.2.2.3.1.1.2.3.3.5 0 .1.1.2.3.4.1.1.2.2.3.2.1.1.2.2.2.3v.4h.4c.1.1.2.2.3.2 0 0 .1 0 .1.1.1 0 .1.1.2.1 0 0 .1 0 .1.1l.1.3h.3c.1.1.1.1.3.2.1 0 .1.1.2.1.1.1.2.2.5.3h.1l.1.2h.4c.1 0 .3.1.5.2s.4.1.5.1c.3.2.6.2.8.3h.7c.2.2.5.2.7.2h1.4c.1 0 .4 0 .7-.2h.7c.2 0 .4-.1.6-.2h.2c.2 0 .5 0 .7-.3h.2c.3 0 .4-.2.5-.3h.1c.1 0 .3-.1.5-.3.2-.1.4-.2.5-.3.1 0 .3-.1.4-.3 0 0 .1-.1.2-.1h.1c.1-.1.3-.2.5-.4l.3-.3c.2-.1.3-.2.3-.3.1-.1.2-.2.2-.3 0 0 .4-.4.5-.7l.2-.2h.2l.2-.6v-.1c.2-.1.2-.3.3-.4h6.8c.2 0 .4 0 .6-.1.1 0 .2 0 .4-.1h.4c.2 0 .6 0 .9-.3h.1c.1 0 .3-.1.5-.3h.1c.1 0 .3-.1.5-.3.2-.1.2-.2.3-.3.2-.1.2-.2.3-.3.1-.1.2-.1.3-.3l.3-.3c.1-.1.1-.2.1-.3.1-.1.2-.3.3-.6.3-.3.3-.7.3-.9v-3.1c.5-.1.5-.2.5-.3Zm-11 3.4v-1.4c0-.1 0-.3-.1-.5-.1-.1-.1-.3-.1-.5v-.4c0-.2 0-.4-.2-.7 0-.2-.1-.5-.3-.8 0-.2-.1-.4-.3-.6-.1-.2-.1-.4-.3-.5 0-.1-.1-.4-.3-.5-.1-.1-.1-.2-.2-.3-.1-.2-.2-.4-.3-.5v-.3l-.3-.1-.2-.4h-.2l-.2-.2c-.1-.1-.2-.2-.3-.2-.1-.2-.3-.3-.4-.3-.1-.1-.2-.2-.3-.2-.1-.1-.3-.2-.5-.3-.2-.2-.4-.2-.5-.3-.1-.2-.3-.2-.4-.3-.2-.2-.5-.3-.6-.3 0 0-.1 0-.1-.1-.1-.1-.2-.1-.4-.2-.1 0-.2 0-.3-.1h-.1c-.2-.2-.5-.2-.6-.2h-.3c-.2 0-.3 0-.4-.1-.3-.1-.5-.1-.7-.1h-2c-.3 0-.6.1-.9.2h-.5c-.2 0-.6.1-.9.3h-.1c-.2 0-.4.1-.7.3h-.1c-.1 0-.3.1-.5.2 0 0-.1.1-.2.1-.1.1-.3.1-.4.2-.2.1-.4.2-.5.3-.1 0-.2.1-.4.2s-.3.2-.4.3h-.4v.4l-.2.2c-.1.1-.2.1-.2.2l-.4.1v.4c-.1.1-.2.2-.3.4l-.1.1s-.1.1-.1.2c-.1.1-.1.2-.2.3 0 0 0 .1-.1.1-.2.2-.3.4-.3.5v.1c-.2.2-.3.4-.3.6l-.3.6c-.2.3-.3.6-.3.8-.2.3-.2.6-.3.8v.6c-.2.3-.2.6-.2.9v1.7h-8.3l-.1-.1v-38h12.7v18.9c0 .2 0 .6.3 1 0 .1.1.4.4.5.3.2.7.5 1.3.5h21.1v16.1c-.1.1-.2.2-.2.3h-.1l-.1.2-.2.1-.1.1h-.2c-.4.1-.9.1-1.4.1H117v-.4Zm-5.1 3.6-.3.3-.2.2-.1.1-.3.3c-.2.1-.3.2-.3.3-.1 0-.2.1-.3.2-.1 0-.3.1-.5.3-.1 0-.3.1-.5.3-.2 0-.4.1-.7.2h-.7c-.1 0-.3 0-.5.1-.3.1-.7.1-1.1 0-.3-.1-.5-.1-.7-.1h-.4c-.2-.2-.5-.2-.6-.2h-.2c-.2-.2-.4-.2-.5-.3-.1-.1-.3-.2-.5-.2 0 0-.1 0-.1-.1-.1 0-.1-.1-.2-.1-.1-.1-.2-.2-.4-.3-.1-.1-.2-.2-.4-.3l-.1-.1-.1-.1v-.1c-.1-.1-.2-.3-.4-.4-.1-.1-.1-.3-.3-.4 0-.1-.1-.2-.2-.3 0-.1-.1-.3-.3-.5 0-.1-.1-.3-.2-.5v-.1c0-.2-.1-.5-.3-.8v-.1c0-.3 0-.6-.2-.9v-1.2c0-.1 0-.1.1-.2 0-.2.1-.3.1-.5v-.4c.2-.2.2-.5.2-.6.1-.2.2-.3.2-.4 0-.1.1-.2.1-.2.1-.1.2-.3.2-.4.1-.1.2-.2.2-.3l.1-.1.1-.3c0-.1.1-.1.2-.2l.3-.3.2-.2c.2-.1.4-.2.5-.3l.4-.1v-.2c.1-.1.2-.1.3-.2.2 0 .4-.2.5-.3h.1c.1 0 .3-.1.5-.2h.4c.1 0 .4 0 .6-.2h1.5c.3.2.6.2.8.2h.3c.2.2.5.2.6.3.1.1.2.1.3.2.1 0 .1 0 .2.1s.2.2.4.2c.1.1.3.2.4.3l.1.1c.1 0 .1.1.2.1l.1.1c.1 0 .1.1.2.1l.3.3.2.2c.1.1.1.2.2.3.1.1.1.2.2.2 0 .1.1.1.1.2l.1.1v.3l.2.1v.1c0 .1.1.3.2.4 0 .2.1.4.2.6v.5c0 .1 0 .4.2.6v1.1c-.1.2-.2.5-.2.6v.4c-.2.3-.3.6-.3.7v.1c-.2.2-.2.4-.2.5-.1.1-.2.3-.3.5-.1.1-.2.2-.2.3.6.3.5.4.5.6Zm-.6-39.6c.1.2.2.3.3.3.1.1.1.2.3.4 0 .1.1.3.3.5 0 .1.1.2.2.3.1.2.2.4.3.5 0 .1.1.3.3.4 0 .1.1.1.1.2.1.2.2.4.3.5l.1.4.3.1c0 .1.1.1.2.2v.1c0 .1.1.1.1.2.1.1.2.2.2.3l.1.4h.1l.3.3c0 .1.1.3.3.4 0 .1.1.2.2.3 0 .1.1.3.3.4 0 .1.1.2.2.3.1.1.1.2.2.3l.1.1c.1.2.2.3.3.4 0 .1.1.2.2.3.1.1.1.3.3.5.1.1.2.3.3.3.1.1.1.2.2.3.1.2.2.3.3.5.1.1.2.2.2.3v.1c.1.3.3.5.5.7 0 .1.1.2.2.3.1.2.2.3.3.4l.1.1.2.3c0 .1.1.1.2.2 0 .1.1.2.1.2.1.2.2.3.4.5.1.1.1.3.3.5.1.2.2.3.3.4l.1.1c.1.2.2.4.3.5v.3l.3.1c0 .1.1.1.1.2l.1.1.1.4.2.1c.1.1.1.2.3.3 0 .1.1.1.1.2v.1h-17.8V91.1h4c.3.2.5.2.7.3.1 0 .1.1.3.2h.1l.1.2h.3l.2.2c.1.1.2.1.3.2l.2.2c0 .1.1.1.1.2.6.1.6.2.7.2ZM73 127.3c0-.4-.1-.7-.2-1H77v2.9h-4v-1.9Zm-3.9 2.8c-.1.1 0 .1 0 0-.2.2-.3.5-.3.8v.1c-.1.1-.2.3-.2.5l-.2.2h-.1l-.2.4v.1l-.2.1v.2c-.1.1-.1.1-.2.3l-.2.2c-.1.1-.2.2-.3.2-.2.1-.3.2-.4.3-.1.1-.3.2-.3.2-.2 0-.4.2-.5.2-.1 0-.3.1-.5.2-.2 0-.4.1-.5.2-.1 0-.2.1-.3.1h-.6c-.1 0-.3 0-.5.1s-.5.1-.8 0h-.2c-.1 0-.2-.1-.3-.1-.2 0-.4 0-.5-.1h-.4c-.2-.2-.4-.2-.5-.2h-.3c-.2-.2-.4-.2-.5-.3-.1-.1-.3-.2-.4-.2l-.1-.2h-.3l-.2-.2c0-.1-.1-.1-.2-.2v-.4h-.4c0-.1-.1-.1-.2-.2l-.2-.2c-.1-.1-.2-.2-.2-.3 0-.1-.1-.3-.3-.5 0-.1-.1-.3-.2-.4 0-.2-.1-.4-.3-.6 0-.1 0-.2-.1-.3 0-.2-.1-.3-.2-.4 0-.2 0-.4-.1-.6 0-.4-.1-.8 0-1.2 0-.3 0-.6.1-.9v-.3c.2-.2.2-.5.2-.7l.1-.1.1-.3s0-.1.1-.1c.1-.1.2-.3.3-.6.1-.1.2-.2.2-.4.1-.1.2-.2.3-.4l.1-.1.3-.3s.1-.1.2-.1l.3-.3h.1l.3-.3c.1-.1.2-.1.2-.2.2 0 .4-.2.5-.3.2 0 .4-.1.5-.3h.2c.2 0 .3-.1.4-.2h.4c.1 0 .4 0 .6-.2h1.6c.2.2.5.2.6.2h.4c.2.2.4.2.6.2h.1c.1.1.2.2.4.2h.1c.1.1.2.2.4.2h.1c.1.1.2.2.4.2.1.1.2.1.2.2l.1.3h.3l.2.2c0 .1.1.2.2.3.1.1.1.2.2.2v.2l.2.2s0 .1.1.1c0 .1.1.1.1.2 0 0 0 .1.1.1 0 .2.1.4.3.5 0 .1.1.3.2.5v.2c0 .2 0 .5.2.8v2.1c-.2.8-.2 1.1-.2 1.2Zm-49.7-16.3c-.4-.2-.7-.2-1-.2h-.5c-.3-.2-.7-.2-.9-.3h-.2c-.2-.2-.5-.2-.6-.2h-.1c-.2-.2-.5-.3-.7-.3-.1-.1-.3-.2-.5-.3-.1-.2-.3-.3-.6-.3-.1 0-.2-.1-.3-.2-.2-.2-.4-.3-.6-.3-.1-.2-.3-.2-.4-.3h-.1c-.1 0-.1-.1-.2-.2l-.2-.2c-.1-.1-.1-.1-.2-.1-.2-.2-.4-.3-.6-.4 0 0-.1 0-.1-.1l-.2-.2-.3-.3c-.1-.2-.2-.3-.3-.3l-.4-.4c-.1-.2-.2-.3-.3-.4l-.3-.3c-.1-.1-.2-.3-.3-.3 0-.1-.1-.3-.3-.4-.1-.1-.2-.2-.2-.3v-.1c-.1-.2-.2-.4-.3-.5 0-.1-.1-.3-.2-.5 0-.3-.2-.4-.3-.6 0-.1-.1-.4-.3-.6v-.2c0-.1-.1-.4-.3-.6v-.2c0-.2 0-.4-.2-.7v-.1c0-.3-.1-.6-.2-1v-.4c0-.6-.1-1.3-.1-2 0-1.2 0-2.6.1-4.1 0-.2 0-.2.1-.3.1-.2.1-.5.2-.7v-.4c.2-.2.2-.5.2-.6v-.1c.2-.2.2-.4.2-.6 0 0 .1-.1.1-.2.1-.1.2-.3.2-.5.1-.1.2-.3.3-.5v-.1c.2-.2.2-.4.3-.5.1-.1.2-.3.2-.4.2-.2.3-.4.3-.5.1-.1.1-.2.2-.2h.2l.1-.3.1-.1c0-.1.1-.1.1-.2.1-.1.2-.1.3-.3l.2-.2.3-.3.1-.1.3-.3.1-.1.4-.2V88c.1-.1.2-.1.2-.2.1-.1.2-.1.3-.2.1-.1.2-.2.3-.2.1 0 .3-.1.5-.3.1-.1.2-.1.3-.2.2-.1.3-.2.4-.2l.1-.1c.1-.1.2-.1.3-.2.1 0 .3-.1.5-.3h.1c.2 0 .4-.1.5-.3.1 0 .3 0 .5-.2 0 0 .1-.1.3-.1.2 0 .4-.1.5-.2h.3c.1 0 .4-.1.6-.2h.5c.1 0 .4-.1.6-.2h49.3c.2.2.5.2.7.2h.4c.3.2.6.2.8.3h.1l.1.1.4.1h.3c.1.1.3.3.7.3.2.2.4.2.5.3.1.1.3.2.5.3 0 0 .1 0 .1.1 0 0 .1 0 .1.1.1.1.3.2.6.3l.1.1.2.2.2.2c.1.1.2.1.3.1l.2.2v.2l.3.1.1.1.3.3s.1.1.2.1l.2.2c.1.2.2.3.3.3.1.1.1.2.2.2v.4h.4c0 .1.1.1.2.2l.2.2c.1.2.2.4.3.5v.3l.2.1c.1.2.1.3.3.4 0 .1.1.2.2.4 0 .1 0 .1.1.2s.1.2.2.3c0 .1.1.4.3.5v.2c.1.2.1.3.2.4 0 .2 0 .4.3.7v.3c0 .1 0 .3.2.5v.4c0 .2.1.5.2.9v.4c0 .6.1 1.2.1 1.8 0 1.4 0 2.7-.1 4 0 .3 0 .5-.1.6-.1.2-.1.5-.2.7v.2c-.1.2-.2.4-.2.5v.3c0 .1-.1.1-.1.2-.1.1-.1.3-.1.3v.1c-.2.2-.2.4-.2.5-.1.1-.2.3-.3.6-.1.1-.2.3-.3.5-.1.1-.2.2-.2.3 0 .1 0 .1-.1.2s-.2.2-.2.4c-.1.1-.2.3-.3.5-.1.1-.1.2-.2.2-.2.1-.3.3-.3.4-.1.1-.1.1-.2.3-.1.2-.3.3-.4.5l-.2.2-.1.1c-.4.4-.7.7-1.1 1l-.2.1v.1c-.1.1-.2.2-.4.3l-.1.1s-.1 0-.1.1c-.1 0-.3.1-.4.3-.1 0-.3.1-.5.3-.1.1-.2.1-.3.2-.2 0-.4.1-.6.3h-.1c-.2 0-.4.1-.5.2h-.2c-.1 0-.3.1-.5.2h-.1c-.1 0-.4.1-.6.2h-.1c-.2 0-.6 0-1 .3h-.7c-.2 0-.5 0-.7.1-.1 0-.2.1-.3.1H21c-.6 0-1 0-1.6-.1.1 0 .1 0 0 0Zm16.3 8.1v-4.3h12.7v5.1H35.7v-.8Zm17.2 7.1v.2H31.1c0-.2 0-.4.1-.5 0-.1.1-.3 0-.5s-.1-.5-.1-.8v-1.1h22v.8c0 .2 0 .4-.1.6-.2.4-.2.9-.1 1.3Zm-25.7 1.3v.1c-.2.2-.2.4-.2.5v.1c-.2.2-.2.3-.2.5-.1.1-.2.3-.3.4v.1c-.1.1-.1.1-.1.2l-.3.1v.3c-.1 0-.1.1-.2.2l-.2.2c-.1.1-.2.1-.3.3-.1.1-.2.1-.2.2-.1 0-.3.1-.5.3-.1.1-.2.1-.3.2-.2 0-.4.1-.5.2 0 0-.2.1-.3.1-.2 0-.3.1-.5.2h-.6c-.2 0-.4 0-.7.2H21c-.4-.1-.7-.2-1-.2h-.2c-.3-.2-.5-.2-.7-.3-.1-.1-.2-.1-.3-.2-.1 0-.2-.1-.2-.1-.1-.1-.2-.2-.3-.2v-.1l-.3-.1c-.1-.1-.3-.3-.5-.3-.1-.1-.1-.1-.2-.1l-.3-.3-.3-.3c-.1-.1-.1-.2-.2-.2 0-.1-.1-.3-.3-.5 0-.1-.1-.2-.2-.3 0-.1-.1-.3-.2-.5v-.2c0-.1 0-.4-.3-.6v-.1c0-.1 0-.4-.2-.6v-2.3c.1-.2.2-.4.2-.6v-.4c.2-.2.2-.4.2-.5.2-.1.2-.3.2-.4l.2-.1.1-.4v-.1c.1-.1.1-.2.2-.3.1 0 .1-.1.2-.2l.1-.1c.1-.1.2-.1.2-.2h.2l.2-.3.4-.2v-.1l.1-.1c.2-.1.3-.2.4-.2h.3l.1-.2c.2 0 .4-.1.5-.2h.1c.1 0 .3-.1.5-.2h.2c.2 0 .5 0 .8-.2h1.6c.3.2.7.2.9.2h.1c.2.2.5.2.6.2.1.1.3.2.5.2.1.1.2.2.4.2h.1l.2.2.1.1.3.1c.1 0 .2.2.3.3l.1.1.1.1c.2.2.4.4.5.6l.1.2h.1c0 .1.1.3.2.4.1.2.1.4.3.6 0 .1.1.3.2.4v.2c0 .2.1.4.2.6v2.9c-.4.1-.4.4-.4.5Zm-21.2-4h5.2c-.1.2-.1.5-.1.6v2.3H6v-2.9Zm130.8-94c0-.2 0-.5-.2-.8 0-.1-.1-.2-.2-.4l-.3-.3-.2-.4h-18.6c-.4 0-.8 0-1.2.1h-.2l-.2.2-.1.1-.3.3-.4.2v.1s-.1.1-.2.1c0 0-.1.1-.2.1-.1.1-.2.2-.3.2l-.3.3-.3.3h-.3l-.1.3c-.1 0-.2.1-.3.2-.1.1-.2.1-.2.2l-.2.2-.2.2c-.2.1-.3.2-.3.3l-.3.1-.1.2c-.1.1-.2.2-.3.2 0 0-.1.1-.2.1-.1.1-.3.2-.5.4-.2.1-.3.2-.3.3-.1 0-.2.1-.3.2-.2.1-.3.2-.3.3-.1 0-.2.1-.3.2-.2.1-.4.3-.6.4l-.2.2-.3.2v.1c-.1.1-.2.2-.3.2 0 0-.1.1-.2.1-.1.1-.3.2-.4.4-.1 0-.2.1-.3.2l-.3.3c-.1.1-.2.1-.2.2l-.3.3c-.2.1-.3.2-.4.3 0 0-.1 0-.1.1-.1.1-.2.2-.4.3-.1 0-.1.1-.2.2s-.2.1-.3.3c-.1.1-.2.1-.3.3-.2.1-.4.3-.5.4-.1.1-.2.1-.2.2-.1.1-.3.2-.4.3l-.3.3-.3.2v.1l-.1.1c-.2.1-.3.2-.3.3l-.4.1-.1.3-.3.2v.1c-.1 0-.1.1-.2.2-.1 0-.1.1-.2.1.1-.2.1-.4.1-.6v-8.5c-.1-.6-.7-1.2-1.3-1.3-.3 0-.6-.1-.9-.1H85.1c-.3 0-.5 0-.6-.1l-.4-.2-.4.3H68.4c-.3 0-.5.1-.7.3-.3.3-.8.8-.7 1.6v5.7h-5.8c-.6 0-.8.1-1.2.4-.2.1-.7.5-.6 1.3v5.9h-3.6c-.1 0-.4 0-.7.3 0 0-.1 0-.2.1s-.3.2-.5.4c0 0 0 .1-.1.1-.1.2-.3.4-.3.7-.1.5-.1 1.1.1 1.5 0 .1.1.2.1.3v.9c0 .2 0 .4.2.7 0 0 0 .2.1.3v.2c0 .2.1.4.2.7v.3c0 .3.2.5.2.6v.3c0 .1.1.3.2.5 0 .1 0 .4.3.7v.1c0 .2.1.3.2.4 0 .3.2.5.3.6 0 .1.1.3.3.5.1.2.2.3.2.4v.1c0 .2.2.4.3.5.1.1.2.2.2.3 0 .1.1.3.4.5l.2.2c.1.1.2.2.2.3l.1.1.1.3.2.1.3.3c.1.1.1.2.2.3.1.1.1.2.2.2l.1.4h.4l.2.2c.1.2.3.3.4.4.1 0 .1.1.2.2.2.2.4.4.7.5.1.1.2.2.4.3.1.1.2.2.4.3.1.1.2.2.4.3.2.2.3.2.5.3l.2.3h.2l.2.2c.1.1.2.2.3.2.2.2.3.3.4.3l.1.1.6.6.2.2h.1c0 .1.1.1.2.2l.3.3c.1.2.2.3.3.4l.1.3h.1c0 .1.1.1.2.2 0 .1.1.1.1.2.1.1.1.2.2.2v.2c0 .1.1.2.2.3v.1c0 .2.1.4.2.6v.7c0 .2 0 .6.3 1 0 0 0 .1.1.2l.1.3.3.1c.4.4.8.4 1.1.4H88c.2.1.4.1.6.1h32.8c.4 0 .6-.2.8-.4.2-.1.4-.3.4-.6.2-.3.3-.5.3-.8.2-.2.2-.5.2-.6v-.1c.2-.2.2-.4.3-.5.1-.2.2-.4.3-.5.1-.1.2-.3.3-.5v-.1c.1-.1.1-.1.1-.2l.1-.1.2-.2v-.2c.1-.1.1-.2.2-.3.2-.1.2-.3.3-.4v-.1c.2-.1.3-.3.3-.4 0-.1.1-.1.1-.2l.1-.1.5-.5.1-.1c.2-.1.3-.2.5-.4.2-.1.3-.2.3-.3.1 0 .2-.1.3-.3.1-.1.2-.2.3-.2.2-.1.4-.2.5-.3.1-.1.3-.2.3-.3.1-.1.2-.1.3-.2h.3l.1-.3c.1-.1.2-.1.3-.3.1-.1.2-.2.3-.2l.2-.2c.1-.1.1-.1.2-.1l.3-.3c.1-.1.2-.2.3-.2h.4l.1-.4.2-.2.3-.3.2-.2c.2-.2.3-.4.4-.5.1-.1.1-.2.2-.3l.3-.3c.2-.2.3-.4.3-.5l.3-.3c.2-.2.3-.4.3-.5l.1-.1c.1-.1.2-.2.2-.4v-.1c.1-.1.2-.2.2-.4.2-.2.2-.4.3-.5v-.1s0-.1.1-.1c0 0 .1-.1.1-.2.1-.1.1-.2.1-.4.2-.2.3-.5.3-.6.2-.3.3-.6.3-.7v-.1c.2-.3.3-.6.3-.7v-.2c.2-.2.2-.5.2-.6v-.5c.2-.3.2-.6.2-.8v-.7c0-.2 0-.3.1-.4.1-.2.1-.5.1-.6v-8.1c0-.1 0-.4-.2-.6 0-.1-.1-.2-.1-.4l-.2-.3h-.2c-.1-.1-.4-.3-.8-.3h-.9l-.2.1c-.1 0-.1.1-.2.1-.1.1-.1.1-.2.1-.3.2-.5.5-.6.9v.2c0 .3-.1.5-.1.8v7.3c-.1.3-.1.5-.1.7v.8c-.2.3-.2.7-.2.9v.2c-.2.3-.2.6-.3.8v.1c0 .1-.1.2-.1.3-.1.1-.1.3-.2.5-.2.2-.2.5-.2.6-.1.1-.2.3-.2.5-.1.1-.2.2-.2.4-.1.1-.2.3-.2.4-.1.1-.2.2-.3.4-.1.1-.2.2-.3.4-.2.1-.2.3-.3.4-.1.1-.2.2-.2.3l-.2.2-.3.3c-.1.1-.2.1-.2.2h-.4v.4c-.1.1-.2.1-.2.3v.1c-.2.1-.3.2-.4.3-.1.1-.2.1-.2.2h-.3l-.1.2H63.2c-.1-.1-.2-.1-.3-.2l-.1-.1c-.1 0-.1-.1-.2-.1-.2-.2-.4-.4-.6-.5l-.2-.2-.1-.1c-.1-.1-.2-.2-.2-.3v-.2l-.3-.1c-.1-.1-.1-.2-.2-.3 0-.1-.1-.2-.3-.3 0-.1-.1-.3-.2-.4 0-.1-.1-.3-.3-.4 0-.1-.1-.2-.1-.3 0-.1-.1-.1-.1-.2s-.1-.3-.2-.4v-.1c-.1-.2-.2-.3-.2-.4v-.1c0-.1-.1-.3-.2-.5v-.1c0-.1-.1-.3-.2-.5v-.1c0-.2 0-.4-.2-.7v-.3c0-.1-.1-.3-.2-.5v-.2c0-.2 0-.5-.2-.8v-.1h2.3c.3 0 .5 0 .6.1.2.1.4.1.6.1h30.2c.2 0 .4 0 .6-.1h3.9c.4 0 .6-.2.7-.3.1-.1.3-.1.4-.3l.3-.3.3-.3c.1-.1.2-.1.3-.3h.1c.1 0 .2-.1.3-.2.1-.1.2-.2.3-.2l.3-.3h.3l.1-.3c.1-.1.2-.1.2-.2.1-.1.2-.1.3-.3.1-.1.3-.2.4-.3.1 0 .2-.1.3-.3l.3-.3c.1 0 .2-.1.3-.2.1 0 .2-.1.3-.3.1-.1.2-.1.3-.3.1 0 .1-.1.2-.1s.2-.1.3-.2c.1-.1.2-.1.3-.3l.3-.3.3-.3s.1-.1.2-.1l.1-.1c.1-.1.2-.2.4-.3l.4-.3.2-.2c.1-.1.2-.2.3-.2.1-.1.2-.1.3-.2h.2l.1-.3c.1-.1.3-.1.4-.3.1-.1.2-.1.3-.3.1-.1.2-.2.3-.2h.4v-.3c.1 0 .1-.1.2-.2.1 0 .1-.1.2-.1 0 0 .1 0 .1-.1.1-.1.3-.2.4-.4.1-.1.2-.2.4-.3.1 0 .2-.1.3-.2.2-.1.3-.2.4-.3l.1-.1s.1 0 .1-.1c.1-.1.3-.2.5-.4l.3-.3c.1-.1.2-.1.2-.2h.5v-.4c.1 0 .1-.1.2-.2h.1c.1-.1.2-.2.3-.2h.3l.1-.3c.1-.1.2-.1.2-.2.1 0 .2-.1.2-.2l.2-.2s.1-.1.2-.1c.1-.1.3-.2.4-.3.1-.1.2-.1.3-.3.1 0 .1-.1.2-.2s.2-.1.2-.2h.3l.1-.4c.1 0 .2-.1.2-.2.1 0 .1-.1.2-.1l.2-.2.3-.3c.1 0 .2-.1.3-.2.1-.1.2-.2.3-.2l.3-.3c.1-.1.2-.1.3-.2 0 0 .1 0 .1-.1.1-.1.2-.2.3-.2l.1-.1c.2-.1.3-.2.4-.3l.1-.1h15.6v3.2c0 .3 0 .5.1.7v.2c0 .2.1.4.2.5.1.1.2.3.4.4h.1c.2.2.4.3.7.3h.1c.2 0 .7.1 1.1-.3.4-.1.7-.4.8-.9.2-.3.2-.7.2-.9v-2.3c-.2-.6-.2-1.5-.2-2.5Zm-36.6 11.6c-.1.1-.3.2-.4.3l-.1.1-.1.1-.3.3-.1.1-.1.1c-.2.1-.3.2-.4.3h-.3l-.1.3c-.1.1-.2.1-.2.2-.1 0-.2.1-.3.3-.1.1-.2.2-.3.2-.2.1-.3.2-.4.2h-.3l-.1.4-.3.2v.1c-.1.1-.2.1-.2.2-.1.1-.2.1-.3.2l-.1.1-.3.1H94v-4h5.5l.7.2Zm-13.9-6.1v-1.6h11.5v4H86.2v-1.8l.1-.6Zm-9.4 2.4h-.5c-.2 0-.6 0-1 .4-.1.1-.3.2-.4.5-.3.4-.3.8-.3 1.1V48c-1.9 0-7.4.1-11.6 0v-4h8.3c.3 0 .5-.1.6-.3.1 0 .2-.1.3-.3 0 0 0-.1.1-.1l.1-.1c.3-.2.3-.5.3-.7v-.4c.1-.8-.5-1.3-.7-1.4-.4-.3-.6-.4-1.1-.4h-.3v-4h11.6v3.9h-5.4Zm1.7 3.7h11.6v3.9H78.6v-3.9ZM123 64c-.1.1-.2.1-.2.3 0 .1-.1.1-.1.1-.2.1-.4.4-.5.7-.1.1-.2.2-.3.4-.2.1-.3.3-.3.5-.1.1-.2.2-.2.3-.2.2-.3.4-.3.5-.2.2-.2.4-.3.5v.1c-.1.1-.2.3-.3.5-.1.1-.2.3-.3.5v.2c-.1.1-.1.1-.1.2H93.7c-.2-.1-.4-.1-.4-.1H71.1c0-.1-.1-.2-.2-.2v-.3c0-.3-.1-.4-.2-.5 0-.3-.2-.5-.3-.6 0-.1-.1-.4-.3-.5-.1-.2-.2-.3-.3-.5l-.1-.1c-.1-.1-.1-.2-.2-.2-.1-.1-.1-.2-.2-.3l-.1-.3h-.1c0-.1-.1-.2-.2-.2l-.1-.3-.3-.1-.3-.3c-.1-.1-.1-.2-.2-.2h55.6v.1c-.4-.4-.5-.3-.6-.2ZM2.4 18.6c.1.2.2.4.3.5 0 .2.1.4.3.5v.1c0 .1.1.3.2.4 0 .1.1.3.3.5.1.2.2.4.3.5 0 .1.1.3.2.4 0 .1.1.3.3.5 0 .3.2.4.3.5 0 .2.1.4.3.6.1.2.1.4.3.6 0 .1.1.4.3.6 0 0 0 .1.1.2.1.3.3.5.4.6l.1.1c.1.1.1.2.2.3.1.1.1.1.1.2l.2.3h.1c.1.1.1.2.3.3l.3.3.2.2c.1.1.1.2.2.2v.2l.3.2.2.2c.1.1.2.2.3.2.1.1.2.2.3.2.1.2.2.3.4.3.1.1.3.2.4.3.1.1.2.2.3.2.2.2.4.3.5.3.1.1.2.2.4.3.1 0 .1.1.2.1.1.1.2.1.3.2.2.2.4.2.6.3.1 0 .2.1.3.1.1.1.3.1.5.2.1.1.3.2.5.2.1 0 .2 0 .3.1.2.2.5.2.6.2h.1c.2.2.5.2.7.2h.5c.3.2.6.2.8.2h1.6c.4.2.8.2 1 .2h41.1c.3 0 .6 0 .9-.2h.9c.1 0 .4 0 .7-.3h.1c.2 0 .5 0 .8-.3.1 0 .4-.1.6-.3.2-.1.3-.2.4-.2.2 0 .4-.2.5-.3.1 0 .2-.1.3-.3l.3-.3.2-.2.4-.1v-.4c.1-.1.2-.2.2-.3.1-.1.2-.1.2-.3 0-.1.1-.2.1-.3.1-.1.2-.3.3-.5.2-.2.3-.5.3-.6.2-.3.3-.6.3-.7v-.2c.2-.4.2-.8.2-1v-2.3c0-.2 0-.6-.2-1 0-.2-.1-.6-.3-.9-.1-.3-.2-.5-.3-.7 0-.1-.1-.3-.2-.4 0-.1-.1-.3-.3-.4 0-.1-.1-.2-.2-.3 0 0 0-.1-.1-.1-.1-.1-.2-.3-.4-.4-.1-.2-.3-.3-.4-.3l-.1-.2-.1.1-.3-.3c-.1-.1-.3-.3-.5-.3-.1-.1-.3-.2-.4-.2h-.1c-.3-.2-.6-.3-.7-.3-.2-.2-.5-.2-.7-.3H62c-.4-.2-.7-.3-1-.3H38.6l-.3-.3-.2-.2-.2-.2-.3-.3c-.1-.1-.2-.3-.5-.3l-.3-.4h-.1s-.1-.1-.2-.1l-.3-.3-.3-.3v-.1l-.3-.1c-.1-.1-.2-.1-.3-.3-.1-.1-.2-.2-.4-.3-.1-.2-.3-.3-.4-.3l-.2-.2s-.1 0-.1-.1L34 12v-.2l-.4-.1-.1-.1-.2-.2c-.1-.1-.2-.1-.2-.2l-.1-.1-.2-.4h-.2l-.2-.2c-.1-.1-.2-.2-.3-.2-.1-.2-.3-.2-.4-.3-.1-.1-.2-.2-.4-.3-.1-.1-.1-.1-.3-.2l-.3-.3-.2-.2-.1-.3-.4-.1c-.1-.1-.2-.2-.3-.2-.2-.2-.4-.4-.6-.5-.1-.1-.2-.2-.3-.2l-.2-.2-.2-.2c-.1-.1-.1-.2-.2-.2-.1-.1-.2-.2-.3-.2l-.3-.3h-.1c-.1-.1-.2-.1-.3-.2-.1-.1-.2-.2-.3-.2.2-.2.1-.3 0-.4l-.3-.3-.3-.3c-.2-.1-.3-.2-.4-.2-.2-.2-.3-.3-.5-.4l-.1-.1c-.1-.1-.2-.1-.2-.2l-.1-.1-.2-.3h-.2l-.2-.2-.3-.3c-.2-.2-.4-.4-.7-.5l-.3-.3c-.1-.1-.2-.2-.3-.2-.1-.3-.2-.4-.4-.4l-.2-.2v-.2l-.4-.2c-.1 0-.2-.1-.3-.2l-.3-.3-.3-.3c-.1-.1-.3-.3-.6-.4h-.1c-.5-.3-1-.3-1.5 0h-.1c-.1 0-.1 0-.2.1l-.3.1-.1.4c-.4.4-.4.9-.4 1.3v5c0 .2.1.5.3.6 0 .3.2.4.3.6 0 .2.1.4.3.5v.1c0 .2.1.3.2.4 0 .2.1.4.3.5v.1c0 .1.1.3.2.4 0 .2.1.4.3.5.1.2.2.4.2.5 0 0 0 .1.1.1v.3l.2.1c0 .2.1.4.3.5 0 .1 0 .1.1.2.1.2.1.3.2.3 0 .2.1.4.3.5v.1c.1.2.1.4.3.5v.1c0 .1.1.3.2.4 0 .1.1.4.3.5 0 0 0 .1.1.2 0 .1.1.2.2.4 0 .1.1.3.2.4h-7.5c-.1-.1-.2-.1-.2-.1l-.3-.3c-.1 0-.1-.1-.2-.1-.2-.2-.4-.3-.5-.4l-.2-.4h-.2l-.2-.2c-.1-.1-.2-.2-.3-.2-.1-.1-.1-.2-.3-.3-.1-.2-.3-.3-.4-.3-.1-.1-.2-.2-.4-.3-.1-.1-.2-.1-.2-.2l-.2-.4h-.2l-.2-.2-.2-.2-.1-.2-.3-.1c-.1 0-.1-.1-.2-.2s-.3-.3-.6-.4l-.2-.2s-.1-.2-.2-.3c-.1-.1-.1-.2-.3-.3l-.2-.2v-.1l-.4-.1-.1-.1-.2-.2c-.1 0-.2-.1-.2-.1l-.2-.3h-.1c-.1-.1-.2-.1-.2-.2-.1-.1-.2-.2-.3-.2-.1-.2-.2-.3-.3-.3-.2-.3-.4-.4-.6-.5-.2-.1-.3-.2-.4-.4l-.1-.1c-.1 0-.1-.1-.1-.1h-.1l-.2-.3h-.2c0-.1-.1-.2-.3-.3-.2-.2-.4-.4-.6-.5l-.2-.2-.1-.1c-.1 0-.2-.1-.3-.2-.1-.2-.3-.4-.7-.4-.4-.1-.8 0-1.1 0-.4 0-.7.3-.8.4-.3.2-.4.5-.4.6-.2.4-.2.8-.2 1.1V13c0 .3 0 .7.2 1.2 0 .2.1.5.3.7 0 .1.1.3.3.5 0 .1.1.3.3.4v.1c0 .2.2.4.2.4v.1c0 .1.1.3.3.5 0 .1.1.3.3.5 0 .1.1.3.3.5 0 .1 0 .1.1.2 0 .3 0 .4.1.5Zm1.3-7.2c.1.1.2.2.3.2l.4.4c.1.1.2.2.3.2l.2.3H5c.1.1.2.2.3.2.1.2.2.3.4.3.2.2.5.4.7.6.1 0 .1.1.1.1.1.2.2.3.4.3 0 .1.1.1.2.2v.4h.5l.2.2c.1.2.2.3.3.4.1.1.2.2.4.3l.3.3c.1 0 .2.1.3.2l.3.3.3.3c.2.2.4.3.5.4l.3.3.2.2.1.1.1.3.3.1.3.3c.2.2.4.3.5.4.1.1.2.2.3.2l.2.3h.1c.1.1.2.2.3.2l.2.3h11v.1c.1.2.2.3.2.4 0 .2.1.4.3.5 0 .1.1.3.2.4 0 .2.1.3.2.4 0 0 0 .1.1.1.1.1.1.3.3.5.1.1.1.3.2.4 0 .1.1.1.1.1.1.2.2.3.2.4v.5l.3.2c0 .1.1.3.3.5 0 .1.1.3.2.5 0 .1.1.3.2.4 0 .1.1.1.1.1 0 .2.2.4.4.6 0 .1.1.1.1.2.3.3.6.5.9.6h.1c.2.1.5.1.8 0 .1 0 .2-.1.3-.1h.2l.3-.1.2-.3c.3-.3.4-.6.4-.8.1-.3 0-.6 0-.9v-.2c0-.3-.2-.5-.3-.6 0-.1-.1-.4-.3-.6 0-.2-.1-.4-.3-.6 0-.1-.1-.3-.3-.5 0-.1-.1-.3-.3-.5 0-.1-.1-.3-.3-.5v-.1c0-.1-.1-.2-.1-.2s0-.1-.1-.1c-.1-.2-.2-.4-.3-.5-.1-.2-.1-.4-.2-.5 0-.1 0-.1-.1-.2s-.1-.2-.2-.3c-.1-.2-.2-.4-.3-.5 0-.1-.1-.3-.3-.5 0-.2-.1-.3-.2-.5s-.2-.4-.2-.5l-.1-.1c0-.2-.1-.4-.3-.5 0-.1-.1-.3-.3-.5 0-.1-.1-.3-.3-.5 0-.1-.1-.3-.3-.5v-.1c0-.1-.1-.3-.2-.4-.1-.2-.2-.4-.3-.5v-.1c0-.1-.1-.2-.2-.4 0-.2-.1-.4-.3-.5 0-.1-.1-.4-.3-.5 0-.1-.1-.4-.3-.5 0-.1-.1-.3-.3-.5 0-.1-.1-.3-.3-.5 0-.1-.1-.3-.3-.5 0-.1-.1-.3-.3-.5-.1-.2-.2-.4-.3-.5 0-.1-.1-.3-.2-.4 0-.1-.1-.3-.3-.5 0-.1-.1-.3-.3-.5 0 0 0-.1-.1-.1 0-.1-.1-.2-.1-.3l-.1-.1c0-.2-.1-.4-.3-.5 0-.1-.1-.3-.2-.5v-.3s.1 0 .1.1c.1.1.2.2.4.3l.1.1c.1.1.2.1.3.2l.2.2.2.2v.5h.5l.2.2.3.3c.2.2.4.3.5.4l.1.1c.1.1.2.1.3.2.1.1.2.2.4.3l.3.3.1.1c.2.2.4.4.6.5.5-.3.6-.2.7-.2.1.1.2.2.3.2l.3.3.2.2.1.4h.3l.2.2c.1.1.3.2.5.3l.2.2.3.3.2.2.1.3h.3l.2.2c.1 0 .1.1.2.2l.1.1s.1 0 .1.1l.3.3c.1.1.1.2.3.3l.1.3.3.1.3.3c.1.1.1.2.3.2.1.2.3.3.5.3.1.1.1.1.3.2l.2.2v.4h.4l.2.2c.1.1.2.2.4.3.2.2.4.3.5.4l.3.3c.1.1.3.2.4.3l.1.1.1.1c.1.1.2.2.4.3l.1.1c.1.1.2.2.3.2.1.1.2.1.3.2l.3.3.2.2.3.3s0 .1.1.1l.2.2h9.1v3.7c0 .2 0 .6.3.9 0 .1.2.3.4.5.3.3.7.4.9.4h.3c.6.1 1.1-.2 1.5-.7.2-.2.2-.5.2-.7v-4.1h1.8V23c0 .3.1.5.2.8.1.4.2.6.4.7.3.4.8.4 1 .4h.6c.2 0 .4 0 .6-.1.2-.1.3-.2.3-.3.2-.1.3-.3.4-.6.1-.3.1-.7.1-1.1v-3.3h5.4c.3.2.6.2.8.2.1.1.3.1.4.2.1 0 .1.1.2.1.1.1.2.1.3.2l.2.2.1.1.1.1.1.1c0 .1.1.1.2.2l.1.1c0 .1.1.2.2.3 0 .1.1.3.2.5 0 .2.1.4.2.7.1.1.1.2.1.2v1.8c-.2.2-.2.5-.2.6v.1c-.1.1-.2.2-.2.3 0 .1 0 .1-.1.2s-.2.2-.2.4l-.1.1-.1.1c-.1.1-.2.1-.2.2h-.2l-.1.3h-.1c-.1 0-.2.1-.2.2h-.2l-.2.3h-.2c-.2 0-.3.1-.5.2h-.5c0 .5-.4.5-.7.5H19.3c-.6 0-1.2 0-1.8-.1h-1c-.2-.1-.5-.2-.7-.2h-.3c-.2-.2-.5-.2-.6-.2h-.1c-.1-.1-.2-.2-.3-.2h-.3c-.1-.1-.3-.2-.6-.2-.1-.1-.3-.2-.4-.2-.1-.1-.3-.2-.3-.2-.2-.2-.4-.3-.5-.3-.1-.1-.2-.2-.3-.2-.1-.1-.2-.2-.4-.3h-.1s-.1-.1-.2-.1l-.1-.1c-.1-.1-.2-.1-.2-.2l-.2-.2-.3-.3c-.1-.1-.1-.2-.2-.2v-.2l-.6-.6c0-.1-.1-.2-.2-.3-.1-.2-.2-.4-.3-.5 0-.1-.1-.2-.2-.3 0-.1-.1-.3-.3-.5 0-.1-.1-.2-.2-.4s-.1-.4-.3-.5c0-.2-.1-.4-.3-.5 0-.1-.1-.3-.2-.4 0-.1-.1-.3-.2-.4v-.1c-.1-.1-.1-.3-.2-.5s-.2-.3-.2-.5l-.1-.1c-.1-.2-.2-.3-.2-.4 0-.1-.1-.3-.3-.5 0-.2-.1-.4-.3-.5 0 0 0-.1-.1-.2 0-.1-.1-.2-.2-.4 0-.1-.1-.4-.3-.6 0-.1-.1-.3-.3-.5 0-.1-.1-.3-.3-.5 0-.1-.1-.4-.3-.5 0-.1-.1-.3-.3-.5-.1-.2-.1-.3-.2-.4 0 0 0-.1-.1-.1 0-.1-.1-.2-.2-.4 0 0-.1-.1-.1-.2s-.1-.2-.1-.3c0-.1-.1-.1-.1-.2v-1.4Zm52 67.6c0 .1 0 .5.3.7l.1.1c.2.2.6.6 1.2.6H59c.3 0 .5-.1.7-.2h.3c.2 0 .5 0 .7-.3.3 0 .5-.2.7-.3 0 0 .1 0 .1-.1h.2c.1 0 .1-.1.2-.1h.1c.1-.1.3-.1.5-.3.1 0 .1 0 .2-.1.1 0 .2-.1.3-.3.1-.1.2-.1.4-.3.2-.1.4-.3.5-.4 0-.1.1-.1.1-.1l.1-.1v.1l.3.1c0 .1.1.1.2.2l.3.3c.1.2.3.3.4.3.1.1.2.2.4.3.2.2.4.3.5.3.2.2.5.3.6.3.3.2.5.3.7.3.3.2.7.3.9.3h.2c.3.2.6.2.7.2 1.1.1 2 .1 3 0 .3 0 .5-.1.7-.2h.3c.2 0 .5 0 .7-.3h.1c.1 0 .3 0 .5-.2 0 0 .1 0 .2-.1.2-.1.3-.1.5-.3.2-.1.3-.2.4-.3.2-.1.4-.2.5-.3l.4-.1.1-.2c.1-.1.2-.1.2-.2.1-.1.3-.2.3-.3l.2-.2.2.2.3.3c.1.1.2.2.4.3.1.1.2.2.3.2h.1c.1.1.3.2.3.2.2.2.4.3.6.4.2.2.4.3.6.3.2.2.5.3.7.3.3.2.7.3.9.3h.2c.3.2.6.2.7.2h3c.3 0 .5-.1.7-.2h.2c.2 0 .5-.1.8-.3h.1c.1 0 .1 0 .2-.1.2 0 .3-.1.3-.2 0 0 .1-.1.2-.1s.3-.1.4-.2c.2-.1.4-.2.5-.3.2-.1.3-.2.4-.3.2-.1.3-.2.4-.3h.4l.1-.3.2-.2c.1-.1.2-.1.2-.2l.2.2.3.3.3.3c.1.2.3.2.4.3 0 0 .1 0 .1.1.1 0 .1.1.2.1h.1c.2.3.5.4.6.4.2.2.4.3.6.3.2.2.5.3.7.3.2-.1.5-.1.7-.1h.2c.3.2.6.2.9.2h2.8c.1 0 .5 0 .8-.2h.1c.2 0 .6 0 .9-.3.3-.1.5-.1.7-.3.1 0 .3-.1.5-.3h.1c.2-.1.4-.2.6-.4h.1s.1-.1.2-.1h.1c.1-.1.3-.1.4-.3l.3-.3c.1-.1.2-.1.2-.2h.3v-.2l.1.1v.2l.4.1c.1.1.1.2.3.2l.1.1c.1.1.3.2.4.2.1.1.2.2.3.2.2.2.4.3.6.4.2.2.5.3.6.3.2.2.5.3.6.3h.1c.3.2.6.3.8.3h.2c.2.1.5.2.8.2h2.1c.3 0 .5-.2.6-.4.1 0 .1-.1.2-.2.2-.2.2-.4.2-.5.3-.4.3-.9 0-1.3 0 0 0-.1-.1-.1 0-.1 0-.1-.1-.2s-.2-.3-.3-.4c-.1-.1-.3-.2-.4-.3 0 0-.1 0-.1-.1-.3-.2-.6-.2-.8-.2h-1.1c-.2-.2-.5-.2-.6-.2h-.2c-.2-.2-.4-.2-.5-.3-.1-.1-.2-.1-.3-.2-.1 0-.1-.1-.2-.1-.1-.1-.2-.2-.3-.2-.1-.2-.3-.3-.5-.3 0 0 0-.1-.1-.1 0 0-.1-.1-.1-.2l-.2-.2s-.1 0-.1-.1v-.3l-.3-.1c0-.1-.1-.2-.2-.2-.1-.2-.2-.4-.3-.5 0-.1 0-.1-.1-.2 0-.2-.1-.3-.3-.4-.2-.2-.4-.5-.9-.5-.1 0-.1-.1-.2-.1s-.5-.1-.8.1c-.1 0-.1.1-.2.1-.3.1-.6.3-.8.6 0 0 0 .1-.1.1-.1.1-.2.3-.3.6-.1.1-.1.2-.2.2l-.2.1-.1.3c-.1.1-.2.2-.2.3-.1.1-.2.1-.3.3-.1.1-.2.1-.2.2-.2.1-.3.2-.3.3-.1 0-.3.1-.4.3-.1 0-.3.1-.5.3h-.1c-.2 0-.3.1-.4.2-.2 0-.5.1-.8.2h-2.1c-.3-.2-.6-.2-.7-.2-.2-.1-.4-.2-.5-.2-.1-.1-.3-.2-.5-.3-.1-.1-.2-.2-.3-.2l-.3-.3c-.1-.1-.3-.2-.4-.4-.1-.1-.1-.2-.2-.2v-.1c0-.1-.1-.2-.3-.3 0-.1-.1-.1-.2-.2-.1-.2-.1-.3-.2-.5-.1-.3-.3-.5-.4-.7l-.1-.2-.3-.1c-.1 0-.2-.1-.3-.1h-.1c-.3-.2-.8-.2-1 0h-.1c-.1 0-.1 0-.2.1-.4.1-.6.4-.7.6-.1.1-.3.3-.3.6-.1.1-.1.2-.2.3-.2.2-.3.4-.3.5l-.2.2c-.3.1-.4.2-.5.2h-.2l-.1.3c-.1 0-.2.1-.3.2l-.1.1-.4.1v.1c-.1 0-.2.1-.3.2-.1 0-.4.1-.5.2-.2 0-.5.1-.8.2h-2.1c-.3-.2-.6-.2-.7-.2-.2-.1-.4-.2-.5-.2-.1-.1-.3-.2-.5-.3-.1-.1-.1-.1-.2-.1l-.1-.3h-.4l-.1-.1c-.1-.1-.2-.1-.2-.2-.1-.1-.1-.1-.2-.1l-.1-.1c-.1-.2-.2-.3-.3-.4-.1-.1-.1-.2-.2-.3v-.2c0-.1-.1-.3-.2-.3v-.2l-.1-.3-.6-.1-.2-.3-.3-.1h-.2c-.4-.2-.8-.2-1.2 0-.6.1-.9.5-1 .7 0 0 0 .1-.1.1-.1.1-.2.3-.3.5-.1.1-.2.2-.2.3l-.1.1c-.1.1-.3.3-.4.5-.1.1-.2.1-.3.3l-.2.2c-.2.1-.3.2-.3.3-.2 0-.3.1-.4.3-.1 0-.3.1-.4.2h-.1c-.2 0-.4.1-.5.2h-.1c-.2 0-.4 0-.7.2h-2.3c-.2-.2-.4-.2-.6-.2h-.2c-.1-.1-.3-.2-.5-.2l-.1-.2h-.2l-.2-.2-.1-.4h-.4l-.1-.1-.3-.3s-.1 0-.1-.1c-.1-.1-.2-.2-.2-.3l-.2-.3h-.1c0-.1-.1-.1-.1-.2s-.1-.3-.3-.5c0-.1 0-.2-.1-.3-.1-.1-.2-.3-.3-.4l-.3-.3c-.2-.1-.4-.1-.5-.1 0 0-.1 0-.2-.1 0 0-.1 0-.2-.1l-.3-.1-.3.1s-.1 0-.1.1c-.6.1-.9.4-1.1.8l-.1.1c-.1.1-.2.3-.2.5-.1.1-.1.2-.2.3-.1.1-.2.3-.3.4-.1.1-.2.2-.2.3l-.3.3-.3.1v.1c-.1 0-.1.1-.2.1s-.3.1-.4.3c-.1 0-.3.1-.4.2-.1 0-.3.1-.5.2h-.1c-.2 0-.4 0-.7.2h-1c-.2 0-.3 0-.6.1-.2 0-.3.1-.4.2-.3.1-.4.3-.5.4-.3.2-.4.5-.4.9.1.7.1.9.1 1.2Z" fill="#000"/><path d="M34.7 47.2c0-.1-.1-.3-.1-.4v-.1c0-.3-.1-.6-.3-.9 0-.1 0-.2-.1-.3-.1-.1-.1-.2-.2-.3-.1-.3-.2-.4-.3-.6l-.1-.5h-.3l-.2-.2-.2-.2c-.1-.2-.2-.3-.3-.3l-.3-.3-.3-.3-.3-.3c-.1-.1-.3-.2-.4-.2-.2-.2-.5-.3-.6-.3-.2-.2-.5-.3-.7-.3h-.1c-.3-.2-.6-.2-.9-.3h-1.7l-.3-.3c-.1-.1-.2-.1-.2-.2l-.1-.1c-.1-.2-.2-.3-.3-.3l-.1-.3-.4-.2c-.1-.1-.2-.2-.4-.3-.1-.1-.3-.2-.5-.3-.2-.2-.4-.2-.6-.3-.3-.3-.7-.3-.8-.3h-.2c-.3-.2-.6-.2-.8-.2h-2.7c-.1 0-.5 0-.7.2h-.1c-.2 0-.5 0-.8.3-.3 0-.5.2-.7.3l-.1.1h-.3l-.2.2c-.1.1-.3.2-.5.4-.3.2-.6.4-.9.7-.1.1-.1.1-.1.2-.2.1-.3.2-.3.3-.2.1-.3.3-.4.5-.1.1-.2.2-.2.3-.3.2-.3.5-.4.6h-.8c-.1 0-.4 0-.7.2h-.1c-.1 0-.5 0-.7.3h-.1c-.2 0-.3.1-.5.3-.1 0-.3.1-.5.3-.2.1-.3.2-.4.3-.3.2-.5.4-.7.6-.3.1-.4.3-.5.3 0 0 0 .1-.1.1-.2.2-.3.3-.4.5-.2.2-.3.4-.3.5-.1.1-.2.2-.3.5v.1c0 .1 0 .2-.1.2-.2.2-.2.5-.2.6-.1.7-.1 1.5 0 2.3 0 .1 0 .4.2.7v.2c0 .2.1.4.3.6.1.3.2.5.3.6.1.1.2.2.2.3.1.3.4.5.5.7 0 0 .1 0 .1.1.2.2.4.4.6.5.1.1.2.1.2.1.2.3.5.4.6.4.2.2.5.3.7.3.3.2.7.3.9.3h.2c.4 0 .9.1 1.4.1h14.9c.4 0 .7-.1.9-.2.1-.1.2-.1.3-.1.2 0 .4-.1.5-.2 0 0 .1 0 .2-.1s.2-.1.3-.2c0 0 .1 0 .1-.1.1 0 .3-.1.5-.3.2-.1.3-.2.3-.3.2-.1.4-.3.5-.4l.2-.2.3-.2v-.1l.2-.2c.2-.2.3-.4.4-.5 0 0 0-.1.1-.1.1-.1.2-.2.2-.4 0 0 .1-.1.1-.2.1-.2.1-.4.2-.5.2-.3.2-.6.3-.8v-.3c0-.3 0-.6.1-.8.1-.3.1-.6 0-.8.2-.2.1-.3.1-.5Zm-4.2 2.6s0 .1-.1.1l-.2.2c-.1.1-.2.1-.3.3l-.2.2c-.1 0-.3.1-.4.3h-.1c-.2 0-.3.1-.4.2H13.1c-.1-.1-.2-.2-.4-.2h-.2l-.2-.2c0-.1-.1-.1-.1-.2v-.3l-.4-.1c0-.1-.1-.1-.2-.2 0-.1-.1-.3-.2-.5v-1.2c.1-.1.2-.3.2-.5.1-.1.1-.2.2-.2.1-.1.2-.1.2-.2l.3-.3.2-.2c.2 0 .3-.1.5-.2.1 0 .3-.1.4-.1.1-.1.3-.1.4-.1h.3c.6.3 1.1.2 1.5.1h.3l.2-.2h.1c.1-.1.3-.2.4-.4h.1l.1-.1.2-.2v-.3c.2-.2.2-.4.3-.5.1-.1.2-.2.2-.4v-.1l.2-.2.3-.3.2-.2c.1 0 .2-.1.3-.2.1-.1.2-.2.3-.2l.6-.3s.1 0 .1-.1c.1-.1.2-.1.3-.1.2 0 .4-.1.5-.2h1.9c.2.2.4.2.6.2h.1c.1.1.3.2.4.2l.1.2.4.1c.1.1.2.2.3.2.1.1.1.2.3.3 0 .1.1.1.1.1v.1l.2.2s0 .1.1.1c.1.1.2.3.4.5.1.2.3.4.7.5.4.3.9.3 1.3 0h1.3c.1.1.3.2.5.2l.1.2.4.1h.1c.1 0 .1.1.3.2 0 .1.1.1.2.2 0 0 .1 0 .1.1l.3.3c.1.1.1.2.2.2.1.2.2.3.2.3.1.1.1.2.2.3 0 0 0 .1.1.1v.4c.1.4 0 .9 0 1.4-.1.2-.2.4-.2.5-.3-.1-.4 0-.5.1Zm42.1-32.3c0 .2.1.5.3.8 0 .2.1.4.3.5.1.2.2.3.3.4.1.2.2.3.3.3.1.1.2.2.4.3.2.2.4.3.5.3.2.3.5.3.7.3h.1c.3.2.7.3.9.3h11.3c.2 0 .4-.1.7-.2h.1c.1 0 .5 0 .7-.3h.1c.2-.1.4-.2.5-.3.1-.1.2-.1.3-.3l.3-.3.3-.3c.1-.1.1-.2.2-.2.1-.1.3-.3.4-.5.2-.2.3-.5.3-.6.2-.3.3-.6.3-.7v-.4c.1-.6.1-1.1 0-1.8v-.1c0-.2 0-.5-.3-.8-.1-.3-.2-.5-.3-.6V13l-.3-.2s0-.1-.1-.1c-.1-.1-.2-.2-.3-.4l-.2-.2c-.1-.1-.2-.2-.2-.3-.1-.1-.2-.2-.3-.2l-.1-.2-.2-.1c-.1-.1-.3-.2-.5-.3l-.6-.3h-.2c-.3-.2-.6-.2-.7-.2h-.8l-.2-.2s0-.1-.1-.1c-.5-.2-.6-.3-.6-.4l-.3-.3c-.1-.1-.2-.2-.4-.3h-.1c-.3-.2-.6-.2-.8-.3-.3-.2-.6-.3-.8-.3h-.4c-.2-.2-.5-.2-.6-.2h-1c-.1 0-.4 0-.6.2h-.4c-.2 0-.5.1-.8.3h-.1c-.1 0-.1 0-.2.1-.1 0-.3.1-.4.2-.3.1-.5.2-.6.3-.1.1-.3.2-.4.3 0 .1 0 .2-.1.3l-.3.3-.3.3c-.1.1-.2.2-.3.4-.1.1-.1.2-.2.3h-.5c-.2 0-.4 0-.7.2 0 0-.1.1-.2.1-.2.1-.4.1-.6.3-.2.1-.4.3-.5.3-.3.2-.5.4-.7.6l-.1.1c-.2.2-.2.3-.3.4-.1.1-.2.2-.3.4-.3.3-.3.6-.3.7-.2.3-.2.6-.2.8v1.2c-.1.3-.1.7.2 1Zm3.4-1.6c0-.1 0-.1.1-.2 0-.1.1-.1.2-.2l.1-.1c.1 0 .2-.1.3-.2.1-.1.2-.1.3-.2h1.8l.2-.1c.2-.2.4-.3.5-.5l.1-.1c.2-.1.3-.4.3-.6v-.1l.2-.1v-.3s0-.1.1-.1l.1-.1.3-.3c.1 0 .1-.1.2-.1.2 0 .4-.1.5-.2h.3c.2 0 .4 0 .6-.1.3.1.5.1.7.2h.1c.1.1.3.2.4.2h.1c.1 0 .1.1.2.1.1.1.1.2.3.3.1.1.1.2.2.2.2.3.5.6.8.7.1.1.4.3.8.2.3 0 .5-.1.7-.2h.4s.1 0 .2.1c.1 0 .2.1.2.1.1.1.3.2.4.3.1.1.2.3.4.4 0 .1.1.3.2.4v.8c-.1.1-.1.2-.2.4l-.2.2c-.1 0-.2.1-.2.2-.1 0-.3.1-.5.2H77.1c-.1-.1-.3-.2-.4-.2-.1-.1-.1-.2-.2-.2v-.2l-.5-.2v-.4Z" fill="#FF9B36"/><path d="m110.6 49.7.3-.1v-.3l.1-.1c.1 0 .2-.1.3-.1 0 0 .1-.1.2-.1h.5c.3 0 .5-.1.7-.3 0 0 .1 0 .2-.1l.1-.1.1-.1c.2-.2.3-.5.4-.6v-.1c.3-.4.3-.9 0-1.2 0-.2-.2-.6-.5-.8-.2-.3-.5-.4-.9-.4h-.4c-.4 0-1-.1-1.6.3-.3.1-.6.2-.8.3-.2.1-.4.2-.4.3-.2.1-.4.2-.5.3l-.1.1c-.3.2-.5.5-.6.7 0 .1-.1.2-.2.3-.1.1-.1.2-.2.3l-.3.6c0 .1-.1.2-.1.3-.2.2-.2.4-.2.5-.1.7-.1 1.5 0 2.3 0 .1 0 .5.3.7 0 .1.1.4.3.6v.1c.1.2.2.4.3.5 0 .1.1.2.3.3l.3.3.1.2.3.1c.1.1.2.2.5.4 0 0 .1 0 .1.1.1.1.2.1.4.2.3.3.7.3 1 .3h.1c.3.2.6.2.9.2h.5c.3 0 .4-.2.5-.2h.1c.4-.2.7-.5.8-1v-.1c0-.1.1-.2.1-.3.1-.4-.1-.7-.1-.8-.1-.4-.3-.6-.5-.8-.1-.1-.2-.2-.4-.3-.2-.1-.3-.1-.5-.1h-.1c-.2 0-.3 0-.3-.1-.2-.1-.4-.2-.5-.2-.1 0-.1-.1-.2-.2 0-.1-.1-.1-.2-.2 0-.1-.1-.3-.2-.4v-1.2Zm11.2-.1c.1-.1.2-.1.2-.2.1-.1.1-.1.2-.1.2 0 .3-.1.4-.2h.7c.3 0 .5-.1.6-.3.2-.1.6-.3.7-.7 0-.2.1-.3.1-.5l.1-.4-.4-1.1-.2-.1c-.2-.2-.4-.4-.9-.4H122c-.1 0-.4 0-.7.2h-.2c-.3 0-.5.2-.6.3 0 0-.1 0-.2.1s-.2.1-.2.2c-.2.1-.3.2-.4.3h-.3l-.1.4c-.1.1-.2.2-.3.4-.1.1-.2.2-.2.3l-.2.1-.1.5c0 .1-.1.3-.2.5v.1c-.1.2-.1.3-.1.4-.1.9-.1 1.7 0 2.5 0 .3.1.5.3.6 0 .2.1.5.3.6v.1c.1.2.2.4.3.5.1.2.3.3.3.4.1.2.3.3.4.4.1.1.2.1.2.2l.2.2h.2c.1.1.3.2.5.3.3.2.6.3.8.3h.2c.3.2.6.2.9.2.2 0 .4 0 .5-.1.4-.1.7-.3 1-.6.1-.1.3-.2.4-.6 0-.1.1-.2.1-.3 0-.1 0-.1.1-.2l.1-.2-.4-1.2-.2-.1c-.1-.2-.4-.4-.8-.4h-.5c-.2-.2-.5-.2-.7-.2l-.2-.2-.2-.2c0-.1-.1-.2-.2-.3V50c-.1-.2 0-.3 0-.4ZM19.7 90.1H27c.2 0 .7 0 1-.3.1-.1.3-.2.4-.4l.3-.2.1-.3c.1-.4.1-.9 0-1.3s-.3-.6-.5-.8c-.3-.4-.8-.4-1-.4h-8.2c-.2 0-.5 0-.8.2-.1 0-.2.1-.4.1s-.6 0-.9.3h-.1c-.1 0-.4.1-.7.3-.2 0-.5.1-.7.3-.2 0-.4.1-.6.3-.1 0-.2.1-.3.2-.2.1-.4.2-.5.3-.1 0-.2.1-.3.2-.1 0-.3.1-.4.3-.1 0-.2.1-.3.2 0 .1-.1.1-.1.1l-.3.2v.1l-.2.2-.3.3c-.1.1-.2.1-.2.2-.2.1-.3.3-.3.4-.1.1-.2.2-.2.3-.1.1-.2.2-.3.4-.1.1-.2.2-.3.4v.1c-.1.1-.2.3-.3.6-.2.2-.2.4-.3.6-.2.2-.3.5-.3.6v.1c-.2.3-.2.5-.3.7v.3c-.2.2-.2.5-.2.6v.5c0 .2-.1.4-.1.6v.1c-.1.6-.3 1.3.2 2.1v.1c.1.2.3.5.6.6 0 0 .1 0 .1.1.1.1.3.2.5.2h.3c.4 0 .7-.2.9-.3l.1-.1.3-.2v-.1l.1-.1.1-.2v-.9c0-.2 0-.3.1-.5.1-.3.2-.5.2-.9v-.5c.2-.2.2-.5.2-.6V95c.1-.2.2-.4.2-.6.2-.2.2-.4.3-.5.2-.2.2-.4.3-.5 0-.1.1-.1.2-.2s.2-.2.2-.3c.2-.1.3-.3.3-.4 0-.1.1-.1.1-.2.2-.2.3-.4.5-.5.1-.1.2-.1.2-.2l.1-.1.4-.2v-.2c.1 0 .1-.1.2-.1s.2-.1.3-.1l.1-.1c.5.3.5.2.6.2.1 0 .1-.1.2-.1s.3-.1.6-.3h.2c.1 0 .3 0 .5-.2h.3c.2 0 .4-.1.7-.2 0-.1 0-.1.1-.1Zm97.7 26.4h4.3c.2 0 .7 0 1-.3.2-.1.3-.3.4-.4.3-.2.4-.5.4-.9v-.7c0-.4-.2-.6-.3-.7-.1-.1-.2-.3-.4-.4l-.1-.1-.2-.2h-6l-.2.3v.1c-.1 0-.1.1-.2.2l-.1.1c-.1.1-.4.4-.4.7v.1c-.1.3-.2.9.3 1.4.1.2.3.4.5.5.3.3.8.3 1 .3Z" fill="#000"/><path d="M67.8 127s0-.1-.1-.2v-.1c0-.1-.1-.4-.3-.6v-.1c-.1-.2-.2-.4-.3-.5l-.1-.1c0-.1-.1-.1-.2-.2-.1-.2-.2-.3-.3-.4v-.3l-.4-.1c-.1-.1-.2-.2-.4-.3-.1-.1-.3-.2-.6-.3-.3-.2-.6-.3-.7-.3h-.2c-.2-.2-.5-.2-.7-.2h-.9c-.2 0-.6 0-.9.2h-.1c-.2 0-.5.1-.8.3-.3.1-.4.2-.5.3-.1 0-.3.1-.5.3-.2.1-.3.2-.3.3-.1 0-.2.1-.3.2l-.3.3c-.2.2-.3.5-.4.6-.2.2-.3.5-.3.6-.3.3-.3.7-.3 1v1.6h.1v.3c0 .4.1.7.3.9l.1.1c0 .2.1.4.3.6 0 .1.1.4.3.5.1.1.2.3.4.4.1.1.2.2.4.3.2.2.4.4.7.5.2.2.5.3.7.3.3.2.6.3.8.3h.3c.2 0 .4 0 .5.1.1.1.3.1.4.1.2 0 .4 0 .5-.1h.6c.2 0 .5 0 .8-.3h.1c.1 0 .3-.1.5-.2.1-.1.3-.1.5-.3.2-.1.3-.2.4-.3.2-.1.4-.3.5-.6.1-.1.2-.2.2-.3.2-.2.3-.4.4-.6.1-.1.2-.3.3-.6v-.3c.2-.3.2-.6.2-.8v-1.2c-.2-.3-.2-.6-.4-.8Zm-3.8 2.3c-.1.1-.2.1-.2.2-.1.1-.2.1-.3.2-.3.1-.7.1-1.1 0-.1-.1-.2-.2-.3-.2H62c-.1-.1-.1-.2-.2-.2l-.1-.1-.1-.3-.2-.1v-.9c.1-.1.2-.3.2-.4l.1-.1c.1 0 .2-.1.3-.2.2 0 .4-.1.5-.2.1 0 .1-.1.2 0 .1 0 .2.1.3.1h.2c.1.1.2.1.2.2.1.1.1.2.2.2 0 .1.1.2.2.2 0 .1.1.3.2.5v.4c-.1.1-.2.3-.2.5.3 0 .3.1.2.2Zm48.1-1.301c0-.3-.1-.5-.2-.6v-.2c0-.2 0-.6-.3-.9 0-.2-.1-.4-.3-.6-.1-.1-.1-.2-.3-.4-.1-.1-.1-.2-.3-.3-.1-.2-.2-.3-.3-.3l-.2-.2-.1-.3h-.4c-.1-.1-.3-.2-.6-.3-.3-.2-.6-.3-.7-.3h-.2c-.2-.2-.5-.2-.7-.2h-.7c-.3 0-.7 0-1.2.2h-.1c-.2 0-.5 0-.8.3-.3.1-.5.2-.6.3l-.4.1v.2c-.1 0-.1.1-.2.2l-.3.3-.3.3-.3.1-.1.3c-.1.1-.2.3-.3.6-.2.3-.3.7-.3.8 0 .2 0 .3-.1.5-.2.5-.2 1.1 0 1.6.1.2.1.3.1.5 0 .1 0 .4.3.7 0 .2.1.4.3.6 0 .2.1.4.3.6l.3.3.3.3v.3h.4c.1.1.2.2.5.3 0 0 .1 0 .1.1.1.1.3.2.6.3.3.2.5.2.7.2h.4c.2 0 .4 0 .5.1.1 0 .2.1.4.1.1 0 .3 0 .4-.1h.7c.2 0 .5 0 .9-.3.2 0 .4-.1.6-.3.2-.1.3-.2.4-.3l.1-.1.3-.3.4-.1.1-.3c.1-.1.2-.2.2-.3l.3-.3v-.1c.1-.1.1-.2.2-.3 0-.1.1-.2.1-.2v-.1c.3-.3.3-.7.3-1v-.1c0-.1 0-.1.1-.2v-.1c0-.1.1-.3.1-.4-.1-.2-.1-.5-.1-.7Zm-5.7 1.7c-.1-.1-.3-.2-.4-.2l-.2-.2c-.1-.1-.1-.2-.2-.4v-.1c0-.1-.1-.3-.1-.4 0-.1.1-.2.1-.4 0-.1 0-.2.1-.3v-.1l.2-.2c.1-.1.1-.1.1-.2.1-.1.2-.1.3-.2h.2c.2 0 .3-.1.4-.2.2.1.4.2.6.2 0 0 .2.1.2.2l.1.1c.1 0 .1.1.2.2v.1c0 .1.1.1.1.2 0 .2.1.4.1.6-.1.2-.1.4-.1.6-.1.1-.1.2-.2.4l-.2.2c-.1 0-.3.1-.4.2h-.7c.1-.1-.1-.1-.2-.1Zm-80.2-1.7v-.7c0-.2 0-.5-.2-.7v-.2c0-.2-.1-.4-.3-.6v-.1c-.1-.2-.2-.4-.3-.5-.1-.1-.1-.2-.3-.3-.1-.2-.2-.3-.3-.3-.1-.1-.1-.2-.3-.3-.1-.1-.1-.2-.2-.2-.1-.1-.2-.1-.3-.1-.2-.2-.4-.2-.5-.3l-.2-.2h-.4c-.2 0-.4-.1-.7-.2h-.1c-.1-.1-.3-.1-.3-.1h-1c-.1 0-.5 0-.7.2h-.2c-.1 0-.4 0-.6.3h-.1c-.2 0-.4.1-.5.3-.1 0-.4.1-.5.4-.1.1-.2.1-.3.3l-.3.3c-.2.2-.3.4-.4.5-.1.1-.3.3-.3.5-.2.3-.3.6-.3.8 0 0-.1.1-.1.2v.1c0 .1-.1.3-.1.5v1.5c0 .2 0 .5.2.7v.2c0 .1.1.4.3.7 0 .1.1.4.3.5l.1.1c.1.1.1.2.2.3.1.1.2.3.5.4.1.1.2.2.3.2 0 0 .1 0 .1.1.1.1.2.2.4.3 0 0 .1 0 .1.1.1.1.3.2.6.3.3.2.6.3.8.3h.2c.2 0 .3 0 .4.1.1.1.3.1.5.1s.3 0 .4-.1c.1 0 .2 0 .4-.1h.4c.1 0 .3 0 .6-.1 0 0 .1 0 .1-.1.1-.1.2-.1.2-.1.3 0 .5-.2.5-.3.2-.1.4-.2.5-.3l.1-.1.3-.1.1-.1.3-.1.1-.3c.1-.1.3-.2.4-.5v-.1c.1-.1.1-.2.2-.3.3-.2.3-.6.3-.7v-.1c.3-.4.3-.8.3-1v-.1h.1v-.8c-.5.1-.5 0-.5-.1Zm-4.2 1.5c-.1 0-.2.1-.3.2h-1.2c-.1-.1-.2-.1-.3-.2 0-.1-.1-.1-.2-.2s-.1-.2-.2-.2c0-.1-.1-.2-.2-.3 0 0 0-.1-.1-.1v-.5c.1-.1.2-.3.2-.5l.2-.2.2-.2c.1 0 .2-.1.2-.2.2 0 .3-.1.4-.2.1 0 .1 0 .2-.1h.1c.1.1.3.2.6.2 0 0 .1.1.2.1.1.1.2.1.3.2l.1.1c.1.1.1.2.2.3 0 .1.1.1.1.2v.9l-.1.1c-.1.1-.2.2-.3.4 0 0 0 .1-.1.2Z" fill="#FF9B36"/></g><defs><clipPath id="a"><path fill="#fff" d="M0 0h136.8v138.5H0z"/></clipPath></defs></svg>