<svg width="140" height="140" fill="none" xmlns="http://www.w3.org/2000/svg"><path d="M20.026 20.02c1.46.828 2.737 1.592 4.083 2.314 3.786 2.06 7.572 4.1 11.359 6.16 4.265 2.336 8.553 4.672 12.818 7.009 6.911 3.78 13.822 7.582 20.733 11.341 4.265 2.336 8.576 4.609 12.864 6.945.662.361 1.164.319 1.78 0 3.968-2.039 7.96-4.056 11.951-6.074l19.023-9.685c.159-.085.296-.212.616-.446-1.232-.7-2.373-1.338-3.536-1.975-7.458-4.036-14.917-8.05-22.375-12.085-5.862-3.165-11.701-6.33-17.563-9.494-.798-.425-1.62-.892-1.483-1.932.16-1.211 1.483-1.678 2.829-.956a551.456 551.456 0 0 1 7.892 4.184c3.923 2.124 7.846 4.247 11.746 6.371 4.334 2.358 8.667 4.715 13.024 7.094 4.22 2.294 8.394 4.609 12.636 6.86 1.049.552 1.505 1.19 1.505 2.336-.068 4.312-.022 8.623-.045 12.935 0 .7.159 1.104.866 1.508 5.931 3.164 11.838 6.393 17.768 9.578 1.004.531 1.483 1.19 1.483 2.273a9480.166 9480.166 0 0 0 0 36.17c0 1.019-.365 1.401-1.483 1.699-1.3.34-2.486 1.147-3.695 1.805-8.119 4.354-16.239 8.729-24.359 13.104-8.371 4.524-16.72 9.091-25.09 13.614-5.588 3.016-11.199 6.011-16.787 9.027-.753.403-1.483.403-2.258-.021-9.01-4.885-18.042-9.77-27.051-14.655-8.371-4.545-16.696-9.09-25.067-13.614a1243.296 1243.296 0 0 0-13.001-6.945C.229 103.913 0 103.148 0 102.15c.023-6.86.023-13.72.023-20.58 0-5.098.023-10.195-.023-15.271 0-1.083.365-1.742 1.414-2.294 4.288-2.251 8.508-4.588 12.796-6.839.752-.403.935-.87.935-1.614-.023-11.49.023-22.98-.046-34.47 0-1.339.57-2.06 1.734-2.677 4.47-2.357 8.895-4.8 13.366-7.178 5.405-2.889 10.834-5.756 16.24-8.645 1.208-.637 2.44-1.295 3.603-2.017 1.14-.701 2.19-.765 3.376-.106 2.007 1.125 4.083 2.166 6.113 3.25 1.163.615 1.437 1.146.98 1.91-.524.893-1.436 1.084-2.531.51-1.802-.977-3.558-1.996-5.383-2.93-.342-.17-.958-.17-1.277 0a3276.37 3276.37 0 0 0-19.182 10.258c-3.992 2.145-7.96 4.311-12.112 6.563Zm61.105 70.703c.022-.318.068-.446.068-.594 0-10.896.023-21.77-.023-32.666 0-.424-.388-.977-.775-1.231-1.483-.892-3.057-1.7-4.585-2.528a8785.45 8785.45 0 0 1-19.433-10.47c-4.744-2.57-9.465-5.162-14.21-7.71a8522.501 8522.501 0 0 0-19.227-10.365c-1.46-.785-2.92-1.55-4.448-2.357-.069.255-.114.36-.114.446 0 11.001-.023 21.982.023 32.984 0 .318.319.764.638.934 3.9 2.145 7.846 4.248 11.77 6.372 3.854 2.081 7.709 4.163 11.586 6.244 4.745 2.57 9.466 5.14 14.21 7.688 4.95 2.655 9.877 5.31 14.826 7.965 3.148 1.763 6.34 3.483 9.694 5.288ZM3.604 68.465c-.023.319-.069.531-.069.722.114 10.79.206 21.558.365 32.347 0 .382.365.913.753 1.126 1.369.828 2.805 1.529 4.197 2.293 9.214 5.055 18.43 10.131 27.644 15.186 8.895 4.885 17.79 9.727 26.686 14.591.981.531 1.985 1.041 3.057 1.593.068-.297.114-.404.114-.51 0-10.916.022-21.854-.023-32.771 0-.34-.365-.828-.707-1.02-7.618-4.184-15.282-8.304-22.923-12.467L23.607 79.17c-4.995-2.718-9.99-5.437-14.985-8.134a310.904 310.904 0 0 1-5.018-2.57Zm75.884 25.062c-.935-.51-1.596-.87-2.28-1.232-5.338-2.867-10.698-5.713-16.035-8.58-4.31-2.337-8.599-4.694-12.91-7.052a3820.69 3820.69 0 0 0-16.171-8.75c-4.881-2.634-9.74-5.267-14.643-7.858-.365-.192-1.05-.213-1.415-.022-2.394 1.19-4.766 2.443-7.139 3.696A209.025 209.025 0 0 0 5.2 65.747c1.027.552 1.848.977 2.669 1.401 5.839 3.165 11.678 6.35 17.54 9.515a6571.217 6571.217 0 0 0 21.19 11.427c6.888 3.716 13.776 7.455 20.71 11.15.365.191 1.026.149 1.414-.021 1.3-.595 2.509-1.296 3.763-1.954 2.258-1.21 4.516-2.4 7.002-3.738Zm25.341 23.766c.456-.149.73-.212.935-.319 4.722-2.527 9.42-5.076 14.119-7.603 5.337-2.888 10.651-5.777 16.011-8.623.708-.382.913-.764.913-1.465-.023-10.705-.023-21.41-.023-32.113 0-.319-.046-.659-.068-1.084-.343.17-.548.255-.73.361-5.383 2.91-10.766 5.841-16.172 8.75-4.561 2.465-9.146 4.95-13.731 7.392-.889.467-1.3 1.02-1.3 2.06.046 10.428.023 20.857.023 31.264.023.403.023.828.023 1.38Zm-35.262 18.775c.365-.127.661-.17.912-.297 3.148-1.699 6.272-3.398 9.42-5.098 6.865-3.716 13.73-7.433 20.619-11.107.753-.404 1.049-.829 1.049-1.636-.023-10.598-.023-21.196-.023-31.794 0-.361-.045-.722-.068-1.19-.342.15-.547.234-.73.34-3.695 1.997-7.367 4.014-11.062 6.01-6.34 3.42-12.704 6.818-19.068 10.217-.73.382-1.05.807-1.05 1.656.046 10.598.023 21.197.023 31.795-.022.318-.022.679-.022 1.104ZM83.982 90.83c1.414-.723 2.6-1.317 3.786-1.954 8.964-4.843 17.905-9.707 26.892-14.485 1.003-.531 1.322-1.105 1.322-2.167-.045-10.428-.022-20.856-.022-31.284v-1.36c-.343.15-.502.213-.662.298-2.988 1.635-5.976 3.313-8.986 4.927-7.117 3.802-14.233 7.604-21.372 11.384-.684.361-.981.807-.981 1.593.023 10.598.023 21.218.023 31.816v1.232Zm35.353-35.554v16.757l15.51-8.39a3206.371 3206.371 0 0 1-15.51-8.367Z" fill="#000"/><path d="M69.244 8.976c.046 1.36-.98 2.209-2.03 1.805a24.296 24.296 0 0 1-3.969-1.975c-.775-.467-.912-1.296-.365-2.06.548-.765 1.323-.892 2.19-.467 1.072.53 2.167 1.019 3.17 1.614.457.318.776.85 1.004 1.083Z" fill="#000"/><path d="M25.637 44.126v-8.9c0-.424-.069-.913.137-1.252.273-.425.798-.935 1.231-.977.502-.043 1.186.318 1.551.7.297.319.297.914.32 1.402.022 5.968.022 11.936.022 17.905 0 .212 0 .424-.022.637-.114.998-.707 1.571-1.62 1.571-.958 0-1.55-.488-1.596-1.571-.069-1.87-.023-3.738-.023-5.607v-3.908Zm34.599 16.906v9.324c0 1.232-.502 1.806-1.506 1.806-1.003 0-1.665-.68-1.665-1.763V51.624c0-1.105.684-1.784 1.642-1.763.935.021 1.506.658 1.506 1.741.045 3.123.023 6.266.023 9.43ZM33.507 48.31v-9.112c0-1.274.547-1.911 1.574-1.932 1.049 0 1.642.616 1.642 1.869a2525.6 2525.6 0 0 1 0 18.669c0 1.231-.548 1.762-1.62 1.741-1.049-.021-1.573-.595-1.596-1.784V48.31Zm11.037 4.206v9.323c0 1.254-.456 1.785-1.528 1.806-1.118.021-1.665-.51-1.665-1.827-.023-6.18-.023-12.382 0-18.563 0-1.38.639-1.996 1.825-1.869 1.049.128 1.345.765 1.345 1.657.023 3.186.023 6.33.023 9.473Zm7.892 4.437v8.9c0 .424.046.913-.182 1.231-.297.425-.821.935-1.277.956-.48.043-1.14-.34-1.46-.722-.297-.34-.32-.934-.32-1.402-.022-6.01-.022-12.02 0-18.01 0-.446 0-1.02.274-1.317.388-.382 1.027-.765 1.551-.743.456.02.958.552 1.255.955.228.319.16.829.16 1.232v8.92Zm23.905 12.871c0 3.037.023 6.075-.022 9.112 0 .53-.115 1.19-.434 1.593-.661.807-2.167.467-2.6-.553-.137-.318-.16-.68-.16-1.04v-18.35c0-.914.16-1.72 1.323-1.912 1.14-.17 1.848.425 1.87 1.699.046 2.018.023 4.035.023 6.053v3.398Zm-8.164-4.397v9.218c0 1.21-.593 1.954-1.551 1.954-.935 0-1.71-.85-1.71-1.996 0-6.18-.024-12.361 0-18.52 0-1.36.775-1.954 2.052-1.72.98.169 1.209.849 1.209 1.656-.023 3.143 0 6.265 0 9.408ZM10.81 89.407V80.06c0-1.146.501-1.699 1.505-1.762 1.14-.064 1.802.51 1.802 1.678.022 2.59 0 5.16 0 7.752v10.916c0 1.317-.708 1.997-1.848 1.891-.958-.106-1.46-.68-1.46-1.827v-9.302Zm19.044 8.601v9.218c0 1.253-.639 1.869-1.802 1.784-.775-.064-1.3-.382-1.368-1.147a9.768 9.768 0 0 1-.069-1.168V89.088c0-.255 0-.488.023-.743.091-1.041.73-1.678 1.665-1.657.912.043 1.597.743 1.597 1.742-.046 3.207-.046 6.392-.046 9.578Zm-11.111-4.247v-9.324c0-1.189.502-1.762 1.574-1.784 1.026 0 1.62.574 1.62 1.763.022 6.266.022 12.51 0 18.775 0 1.19-.594 1.784-1.62 1.784-1.072 0-1.574-.573-1.574-1.763v-9.45Zm15.699 8.538c0-3.144-.023-6.287 0-9.43 0-1.275.912-1.933 2.121-1.615.912.234 1.095.935 1.095 1.657.023 1.487.023 2.973.023 4.439v13.763c0 1.571-.525 2.357-1.62 2.378-1.095.022-1.642-.743-1.642-2.315.023-2.931.023-5.904.023-8.877Zm15.691 8.559c0-3.101-.023-6.223 0-9.324.022-1.55 1.163-2.379 2.372-1.657.479.276.82 1.083.843 1.657.115 1.72.046 3.462.046 5.182v13.253c0 1.38-.433 1.89-1.505 1.933-1.186.042-1.734-.489-1.757-1.848-.022-2.825 0-5.65 0-8.474v-.722Zm8.235 4.332v-9.323c0-1.211.502-1.827 1.528-1.827.958 0 1.665.701 1.665 1.784.023 6.244.023 12.51 0 18.754 0 1.147-.638 1.784-1.642 1.763-1.003-.021-1.528-.637-1.528-1.827-.023-3.101-.023-6.202-.023-9.324Zm-16.012-8.686V97.18c0-1.359.48-1.932 1.529-1.89 1.049.021 1.574.659 1.574 1.933v18.541c0 1.36-.936 2.146-2.099 1.763-.867-.297-1.026-.955-1.026-1.699.045-3.101.022-6.223.022-9.324Zm65.664-8.241c0-4.056.023-8.134-.023-12.19 0-.999.342-1.593 1.3-2.124 7.801-4.163 15.556-8.39 23.334-12.595 1.391-.765 2.737-.106 2.759 1.38.137 8.262.229 16.524.365 24.807.023.977-.41 1.572-1.277 2.04a6485.338 6485.338 0 0 0-21.235 11.32c-.844.446-1.711.892-2.577 1.316-1.392.659-2.623 0-2.623-1.465-.023-4.163-.023-8.326-.023-12.489Zm17.289-19.582c-2.167 1.19-4.06 2.273-5.999 3.271-.707.361-.844.85-.844 1.53.023 6.71.023 13.422.023 20.134 0 .339.023.679.046 1.125.296-.106.524-.17.707-.255 1.688-.934 3.33-1.932 5.063-2.803.776-.382 1.027-.828 1.027-1.657-.046-6.669-.023-13.359-.023-20.028v-1.317Zm-14.073 29.968c.981-.531 1.779-.998 2.623-1.38.798-.34 1.072-.807 1.072-1.636-.046-6.711-.023-13.444-.023-20.155 0-.34-.045-.68-.068-1.19-.935.489-1.688.977-2.486 1.296-.89.361-1.141.934-1.141 1.826.046 6.648.023 13.296.023 19.944v1.295Zm20.961-33.77c-1.049.553-1.802 1.041-2.6 1.381-.89.382-1.095.956-1.095 1.848.046 6.605.023 13.21.023 19.816 0 .36.046.722.091 1.295.981-.51 1.734-.934 2.532-1.295.821-.361 1.095-.892 1.095-1.763-.046-6.648-.023-13.296-.023-19.922-.023-.382-.023-.743-.023-1.36Zm-32.046 29.182c0 4.035-.046 8.049.023 12.085.022 1.104-.388 1.784-1.392 2.315l-22.17 11.724c-.593.318-1.163.658-1.802.892-1.231.446-2.326-.234-2.326-1.445-.023-8.41 0-16.821-.023-25.231 0-.956.661-1.359 1.391-1.742 2.646-1.423 5.315-2.846 7.983-4.269 5.087-2.697 10.173-5.416 15.26-8.113.068-.042.136-.085.182-.106 1.528-.786 2.828-.106 2.828 1.508.069 4.099.046 8.24.046 12.382Zm-16.947 19.71c.365-.128.661-.192.912-.319 1.688-.935 3.353-1.911 5.064-2.782.707-.361.912-.807.912-1.508-.023-6.754-.023-13.487-.023-20.24 0-.32-.045-.66-.09-1.148-2.1 1.147-3.992 2.252-5.931 3.25-.662.34-.867.701-.844 1.38a4813 4813 0 0 1 .023 18.223c-.023 1.02-.023 2.039-.023 3.144ZM96.98 93.909c-.958.53-1.688 1.062-2.509 1.36-1.003.381-1.14 1.019-1.14 1.91.023 6.563.023 13.126.023 19.71 0 .404.045.807.068 1.381 1.027-.531 1.87-.998 2.737-1.423.662-.319.935-.744.935-1.487-.045-6.754-.022-13.487-.022-20.24-.023-.32-.069-.638-.092-1.211Zm-17.289 9.409c-1.049.552-1.847 1.019-2.691 1.401-.753.34-1.004.807-1.004 1.572.023 6.754.023 13.487.023 20.241 0 .339.046.658.069 1.125.866-.467 1.55-.934 2.326-1.21 1.095-.425 1.3-1.147 1.277-2.167-.045-6.499-.023-12.998-.023-19.497.023-.403.023-.786.023-1.465Zm7.868-31.305c0-4.1.022-8.199-.023-12.298 0-.955.32-1.55 1.231-2.039 7.915-4.205 15.83-8.431 23.722-12.68 1.459-.785 2.805-.02 2.828 1.636.023 4.248 0 8.496 0 12.722 0 3.887-.023 7.774.023 11.66.022 1.147-.502 1.827-1.529 2.358a2409.996 2409.996 0 0 0-16.445 8.75c-2.463 1.317-4.903 2.634-7.39 3.93-1.209.615-2.417-.15-2.44-1.53-.023-3.037 0-6.074 0-9.132.023-1.126.023-2.252.023-3.377Zm17.197-19.901c-2.212 1.19-4.265 2.273-6.272 3.44-.296.17-.456.786-.456 1.19-.023 6.818-.023 13.635-.023 20.453 0 .297.046.573.091.998 1.916-1.062 3.672-2.102 5.497-2.995.89-.446 1.255-.934 1.232-1.89-.046-6.648-.023-13.274-.023-19.922.023-.382-.023-.743-.046-1.274ZM91.139 81.974c1.073-.553 1.87-.999 2.692-1.38.775-.362 1.004-.872.98-1.679-.045-6.648-.022-13.274-.022-19.922v-1.38c-1.004.552-1.78 1.02-2.6 1.38-.844.361-1.072.892-1.072 1.742.045 6.648.022 13.274.022 19.922v1.317Zm20.597-33.706a86.73 86.73 0 0 1-2.783 1.444c-.661.34-.912.764-.912 1.508.045 6.754.023 13.487.023 20.24 0 .34.045.659.068 1.126.867-.446 1.574-.87 2.304-1.19 1.049-.424 1.3-1.104 1.3-2.144-.069-6.457-.023-12.935-.023-19.391.023-.446.023-.914.023-1.593Z" fill="#FF9B36"/></svg>