<svg version="1.0" xmlns="http://www.w3.org/2000/svg" width="346.667" height="346.667" viewBox="0 0 260 260"><path d="M38.6 93.1C23.1 98.4 14 110.8 14 126.5c0 10.8 2.7 17.2 10.5 25 8.2 8.3 14.6 10.8 26 10.3 13.8-.5 24.6-7.7 30.6-20.4 5.5-11.5 4.8-22.6-2.1-33.3-4.8-7.4-11.5-12.4-19.9-15.1-7.9-2.5-13-2.5-20.5.1zm20.1 3.5c-.3.3-1.2.4-1.9.1-.8-.3-.5-.6.6-.6 1.1-.1 1.7.2 1.3.5zM37.5 98c-.3.5-1.1 1-1.6 1-.6 0-.7-.5-.4-1 .3-.6 1.1-1 1.6-1 .6 0 .7.4.4 1zm37.7 10.3 2.1 2.9-2.2-1.3c-1.1-.8-2.1-1.8-2.1-2.3 0-.6-1.2-2.4-2.7-4l-2.8-3.1 2.8 2.5c1.6 1.4 3.8 3.8 4.9 5.3zm-49.9-1.7c-2 2.1-3.1 3-2.3 1.9 2.3-3.2 5.3-6.5 5.7-6.1.2.1-1.3 2.1-3.4 4.2zm53.7 8.9c0 .5-.5.3-1-.5s-1-2-1-2.5c0-.6.5-.3 1 .5s1 1.9 1 2.5zm-21.2 11.3.3 9.2H40v-8.8c0-4.9.3-9.2.7-9.5.3-.4 4.3-.6 8.7-.4l8.1.4.3 9.1zM28 149.5l3.4 4-4-3.7c-2.2-2.1-4.8-5.2-5.7-7l-1.8-3.3 2.3 3c1.3 1.6 3.9 4.8 5.8 7zm48-5.1c0 .2-.8 1-1.7 1.7-1.6 1.3-1.7 1.2-.4-.4 1.3-1.6 2.1-2.1 2.1-1.3zm-3 4c0 .3-1.5 1.5-3.2 2.7l-3.3 2.3 2.4-2.7c2.2-2.4 4.1-3.5 4.1-2.3zm-36.1 7.2c1.4 1.2-1.9.1-3.5-1.2-1.8-1.4-1.8-1.4.6-.3 1.4.6 2.7 1.3 2.9 1.5zm25.1.4c-.8.5-1.9 1-2.5 1-.5 0-.3-.5.5-1s2-1 2.5-1c.6 0 .3.5-.5 1zm41.6-45.2c-.3.4-.7 7.4-1.1 15.4l-.6 14.6 13.8.4c7.6.2 14.3 0 14.9-.5.7-.4 1.4-2 1.7-3.5.5-2.4 1-2.7 4.2-2.7 3.4 0 3.8.3 4.9 3.5.9 3 1.6 3.5 4.5 3.8 1.8.2 3.8-.1 4.2-.5.8-.8-6.6-27.1-8.4-30.1-.5-.6-2.5-1.2-4.6-1.2-2.1 0-4.3.6-4.8 1.2-.6.7-2.8 7-4.9 14-2.8 9.4-4.1 12.3-4.6 10.8-.6-1.7-1.7-2-6.3-2-5.2 0-5.5-.1-5.5-2.4s.4-2.5 5.3-2.8c5-.3 5.2-.4 5.2-3.3s-.2-3-5.2-3.3c-4.9-.3-5.3-.5-5.3-2.8s.3-2.4 5.5-2.4h5.5v-7h-8.9c-5 0-9.2.4-9.5.8zm34.8 14.9c.6 1.9.3 2.3-1.3 2.3-2.2 0-2.5-1-1.4-4.9.6-2.5 1.4-1.8 2.7 2.6zm20.1-14.5c-4.6 2.5-6.5 5.1-6.5 8.8 0 4.2 2.3 6.8 8.5 9.7 6.2 2.9 5.3 4.8-2.1 4.6-5.8-.2-6.2-.1-6.6 2.2-.7 3.2 0 4 4.5 5.5 7.8 2.5 16.7-2.4 16.7-9.2 0-4.4-1.6-6.6-7-9.3-5.7-2.9-6.5-3.8-4.4-5.5 1.1-1 2.3-1.1 5-.2 3.3 1 3.6.9 4.5-1.4 1.4-3.7 1.2-4.4-1.7-5.4-3.3-1.3-8.4-1.2-10.9.2zm14.7 3.5c.3 3.7.4 3.8 4.1 3.7l3.7-.1V142h8v-24h4.1c3.9 0 4-.1 3.7-3.3l-.3-3.2-11.8-.3-11.8-.3.3 3.8zm25.5-3.1c-.4.4-.7 7.4-.7 15.5 0 14.1.1 14.8 2.1 15.4 1.1.4 7.7.4 14.5 0l12.5-.7 2.1-4.5 2.1-4.5 2 3.8c2.4 4.9 4.3 6.4 7.9 6.4 3.8 0 3.6-1.6-.9-9.9l-3.8-6.8 3.8-6.1c4.9-7.9 4.8-9.2-.3-9.2-3.9 0-4.2.2-6.1 4.7l-2.1 4.8-2.2-4.5c-2-4.2-2.4-4.5-6.4-4.8-2.5-.2-4.2.1-4.2.8 0 .6 1.6 3.9 3.5 7.4 1.9 3.5 3.5 6.9 3.5 7.5 0 .5-1.5 3.5-3.4 6.6-2.8 4.6-3.4 5.2-3.9 3.5-.4-1.7-1.3-2-6.6-2-5.8 0-6.1-.1-6.1-2.5s.3-2.5 5.5-2.5h5.5v-7h-5.5c-5.1 0-5.5-.1-5.1-2.3.3-1.9 1-2.2 6-2.5l5.7-.3-.3-3.2-.3-3.2-9-.3c-5-.1-9.4 0-9.8.4z"/></svg>