<svg width="100" height="107" fill="none" xmlns="http://www.w3.org/2000/svg"><g clip-path="url(#a)"><path d="M41.548 66.098c0-1.856.02-3.588-.021-5.319 0-.23-.188-.48-.355-.667-3.126-3.046-4.732-6.842-5.378-11.096-.146-1.002-.208-2.024-.333-3.025a2.14 2.14 0 0 0-.292-.792c-4.357-6.612-3.878-14.267 1.292-20.274 3.753-4.36 8.422-7.175 14.113-8.156 3.898-.667 7.61-.166 10.861 2.316 2.314 1.773 3.648 4.192 4.524 6.924.146.46.438.897.792 1.231 1.98 1.856 2.898 4.192 3.044 6.841.208 3.713-.772 7.196-2.335 10.513-.584 1.23-.5 2.502-.667 3.754-.542 3.859-1.772 7.404-4.253 10.45-.292.354-.563.75-.917 1-1 .69-1.21 1.607-1.126 2.754.084 1.147.02 2.294.02 3.546.564 0 1.043.02 1.544 0 2.855-.084 5.711.042 8.442 1.022 7.38 2.607 12.237 9.532 12.237 17.437v20.753c0 1.398-.292 1.69-1.688 1.69H21.118c-1.542 0-1.813-.271-1.813-1.815V84.661c0-8.948 5.774-16.269 14.509-18.125 2.168-.459 4.46-.313 6.691-.438.292-.021.605 0 1.043 0Zm29.33 38.503V84.849c0-.25-.02-.48 0-.73.063-.71.46-1.043 1.168-1.043.792 0 1.146.438 1.146 1.481v20.044h7.15v-1.022c0-6.34.022-12.66-.02-19.001 0-1.147-.104-2.294-.334-3.42-1.188-6.362-6.837-11.66-13.195-12.516-.605-.083-.793.167-1.022.585-2.335 4.108-4.69 8.197-7.046 12.285-.604 1.064-1.334 1.189-2.272.396-.25-.209-.521-.417-.897-.71-.27 1.44-.625 2.712-.687 3.985-.042 1.126.229 2.273.396 3.42.667 5.069 1.376 10.158 2 15.226.084.731.334.856.98.856 3.92-.021 7.86-.021 11.779-.021.25-.021.5-.042.855-.063Zm-42.11.021V84.829c0-.314.022-.647.084-.96.146-.605.605-.835 1.21-.814.604.021.917.376 1.063.918.062.23.02.48.02.71v19.835c.146.062.23.104.292.104 4.253 0 8.485 0 12.737-.021.188 0 .5-.313.522-.5.25-1.732.458-3.484.688-5.236.5-3.88.938-7.78 1.563-11.66.334-2.043-.042-3.92-.625-5.881-.23.167-.376.25-.522.376-1.334 1.063-1.917.959-2.751-.501-2.148-3.754-4.295-7.509-6.442-11.242-.834-1.46-.834-1.46-2.501-1.127-6.796 1.356-12.3 7.697-12.446 14.621-.146 6.925-.041 13.85-.041 20.754 0 .125.041.25.083.396a790.4 790.4 0 0 0 7.067.021Zm32.917-70.895c-.146.02-.166 0-.187.02-.271.126-.521.272-.792.397-2.419 1.21-4.962 1.877-7.693 1.835-2.668-.041-5.149-.771-7.609-1.668-1.146-.417-2.314-.834-3.481-1.147-1-.272-1.313-.021-1.355 1a29.977 29.977 0 0 1-2.272 10.18c-.438 1.042-.438 2.064-.355 3.128.021.271.063.521.105.793.646 4.171 2.105 7.905 5.461 10.7 3.106 2.586 6.63 3.504 10.528 2.502 4.94-1.272 7.838-4.734 9.443-9.386 1.584-4.546 1.313-9.135.25-13.724-.375-1.669-.959-3.274-2.043-4.63Zm5.004 6.132c.52-1.773.813-3.713.667-5.694-.167-2.19-.98-4.067-2.71-5.507a2.644 2.644 0 0 1-.813-1.293c-1.668-6.215-6.38-9.281-12.738-8.239-4.982.814-9.13 3.233-12.445 6.967-3.148 3.546-4.774 7.613-3.794 12.452.292 1.397.75 2.732 1.563 4.088 1.085-3.087 1.73-6.09 1.793-9.22 0-.479.167-1.021.438-1.397 1.022-1.397 2.502-1.48 3.982-1.084 1.584.417 3.127 1.064 4.69 1.585 2.314.772 4.649 1.377 7.13 1.105 2.293-.25 4.398-1.022 6.358-2.231.75-.48 1.438-.5 2.022.125.667.75 1.417 1.523 1.793 2.42.792 1.94 1.396 3.962 2.064 5.923ZM54.994 104.6c-.813-6.236-1.626-12.41-2.44-18.563H49.47c-.813 6.216-1.626 12.368-2.439 18.563h7.964ZM43.883 62.197c0 .689.083 1.252-.021 1.794-.334 2.003.396 3.484 1.938 4.797 1.856 1.586 3.544 3.38 5.316 5.11-.02.022.063-.02.105-.062 2.21-2.252 4.398-4.505 6.587-6.758.125-.125.25-.313.25-.459.02-1.335.02-2.69.02-4.13-4.794 2.357-9.443 2.274-14.196-.291Zm-5.316 6.3c2.147 3.712 4.19 7.3 6.275 10.929 1.521-1.272 2.96-2.503 4.419-3.713-2.272-2.336-4.524-4.63-6.754-6.924-.125-.126-.313-.272-.459-.272-1.105-.041-2.21-.02-3.481-.02Zm14.196 7.133a1023.84 1023.84 0 0 1 4.44 3.733c2.085-3.65 4.149-7.195 6.254-10.887-1.23 0-2.293-.021-3.335.02-.209 0-.459.147-.605.293-2.251 2.252-4.46 4.526-6.754 6.84Zm-1.71 1.731c-.791.667-1.584 1.293-2.334 1.96-.146.126-.209.439-.167.626a44.91 44.91 0 0 0 .75 3.192c.063.187.376.417.584.438.772.041 1.543.062 2.314 0 .209-.021.521-.272.563-.46.271-1.063.5-2.127.688-3.19a.938.938 0 0 0-.23-.73c-.687-.647-1.417-1.231-2.167-1.836Z" fill="#000"/><path d="M77.235 11.66v10.575c0 .896-.208 1.105-1.084 1.105h-5.4c-.77 0-1.02-.25-1.02-1.022V1.002c0-.793.229-1.023 1.02-1.023h5.504c.793 0 1.001.21 1.001 1.043-.02 3.567-.02 7.113-.02 10.638Zm-5.9-10.074v20.148h4.316V1.586h-4.315ZM87.47 14.434v7.8c0 .897-.23 1.127-1.146 1.127h-5.4c-.75 0-1-.25-1-.98V6.404c0-.751.27-1.002 1-1.002h5.504c.771 0 1.042.271 1.042 1.085v7.947Zm-5.941 7.28h4.294V7.028H81.53v14.684Zm16.135-5.278v5.716c0 1-.187 1.188-1.167 1.188h-5.295c-.813 0-1.063-.25-1.063-1.042V10.492c0-.772.27-1.043 1.063-1.043H96.6c.813 0 1.063.25 1.063 1.043v5.944Zm-1.584-5.339h-4.315v10.637h4.315V11.097ZM8.15 62.135c-.395.417-.812.897-1.25 1.335-.48.48-.896.48-1.376 0a209.254 209.254 0 0 1-3.043-3.045c-.438-.46-.438-.876 0-1.335.333-.334.646-.689 1-1.001.271-.25.355-.46.146-.793-.166-.271-.292-.605-.417-.897-.354-.938-.354-.938-1.334-.938C0 55.46 0 55.46 0 53.54v-3.23c0-.751.271-1.043 1.021-1.043.5 0 .98.02 1.48-.021.167-.02.397-.188.48-.355.25-.5.48-1.043.646-1.564.063-.167.021-.459-.104-.584-.334-.396-.709-.73-1.063-1.105-.46-.502-.46-.898.02-1.378l3.003-3.003c.5-.501.917-.501 1.417 0 .438.438.834.876 1.23 1.293.73-.292 1.397-.543 2.022-.835.146-.062.292-.292.313-.459.042-.5 0-1.022.02-1.522.022-.647.313-.939.939-.96h4.357c.604 0 .896.292.938.897.041.647-.188 1.44.125 1.898.313.438 1.126.543 1.71.793l.5.25c.375-.417.77-.897 1.209-1.314.563-.563.938-.542 1.5.021l2.877 2.878c.563.564.542.98-.02 1.565a31.14 31.14 0 0 1-1.21 1.147c.292.75.543 1.418.834 2.086.063.125.271.25.438.27.5.043 1.022 0 1.522.022.688 0 .959.25.959.917.02 1.46.02 2.9 0 4.36 0 .667-.271.897-.938.917-.605.021-1.355-.187-1.772.105-.417.27-.521 1.043-.75 1.585-.084.188-.168.355-.334.688.438.376.917.793 1.355 1.21.48.459.48.98.02 1.44-.98 1-1.98 2.002-3.001 3.003-.48.459-.96.459-1.439-.021-.437-.417-.833-.876-1.23-1.293-.75.292-1.417.542-2.084.813-.125.063-.25.292-.25.438-.021.542 0 1.106 0 1.648 0 .521-.271.813-.792.813-1.522.021-3.023.021-4.545 0-.521 0-.834-.354-.855-.938-.02-.522.021-1.064-.02-1.585 0-.147-.146-.355-.272-.418-.688-.292-1.355-.542-2.105-.834Zm12.821-19.23c-.375.395-.667.771-1 1.105-.563.584-.834.563-1.543.23a24.167 24.167 0 0 0-2.543-1.044c-.688-.25-.876-.417-.896-1.168v-1.522h-2.731v1.69c0 .52-.271.792-.772.98a31.72 31.72 0 0 0-2.751 1.126c-.522.25-.98.27-1.376-.188-.334-.396-.688-.793-.98-1.126-.75.75-1.376 1.355-2.022 2.002.333.334.646.667.98 1.022.542.563.542.813.208 1.502a26.22 26.22 0 0 0-1.063 2.607c-.23.667-.396.855-1.126.855H1.772v2.795h1.73c.48 0 .73.23.897.688.375.98.792 1.961 1.23 2.9.208.459.208.834-.167 1.168-.417.396-.834.771-1.21 1.147.689.688 1.335 1.314 2.002 1.981.354-.375.73-.771 1.126-1.168.354-.375.75-.396 1.23-.167a37.78 37.78 0 0 0 2.856 1.21c.479.167.73.438.708.939v1.73h2.794v-1.626c0-.542.25-.834.771-1.022.938-.334 1.855-.71 2.752-1.147.542-.271.959-.25 1.355.208.354.397.688.793.98 1.127.75-.73 1.375-1.356 2.063-2.044-.354-.313-.709-.668-1.084-1.002-.458-.417-.48-.855-.208-1.418.438-.876.771-1.794 1.105-2.711.187-.5.458-.793 1.021-.772.542.02 1.084 0 1.647 0v-2.795c-.563 0-1.063-.02-1.564 0-.541.02-.833-.209-1.042-.75-.354-.981-.771-1.92-1.188-2.858-.209-.48-.209-.856.188-1.21.416-.376.854-.73 1.23-1.043-.73-.834-1.335-1.48-2.023-2.232Z" fill="#FFB902"/><path d="M20.762 52.332c0 3.963-3.168 7.155-7.108 7.175-4.024 0-7.255-3.212-7.234-7.175.02-4.025 3.169-7.196 7.15-7.175 4.044-.02 7.192 3.129 7.192 7.175Zm-7.192 5.444c3.002 0 5.483-2.44 5.504-5.444 0-2.961-2.46-5.423-5.441-5.444-3.002-.02-5.483 2.44-5.483 5.444 0 2.962 2.46 5.423 5.42 5.444Z" fill="#FFB902"/><path d="M15.322 30.66C7.338 30.537 1.065 24.154 1.21 16.31 1.376 8.28 7.839 2.108 16.03 2.379c7.463.25 13.613 6.466 13.509 14.454-.104 7.634-6.609 13.954-14.217 13.829Zm11.82-14.14c0-6.53-5.274-11.806-11.799-11.785-6.504.02-11.778 5.318-11.757 11.847 0 6.445 5.337 11.743 11.778 11.743 6.525 0 11.8-5.277 11.778-11.806Zm58.642 51.538c-7.985-.125-14.26-6.507-14.114-14.35.167-8.03 6.63-14.204 14.822-13.933 7.463.25 13.613 6.466 13.509 14.455-.105 7.634-6.63 13.953-14.218 13.828Zm11.82-14.141c0-6.529-5.275-11.806-11.8-11.785-6.504.021-11.778 5.319-11.757 11.847 0 6.445 5.337 11.743 11.778 11.743 6.525 0 11.778-5.277 11.778-11.805Z" fill="#000"/><path d="M14.279 9.053c.104-1.982.354-2.44 1.25-2.44.876 0 1.126.479 1.23 2.419.209.104.438.208.668.313 1.646.813 2.397 2.21 2.439 4.004.02.772-.438 1.23-1.168 1.23-.75.022-1.125-.375-1.188-1.188-.083-1.293-.709-2.023-1.835-2.148-.958-.105-1.917.625-2.25 1.668-.21.647-.063 1.19.52 1.523a12.97 12.97 0 0 0 1.793.876c1.23.5 2.377 1.126 3.19 2.19 1.605 2.107 1 4.88-1.376 6.007-.834.396-1.23.772-1.147 1.731.083.855-.709 1.398-1.5 1.147-.626-.208-.876-.709-.814-1.314.063-.709-.146-1.063-.854-1.335-1.606-.625-2.585-2.586-2.273-4.275.125-.626.542-.96 1.188-.939.626.02 1.001.334 1.085.96.02.083 0 .166 0 .229.145 1.94 1.563 2.69 3.251 1.71 1.043-.584 1.293-1.71.417-2.523-.646-.605-1.5-.98-2.272-1.44-.834-.5-1.772-.876-2.543-1.48-1.063-.814-1.376-2.003-1.063-3.296.417-1.794 1.459-3.045 3.252-3.63Zm70.628 48.722-.062-.73c-.167-1.522.333-3.19 1.75-4.88 1.272-1.502 1.981-2.587 1.981-3.859 0-1.44-.896-2.399-2.668-2.42-1.022 0-2.147.334-2.856.877l-.667-1.773c.938-.668 2.543-1.127 4.023-1.127 3.231 0 4.711 2.003 4.711 4.151 0 1.919-1.063 3.295-2.418 4.901-1.23 1.46-1.688 2.712-1.605 4.151l.02.73h-2.209v-.02Zm-.625 3.963c0-1.043.709-1.773 1.688-1.773.98 0 1.668.73 1.668 1.773 0 .98-.646 1.752-1.689 1.752-.98-.02-1.667-.771-1.667-1.752Z" fill="#000"/></g><defs><clipPath id="a"><path fill="#fff" d="M0 0h100v107H0z"/></clipPath></defs></svg>