<svg width="96" height="96" fill="none" xmlns="http://www.w3.org/2000/svg"><g clip-path="url(#a)"><path d="M0 85.856c.075-.202.175-.379.225-.581.926-3.036 3.53-5.034 6.709-5.085.776 0 1.552.025 2.328-.025.275-.026.7-.152.726-.33.075-.252-.05-.657-.226-.884-2.353-2.606-3.43-5.87-4.08-9.183-.676-3.466 1.001-6.4 4.105-8.044 2.604-1.366 5.332-1.645 8.136-.709 5.432 1.796 6.308 7.766 4.781 11.004-1.126 2.403-2.778 4.579-4.18 6.856-.15.253-.25.632-.175.86.075.202.45.38.7.404 1.277.102 2.579 0 3.83.203 3.205.556 5.533 3.415 5.558 6.653.025 2.428 0 4.857 0 7.285 0 1.265-.35 1.644-1.602 1.644-8.436 0-16.847.026-25.283-.025-.526 0-1.052-.405-1.577-.607C0 92.181 0 89.02 0 85.856Zm26.134 7.741c0-2.378.125-4.705-.05-7.032-.176-2.252-1.803-3.744-4.056-4.022-.826-.102-1.677-.026-2.528-.076-.55-.025-.801.177-1.026.683-.977 2.302-3.405 3.39-5.733 2.63-1.602-.53-2.578-1.694-3.079-3.288-1.001 0-1.977-.05-2.954 0-2.353.177-4.13 1.619-4.355 3.921-.2 2.378-.025 4.781-.025 7.184h23.806ZM8.986 71.463c-.05.354-.1.556-.125.784 0 .127 0 .253.025.38.576 2.175 1.577 4.123 3.405 5.489 1.251.936 2.553.936 3.78-.076 2.653-2.176 3.604-5.085 3.404-8.474-.025-.582-.426-.911-.926-.81-.826.203-1.652.43-2.403.86-.927.531-1.678.329-1.953-.657-.075-.279-.075-.582-.125-.911-1.402.48-2.603 1.189-3.354 2.453-.4.683-.826 1.114-1.728.962Zm11.716-4.554c-.501-2.352-2.529-3.92-5.533-4.098-2.878-.177-6.007 1.366-6.683 3.44 1.051-.556 1.777-.278 2.203.835 1.652-1.112 3.48-1.644 5.382-1.998 1.502-.278 1.902-.101 2.403 1.113.826.278 1.527.506 2.228.708ZM12.14 80.9c-.425.86-.275 1.593.551 2.25a2.389 2.389 0 0 0 3.004 0c.876-.733 1.026-1.441.576-2.25h-4.13ZM0 25.448c.125-.329.225-.632.35-.96.927-2.784 3.355-4.63 6.259-4.731.926-.026 1.877 0 2.803-.026.226 0 .551-.202.626-.38.075-.201.025-.58-.15-.733-2.278-2.276-3.13-5.287-4.005-8.221-1.152-3.946.6-7.538 4.28-9.334C14.193-.885 19.05-.076 21.528 2.96c2.028 2.479 2.478 6.83.926 9.334-1.302 2.125-2.703 4.2-4.055 6.299-.3.48-.025 1.113.55 1.138.852.026 1.678 0 2.529.026 4.08.075 6.984 3.035 6.984 7.159v7.007c0 1.189-.4 1.568-1.577 1.568-8.461 0-16.922.025-25.383-.025-.5 0-1.001-.456-1.502-.709v-9.309Zm26.184 7.69c0-2.327.075-4.528-.025-6.728-.1-2.201-1.602-3.896-3.705-4.3-.9-.178-1.877-.051-2.803-.102-.626-.05-.952.152-1.252.784-1.477 3.34-6.058 3.896-7.885.76-.901-1.544-1.903-1.645-3.255-1.544h-.275c-2.453.025-4.43 1.543-4.656 3.997-.225 2.327-.05 4.705-.05 7.108 7.96.025 15.87.025 23.906.025ZM8.887 11.03c.025.532-.025.911.075 1.265.475 1.897 1.377 3.592 2.828 4.908 1.628 1.467 3.23 1.467 4.807-.076 2.227-2.176 3.104-4.882 2.903-7.969-.05-.657-.425-1.062-1.026-.936-.801.178-1.602.456-2.303.86-1.001.582-1.802.304-2.003-.834-.025-.203-.05-.405-.075-.683-1.427.43-2.628 1.138-3.379 2.403-.4.708-.851 1.214-1.827 1.062Zm11.89-4.477c-.7-2.454-2.779-4.048-5.307-4.2-3.204-.176-6.058 1.215-6.959 3.416 1.026-.43 1.802-.228 2.103.607 1.752-.582 3.43-1.214 5.156-1.67 1.803-.48 2.178-.253 2.78 1.164.375.05.75.076 1.1.177.351.126.677.303 1.127.506Zm-4.53 13.71c-.727.102-1.353.279-2.004.304-.675 0-1.326-.152-2.002-.228-.5.911-.376 1.645.45 2.353.827.734 2.128.784 3.004.101.877-.708 1.027-1.467.551-2.53Z" fill="#000"/><path d="M52.744 48.114c.075.936.55 1.189 1.427 1.189 1.502-.025 3.029-.127 4.48.177 4.031.784 6.635 4.098 6.685 8.398.05 2.935.025 5.87 0 8.804 0 1.163-.426 1.568-1.602 1.568H32.192c-1.077 0-1.578-.38-1.578-1.29 0-3.542-.1-7.083.176-10.574.275-3.77 3.68-6.83 7.41-7.007 1.301-.076 2.628 0 3.93-.076.3-.025.675-.304.876-.582.325-.405.05-.708-.276-1.012-2.653-2.504-4.08-5.59-4.13-9.284 0-1.24-.05-2.453-.05-3.693 0-2.504 1.126-4.427 3.304-5.514 4.406-2.15 8.761-1.948 12.892.759 1.752 1.138 2.653 2.883 2.578 5.059-.05 1.265 0 2.53-.025 3.794-.1 3.365-1.427 6.198-3.755 8.576-.25.227-.55.455-.8.708Zm6.659 14.57h3.58c0-1.896.075-3.743-.025-5.59-.15-2.656-1.953-4.831-4.531-5.312-1.402-.253-2.854-.126-4.281-.228-.6-.05-.851.177-1.051.76-.851 2.25-2.904 3.642-5.207 3.617-2.303-.026-4.306-1.442-5.107-3.744-.2-.557-.45-.658-.951-.633-1.001.026-2.003 0-3.004 0-2.804.026-5.282 1.822-5.707 4.604-.326 2.1-.075 4.3-.075 6.502h3.73c0-.734-.05-1.417.024-2.1.05-.683.451-1.113 1.177-1.088.676.025 1.001.455 1.101 1.063.05.328.026.683.026 1.037v4.174H57.15v-4.604c0-1.19.35-1.695 1.151-1.67.776.025 1.102.506 1.102 1.72v1.493Zm-11.44-15.127c.6-.151 1.227-.202 1.802-.43 2.479-1.037 3.855-3.06 4.731-5.54.076-.227.026-.505-.025-.733-.2-1.493-.475-2.96-.625-4.452-.125-1.417-.601-1.746-1.928-1.215-2.578 1.012-5.182.987-7.76.076-1.627-.581-2.078-.303-2.178 1.442-.05 1.038.05 2.15-.325 3.087-.5 1.29-.2 2.327.425 3.364.526.885 1.127 1.745 1.828 2.504 1.076 1.088 2.403 1.822 4.055 1.898Zm-6.759-14.52c1.352-.48 2.604-.506 3.83.026 2.078.86 4.13.632 6.208-.076.751-.253 1.627-.177 2.454-.228.25-.025.5.076.826.127-2.804-3.77-11.115-3.694-13.318.151Zm4.13 16.266c-.75 1.644-.5 2.783.777 3.719 1.226.91 2.903.809 4.03-.253 1.126-1.038 1.252-2.1.425-3.44-1.727.606-3.48.606-5.231-.026Zm-12.29 15.76c-.075.1-.15.177-.226.278.226.177.426.48.651.506.901.05 1.803.05 2.704 0 .225-.025.45-.354.65-.531-.075-.076-.125-.178-.2-.253h-3.58Zm26.51 0c-.076.1-.151.202-.226.303.225.177.475.456.726.48.776.051 1.552 0 2.328.026.6.025.776-.228.526-.81h-3.355Z" fill="#FFB902"/><path d="M81.607 95.975H69.34c-1.577 0-1.853-.278-1.853-1.872v-6.805c.025-4.047 3.004-7.057 6.984-7.083.676 0 1.377.051 2.053-.025.35-.025.676-.253 1.026-.38-.125-.328-.2-.708-.4-.935-2.353-2.631-3.43-5.894-3.98-9.234-.701-4.376 2.428-8.12 7.009-8.904 3.254-.556 6.233-.025 8.586 2.53 2.128 2.302 2.829 6.476 1.352 9.107-1.277 2.276-2.779 4.452-4.156 6.678-.125.227-.175.607-.075.834.075.178.4.33.651.355 1.252.076 2.503-.026 3.73.177 3.304.556 5.557 3.314 5.657 6.678 0 .354.025.708 0 1.037-.2 2.53.45 5.085-.35 7.564-2.478.101-4.932.253-7.41.329-2.178 0-4.38-.05-6.558-.05Zm4.68-13.483c-.15.329-.275.658-.425.961-.826 1.594-2.153 2.454-3.88 2.555-1.777.102-3.404-.556-4.155-2.175-.601-1.29-1.377-1.467-2.529-1.34-.25.024-.5 0-.75 0-2.904.075-4.757 1.972-4.807 4.907-.025 1.871 0 3.718 0 5.59 0 .203.05.405.1.607h23.856v-.81c0-1.871.075-3.718-.025-5.59-.15-2.732-1.852-4.503-4.455-4.68-.977-.075-1.953-.025-2.93-.025ZM76.5 71.488c-.025.177-.075.304-.075.405.2 2.656 1.452 4.705 3.53 6.273 1.151.886 2.378.835 3.53-.075 2.753-2.15 3.679-5.11 3.479-8.5-.025-.607-.376-.81-.927-.835a3.577 3.577 0 0 0-2.428.81c-.876.708-1.777.328-1.952-.81-.025-.228-.05-.455-.075-.708-1.577.506-2.654 1.24-3.33 2.378-.4.708-.876 1.189-1.752 1.062Zm1.752-4.401c1.678-1.164 3.58-1.695 5.558-2.024 1.376-.228 1.752.025 2.177 1.163.776.228 1.502.456 2.203.683-.425-2.302-2.528-3.895-5.557-4.098-3.204-.202-6.258 1.746-6.659 3.365 1.402-.354 1.552-.304 2.278.91Zm1.402 13.837c-.45.885-.275 1.619.626 2.302a2.336 2.336 0 0 0 3.054-.177c.75-.734.851-1.442.4-2.125h-4.08Zm2.052-45.433H69.165c-1.302 0-1.677-.354-1.677-1.67 0-2.327-.025-4.68 0-7.006.025-4.023 2.903-6.982 6.884-7.058.75-.026 1.502.025 2.253-.026.325-.025.8-.177.876-.404.1-.228-.1-.709-.326-.936-2.428-2.631-3.43-5.945-4.005-9.31-.6-3.465 1.177-6.323 4.33-7.942 3.956-2.05 8.862-1.265 11.44 1.77 2.003 2.404 2.629 6.502 1.177 9.056-1.276 2.252-2.753 4.377-4.13 6.578-.125.202-.2.556-.1.733.125.203.45.405.7.43.777.05 1.553.026 2.329.026 4.08.05 7.009 3.01 7.034 7.108.025 2.378 0 4.73 0 7.108 0 1.164-.35 1.518-1.502 1.518-4.256.025-8.511.025-12.742.025Zm11.966-2.327c0-2.252.125-4.427-.025-6.603-.175-2.479-1.677-4.173-3.83-4.477-1.152-.152-2.353-.025-3.555-.025-.15.329-.275.657-.425.961-1.653 3.213-6.234 3.541-7.96.38-.727-1.316-1.503-1.493-2.68-1.392-.35.026-.675 0-1.026 0-2.177.05-4.105 1.67-4.28 3.845-.175 2.353-.075 4.73-.1 7.083 0 .05.075.101.125.177 7.86.05 15.745.05 23.756.05ZM81.632 7.589c-1.453.456-2.604 1.164-3.38 2.378-.426.683-.901 1.189-1.903 1.063.2 2.757 1.352 4.907 3.43 6.526 1.326 1.037 2.578 1.012 3.855-.025 2.653-2.201 3.604-5.11 3.304-8.475-.025-.303-.65-.81-.901-.758-.826.177-1.652.455-2.378.86-1.002.556-1.803.253-1.953-.886-.05-.202-.05-.38-.075-.683Zm6.583-1.163c-.576-2.227-2.579-3.82-5.082-4.073-3.129-.304-6.183 1.113-7.184 3.339 1.452-.278 1.577-.228 2.278.936 1.727-1.164 3.654-1.821 5.732-1.998 1.452-.127 1.552-.076 2.028 1.163.776.228 1.477.43 2.228.633Zm-8.587 13.963c-.425.936-.25 1.695.626 2.378.801.633 2.053.633 2.88 0 .9-.708 1.05-1.492.625-2.403-1.402.025-2.704.025-4.13.025ZM48.063 86.893h7.109c.35 0 .75-.076 1.001.101.35.228.801.633.801.987 0 .38-.4.86-.726 1.138-.225.177-.65.127-1.001.127H40.653c-.325 0-.776.05-1.001-.127-.35-.278-.726-.759-.726-1.138 0-.329.475-.734.826-.961.225-.152.6-.102.901-.102 2.478-.025 4.956-.025 7.41-.025Zm34.77-38.804v7.563c0 1.012-.4 1.518-1.126 1.518-.701 0-1.127-.557-1.127-1.543V40.322c0-.96.426-1.517 1.152-1.517.725 0 1.101.53 1.101 1.543v7.74Zm-68.165-.102v7.741c0 .734-.225 1.315-1.051 1.417-.751.1-1.252-.506-1.252-1.518v-15.38c0-.886.45-1.442 1.152-1.442.7 0 1.126.506 1.126 1.416.05 2.606.025 5.186.025 7.766Zm33.294-29.09h-7.585c-1.001 0-1.502-.405-1.502-1.139 0-.708.576-1.163 1.527-1.163h15.145c.95 0 1.502.455 1.502 1.163 0 .734-.501 1.139-1.527 1.139h-7.56Z" fill="#000"/><path d="M52.442 56.487c.4.304.901.506.976.835.1.405 0 1.012-.25 1.366-1.777 2.378-4.105 4.022-6.884 5.009-.801.278-1.602.48-2.428.657-.751.178-1.302-.126-1.452-.935-.15-.785.3-1.215 1.001-1.341 3.304-.607 5.983-2.226 8.086-4.882.175-.253.55-.405.951-.709Z" fill="#FFB902"/></g><defs><clipPath id="a"><path fill="#fff" d="M0 0h96v96H0z"/></clipPath></defs></svg>