<svg width="98" height="98" fill="none" xmlns="http://www.w3.org/2000/svg"><path d="M40.236 65.28c-.16-.267-.427-.668-.694-1.095-4.65-7.079-9.084-14.264-12.424-22.063-1.282-2.992-2.405-6.063-2.886-9.295-.668-4.621.027-9.108 1.764-13.409C30.03 9.402 37.377 3.072 47.877.694c16.218-3.659 32.73 7.453 35.775 23.773 1.176 6.277-.16 11.992-2.591 17.655-3.5 8.093-8.122 15.572-12.985 22.89-.267.428-.534.829-.908 1.39 1.362.213 2.618.4 3.874.614 6.679 1.122 13.305 2.564 19.343 5.823 1.87 1.015 3.714 2.27 5.237 3.766 3.152 3.018 3.126 6.704.213 9.936-2.27 2.511-5.21 4.007-8.255 5.289-5.558 2.297-11.355 3.686-17.26 4.594C62.305 97.653 54.236 98.16 46.114 98c-7.775-.16-15.47-.908-23.11-2.457-5.558-1.122-10.982-2.565-15.924-5.37-1.764-1.014-3.474-2.27-4.916-3.712-2.859-2.938-2.832-6.33-.187-9.429 1.763-2.056 4.06-3.445 6.465-4.62 5.157-2.511 10.634-4.007 16.245-4.969 5.13-.854 10.313-1.442 15.55-2.163ZM25.408 29.675c.24 1.603.374 3.232.721 4.808 1.07 4.728 3.126 9.108 5.397 13.382 5.691 10.79 12.638 20.754 19.932 30.476 1.416 1.87 3.98 1.817 5.37-.133 4.542-6.464 9.137-12.875 13.492-19.445 3.901-5.903 7.348-12.1 9.993-18.724 1.843-4.648 2.832-9.349 2.003-14.424C79.778 10.337 65.645-.214 50.31 1.843 36.336 3.686 25.782 15.572 25.408 29.675Zm20.439 47.892c-.187-.107-.24-.187-.347-.24-6.119-2.832-12.237-5.69-18.382-8.495-.267-.133-.641-.106-.935-.08-4.703.775-9.325 1.897-13.76 3.606-3.126 1.202-6.145 2.564-8.603 4.915-3.019 2.911-3.072 5.956.054 8.707 1.683 1.47 3.713 2.538 5.637 3.686.428.267 1.176.267 1.657.107 8.923-3.098 17.82-6.25 26.717-9.402 2.645-.935 5.264-1.87 7.962-2.804Zm27.84 16.64c1.656-.4 3.26-.828 4.862-1.122.802-.133.962-.48.828-1.202-.961-5.342-1.87-10.684-2.858-16-.16-.854.08-1.228.855-1.495 1.923-.641 3.82-1.336 5.744-2.003.347-.134.695-.267 1.042-.428v-.267c-2.725-.72-5.45-1.362-8.149-2.136-1.282-.374-2.431-.214-3.66.24-3.1 1.175-6.252 2.217-9.378 3.365-.428.16-.882.481-1.149.855-1.31 1.683-2.538 3.419-3.82 5.129-2.138 2.83-5.745 2.83-7.882.026-.401-.534-.802-1.068-1.096-1.469-.534.32-.962.695-1.442.855-8.176 2.911-16.352 5.77-24.527 8.654-3.42 1.202-6.84 2.43-10.42 3.686.32.134.48.24.668.294 2.752.801 5.504 1.63 8.282 2.35.535.134 1.176.08 1.71-.106 4.97-1.71 9.912-3.5 14.855-5.236 1.122-.4 1.31-.294 1.657.802.694 2.163 1.362 4.3 2.057 6.464.08.267.428.667.641.667 1.924.054 3.848.027 5.825.027-.802-2.537-1.603-5.155-2.432-7.773-.988-3.071-.988-2.564 1.79-3.552 7.16-2.564 14.348-5.075 21.508-7.613 1.149-.4 1.39-.267 1.63.909.187.988.347 1.95.534 2.938.802 4.407 1.55 8.707 2.325 13.141Zm-23.619 2.217c7.428-.107 14.775-.614 22.096-1.95-.935-5.262-1.844-10.39-2.752-15.599a7935.608 7935.608 0 0 1-22.39 7.907c1.043 3.285 2.031 6.437 3.046 9.642Zm30.966-3.926c1.55-.535 2.992-.962 4.382-1.496 3.233-1.255 6.412-2.671 8.923-5.182 2.779-2.778 2.779-5.61.027-8.36-2.084-2.084-4.675-3.392-7.347-4.514-.268-.107-.642-.027-.935.053-2.378.828-4.756 1.71-7.16 2.484-.749.24-.802.641-.669 1.256.267 1.362.508 2.75.748 4.113.668 3.846 1.336 7.666 2.031 11.646ZM29.549 68.245c6.386 2.938 12.477 5.77 18.703 8.654-.054-.24-.08-.347-.107-.4-2.111-2.966-4.195-5.93-6.332-8.842-.187-.267-.722-.454-1.096-.427-2.19.106-4.381.24-6.572.427-1.443.08-2.886.347-4.596.588Zm8.924 21.528c-4.302 1.523-8.47 2.992-12.61 4.46 0 .134 0 .268.026.375 4.836.56 9.645 1.095 14.668 1.682a255.225 255.225 0 0 1-2.084-6.517Zm32.355-21.02v-.215c-1.47-.186-2.912-.4-4.382-.587-.16-.027-.427.16-.56.32a98.11 98.11 0 0 0-2.031 2.939c2.511-.882 4.729-1.683 6.973-2.458Z" fill="#000"/><path d="M54.077 9.375c11.488 0 20.76 9.268 20.786 20.754.027 11.485-9.378 20.887-20.84 20.834-11.408-.053-20.786-9.456-20.76-20.834.027-11.459 9.352-20.754 20.814-20.754Zm0 1.523c-10.607 0-19.264 8.654-19.264 19.258 0 10.577 8.71 19.258 19.264 19.258 10.58 0 19.263-8.708 19.263-19.285 0-10.604-8.656-19.258-19.263-19.232Z" fill="#000"/><path d="M54.023 42.096h-8.39c-3.045 0-4.488-1.442-4.488-4.46 0-5.022.053-10.07-.027-15.092-.053-2.858 2.057-4.407 4.409-4.38 5.797.106 11.595.026 17.393.053 2.538 0 4.087 1.549 4.087 4.113v15.6c0 2.564-1.496 4.113-4.06 4.14-2.993.053-5.959.027-8.924.027ZM49.8 19.766h-4.515c-1.736.027-2.618.828-2.618 2.564-.027 5.235-.027 10.47 0 15.68 0 1.655.908 2.537 2.565 2.563 5.904.027 11.782.027 17.687 0 1.71 0 2.511-.934 2.538-2.644.027-2.324 0-4.674 0-6.998v-8.708c0-1.308-.721-2.323-1.79-2.377-1.79-.107-3.58-.026-5.45-.026 0 1.762.053 3.445-.027 5.154-.027.428-.32 1.015-.642 1.203-.347.186-.961.053-1.335-.16-.775-.455-1.443-1.043-2.191-1.603-.722.534-1.336 1.095-2.058 1.495-.4.24-1.095.481-1.416.294-.374-.213-.667-.881-.694-1.362-.107-1.656-.054-3.285-.054-5.075Zm1.577 4.62c.587-.453 1.042-.747 1.416-1.067.828-.722 1.603-.668 2.404.026.401.348.855.641 1.363 1.042v-4.514h-5.183v4.514Z" fill="#FFB902"/><path d="M48.198 34.804h2.592c.56 0 1.095.133.988.774-.053.294-.587.721-.908.748-1.763.08-3.527.027-5.263.027-.562 0-1.096-.24-.936-.855.08-.294.615-.641.989-.668.802-.08 1.657-.026 2.538-.026Zm-1.603 4.38c-.427 0-.882.08-1.282-.026-.321-.107-.561-.455-.829-.695.24-.267.481-.748.748-.775a13.033 13.033 0 0 1 2.886 0c.267.027.508.508.748.775-.267.24-.48.614-.801.695-.455.133-.962.026-1.47.026Z" fill="#000"/></svg>