<svg width="95" height="96" fill="none" xmlns="http://www.w3.org/2000/svg"><path d="M94.909 36.57c-.457.092-.914.276-1.37.276H75.36c-1.278 0-1.37-.092-1.37-1.378V1.4c0-.46.274-.827.366-1.286h.822c.091.46.274 1.01.274 1.47V12.97h11.966V1.492c0-.46.274-.919.457-1.378h.64c.182.46.365.919.456 1.378v10.744c0 .734.183.918.913.918a25.5 25.5 0 0 1 3.746 0c.456 0 .913.276 1.37.367v.827c-.457.092-.914.275-1.37.367h-3.928c-.548 0-.822.184-.731.735v19.284c0 .643.274.734.822.734h3.928c.457 0 .913.276 1.279.368-.091.183-.091.459-.091.734Zm-7.582-1.193c0-.276.091-.551.091-.735v-19.1c0-.643-.274-.827-.913-.827H76.183c-.183 0-.457.092-.731.092v20.57h11.875Z" fill="#000"/><path d="M23.567.114c1.096.643 1.28 1.194 1.005 2.755-.457 2.847-1.644 5.326-3.106 7.714-.73 1.194-1.735 2.296-2.557 3.49-.274.367-.274.826-.366 1.285-.182.918-.182 1.928-.64 2.571-1.278 2.02-2.83 3.765-4.932 4.959-1.005.55-1.37.367-1.553-.827-.091-1.01-.182-2.02-.274-3.214-1.37.735-2.1-.275-2.832-1.102v.368H6.851c0-.46.091-.918.091-1.378h.274c-.64-.826-1.735-1.469-1.096-2.846a217.072 217.072 0 0 1-3.197-.276c-1.096-.183-1.461-.643-.913-1.47C3.197 9.94 5.024 8.196 7.216 6.91a3.405 3.405 0 0 1 1.645-.46c1.187.184 2.01-.459 2.831-1.101 3.015-2.48 6.395-4.225 10.231-5.051.091 0 .274-.092.366-.184h1.278ZM8.312 15.542c1.097-1.102 2.193-2.296 3.289-3.398.64-.643 1.188-1.286 1.918-1.837.183-.183.731-.183.914 0 .182.184.091.643.091 1.01 0 .184-.274.368-.457.551-1.553 1.562-3.197 3.123-4.75 4.684.457.918 1.097 1.193 1.919.826.365-.183.822-.275 1.187-.459 4.476-2.02 7.308-5.602 9.226-10.01 1.005-2.295.913-2.662-1.005-4.224l-.091-.091c-.366-.092-.822-.276-1.096-.184-1.28.551-2.558 1.01-3.746 1.745-3.745 2.204-6.76 5.05-8.22 9.366-.183.919-.183 1.561.822 2.02Zm-4.658-3.398c1.005.092 1.735.184 2.375.184.183 0 .457-.184.548-.276.73-1.286 1.461-2.663 2.284-4.132-2.284.643-3.654 2.296-5.207 4.224Zm9.226 8.907c1.827-1.01 4.019-3.765 3.928-4.958-.822.55-1.644 1.102-2.467 1.56-1.918 1.103-1.918 1.103-1.552 3.306l.09.092ZM23.11 1.584c-.456.091-.73.183-1.278.275.548.46.822.735 1.279 1.194v-1.47Z" fill="#FFB902"/><path d="M76.822 95.524c-.183-1.102-.457-2.112-.548-3.214-.092-.642-.366-1.01-1.096-1.102-.457-.091-.914-.183-1.37-.367-.275-.092-.64-.46-.64-.643 0-.275.365-.734.548-.734 2.284 0 2.65-1.561 2.74-3.398 0-.276 0-.551.183-.827.183-.275.457-.55.73-.55.275 0 .64.275.64.55.183.827.366 1.745.457 2.572.091.734.365 1.102 1.096 1.193.457.092.914.184 1.37.368.274.092.549.459.549.734 0 .184-.366.643-.64.643-2.1.092-2.649 1.47-2.74 3.306 0 .46-.183.918-.183 1.377-.365.092-.73.092-1.096.092ZM94.909 39.05c-.365.092-.822.367-1.188.367H75.179c-.274 0-.548.092-.64-.091-.273-.184-.456-.46-.456-.735 0-.184.274-.46.548-.643.274-.092.548-.092.914-.092H93.54c.457 0 1.005.276 1.461.46-.091.275-.091.459-.091.734Z" fill="#000"/><path d="M0 23.806c1.553-1.562 3.106-3.03 4.659-4.592.365-.367.822-.826 1.37-.275.457.459.091.918-.274 1.285l-4.11 4.133c-.549.55-1.097.642-1.645.275v-.826Z" fill="#FFB902"/><path d="M94.91 69.996c-.366.184-.731.368-1.097.368h-5.48c-.549 0-1.097-.092-1.097-.735s.548-.735 1.096-.735h5.481c.366 0 .731.276 1.096.46v.642ZM0 69.353c1.005-.827 2.192-.367 3.288-.367.183 0 .366.367.366.642 0 .184-.183.643-.366.643-1.096.092-2.283.551-3.288-.275v-.643Z" fill="#000"/><path d="M85.316 77.71h3.106c1.096 0 1.37.367 1.188 1.377-.183 1.194-1.28 2.296-2.467 2.388H48.504c-1.827 0-3.106-.919-3.289-2.48-.182-1.01.092-1.377 1.096-1.377H49.6c-.365-1.837-.365-1.837-2.01-1.837H9.316c-1.37 0-2.649-.183-3.38-1.377-.456-.735-.822-1.653-.913-2.48-.091-9.642 0-19.376 0-29.11 0-2.295 1.462-3.856 3.745-3.856 2.01-.092 4.11 0 6.12 0h18.818c.548 0 1.096.092 1.096.734 0 .735-.548.735-1.096.735H9.316c-2.192 0-2.923.735-2.923 2.939v25.436c.457 0 .731.092 1.096.092h40.375c.914 0 1.188-.275 1.188-1.194-.091-3.673 0-7.254 0-10.927 0-3.306.913-4.408 4.293-4.776 0-.367-.091-.826 0-1.101.092-.276.457-.551.64-.827.274.276.73.551.73.735-.182 1.377.64 1.285 1.553 1.285h24.846c2.832 0 4.294 1.47 4.294 4.316v18.458c.365.918.091 1.837-.092 2.847Zm-17.812 0H81.57c1.827 0 2.74-.827 2.74-2.755V56.313c0-1.836-.822-2.754-2.74-2.754H53.345c-1.827 0-2.649.826-2.649 2.755v18.549c0 2.02.73 2.847 2.74 2.847h14.068Zm-18.27-3.306v-3.949H6.76c-.366 2.755.274 4.04 3.38 4.04 12.605-.091 25.21 0 37.725 0 .457-.091.823-.091 1.37-.091Zm38.823 5.326c-.092-.092-.092-.276-.183-.367H46.86c.548.918 1.187.826 1.918.826H86.23c.64-.092 1.187-.367 1.827-.46Z" fill="#000"/><path d="M63.302 29.408v17.447c0 1.286-.09 1.47-1.461 1.47H38.09c-1.188 0-1.37-.184-1.37-1.378V19.674c0-.46.274-1.102.548-1.377a255.974 255.974 0 0 1 7.033-7.071c.275-.276.914-.551 1.28-.551h16.442c1.004 0 1.278.367 1.278 1.285v17.448ZM61.75 46.764V12.236H45.947v6.52c0 .826-.366 1.285-1.188 1.194h-6.577v26.814H61.75ZM44.394 13.522c-1.645 1.652-3.197 3.213-4.75 4.775h4.75V13.52ZM30.234 90.29H6.667c-1.37 0-1.462-.091-1.462-1.377v-2.02c0-.735.365-1.01 1.005-1.01h47.408c1.645 0 1.645 0 1.645 1.653 0 3.214.365 2.846-2.832 2.846-7.49-.091-14.798-.091-22.197-.091Zm23.476-2.846H6.758v1.377H53.71v-1.377Zm21.285-40.589c1.004-1.194 1.735-2.296 2.649-3.306.274-.275 1.004-.55 1.187-.459.64.367.274.918-.091 1.377-1.188 1.47-2.375 2.939-3.471 4.408-.457.643-.914.735-1.553.184-1.462-1.194-3.015-2.388-4.476-3.581-.365-.368-.822-.643-.365-1.286.456-.551.913-.276 1.278.092 1.005.826 2.01 1.56 3.015 2.387.091 0 .182-.091.274-.091-.366-1.378-.64-2.847-1.005-4.225-1.37-4.316-3.654-8.08-6.76-11.386-.091-.092-.091-.092-.091-.184-.365-.367-.64-.735-.183-1.194.457-.459.914-.184 1.188.184 1.461 1.928 3.106 3.765 4.476 5.877 2.01 3.122 3.106 6.52 3.745 10.193 0 .275.091.55.183 1.01ZM21.01 34.55c1.553-.276 2.832-.551 4.02-.735.547-.092 1.187-.276 1.278.459.183.735-.457.918-1.005 1.01-1.827.367-3.654.735-5.39 1.102-.821.184-1.278-.092-1.46-1.01-.275-1.837-.732-3.673-1.006-5.418-.09-.55-.182-1.102.457-1.194.73-.183.914.368 1.005.919.274 1.285.457 2.57.73 3.948 1.188-1.285 2.102-2.571 3.198-3.673 2.923-3.122 6.394-5.326 10.23-6.979.549-.184 1.097-.46 1.37.276.275.734-.273.918-.821 1.102-4.75 2.02-8.678 4.958-11.784 8.999-.183.183-.365.55-.822 1.194Zm9.043 44.904h-9.5c-.274 0-.548.092-.822 0A2.788 2.788 0 0 1 19 78.72c.274-.276.457-.551.73-.643.183-.092.457 0 .732 0h19.456c.274 0 .548-.092.822.092.274.183.548.459.548.734 0 .276-.274.551-.548.735-.274.092-.548.092-.913.092-3.288-.276-6.577-.276-9.774-.276ZM63.395 90.29H60.29c-.64 0-1.005-.275-1.005-1.01 0-1.101-.182-2.203.823-2.938.913-.735 5.48-.735 6.394 0 .822.643 1.279 2.755.73 3.581-.182.276-.639.46-.913.46-.913-.092-1.918-.092-2.923-.092Zm-2.466-1.56h4.932c.092-1.194 0-1.378-1.096-1.47h-2.831c-1.005.092-1.188.368-1.005 1.47ZM34.346 9.664c-.548.368-.822.735-1.096.735-1.37.092-2.01.827-2.1 2.204 0 .367-.549.735-.731 1.102-.274-.367-.731-.735-.731-1.102-.183-1.286-.64-2.112-2.101-2.204-.274 0-.73-.46-.64-.643.092-.275.457-.734.731-.734 1.462-.092 1.918-1.01 2.101-2.296.091-.367.548-.643.822-.918.274.275.548.642.731.918.091.092.091.275.091.367 0 1.194.64 1.745 1.827 1.837.183 0 .548.367 1.096.734Z" fill="#000"/><path d="M5.755 23.99c-.183-.184-.457-.276-.549-.46-.09-.275-.09-.642.092-.826a36.322 36.322 0 0 1 2.649-2.663c.183-.184.73-.184 1.005 0 .182.092.274.735.091.826a41.522 41.522 0 0 1-2.832 2.847c-.091.184-.182.184-.456.276Zm-4.02-4.225c-.64 0-1.005-.735-.549-1.194a25.22 25.22 0 0 1 2.74-2.663c.184-.183.732-.183.914 0 .183.184.274.735.183.827A44.244 44.244 0 0 1 2.1 19.673c-.091.092-.274.092-.365.092ZM20.553 7.276c0 1.653-1.28 2.939-2.923 2.939-1.645 0-2.923-1.286-3.015-2.939 0-1.652 1.28-3.03 3.015-3.03 1.553.092 2.923 1.378 2.923 3.03Zm-3.015-1.469c-.822 0-1.461.643-1.461 1.47 0 .826.64 1.469 1.461 1.469.822 0 1.462-.643 1.462-1.47 0-.826-.64-1.469-1.462-1.469Z" fill="#FFB902"/><path d="M67.413 76.791c-.73 0-1.37.092-2.1 0-.275 0-.549-.46-.823-.643.274-.275.548-.734.822-.734a34.938 34.938 0 0 1 4.385 0c.274 0 .548.459.73.734-.273.276-.547.643-.821.643h-2.193Zm1.645-21.121c0 .827-.731 1.47-1.462 1.47-.822 0-1.553-.735-1.461-1.561 0-.827.73-1.47 1.553-1.47.73.092 1.37.735 1.37 1.561ZM49.967 24.908h-7.582c-.274 0-.64.091-.913-.092-.274-.092-.548-.46-.548-.643 0-.275.274-.551.548-.735.183-.091.548-.091.822-.091H57.64c.183 0 .457-.092.548 0 .274.183.548.55.731.734-.274.276-.457.551-.73.643-.183.092-.549 0-.823 0-2.375.184-4.841.184-7.399.184Zm0 3.949h-7.856c-.548 0-1.187 0-1.187-.735 0-.734.64-.734 1.187-.734h15.803c.548 0 1.188.091 1.096.826 0 .643-.64.643-1.096.643h-7.947Zm-3.38 3.948H42.02c-.548 0-1.096 0-1.096-.734 0-.643.548-.735 1.096-.735h8.952c.548 0 1.096.092 1.096.735 0 .734-.548.734-1.096.734h-4.385Z" fill="#000"/></svg>