<svg width="120" height="120" fill="none" xmlns="http://www.w3.org/2000/svg"><g clip-path="url(#a)"><path d="M85.225 69.634h7.595v3.837h-7.595v3.838h7.595v3.837h-7.595c-.32 2.399-1.6 3.678-3.998 3.998v7.594H77.39v-7.594h-3.838v7.594h-3.917v-7.594h-3.837v7.594H61.88v-7.594h-3.837v7.594h-3.918v-7.594h-3.837v7.594H46.29v-7.594h-3.838v7.594h-3.837v-7.594c-2.319-.32-3.678-1.6-3.998-3.998h-7.595V77.31h7.675v-3.84h-7.595v-3.917h6.958c.24 0 .72-.32.72-.48.08-1.039 0-2.158 0-3.358h-7.676V61.8h7.675v-3.837h-7.675v-3.838h7.675v-3.837h-7.595V46.29h7.595v-3.837h-7.595v-3.917h7.595c.32-2.319 1.52-3.678 3.998-3.918v-7.675h3.837v7.675h3.837v-7.595h3.998v7.595h3.837v-7.675h3.918v7.675h3.837v-7.675h3.917v7.675h3.838v-7.675h3.917v7.675h3.838v-7.675h3.837v7.595c2.399.24 3.678 1.6 3.998 3.918h7.594v3.917h-7.594v3.837h7.594v3.998h-7.594v3.837h7.594v3.918h-7.594v3.757h7.594v3.997h-7.594c-.16 1.44-.16 2.639-.16 3.918Zm-46.45-30.86v42.452h42.372V38.775H38.776Z" fill="#F47400"/><path d="M88.98 11.752h-3.837v7.595H58.121V.08h27.022v7.595h3.838V.08h27.022v19.267H88.981v-7.595Zm-27.1 3.678h19.267V3.918H61.879V15.43ZM92.978 3.838V15.43h19.187c0-.32.08-.64.08-.88V4.877c0-.8-.16-1.04-1.039-1.04H92.978Zm11.431 104.57H61.957v-3.917h38.614V69.714h3.838v38.694Z" fill="#6D6E71"/><path d="M116.002 58.04v46.45h-3.838V61.958h-3.837c-.24 0-.48.32-.64.64a5.991 5.991 0 0 1-5.916 3.278c-2.398-.24-4.477-2.079-5.037-4.477-.64-2.799.96-5.837 3.598-6.796 2.798-1.04 6.076.24 7.275 2.958.24.56.56.64 1.04.64 2.478-.16 4.876-.16 7.355-.16ZM7.755 73.551H3.918v-29.02H15.43v-5.757h3.838v9.674H7.755v25.103ZM38.613 7.755v3.837h-3.757v13.511H27.1v9.674h-3.917V21.266h7.674V7.755h7.755ZM3.836 29.1V13.59h3.917v11.433h11.513v9.674h-3.758V29.02c-3.917.08-7.755.08-11.672.08ZM104.41 50.367h-3.758V23.345h3.758v27.022ZM54.203 9.674c0 3.278-2.558 5.836-5.836 5.836-3.277 0-5.836-2.558-5.836-5.836 0-3.198 2.639-5.836 5.836-5.836 3.198 0 5.837 2.638 5.837 5.836Zm3.838 96.815c0 3.278-2.558 5.756-5.836 5.756-3.197 0-5.756-2.638-5.756-5.836 0-3.198 2.718-5.836 5.916-5.756 3.118 0 5.676 2.558 5.676 5.836ZM0 5.836C0 2.558 2.558 0 5.756 0c3.198 0 5.836 2.638 5.836 5.836 0 3.198-2.638 5.836-5.836 5.836C2.558 11.672 0 9.114 0 5.836Zm0 77.389c0-3.278 2.558-5.836 5.836-5.756 3.198 0 5.836 2.638 5.836 5.836 0 3.198-2.718 5.836-5.836 5.836C2.558 89.06 0 86.503 0 83.225Zm119.918-34.778c0 3.278-2.558 5.756-5.836 5.756-3.278 0-5.836-2.558-5.756-5.836 0-3.197 2.638-5.836 5.836-5.836 3.198 0 5.756 2.639 5.756 5.916ZM42.53 106.409c0 3.278-2.479 5.836-5.756 5.836-3.278 0-5.837-2.558-5.837-5.756 0-3.278 2.559-5.836 5.757-5.836 3.277-.08 5.836 2.558 5.836 5.756Zm77.39 7.835c0 3.278-2.558 5.756-5.836 5.756a5.732 5.732 0 0 1-5.756-5.756c0-3.278 2.558-5.836 5.836-5.836 3.278 0 5.756 2.479 5.756 5.836Z" fill="#6D6E71"/><path d="M23.186 58.041c0 3.278-2.558 5.836-5.836 5.836-3.278 0-5.756-2.638-5.756-5.916 0-3.198 2.558-5.756 5.836-5.756 3.198.08 5.756 2.558 5.756 5.836Zm81.225 58.042H77.469v-3.758h26.942v3.758ZM15.508 67.795h3.757v19.267h-3.757V67.795Zm100.496-29.101h-3.758v-15.43h3.758v15.43Z" fill="#6D6E71"/><path d="M46.45 61.88V46.53h15.349v3.837H50.367v11.512h-3.918Zm30.937-13.513c0 3.278-2.558 5.837-5.836 5.837a5.817 5.817 0 0 1-5.836-5.837c0-3.197 2.638-5.836 5.836-5.836a5.817 5.817 0 0 1 5.836 5.836Zm-29.02 29.021c-3.277 0-5.836-2.558-5.836-5.756 0-3.198 2.559-5.836 5.756-5.916a5.817 5.817 0 0 1 5.837 5.836c.08 3.278-2.479 5.836-5.757 5.836ZM73.47 73.55H58.122v-3.837h11.512V58.121h3.838v15.43Z" fill="#F47400"/><path d="M69.634 7.835v3.757h-3.837V7.835h3.837Zm7.674 3.757h-3.757V7.755h3.757v3.837Zm31.022-3.837v3.837h-3.838V7.755h3.838Zm-11.514 0h3.758v3.837h-3.758V7.755ZM11.591 108.328H7.754v-3.838h3.837v3.838Zm7.674-3.838v3.838h-3.757v-3.838h3.757Z" fill="#6D6E71"/><path d="M3.836 119.52h3.997v-3.278h3.678v3.278h3.997c0-.56-.08-2.718 0-3.278h3.757c0 .16.08.24.08.32-.08.4 0 2.478 0 2.958h3.838c-.08-.56 0-2.798-.08-3.358h3.917V96.815h-3.837v-3.757h-3.838v3.757h-3.917v-3.757H11.51v3.757H7.674v-3.757H3.836v3.837H.078v19.347h3.758v3.278Zm.08-18.788h19.267v11.433H3.916v-11.433Z" fill="#6D6E71"/></g><defs><clipPath id="a"><path fill="#fff" d="M0 0h119.92v120H0z"/></clipPath></defs></svg>