<svg width="121" height="120" fill="none" xmlns="http://www.w3.org/2000/svg"><g clip-path="url(#a)"><path d="M100.657 75.661H79.379v10.045h21.278V75.66Zm0-22.696H79.379V63.01h21.278V52.965Z" fill="#F47400"/><path d="M87.029 25.15v-5.52c-1.61-.997-3.278-1.687-4.486-2.857-1.073-1.035-2.09-1.265-3.431-1.265-14.339.02-28.658.02-42.997.02h-1.188c-.02.344-.058.632-.058.9 0 5.943 0 11.866-.02 17.808 0 .595.116.959.691 1.266 2.243 1.188 3.201 3.105 3.182 5.636-.057 5.233-.019 10.466-.019 15.7v1.15c.383.019.71.038 1.054.038h8.627c3.297.019 5.808 2.51 5.827 5.808v21.182h11.578V56.34c0-2.281.863-4.14 2.895-5.253.805-.44 1.802-.766 2.703-.766 11.75-.058 23.482-.058 35.233-.02 3.144 0 5.597 2.57 5.597 5.713v27.201c0 .652-.115 1.323-.153 1.745 1.495.805 2.99 1.399 4.256 2.3 1.801 1.303 3.028 3.124 3.393 5.367.479 2.933.632 5.924-.173 8.818-.863 3.125-2.971 5.214-6 6.326-.422.153-.843.288-1.323.46v11.674h-1.092c-34.946 0-69.892-.019-104.837.039-3.758 0-6.307-2.972-6.288-6.288a4246.73 4246.73 0 0 0 0-49.418c-.02-3.374 2.741-6.48 6.307-6.288 3.029.172 6.057.038 9.24.038v-1.035c0-5.329.038-10.658-.02-15.987-.019-2.434.92-4.256 3.048-5.425.652-.364.825-.786.825-1.495-.02-9.316.057-18.652-.058-27.968-.038-3.24 2.741-6.384 6.134-6.134 1.17.076 2.358.019 3.547.019 2.28 0 3.987 1.035 5.08 2.99.364.652.747.863 1.475.863 14.78-.02 29.56-.02 44.32 0 .9 0 1.533-.192 2.224-.92 3.833-4.064 10.274-3.91 14.012.249.46.517.92.67 1.553.67 7.016-.018 14.051-.018 21.067-.018h1.131V15.45h-1.054c-7.055 0-14.109 0-21.163-.02-.652 0-1.074.173-1.534.69-1.36 1.534-3.086 2.53-5.137 3.03v5.903c1.323 0 2.626-.038 3.91.02.365.019.825.153 1.074.402 2.856 2.818 5.712 5.636 8.511 8.511.192.211.173.825.019 1.15-1.303 2.684-2.664 5.368-4.006 8.032a784.408 784.408 0 0 0-2.051 4.084c-1.208-.595-2.3-1.132-3.508-1.707.69-1.418 1.342-2.798 2.032-4.16.977-1.935 1.974-3.852 2.913-5.808.096-.191 0-.613-.153-.786a189.75 189.75 0 0 0-5.195-5.194c-.345-.326-.92-.499-1.418-.575-.69-.096-1.38-.02-2.186-.02v17.33h-3.891v-17.31c-1.591.019-3.029-.403-4.256 1.073-1.36 1.63-2.952 3.067-4.504 4.543-.422.403-.365.748-.154 1.17 1.4 2.779 2.818 5.578 4.218 8.357.21.422.383.863.613 1.361-1.074.518-2.051 1.035-3.067 1.476-.173.077-.614-.153-.71-.345-1.974-3.91-3.93-7.86-5.865-11.789-.115-.23-.039-.71.134-.882a735.144 735.144 0 0 1 8.626-8.664c.211-.211.633-.25.959-.269 1.36.077 2.626.096 3.987.096ZM3.969 89.003v24.518c0 1.936.65 2.569 2.587 2.588h41.157c1.993 0 2.645-.652 2.645-2.646v-48.92c0-1.86-.728-2.607-2.607-2.607H6.594c-1.955 0-2.626.69-2.626 2.665v24.402Zm85.015-34.792H72.345c-2.013 0-2.607.613-2.607 2.645v25.649c0 2.032.575 2.607 2.626 2.607 7.553-.02 15.125-.058 22.678-.077 3.603 0 7.207.058 10.811.077 1.879 0 2.55-.652 2.55-2.53v-25.84c0-1.84-.69-2.531-2.55-2.531H88.984Zm19.304 61.84v-7.591H54.154v7.591h54.134ZM30.92 34.811c.039-.172.077-.287.077-.402 0-9.47.02-18.94 0-28.409 0-1.265-.863-2.032-2.166-2.07-.997-.02-1.975 0-2.971 0-1.84 0-2.57.71-2.57 2.53v27.374c0 .326.04.67.058 1.016 2.607-.038 5.08-.038 7.572-.038ZM19.4 50.378h11.597v3.872h-11.54v3.738h15.374v-11.52H23.31v-3.93h11.598v-1.572c-.02-1.419-.825-2.243-2.282-2.243a1043.54 1043.54 0 0 0-10.907 0c-1.476 0-2.3.824-2.3 2.32-.02 2.05 0 4.083 0 6.134-.02 1.016-.02 2.032-.02 3.201Zm15.508-38.799H79.38v-3.68H34.908v3.68Zm23.386 77.54c2.32 2.07 3.68 4.524 3.68 7.591.02 3.087-1.303 5.559-3.66 7.668h14.97c-4.734-4.313-4.85-10.83.02-15.259h-15.01Zm46.447.077c2.301 2.013 3.623 4.467 3.642 7.514.02 3.087-1.322 5.54-3.623 7.63 2.282 0 4.448.211 6.576-.058 2.837-.364 4.677-2.741 4.734-5.616.02-1.342.039-2.684 0-4.026-.095-2.741-2.012-5.118-4.734-5.406-2.128-.23-4.314-.038-6.595-.038Zm-.268 7.534c-.019-3.163-2.684-5.79-5.828-5.751-3.124.038-5.77 2.741-5.75 5.846.038 3.106 2.664 5.675 5.789 5.675 3.201.019 5.827-2.608 5.789-5.77Zm-25.112 5.789c3.182 0 5.79-2.627 5.77-5.79-.02-3.124-2.626-5.731-5.731-5.75-3.125-.02-5.828 2.645-5.828 5.75-.02 3.144 2.626 5.79 5.79 5.79Zm15.47-92.684c.076-3.105-2.569-5.923-5.694-5.904-3.143.019-5.712 2.223-5.846 5.597-.134 3.163 2.434 5.866 5.578 5.981 3.106.096 5.885-2.55 5.962-5.674Zm21.201 1.764v-3.7H98.665v3.7h17.367ZM54.23 91.476v10.007c0 .172.02.364.039.555 2.031-.498 3.718-2.76 3.795-5.08.077-2.434-1.476-4.734-3.834-5.482Zm38.492-2.358h-7.418c2.032 1.61 3.067 3.662 3.776 5.943.517-2.396 1.744-4.256 3.642-5.943Zm.038 15.297c-1.974-1.686-3.124-3.623-3.718-5.923-.595 2.339-1.802 4.256-3.662 5.923h7.38Z" fill="#6D6E71"/><path d="M13.61 98.684c0-3.278 2.51-5.79 5.808-5.79a5.796 5.796 0 0 1 5.827 5.809c0 3.182-2.664 5.827-5.847 5.827-3.22 0-5.789-2.588-5.789-5.846Zm7.686 0c-.019-.978-.9-1.898-1.86-1.917-.977-.02-1.954.977-1.935 1.974.019.959.958 1.84 1.936 1.84a1.894 1.894 0 0 0 1.86-1.897Zm19.384-.019c.018 3.258-2.55 5.865-5.77 5.865-3.202.019-5.847-2.607-5.847-5.808a5.768 5.768 0 0 1 5.789-5.828c3.278 0 5.808 2.512 5.827 5.77Zm-3.873.076c.02-.94-.9-1.917-1.86-1.955-.977-.038-1.974.92-1.974 1.917s.863 1.878 1.879 1.878c.977.02 1.936-.881 1.955-1.84Zm-7.746 13.457h-3.795v-3.738h3.795v3.738Zm11.654-3.757h3.834v3.738h-3.834v-3.738Zm-30.957 0h3.795v3.738H9.758v-3.738Zm7.782-.019h3.718v3.757h-3.719v-3.757Zm15.452 3.776v-3.738h3.757v3.738h-3.757Zm63.754-15.412c0-1.131.767-1.936 1.898-1.956 1.17-.019 2.013.805 1.993 1.956-.019 1.092-.862 1.917-1.955 1.917a1.914 1.914 0 0 1-1.936-1.917ZM79.4 94.83c1.112.02 1.917.825 1.898 1.956 0 1.092-.863 1.917-1.956 1.917-1.13 0-1.974-.882-1.955-2.013.058-1.112.863-1.879 2.013-1.86ZM90.976 9.853c-.057 1.074-.958 1.879-2.051 1.84-1.035-.038-1.898-.996-1.84-2.05.038-1.055.977-1.917 2.013-1.88 1.13.02 1.936.94 1.878 2.09Z" fill="#6D6E71"/><path d="M43.458 86.722H10.85a1.092 1.092 0 0 1-1.093-1.092V70.735c0-.594.479-1.092 1.093-1.092h32.606c.595 0 1.093.479 1.093 1.092V85.63c0 .613-.498 1.093-1.092 1.093Z" fill="#F47400"/></g><defs><clipPath id="a"><path fill="#fff" d="M0 0h120.115v120H0z"/></clipPath></defs></svg>