<svg width="145" height="120" fill="none" xmlns="http://www.w3.org/2000/svg"><path d="M42.764 73.001c-.21 1.328-.442 2.632-.65 3.96-.605 3.802-3.929 6.794-7.857 6.84-9.134.09-18.245.022-27.38.044-.697 0-.952-.292-1.045-.9-.907-5.512-1.79-11.001-2.72-16.49-.627-3.69-1.278-7.38-1.906-11.07-.418-2.43-.93-4.86-1.185-7.312-.116-1.035.279-2.137.511-3.172.86-3.982 1.767-7.965 2.65-11.947.07-.292.186-.562.325-.99 1.14.248 2.232.495 3.394.765-.72 3.218-1.186 6.345-2.115 9.337-1.302 4.117-.93 8.145-.163 12.262C5.762 60.47 6.715 66.657 7.76 72.82c.418 2.475.86 4.927 1.301 7.47h3.673c.279-2.385.557-4.815.836-7.2.117-.9.163-1.8.395-2.655.744-2.902-.348-5.647-.79-8.414-.697-4.432-1.604-8.842-2.37-13.251-.047-.315.046-.675.139-.968 1.301-3.757 2.533-7.537 3.998-11.226.58-1.463.232-2.813.093-4.185-.628-6.367-1.325-12.734-2-19.101 0-.113-.069-.203-.371-.45-.581 1.057-1.371 2.047-1.697 3.15-.953 3.307-1.766 6.66-2.533 9.989-.21.9-.488 1.057-1.395.855-2.324-.54-2.394-.518-1.86-2.768.721-3.104 1.372-6.209 2.372-9.224.999-2.992 2.928-5.557 5.555-7.424 1.301-.923 2.974-1.395 4.485-2.025 4.044-1.687 8.065-3.375 12.133-5.017.58-.248 1.255-.36 1.906-.36 6.996-.023 13.992-.023 21.01 0 .745 0 1.558.18 2.232.45 5.09 2.137 10.273 4.117 15.224 6.57 1.767.877 3.115 2.722 4.393 4.342 2.185 2.767 2.905 6.141 3.626 9.471 1.836 8.415 3.626 16.829 5.624 25.198.535 2.205-.162 4.163-.464 6.187-1.116 7.335-2.418 14.624-3.65 21.936-.464 2.767-1.045 5.512-1.394 8.302-.163 1.237-.697 1.395-1.79 1.395-7.81-.045-15.619 0-23.428-.023-1 0-2.022-.067-2.975-.315-2.836-.72-4.649-2.587-5.555-5.22-.605-1.71-.953-3.509-1.418-5.264-.116-.045-.21-.045-.302-.045ZM22.752 7.036c-2.022.855-3.765 1.643-5.555 2.318-.79.292-.93.697-.837 1.44.605 5.31 1.14 10.641 1.72 15.973.558 5.107 1.163 10.192 1.65 15.3a80.44 80.44 0 0 1 .326 7.491c0 1.485-.325 2.97-.488 4.455L17.337 72.64c-.303 2.542-.628 5.085-.953 7.762H33.35c2.882 0 4.788-1.462 5.276-4.185.72-4.162 1.348-8.346 1.975-12.531.047-.315 0-.675-.093-.99-1.44-6.345-1.859-12.734-.79-19.191.116-.653-.163-1.462-.511-2.07-.72-1.237-1.604-2.385-2.417-3.555-3.65-5.31-7.252-10.664-10.97-15.95-3.022-4.276-3.069-4.23-3.069-9.383V7.036Zm39.001.135V8.59c0 3.487.023 6.952-.023 10.439 0 .495-.093 1.08-.349 1.485-2.836 4.454-5.718 8.864-8.576 13.296-3.208 4.972-6.438 9.945-9.623 14.917-.232.36-.441.832-.418 1.237.163 2.947.093 5.962.674 8.82 1.232 6.029 2.812 12.013 4.3 17.998.558 2.205 2.464 3.577 4.858 3.577h13.922c.348 0 .674-.045 1.115-.067-.046-.54-.046-1.013-.116-1.485-.488-3.983-.976-7.942-1.464-11.924-.535-4.41-1.093-8.842-1.557-13.274-.326-3.105-1.023-6.21-.395-9.382.348-1.71.395-3.487.58-5.242.512-4.905 1.023-9.832 1.535-14.737.488-4.657 1.022-9.291 1.487-13.948.023-.248-.163-.698-.395-.788-1.767-.742-3.556-1.485-5.555-2.34Zm13.178 73.165c.489-2.88.977-5.715 1.442-8.572 1.045-6.277 2.068-12.554 3.16-18.809.535-3.037.86-5.94.093-9.067-2.045-8.234-3.765-16.558-5.624-24.838-.488-2.204-1.255-4.274-2.859-6.254-.116.877-.21 1.53-.279 2.182-.581 5.197-1.209 10.417-1.697 15.614-.186 2.025-.418 4.14 0 6.097.605 2.722 1.883 5.287 2.79 7.942.488 1.462 1.115 2.992 1.115 4.5 0 1.844-.627 3.667-.953 5.512-.72 3.892-1.697 7.784-2.045 11.721-.256 2.79.325 5.647.604 8.46.163 1.822.419 3.622.65 5.49 1.163.022 2.279.022 3.603.022Zm-33.33-45.897h.28c.209-.742.418-1.485.627-2.205 1.86-6.344 3.719-12.711 5.602-19.056.186-.63.348-1.192-.21-1.755-1.952-2.047-3.881-4.14-5.857-6.254-.302.247-.534.405-.743.607-1.674 1.688-3.324 3.42-5.067 5.063-.628.585-.697 1.147-.512 1.89 1.767 6.569 3.51 13.16 5.276 19.73.186.675.396 1.328.605 1.98Zm2.325 5.827.349.135c.813-1.215 1.603-2.43 2.417-3.645 3.23-4.972 6.461-9.921 9.645-14.916.698-1.102 1.674-2.272 1.744-3.442.209-4.005.093-8.01.07-12.014 0-.293-.14-.743-.35-.833-1.045-.517-2.138-.922-3.276-1.394a15536.09 15536.09 0 0 0-10.599 36.11ZM29.771 4.134c-.953.383-1.673.742-2.44.967-.86.248-1.046.765-1.023 1.598.047 2.835-.023 5.692.047 8.527.023.72.302 1.53.72 2.16 2.046 3.082 4.16 6.119 6.252 9.156 1.163 1.688 2.348 3.352 3.51 5.04.07-.023.14-.068.21-.09-2.418-9.067-4.812-18.134-7.276-27.358ZM15.547 54.508c.65-3.398 1.557-6.772.534-10.282-.604 1.575-1.417 3.195-1.464 4.815-.046 1.822.581 3.644.93 5.467ZM49.62 8.07c.465-1.665.86-3.06 1.279-4.5H45.46c1.395 1.508 2.673 2.88 4.16 4.5Zm18.176 36.29c-.697 3.465.093 6.75.488 10.057 1.023-3.375 1.836-6.727-.488-10.057ZM34.466 7.62c1.418-1.462 2.65-2.7 3.998-4.094h-5.16c.372 1.35.72 2.587 1.162 4.094Zm53.038 6.976h35.491v63.017c.093.023.209.045.302.068 1.976-4.702 3.928-9.404 5.927-14.152.93.338 1.72.653 2.534.9.72.225.743.608.511 1.193-1.58 3.78-3.161 7.537-4.741 11.316-1.465 3.51-3.092 6.952-4.254 10.53-.511 1.574-.093 3.464.07 5.264 5.322-13.184 10.645-26.368 16.014-39.687-1.813-.63-3.556-1.282-5.323-1.89-2.579-.9-5.159-1.777-7.763-2.632-.79-.247-1.045-.585-.674-1.372.349-.72.581-1.508.884-2.318 5.903 2.048 11.667 4.028 17.548 6.075-.535 1.395-1.023 2.7-1.534 3.96-3.185 7.896-6.415 15.77-9.599 23.668-3.208 7.942-6.369 15.861-9.553 23.803-.697 1.71-1.278 2.137-3.184 2.137-5.602 0-11.226-.022-16.828 0-5.625.023-9.924-2.34-13.202-6.682-2.928-3.847-4.206-8.212-4.114-12.936.21-10.822.488-21.644.721-32.465.256-12.104.465-24.186.674-36.29.023-.427.07-.945.093-1.507Zm3.486 9.809V25.8c-.441 19.506-.906 38.99-1.371 58.495-.07 3.037.349 5.962 1.674 8.752 2.114 4.477 6.391 8.234 12.364 8.054 4.835-.157 9.669-.022 14.504-.022h1.255V80.111c0-10.552 0-21.104-.023-31.678 0-.495-.07-1.125-.372-1.462-3.324-3.42-4.672-7.605-4.881-12.15-.14-2.992-.093-5.984-.047-8.976.024-1.103-.232-1.485-1.464-1.463-6.717.068-13.457.023-20.174.023H90.99Zm7.74-3.6h20.639V18.06h-18.222c-2.673-.022-2.673-.022-2.417 2.745Zm20.639 3.757c-1.627-.292-1.65-.27-1.65 1.215 0 2.948-.023 5.917.023 8.865.047 2.204.465 4.342 1.627 6.547V24.562Zm-24.427-3.757c0-.765.046-1.462-.024-2.16-.023-.202-.325-.562-.511-.562-1.092-.045-2.185-.023-3.3-.023v2.768c1.278-.023 2.487-.023 3.835-.023Z" fill="#6D6E71"/><path d="M24.519 119.977h-8.32c-3.208 0-6.416-.022-9.623.023-.86 0-1.14-.248-1.116-1.103.116-2.452.21-4.927.21-7.379 0-1.035-.326-2.07-.535-3.082-.837-4.41-.256-8.73.767-13.004.697-2.813 3.23-3.803 5.973-2.633 5.253 2.228 10.715 3.668 16.525 3.15 1.372-.135 2.72-.495 4.091-.742 1.023-.18 1.65-.833 1.93-1.755.44-1.395.86-2.79 1.185-4.207.65-2.903 3.393-4.523 6.391-3.825.697.157 1.488-.045 2.208.045.72.09 1.58.18 2.115.585 3.998 2.925 7.95 5.94 11.9 8.91 3.812 2.857 8.159 4.386 12.9 4.746 3.51.27 7.02.36 10.552.495 2.603.09 4.602 1.08 5.95 3.285.163.27.535.495.86.562 1.162.225 1.743.878 1.743 2.025 0 1.508.047 2.993-.023 4.5-.023.36-.348.877-.674.99-3.58 1.462-7.135 3.06-10.83 4.185-4.696 1.417-9.53 2.474-14.318 3.622-1.232.292-2.534.495-3.789.495-5.322-.045-10.668 0-15.99-.338-2.58-.18-5.137-1.012-7.624-1.777-5.346-1.642-10.761-2.655-16.41-2.475-3.486.113-6.972 0-10.435.045-.349 0-.976.293-1.023.518-.14.787.558.63 1.023.63 4.37.022 8.739.045 13.109-.023 1.046-.022 1.37.315 1.278 1.282-.07.675 0 1.373 0 2.25Zm20.779-30.305c-.303.428-.558.743-.79 1.08-.233.338-.442.698-.721 1.012-4.997 5.918-11.621 8.167-19.315 7.762-4.788-.247-9.32-1.597-13.736-3.374-.349-.135-1.139-.09-1.232.067-.255.563-.627 1.193.21 1.755 1.859 1.26 3.88 2.227 6.112 2.542 2.743.405 5.532.495 8.298.788 3.533.382 6.717 3.037 7.693 6.322.116.382.395.72.604 1.08.349-.293.767-.54 1-.9 1.371-1.958 2.905-3.735 5.09-5.04.674.968 1.278 1.845 1.836 2.655-1.371 1.44-2.673 2.767-4.184 4.342 2.51.697 4.626 1.395 6.81 1.845 5.23 1.102 10.553.742 15.829.675a31.359 31.359 0 0 0 5.415-.563c6.601-1.282 13.016-3.104 19.268-5.557.372-.157.72-.36 1.093-.54-.07-.225-.07-.337-.14-.427-.674-1.148-1.766-1.44-3.022-1.485-6.903-.27-13.875.045-20.36-2.947-.232-.113-.79.135-1 .382-.906 1.058-1.812 2.138-2.602 3.285-.535.765-1.07.855-1.93.54-2.812-1.058-5.717-1.552-8.739-1.35-.976.068-2.254.472-2.812.045-.628-.495-.604-1.777-.86-2.7 0-.022.023-.067.093-.247.58-.135 1.232-.315 1.906-.45 3.207-.585 6.298-.045 9.413.675.395.09 1 .067 1.232-.158.604-.585 1.069-1.327 1.627-2.047-4.09-3.082-8.065-6.052-12.086-9.067ZM8.55 107.693h19.385c-.767-1.282-1.72-2.317-3.185-2.61-1.58-.315-3.207-.472-4.81-.585-3.022-.225-6.02-.495-8.81-1.732a64.339 64.339 0 0 1-2.556-1.215c-.024 2.093-.024 4.027-.024 6.142Zm1.023 3.577a1.92 1.92 0 0 0-.047.36c.396.068.79.158 1.186.158 4.323.022 8.67.022 12.992 0 3.789-.023 7.438.697 11.064 1.687 2.928.788 5.834 1.733 8.809 2.34 4.997 1.035 10.087.54 15.154.563 1.534 0 3.114-.09 4.602-.383 7.67-1.53 15.247-3.465 22.475-6.479.303-.135.558-.338.837-.518-.256-.225-.418-.247-.534-.202-4.324 1.462-8.6 3.127-12.993 4.342-3.951 1.08-8.019 2.002-12.11 2.43-4.253.427-8.576.405-12.852.135-3.278-.203-6.555-.945-9.762-1.755-4.068-1.035-8.042-2.498-12.272-2.633-5.323-.18-10.669-.135-15.991-.157-.21 0-.372.067-.558.112Zm31.889-22.228c-1.72-.675-2.673.36-2.487 2.677.906-.967 1.673-1.8 2.487-2.677Z" fill="#F47400"/><path d="M132.527 55.655c1.185.473 2.185.878 3.323 1.328-.65 1.597-1.278 3.104-1.929 4.68-1.162-.45-2.184-.856-3.323-1.306.65-1.53 1.255-3.037 1.929-4.702Z" fill="#6D6E71"/></svg>