<svg width="120" height="120" fill="none" xmlns="http://www.w3.org/2000/svg"><path d="M64.222 0c2.08.32 4.239.56 6.318.96C82.937 3.2 93.574 8.8 102.451 17.68c8.958 9.039 14.716 19.918 16.716 32.478 2.719 17.279-1.2 32.958-11.997 46.718-9.517 12.159-21.994 19.679-37.27 22.238-17.035 2.8-32.55-1.039-46.307-11.519C11.517 98.395 4.08 86.156 1.04 71.277c-.4-1.92-.56-3.92-.8-5.92-.08-.4-.16-.72-.24-1.12v-8.4c.24-1.92.48-3.84.8-5.76C2.96 37.759 8.398 27.04 17.115 18.16 26.073 8.96 36.87 3.2 49.426.96c2.08-.4 4.239-.64 6.318-.96h8.478Zm-4.319 114.315c29.832.08 54.305-24.32 54.385-54.238C114.368 30.24 89.975 5.68 60.063 5.6 30.231 5.52 5.678 29.999 5.598 59.917c0 29.919 24.394 54.398 54.305 54.398Z" fill="#6D6E71"/><path d="M95.015 59.517c-.08 17.12-11.676 31.279-28.072 34.799-18.395 3.92-37.11-8.16-41.188-26.56-3.52-15.998 4.079-31.998 18.714-39.197.8-.4 1.76-.72 2.64-.72 1.2 0 2.24 1.04 2.4 2.16.239 1.2-.32 2.4-1.44 3.04-1.52.88-3.12 1.6-4.56 2.56-9.357 6.64-13.755 15.759-12.876 27.198 1.12 13.28 11.517 24.159 24.633 26.239 15.996 2.48 30.952-8.32 33.591-24.399 2.08-12.48-4.479-25.279-15.835-30.959-.4-.16-.8-.4-1.12-.56-1.52-.8-2.08-2.32-1.44-3.76.72-1.44 2.32-2 3.92-1.36 3.198 1.44 6.157 3.28 8.717 5.6 7.837 7.04 11.676 15.92 11.916 25.92Z" fill="#F47400"/><path d="M62.782 39.678v11.68c0 1.92-1.12 3.2-2.8 3.2-1.679 0-2.798-1.28-2.798-3.2v-23.28c0-1.92 1.12-3.2 2.799-3.2 1.68 0 2.799 1.28 2.799 3.2v11.6Z" fill="#F47400"/></svg>