<svg width="98" height="120" fill="none" xmlns="http://www.w3.org/2000/svg"><g clip-path="url(#a)"><path d="M15.026 35.557c-.15-2.48-.176-4.861-.477-7.217-.451-3.658-.903-7.291-1.63-10.9-1.004-5.061-2.584-9.972-5.117-14.533C7.2 1.83 7.5.752 8.429.277c1.003-.527 2.157-.277 2.684.826 1.229 2.556 2.332 5.162 3.486 7.743.1.225.176.45.402.651V1.955c.025-1.178.777-1.93 1.906-1.93 1.104 0 1.831.727 1.831 1.88.025 2.38 0 4.76 0 7.141 0 .1.025.226.2.376.427-1.102.778-2.23 1.255-3.308A83.824 83.824 0 0 1 22.776.903c.527-.978 1.756-1.178 2.66-.602.877.551 1.078 1.604.526 2.606-1.856 3.283-3.11 6.79-4.139 10.374-1.254 4.585-2.032 9.246-2.508 13.957-.25 2.456-.326 4.936-.477 7.417-.025.501-.1 1.027.703.977.602-.05 1.229.226 1.38-.827.45-3.307.902-6.615 1.58-9.872 1.028-5.037 2.633-9.898 5.117-14.434.777-1.428 1.755-2.756 2.734-4.059.727-.977 1.931-1.052 2.784-.35.828.676.878 1.929.125 2.83-1.78 2.106-2.96 4.536-4.013 7.042-2.534 6.114-3.788 12.504-4.515 19.044-.025.275.2.701.426.827.853.45 1.18 1.102 1.154 2.03-.025 3.582 0 7.166 0 10.9h1.104c2.082 0 2.609.525 2.609 2.655v66.077c0 2.029-.502 2.531-2.509 2.531H6.071c-1.731 0-2.358-.602-2.358-2.356V51.118c0-1.68.702-2.356 2.358-2.38h1.404V38.112c0-1.027.201-1.88 1.255-2.356.175-.075.35-.5.326-.726-.728-6.916-2.107-13.682-4.942-20.071-.953-2.13-2.307-4.06-3.587-6.04-.702-1.102-.752-2.129.15-2.88.804-.677 1.957-.527 2.785.425 1.831 2.13 3.11 4.586 4.24 7.142 2.207 4.936 3.46 10.148 4.414 15.46.326 1.83.602 3.658.752 5.513.076.927.402 1.203 1.23 1.077.25-.075.476-.075.928-.1Zm11.237 29.492c-.477.201-.778.276-1.054.426-3.085 1.554-6.195 3.083-9.28 4.636a1154.748 1154.748 0 0 0-7.852 3.96c-.225.124-.551.4-.551.626-.05 2.155-.025 4.31-.025 6.565.275-.126.451-.2.602-.276a1888.04 1888.04 0 0 1 10.108-5.011c2.358-1.178 4.716-2.33 7.049-3.533.376-.201.928-.552.928-.877.125-2.105.075-4.235.075-6.516Zm0 22.477c-.426.175-.652.276-.878.376-5.418 2.706-10.786 5.462-16.229 8.068-1.33.652-1.831 1.404-1.63 2.782.1.676.025 1.353.025 2.029v3.007c.3-.15.451-.2.577-.275 2.834-1.404 5.694-2.832 8.528-4.235a991.794 991.794 0 0 0 8.93-4.485c.276-.15.652-.426.677-.677.025-2.13 0-4.285 0-6.59Zm0 11.276c-.351.15-.527.2-.677.275a1173.056 1173.056 0 0 0-17.383 8.695c-.276.126-.652.426-.652.652-.05 2.155-.025 4.31-.025 6.59.677-.326 1.229-.576 1.78-.852 2.032-1.027 4.09-2.055 6.121-3.082 3.361-1.679 6.747-3.358 10.084-5.062.3-.15.702-.476.702-.726.075-2.08.05-4.21.05-6.49Zm0-22.577c-1.73.852-3.286 1.629-4.841 2.406a3303.56 3303.56 0 0 0-13.345 6.665c-.225.125-.526.426-.551.651-.05 2.155-.025 4.285-.025 6.54.451-.175.777-.3 1.053-.45 2.91-1.454 5.794-2.907 8.704-4.36l8.353-4.21c.25-.126.602-.376.602-.577.075-2.154.05-4.31.05-6.665Zm.025-22.451c-.401.175-.652.275-.878.4-1.48.752-2.985 1.504-4.465 2.23-4.289 2.156-8.603 4.285-12.893 6.44-.2.1-.451.401-.476.602-.025 2.155-.025 4.31-.025 6.64.627-.326 1.103-.576 1.58-.827 5.042-2.506 10.058-5.087 15.175-7.492 1.58-.727 2.233-1.579 2.032-3.333-.2-1.478-.05-3.006-.05-4.66Zm-14.975-5.087h11.112v-9.196H11.313v9.196Zm14.925 61.29c-4.164 2.08-8.152 4.085-12.14 6.064.025.05.05.076.075.126h12.09c-.025-2.03-.025-3.984-.025-6.19ZM7.576 52.596v6.19c4.088-2.03 8.052-4.035 12.04-6.015-.025-.05-.05-.125-.075-.175H7.576Zm63.714-3.859V38.164c0-1.68.226-2.03 1.856-2.657V9.673c0-1.253.652-2.08 1.68-2.155 1.104-.1 1.932.576 2.083 1.654.05.326.025.676.025 1.027v25.333h3.712V22.828c0-1.353.652-2.105 1.781-2.155 1.204-.05 2.007.727 2.007 2.03v12.854h3.737V9.573c0-.953.376-1.654 1.23-1.955.827-.3 1.655-.125 2.131.652.276.476.377 1.102.377 1.679.025 8.118.025 16.212 0 24.33 0 .777-.026 1.403.953 1.68.802.25.928 1.077.928 1.853v10.976c.677 0 1.254-.025 1.83 0 1.13.05 1.907.801 1.957 1.929v66.928c0 1.353-.376 2.03-1.279 2.306a3.7 3.7 0 0 1-.903.1H69.66c-1.505 0-2.132-.652-2.132-2.155V50.968c0-1.529.653-2.18 2.208-2.206.501-.025.953-.025 1.555-.025Zm22.45 3.884H71.365v63.571H93.74v-63.57Zm-3.713-13.155h-14.9v9.196h14.9v-9.196Z" fill="#6D6E71"/><path d="M50.67 33.727h1.104c2.107 0 2.659.551 2.659 2.706v12.304c.627 0 1.204-.026 1.78 0 1.155.025 1.907.751 1.983 1.904.025.25 0 .501 0 .752v65.976c0 .526-.05 1.052-.201 1.553-.251.777-.878 1.103-1.656 1.103H41.29c-1.179 0-1.881-.752-1.906-1.93V51.543c0-2.255.527-2.781 2.784-2.781h1.003V36.433c0-2.105.577-2.656 2.71-2.68h1.053V2.33c0-.977.2-1.779 1.204-2.155 1.254-.476 2.508.326 2.559 1.68.025.5 0 1.001 0 1.477v29.242c-.026.351-.026.702-.026 1.153Zm-7.374 18.868v63.621h11.037v-63.62H43.296Zm7.324-15.009h-3.612v11.1h3.612v-11.1Z" fill="#F47400"/><path d="M84.456 12.204c0 .927.025 1.854 0 2.781-.025 1.078-.827 1.904-1.856 1.93-1.028.024-1.881-.752-1.906-1.855-.05-1.904-.05-3.834 0-5.763.025-1.128.853-1.83 1.931-1.804 1.079.025 1.806.777 1.831 1.93.025.926 0 1.854 0 2.78Zm5.646-8.445c-1.103.025-1.881-.727-1.906-1.804-.025-1.153.727-1.93 1.856-1.93 1.079 0 1.881.777 1.881 1.855a1.805 1.805 0 0 1-1.83 1.879Zm-15.052 0c-1.079 0-1.856-.802-1.882-1.855C73.143.827 73.996 0 75.1.025c1.079.025 1.856.827 1.831 1.904-.025 1.053-.828 1.855-1.881 1.83Zm9.406-1.855c0 1.053-.828 1.855-1.881 1.855-1.104 0-1.932-.852-1.881-1.93C80.719.752 81.546 0 82.625.025c1.053.025 1.831.827 1.831 1.88Zm-9.429 70.262V58.259c0-1.553 1.505-2.506 2.834-1.704.477.276.753.977.953 1.554.15.376.026.852.026 1.278v26.435c0 .827-.151 1.554-.879 2.005-1.354.852-2.934-.1-2.934-1.754-.025-4.636 0-9.271 0-13.907Zm1.93 23.504a1.9 1.9 0 0 1-1.956-1.83 1.9 1.9 0 0 1 1.906-1.954c1.028 0 1.906.852 1.906 1.879.025 1.002-.828 1.88-1.856 1.904Z" fill="#6D6E71"/><path d="M50.669 81.612v13.732c0 1.378-.677 2.155-1.856 2.155-1.18.025-1.907-.777-1.907-2.13V67.73c0-1.329.753-2.13 1.907-2.13 1.153.025 1.83.826 1.83 2.18.026 4.635.026 9.246.026 13.831Z" fill="#F47400"/><path d="M48.79 58.158c1.103 0 1.855.752 1.855 1.855 0 1.127-.777 1.904-1.931 1.879-1.079-.025-1.831-.802-1.831-1.88.025-1.102.828-1.854 1.906-1.854Z" fill="#6D6E71"/></g><defs><clipPath id="a"><path fill="#fff" d="M0 0h97.6v120H0z"/></clipPath></defs></svg>