<svg width="101" height="120" fill="none" xmlns="http://www.w3.org/2000/svg"><path d="M35.399 72.596c.427.019.724.037 1.02.056 10.266 0 20.513 0 30.778.019.612 0 .984-.093 1.28-.744 1.801-3.94 2.804-8.102 3.342-12.376.167-1.356.297-2.712.483-4.05.148-1.097.854-1.673 1.893-1.598.947.055 1.745.854 1.634 1.876-.353 2.918-.724 5.835-1.244 8.715-.575 3.197-1.615 6.263-2.989 9.217-.705 1.505-1.02 1.896-2.543 2.565.501 2.118 1.021 4.236 1.485 6.373.26 1.19.205 2.36-.26 3.55-2.023 5.203-3.99 10.443-5.977 15.646-.742 1.951-1.522 3.902-2.283 5.872-.149.39-.279.799-.483 1.394 1.968.669 3.861 1.338 5.773 1.951.928.297 1.912.52 2.859.762 1.875.501 3.193 2.508 2.951 4.478-.26 2.081-1.93 3.661-3.99 3.679-3.899.019-7.778.019-11.677.019h-6.664c-1.893-.019-3.044-1.171-3.063-3.085-.018-2.23 0-4.459 0-6.689 0-1.338.557-2.286 1.764-2.899.26-.13.52-.428.631-.725a6315.49 6315.49 0 0 0 6.478-16.947c.706-1.84 1.43-3.68 2.098-5.538.13-.353.149-.78.074-1.133a420.17 420.17 0 0 0-1.54-6.764H52.16c0 .409-.019.836 0 1.245.111 3.772.241 7.544.353 11.317.074 2.973-1.151 4.831-3.88 6.132-4.25 2.025-8.483 4.106-12.92 6.281.854 2.583 1.67 5.166 2.58 7.711.502 1.413 1.059 2.732.427 4.293-1.206 2.917-5.253 3.605-7.128 1.078-3.657-4.925-7.24-9.905-10.822-14.903-1.17-1.636-.817-3.234.817-4.404 1.837-1.32 3.657-2.64 5.476-3.959.872-.631 1.8-.687 2.803-.353.334.112.742.038 1.114-.018.26-.037.5-.223.78-.297.909-.298 1.781.037 2.208.854.409.78.204 1.635-.538 2.23-.186.149-.39.279-.613.446.724 1.208 1.448 2.416 2.19 3.68 1.931-.93 3.88-1.84 5.811-2.788 2.246-1.078 4.474-2.193 6.738-3.27.891-.428 1.337-1.097 1.318-2.044-.074-4.274-.185-8.548-.278-12.804 0-.111-.037-.241-.074-.409h-4.27c0 .428-.018.855 0 1.264.074 2.992.149 6.002.26 8.994.037 1.078-.316 1.84-1.355 2.286-.817.353-1.596.78-2.413 1.152-1.058.483-2.098.074-2.543-.93-.372-.836.018-1.876 1.04-2.248 1.428-.502 1.781-1.375 1.688-2.843-.167-2.527-.037-5.073-.037-7.749H38.37c-1.337 0-2.655-.037-3.991.019-1.225.055-2.19-.335-2.803-1.413-.669-1.17-.427-2.285.26-3.4 1.039-1.672 2.004-3.382 3.137-5.296-1.838-.316-3.379-.595-4.975-.855-.576 4.386-2.878 7.21-7.203 8.01-3.36.612-6.2-.651-8.167-3.42-2.34-3.29-2.135-6.708.092-10.146-.668-.427-1.336-.836-1.967-1.282-.984-.688-1.986-1.338-2.933-2.1-.873-.688-1.337-1.635-1.095-2.787.241-1.227.946-2.082 2.209-2.36 3.137-.688 6.051-1.933 8.743-3.624.39-.241.687-.706.928-1.133 2.469-4.089 5.847-7.303 9.578-10.202.817-.632 1.504-1.542 2.024-2.453 1.132-2.044 2.134-4.163 3.155-6.28.892-1.86 2.247-2.881 4.363-2.863 1.54.019 3.081 0 4.603 0-.445-1.728-.853-3.363-1.299-5.128-1.41.52-2.914 1.059-4.4 1.598-.352.13-.705.26-1.057.316-.91.13-1.708-.446-1.968-1.32a1.7 1.7 0 0 1 .947-2.007c1.299-.557 2.654-1.003 3.972-1.505.223-.093.446-.186.761-.297-.334-.91-.65-1.803-.984-2.695-.39-1.077-.78-2.136-1.17-3.214-.593-1.691.056-3.308 1.727-3.958 2.952-1.152 5.94-2.23 8.929-3.308 2.654-.966 5.309-1.951 8-2.843 1.931-.632 3.342.13 4.01 2.025.613 1.71 1.225 3.42 1.856 5.13.075.185.205.37.334.594 1.411-.502 2.804-1.004 4.196-1.487 1.243-.427 2.246-.056 2.599.985.352 1.022-.223 1.97-1.43 2.416a814.481 814.481 0 0 1-4.548 1.654c1.411 1.97 2.34 4.032 2.525 6.355.186 2.285-.13 4.497-1.262 6.727 1.206 0 2.227.037 3.267 0 1.615-.056 2.951.446 4.01 1.728.166.204.649.297.927.223 3.212-.744 5.55-2.713 7.11-5.5 1.114-1.97 1.875-4.145 2.71-6.263.167-.427.13-1.06-.074-1.468-2.023-4.422-.297-9.83 4.752-11.707 4.79-1.784 10.043 1.022 11.138 6.151.78 3.624-.483 6.56-3.453 8.734-.575.427-.687.929-.854 1.542-.89 3.103-2.079 6.077-3.73 8.845-2.377 3.977-5.477 7.266-9.654 9.329-2.06 1.003-4.288 1.69-6.59 2.583.075 1.207.186 2.675.26 4.143.075 1.394.112 2.788.13 4.181.019 1.171-.724 1.933-1.782 1.933-1.02 0-1.633-.725-1.745-1.877-.445-5.11-.91-10.22-1.41-15.33-.093-.91-.316-1.821-.465-2.732-.11-.595-.408-.929-1.058-.91-.724.018-1.448 0-2.283 0 .223 1.505.446 2.843.631 4.18 1.021 7.564 1.43 15.145.928 22.764-.26 4.051-.928 8.046-2.134 11.93-.594 1.932-.873 2.118-2.896 2.118-1.708 0-3.397.019-5.105 0-1.373-.018-2.135-.669-2.116-1.765.018-1.096.817-1.784 2.135-1.784 1.336-.019 2.654-.019 3.99 0 .576.019.818-.186.929-.762.185-.966.482-1.914.742-2.973-.37-.019-.65-.074-.946-.074-5.105 0-10.191.018-15.296-.019-.687 0-.984.223-1.133.873-.204.948-.5 1.896-.78 2.955 1.337 0 2.525-.019 3.732 0 .798.019 1.374.427 1.67 1.134.298.669.223 1.393-.352 1.876-.353.298-.873.52-1.318.54-2.06.055-4.14.055-6.2.018-1.485-.037-2.098-1.004-1.708-2.472.947-3.567 2.06-7.117 2.766-10.74 1.04-5.315 1.374-10.74 1.244-16.167-.093-3.493-.205-6.987-.279-10.48-.018-.892-.334-1.152-1.206-1.115-2.154.093-2.172.055-2.005 2.174.557 7.656.316 15.275-.724 22.875-.817 5.965-2.302 11.762-5.142 17.133-.371.65-.817 1.338-1.3 2.155Zm11.304-53.35c.112.614.186 1.227.335 1.821 1.095 4.274 4.807 6.764 8.761 6.504 4.381-.297 7.407-3.308 7.945-7.656.316-2.49-.464-4.701-2.153-6.56-.204-.222-.706-.39-.984-.297-4.27 1.524-8.502 3.104-12.771 4.627-.798.26-1.318.595-1.133 1.561Zm7.11 87.728c1.392.204 2.729.409 4.065.557.167.019.464-.26.539-.464a1216.78 1216.78 0 0 0 3.378-8.715c1.727-4.497 3.453-8.976 5.142-13.491.167-.465.204-1.04.111-1.524-.482-2.211-1.02-4.386-1.559-6.578-.056-.223-.297-.558-.464-.558-1.337-.037-2.692-.018-4.12-.018.407 1.765.686 3.419 1.169 4.998.5 1.673.482 3.16-.205 4.832-2.079 5.073-3.953 10.239-5.921 15.367-.724 1.877-1.43 3.735-2.135 5.594ZM20.4 56.281c1.596.223 3.137.427 4.715.632 0 0 .074-.056.093-.149.965-4.05 3.118-7.396 5.977-10.35 2.19-2.249 4.715-4.07 7.388-5.687.278-.167.668-.427.687-.65.055-1.654.037-3.307.037-5.166-5.068 2.527-9.43 5.556-12.976 9.7-2.951 3.42-5.049 7.285-5.921 11.67ZM39.093 44.63c-5.235 3.55-9.282 7.581-10.6 13.75-.408 1.915.149 2.881 2.06 3.253 1.541.297 3.1.483 4.641.799.65.13.91.055 1.114-.632 1.318-4.423 2.098-8.938 2.506-13.528.093-1.115.167-2.248.279-3.642Zm36.123-9.682c4.028-.799 7.444-2.62 10.265-5.537 3.1-3.196 5.068-7.043 6.275-11.131-1.597-.427-3.063-.836-4.585-1.245-2.172 6.337-5.625 11.54-12.679 13.212.26 1.635.483 3.122.724 4.701ZM58.546 3.674C53.2 5.625 47.967 7.54 42.657 9.472c.688 1.877 1.319 3.66 2.005 5.556 5.347-1.951 10.581-3.847 15.909-5.798-.687-1.858-1.337-3.66-2.023-5.556Zm6.925 48.668c-.205-.075-.279-.13-.372-.13-5.16 0-10.32-.02-15.463.018-.24 0-.612.372-.668.632-.223 1.022-.371 2.063-.52 3.103-.111.706-.167 1.43-.26 2.174h16.819c.148-1.97.315-3.884.464-5.797ZM86.78 9.528c-.019 2.713 2.209 4.998 4.882 4.98 2.599 0 4.9-2.323 4.9-4.906 0-2.601-2.283-4.924-4.882-4.943-2.635-.018-4.882 2.23-4.9 4.869Zm-65.268 50.45c-2.673-.018-4.919 2.194-4.937 4.85-.019 2.64 2.246 4.944 4.863 4.962 2.618.019 4.882-2.248 4.92-4.905a4.888 4.888 0 0 0-4.846-4.906ZM51.27 116.47h5.012c4.084 0 8.15.019 12.233-.018.334 0 .668-.372 1.002-.558-.222-.241-.427-.65-.686-.706-3.899-.892-7.574-2.378-11.231-3.921-2.023-.836-4.158-.576-6.312-.539-.018 1.933-.018 3.773-.018 5.742ZM23.964 97.683c.241.353.39.613.575.854 2.06 2.843 4.121 5.705 6.182 8.548a168.327 168.327 0 0 0 3.471 4.683c.167.223.613.26.928.372.074-.335.149-.669.186-1.004.018-.111-.093-.223-.13-.334-.928-2.973-2.06-5.891-2.748-8.92-.65-2.862-1.874-5.314-3.86-7.544a1324.59 1324.59 0 0 0-4.604 3.345ZM49.32 29.615c.074 1.505.223 2.788.204 4.088 0 .837.279 1.022 1.077 1.022 4.325-.037 8.65-.018 12.975-.018.316 0 .65-.037 1.133-.075-.372-2.21-.724-4.292-1.114-6.633-4.474 3.493-9.133 4.2-14.275 1.616Zm16.001 12.748c-.093-1.245-.167-2.397-.316-3.512-.018-.205-.426-.502-.65-.502-4.658-.037-9.336-.019-13.996-.019-.52 0-.724.205-.705.725.018.8.056 1.617 0 2.416-.056.762.204 1.003.984 1.003 4.566-.037 9.151-.018 13.718-.018.278-.038.557-.075.965-.093Zm.149 3.642h-3.954c-3.676 0-7.351-.019-11.008.018-.316 0-.836.242-.891.465-.167.632-.149 1.32-.223 2.044H65.47v-2.527Zm-52.31 8.343c1.224.8 2.264 1.487 3.415 2.249.352-1.338.65-2.509.984-3.81-1.467.52-2.785.985-4.4 1.561Zm25.579-25.55a200.699 200.699 0 0 0-1.318 2.899c1.8-.502 1.893-.725 1.318-2.9Z" fill="#6D6E71"/><path d="M87.84 58.12c4.065 0 7.63 2.918 8.483 7.285.928 4.738-.557 8.77-4.195 11.967-.279.241-.594.483-.928.594-.984.316-.966.91-.669 1.729.242.631.39 1.3.52 1.97.464 2.192-.371 3.827-2.246 4.924-1.3.743-2.153 1.635-2.079 3.289.037 1.04-.835 1.69-1.856 1.635-1.003-.056-1.615-.688-1.634-1.747-.074-2.397.78-4.33 2.859-5.649 1.726-1.096 1.596-1.096 1.132-3.085-.334-1.449-.965-2.267-2.376-2.898-2.821-1.264-4.27-3.81-5.16-6.671-1.133-3.661-.706-7.099 1.726-10.128 1.633-2.1 3.768-3.233 6.423-3.215Zm5.253 9.161c-.204-.669-.427-1.84-.947-2.861-1.689-3.29-5.606-3.717-7.945-.948-.89 1.04-1.355 2.286-1.429 3.642-.148 2.973.724 5.538 3.1 7.452 1.207.966 2.58 1.022 3.824.111 2.32-1.69 3.193-4.125 3.397-7.396ZM28.754 15.4c-.409 4.72-1.838 8.51-5.922 10.833-.204.112-.39.483-.353.706.056.52.223 1.022.372 1.524.928 3.01.278 4.813-2.432 6.411-1.003.595-1.578 1.32-1.56 2.509.02.854-.278 1.598-1.113 1.97-1.281.575-2.488-.39-2.488-1.915.019-2.527 1.151-4.422 3.323-5.704 1.244-.744 1.114-.725.835-2.212-.334-1.784-1.039-2.88-2.877-3.642-2.116-.873-3.397-2.917-4.288-5.036-1.206-2.843-1.522-5.742-.427-8.752 1.3-3.53 4.604-6.058 8.075-6.058 3.453 0 6.831 2.472 8.02 5.965.426 1.208.612 2.472.835 3.4Zm-3.676 1.022c.037-2.267-.52-3.81-1.67-5.166-1.801-2.1-5.217-2.044-7.017.056-3.082 3.605-1.3 9.068 1.43 11.186 1.651 1.264 3.155 1.152 4.621-.334 1.708-1.729 2.525-3.828 2.636-5.742Z" fill="#F47400"/><path d="M15.445 87.648c0-1.041.78-1.84 1.782-1.822.966.02 1.708.781 1.727 1.784.018 1.041-.743 1.859-1.727 1.877-.983.019-1.782-.799-1.782-1.84Zm5.329-1.895c-.928-.018-1.782-.929-1.782-1.877.019-.985.891-1.82 1.857-1.765a1.801 1.801 0 0 1 1.726 1.802c.018.948-.854 1.84-1.8 1.84Zm-8.895-1.895c0-1.041.687-1.766 1.69-1.784a1.807 1.807 0 0 1 1.837 1.784c0 .966-.854 1.858-1.782 1.858-.947.018-1.745-.837-1.745-1.858Zm7.094-3.699c0 1.022-.836 1.858-1.801 1.821-.947-.037-1.708-.855-1.726-1.821-.019-1.003.816-1.877 1.782-1.877.946 0 1.745.855 1.745 1.877Zm64.616-32.203a1.801 1.801 0 0 1-1.763-1.877c.037-.948.872-1.784 1.8-1.765.947.018 1.82.947 1.8 1.895-.036.91-.927 1.765-1.837 1.747ZM8.984 43.087c-1.021.019-1.745-.687-1.764-1.728-.037-1.096.668-1.84 1.745-1.84 1.002 0 1.782.744 1.8 1.729.02 1.04-.742 1.84-1.781 1.84Zm79.99-.668c0 1.003-.854 1.84-1.819 1.802-.91-.037-1.726-.892-1.745-1.82 0-.967.854-1.859 1.8-1.859.966.019 1.764.855 1.764 1.877ZM7.205 37.568c-.019.967-.91 1.822-1.875 1.803-.928-.019-1.69-.855-1.69-1.84 0-1.022.725-1.765 1.727-1.784 1.002-.018 1.838.837 1.838 1.821Zm-3.64 3.68c.019 1.04-.76 1.84-1.782 1.84-.965 0-1.745-.763-1.782-1.766-.037-1.003.78-1.84 1.8-1.84a1.8 1.8 0 0 1 1.764 1.766Zm1.801 5.612c-.965 0-1.745-.762-1.763-1.765-.037-1.041.742-1.859 1.763-1.859.984 0 1.82.874 1.8 1.859-.018.929-.853 1.746-1.8 1.765Zm81.808 4.906c-.947-.02-1.782-.911-1.764-1.896.019-.966.892-1.84 1.838-1.802.947.037 1.708.854 1.708 1.82 0 1.023-.817 1.878-1.782 1.878Zm5.398-5.556c-.018.947-.872 1.764-1.8 1.764-.984 0-1.82-.891-1.782-1.876.037-.948.872-1.784 1.8-1.766.947.019 1.8.91 1.782 1.877Z" fill="#6D6E71"/></svg>