<svg width="121" height="120" fill="none" xmlns="http://www.w3.org/2000/svg"><path d="M88.18 0c-.018 3.53-.055 7.041-.018 10.571 0 .855-.223 1.17-1.096 1.096-.891-.074-1.783-.018-2.749-.018v3.716h17.236c0-1.022.037-2.026 0-3.047-.223-4.032 2.73-6.744 6.538-6.577 2.229.111 4.457.018 6.686.018 3.789.019 6.203 2.416 6.222 6.206v22.461c0 3.772-2.414 6.206-6.203 6.224-2.359.019-4.699.019-7.058 0-3.696-.018-6.148-2.49-6.166-6.168v-3.418H87.605c.668 1.022 1.244 1.969 1.876 2.88 2.024 2.879 4.68 5.071 7.559 7.022.613.409.743.855.743 1.523-.019 16.982-.019 33.962-.019 50.943v1.264h3.771v-3.159c0-4.013 2.451-6.484 6.463-6.484 2.266 0 4.513-.018 6.779 0 3.659.019 6.185 2.527 6.185 6.169v22.647c0 3.641-2.452 6.094-6.111 6.112-2.414.019-4.829.019-7.243 0-3.585-.018-6.036-2.471-6.073-6.075-.019-1.133 0-2.266 0-3.548h-3.752v9.549H24.197v-9.475h-3.79v3.344c-.018 3.753-2.45 6.187-6.221 6.205-2.377 0-4.755.019-7.15 0-3.585-.018-6.037-2.471-6.037-6.075v-22.74c0-3.53 2.507-6.075 6.036-6.131 2.433-.019 4.885-.037 7.337 0 3.473.037 5.999 2.582 6.054 6.056.019 1.17 0 2.341 0 3.586h3.77v-1.189c0-16.944 0-33.906-.018-50.85 0-.762.13-1.282.836-1.765 2.489-1.672 4.848-3.53 6.686-5.945.929-1.208 1.765-2.471 2.768-3.901H20.425v3.028c0 4.236-2.358 6.577-6.612 6.577-2.228 0-4.457.018-6.686 0C3.414 40.613 1 38.16.98 34.445 1 26.939 1 19.396 1 11.835c0-3.549 2.452-6.02 5.98-6.057 2.47-.019 4.941-.019 7.43 0 3.529.037 5.98 2.508 6.017 6.038.019 1.17 0 2.341 0 3.567h17.255V11.65c-1.003 0-1.988-.037-2.953.018-.706.038-.892-.223-.892-.91.019-3.586 0-7.171-.018-10.757H88.18ZM41.73 11.705c0 2.025.018 3.938 0 5.852-.056 4.292-.762 8.453-2.47 12.448-2.23 5.239-5.647 9.512-10.234 12.856-.576.427-.836.855-.836 1.598.018 23.502.018 47.004.018 70.506 0 .335.019.65.038 1.003h3.714v-3.474c0-22.016 0-44.031.019-66.047 0-.465.167-1.096.483-1.375 2.377-1.95 4.494-4.143 6.314-6.614 2.62-3.549 4.44-7.469 5.59-11.686 1.338-4.868 1.171-9.847 1.115-14.826 0-.074-.074-.167-.111-.241h-3.64Zm52.04 104.282c.019-.316.037-.539.037-.743 0-23.67 0-47.32-.018-70.99 0-.408-.279-.966-.613-1.207-2.248-1.654-4.272-3.53-6.037-5.704-3.491-4.291-5.739-9.178-6.444-14.64-.409-3.232-.297-6.54-.409-9.81-.019-.39 0-.78 0-1.188h-3.789v6.353c0 4.05.706 8.008 2.099 11.798 2.192 5.908 5.683 10.924 10.605 14.9.613.502.855 1.003.855 1.784-.02 22.759-.02 45.518-.02 68.295v1.152h3.734ZM4.974 23.242v11.222c0 1.653.631 2.285 2.303 2.303 2.247.019 4.513.019 6.76 0 1.728 0 2.433-.706 2.433-2.415V12.113c0-1.672-.687-2.36-2.358-2.378a409.997 409.997 0 0 0-6.761 0c-1.802.019-2.377.595-2.377 2.415v11.092Zm112.05 0V12.02c0-1.672-.612-2.303-2.284-2.322a421.28 421.28 0 0 0-6.853 0c-1.709.019-2.359.688-2.359 2.378v22.258c0 1.746.668 2.415 2.414 2.415 2.192.018 4.383 0 6.575 0 1.913 0 2.507-.595 2.507-2.471V23.242ZM4.974 102.536c0 3.809-.019 7.599 0 11.407 0 1.468.65 2.081 2.098 2.1 2.415.018 4.81.018 7.225 0 1.412 0 2.173-.743 2.173-2.174.019-7.543.019-15.086 0-22.61 0-1.505-.724-2.193-2.247-2.193h-6.76c-1.95 0-2.49.54-2.49 2.453v11.017Zm112.05.111c0-3.808.019-7.598 0-11.407 0-1.56-.65-2.174-2.21-2.174h-6.946c-1.69 0-2.322.65-2.34 2.379v22.331c0 1.579.706 2.267 2.247 2.267h6.854c1.801 0 2.395-.576 2.395-2.36v-11.036ZM49.456 11.649c0 .557.018.947 0 1.356-.13 3.419-.093 6.874-.427 10.274-.595 5.815-2.712 11.11-5.925 15.978a36.427 36.427 0 0 1-6.482 7.45c-.279.241-.65.539-.669.836-.055.855-.13 1.784.149 2.527.093.26 1.244.185 1.913.185 1.969 0 1.672.28 1.69-1.727V46.41h5.832v-7.766h13.447v-3.772h-5.646v-19.47h5.72v-1.784c0-1.97 0-1.97-1.931-1.97h-7.671ZM63.05 34.854v3.827h13.466v7.766h5.794c0 1.114.02 2.136 0 3.158 0 .465.168.669.65.669.836-.019 1.672 0 2.508-.019.186 0 .446-.092.539-.241.371-.576-.019-2.806-.558-3.27a36.537 36.537 0 0 1-7.243-8.602 37.702 37.702 0 0 1-5.07-13.414c-.688-3.92-.576-7.877-.595-11.834 0-.39-.037-.78-.056-1.17h-9.453v3.733h5.609v19.397h-5.59Zm-27.098 81.114h50.055v-3.66H35.953v3.66Zm36.533-34.612H49.512v3.716h5.702v7.654h11.645v-7.71h5.609c.018-1.245.018-2.434.018-3.66ZM37.848 7.636h46.246V3.939h-45.02c-.223 0-.465-.056-.65.018-.223.112-.539.335-.558.52-.055 1.022-.018 2.063-.018 3.159Zm28.955 58.207c0-1.096-.037-2.044.019-2.991.037-.688-.223-.93-.892-.91a869.67 869.67 0 0 1-9.825 0c-.687 0-.947.204-.91.91.056.966.019 1.95.019 3.047h-5.665v3.66h22.956v-3.697c-1.913-.019-3.733-.019-5.702-.019Zm0-19.47h5.683V42.62h-15.36c-2.284 0-4.568-.019-6.871.018-.279 0-.762.279-.762.465-.074 1.059-.037 2.136-.037 3.307h5.739c0 1.114.019 2.118 0 3.14-.019.52.186.724.687.706 3.399-.02 6.798-.02 10.197 0 .576 0 .743-.242.724-.78-.019-.967 0-1.952 0-3.103ZM84.132 19.47c.445 2.266.891 4.366 1.281 6.483.149.855.539 1.134 1.43 1.115 4.532-.055 9.082-.018 13.614-.018.335 0 .669-.037 1.022-.056V19.47H84.132Zm-63.65 7.431c.111.074.149.111.167.111 4.996.019 10.011.038 15.007.019.242 0 .632-.241.687-.446.706-2.285 1.32-4.607 1.226-7.097H20.482v7.413Zm40.545 46.651c-3.547 0-7.114.019-10.661-.018-.669 0-.966.148-.929.873.056.743.038 1.486 0 2.23-.018.5.149.724.688.724 7.224-.019 14.468-.019 21.693 0 .594 0 .743-.242.724-.78-.018-.65-.056-1.301 0-1.951.074-.836-.186-1.115-1.077-1.096-3.455.055-6.946.018-10.438.018ZM43.68 61.85c2.321 0 4.55-.019 6.76.018.706.019.892-.241.873-.91-.037-3.233-.018-6.484-.018-9.717 0-.241-.038-.483-.075-.762h-7.559c.019 3.79.019 7.525.019 11.37Zm21.136-36.675c0-1.672-.019-3.344 0-5.016 0-.557-.186-.762-.743-.762a327.48 327.48 0 0 1-6.11 0c-.595 0-.818.167-.818.78a863.57 863.57 0 0 1 0 9.922c0 .594.186.817.799.817 2.006-.019 4.012-.037 6.017 0 .632.019.873-.186.855-.836-.019-1.635 0-3.27 0-4.905Zm13.502 25.212c-2.303 0-4.513.018-6.742-.02-.705-.018-.891.224-.891.911.037 2.843.018 5.685.018 8.528 0 2.044 0 2.044 2.043 2.044h5.572V50.386ZM35.953 81.338v11.444h3.752v-1.04c0-1.914.019-3.828-.018-5.76-.019-.724.204-.966.947-.947 1.597.056 3.194.018 4.81.018v-3.715h-9.49Zm40.62 0v3.715c1.615 0 3.157.038 4.699-.018.798-.037 1.095.186 1.058 1.022-.056 1.913-.019 3.827-.019 5.74 0 .316.038.65.056.967h3.64V81.319c-3.175.019-6.277.019-9.434.019Zm-31.11-15.495c-1.69 0-3.325-.037-4.94.019-.67.018-.874-.223-.836-.855.037-.762-.019-1.542.018-2.322.019-.558-.204-.78-.761-.762a24.3 24.3 0 0 1-2.322 0c-.576-.019-.743.241-.743.78.019 1.078 0 2.155 0 3.233v3.604h9.584v-3.697Zm40.6 3.734c0-2.396.019-4.774-.018-7.152 0-.168-.39-.446-.613-.465-.799-.056-1.597 0-2.415-.037-.52-.019-.724.186-.706.706.02.706-.037 1.43.02 2.136.073.837-.205 1.134-1.078 1.097-1.56-.075-3.12-.019-4.68-.019v3.734h9.49ZM61.008 54.194c-1.671 0-3.343.019-5.014-.018-.595-.019-.855.148-.818.78.038.762.038 1.542 0 2.322-.018.558.186.762.762.743 3.362-.018 6.742-.018 10.104 0 .538 0 .798-.167.761-.743a24.242 24.242 0 0 1 0-2.322c.037-.632-.204-.799-.799-.799-1.671.056-3.324.037-4.996.037ZM39.631 96.851h-3.733c0 3.697 0 7.338.018 10.961 0 .149.279.446.427.446 1.078.037 2.155.019 3.288.019V96.851Zm23.179 11.37v-11.37h-3.64v11.37h3.64Zm19.557-11.407v11.407h3.622V96.814h-3.622Zm-15.453.018v11.371h3.622v-11.37h-3.621Zm-23.197 0v11.371h3.622v-11.37h-3.622Zm30.942 0v11.389h3.64V96.832h-3.64Zm-23.197 0v11.389h3.659V96.832h-3.66Zm-6-23.13c-.092-.056-.148-.093-.185-.093-2.934-.019-5.869-.037-8.804-.019-.185 0-.52.39-.538.613-.075.762 0 1.543-.037 2.323-.038.631.185.873.835.854 1.82-.037 3.64-.018 5.46-.018h3.27v-3.66Zm31.073 3.66h1.059c1.857 0 3.715.018 5.572 0 .928 0 1.839-.056 2.767-.093.056-.985.093-1.95.167-2.936.056-.631-.222-.78-.817-.78-2.693.019-5.386 0-8.079.019-.204 0-.427.055-.669.074v3.716Zm1.783 11.76h-7.615c0 .39-.018.725 0 1.06.038.854-.204 1.968.223 2.47.372.427 1.56.167 2.378.186 1.653.019 3.306 0 4.996 0 .018-1.3.018-2.453.018-3.716Zm-57.836 9.642v7.562h3.659v-7.561h-3.659Zm81.015 7.543v-7.543h-3.659v7.543h3.659ZM43.661 92.819c2.415 0 4.718.019 7.04-.018.204 0 .556-.242.556-.39.056-1.097.02-2.193.02-3.289h-7.634c.018 1.245.018 2.415.018 3.697Zm-3.974-38.532h-3.622l-.167 3.01c0 .037-.019.074 0 .093.204.223.408.613.65.631.854.075 1.727.056 2.581 0 .205-.018.52-.334.539-.52.056-1.059.019-2.1.019-3.214Zm42.624-.074c0 1.207-.018 2.285.02 3.362 0 .168.278.446.426.446 1.059.038 2.136.019 3.306.019 0-1.208.019-2.285-.018-3.344 0-.167-.335-.446-.52-.446-1.003-.074-2.025-.037-3.214-.037Z" fill="#6D6E71"/><path d="M8.82 32.847v-3.864c1.152 0 2.248-.018 3.343.019.186 0 .353.297.52.483.038.056.02.186.02.279-.057 1.021-.112 2.062-.187 3.083H8.82Zm.016-11.557c1.133 0 2.229-.018 3.343.02.167 0 .464.315.483.482a22.95 22.95 0 0 1 0 2.769c-.019.204-.372.557-.594.576-1.04.055-2.08.018-3.213.018-.02-1.3-.02-2.527-.02-3.864Zm-.074-7.765c1.207 0 2.266-.018 3.343.019.205.018.539.334.539.52.056.91.056 1.84 0 2.768-.019.223-.372.576-.595.595-.91.074-1.838.055-2.767 0-.186-.019-.501-.335-.501-.54-.056-1.077-.019-2.136-.019-3.362ZM113.161 32.94c-1.115 0-2.192.037-3.269-.018-.204-.02-.557-.335-.557-.52a24.384 24.384 0 0 1 0-2.862c.018-.204.334-.52.538-.539 1.078-.055 2.155-.018 3.288-.018v3.957Zm.017-19.415v3.92c-1.151 0-2.265.019-3.398-.019-.168 0-.446-.334-.465-.538a23.243 23.243 0 0 1 0-2.769c.019-.204.39-.538.595-.557 1.058-.074 2.117-.037 3.268-.037Zm-.018 11.649c-1.133 0-2.229.019-3.325-.018-.185 0-.501-.353-.52-.558a23.238 23.238 0 0 1 0-2.768c.019-.186.353-.501.557-.501 1.078-.056 2.155-.019 3.288-.019v3.864ZM8.8 112.252v-3.976c1.17 0 2.304-.018 3.418.038.167 0 .427.408.427.65.056.892.056 1.783 0 2.675-.018.223-.352.576-.557.576-1.077.074-2.154.037-3.287.037Zm0-15.494v-3.939c1.17 0 2.285-.019 3.418.019.149 0 .427.353.427.538.037.93.056 1.858 0 2.769-.018.204-.39.538-.612.557-1.04.093-2.08.056-3.232.056Zm3.88 7.692H8.837v-3.864c1.151 0 2.247-.019 3.343.018.186 0 .483.372.483.595.037 1.04.018 2.081.018 3.251Zm100.519 3.827v3.976c-1.151 0-2.284.019-3.417-.019-.167 0-.427-.278-.446-.427-.037-.985-.056-1.988 0-2.973.019-.204.353-.52.557-.538 1.077-.037 2.155-.019 3.306-.019Zm-.036-11.519c-1.133 0-2.21.038-3.269-.037-.204-.018-.557-.371-.575-.594-.075-.892-.056-1.802 0-2.694.018-.223.315-.576.482-.595 1.096-.055 2.211-.018 3.362-.018v3.938Zm.035 3.827v3.921c-1.17 0-2.321.018-3.492-.019-.148 0-.39-.353-.39-.557-.037-.892-.055-1.802 0-2.694.019-.223.353-.595.576-.613 1.077-.075 2.136-.038 3.306-.038Z" fill="#F47400"/></svg>