<svg width="120" height="120" fill="none" xmlns="http://www.w3.org/2000/svg"><g clip-path="url(#a)"><path d="M108.799 56.362c-4.88-1.439-9.84 1.6-10.56 6.316-.24 1.36-.16 2.718-.24 4.157-.08 2.159-.64 4.158-2 5.757-1.36 1.599-2.88 3.038-4.32 4.557-.88.879-1.76 1.678-2.64 2.558.08.08.08.16.16.24 1.44 0 2.8-.08 4.24 0 1.36.16 2.24-.32 3.04-1.36 2.8-3.517 6.48-5.116 10.96-4.716 1.76.16 3.44-.4 4.96-1.44 2.8-1.838 4.32-6.075 3.2-9.113-.16.16-.4.24-.56.4-1.76 1.758-3.52 3.437-5.2 5.196-1.28 1.28-2.48 1.28-3.76 0a60.321 60.321 0 0 0-3.2-3.198c-1.28-1.199-1.28-2.398 0-3.597 1.92-1.84 3.84-3.678 5.92-5.757Zm-84.801 7.595v-1.279c0-6.556.08-13.191 0-19.747 0-2.318.32-4.477 1.52-6.475.24-.4.32-.96.24-1.36-.4-2.078-.8-4.237-1.28-6.315-.08-.24-.48-.64-.72-.64a23.58 23.58 0 0 0-3.36 0c-.32 0-.72.4-.8.72-.32 1.439-.56 2.958-.96 4.477-.32 1.518-.48 2.958.48 4.397.8 1.119.96 2.478.96 3.917-.08 7.035 0 14.07 0 21.186v1.2c1.36-.08 2.56-.08 3.92-.08Zm-8.158 4.077c.88 4.237-.64 7.995-2 11.832h16.24c-.32-.96-.48-1.838-.8-2.638-.96-2.079-1.44-4.157-1.28-6.396.08-.88 0-1.838 0-2.798H15.84Zm47.839-29.26c-.4 2.479-.8 4.877-1.12 7.276 0 .16.4.64.72.64 7.76 1.278 15.44 2.477 23.2 3.677 1.12.16 2.16.24 3.28.4-.32-4.478-3.52-8.235-7.68-9.114-1.68-.32-3.28-.56-4.96-.88-4.4-.56-8.8-1.28-13.44-1.999Zm2.958 32.618c.16.08.24.16.32.16 2.32.4 4.64.72 6.88 1.119.64.08.64-.4.72-.8l2.16-13.91c.24-1.6.48-3.198.8-4.797-2.72-.4-5.2-.8-7.84-1.2-1.04 6.556-2 12.952-3.04 19.428Zm-8.639-23.504c.08-.08.16-.16.16-.24.56-3.598 1.2-7.275 1.76-10.873 0-.16-.32-.64-.56-.64-.8-.16-1.6-.16-2.32-.399-.72-.16-.96.16-1.04.8l-.72 4.556c-.32 1.84-.56 3.678-.88 5.517-.08.56.08.8.64.88.96.16 2 .24 2.96.399Zm17.762 29.18c-4-.64-7.84-1.199-11.68-1.838-.24 1.598-.48 3.037-.72 4.636h12.08c.08-.879.16-1.758.32-2.798Z" fill="#F47400"/><path d="M9.68 79.947c.56-1.84 1.12-3.518 1.6-5.197.32-1.12.64-2.318.72-3.438.08-1.678 0-3.357 0-5.036 0-1.6.72-2.319 2.32-2.319h1.6V52.125H8.08V75.95H4.16c-.08-.4-.16-.72-.16-1.039V26.542c0-1.918.64-2.558 2.48-2.558h29.44V6.156C35.92 2.478 38.4 0 42.16 0h35.6c3.76 0 6.16 2.478 6.16 6.156v17.828h9.92v4.077H28.48c.32 1.6.48 2.958.88 4.397.88 3.838.88 3.838-.88 7.276-.32.4-.48 1.039-.48 1.598-.08 2.159 0 4.318 0 6.476h9.92c0-.32.08-.64.08-.96v-8.474c0-1.599.72-2.398 2.32-2.398h11.6c.16-1.04.4-1.999.56-2.958.24-1.36.96-1.919 2.24-1.759 2.72.32 5.44.8 8.16 1.28.48.08 1.12.719 1.2 1.198.24.8.64 1.04 1.36 1.12 3.84.56 7.68 1.199 11.52 1.839 2.24.4 4.48.64 6.72 1.199 5.12 1.359 8.24 4.877 9.84 9.913h18.24V27.981H98.8c-.72 0-1.04-.16-1.04-.959.08-.96 0-1.919 0-2.958.4 0 .72-.08.96-.08h14.72c1.68 0 2.4.72 2.4 2.398v23.265c0 1.599-.72 2.398-2.32 2.398h-4.16c1.2.72 2.48 1.36 3.6 2.239 1.2.96 1.2 2.238.08 3.438-2 1.998-3.92 3.997-5.92 5.916l-.32.32c.4.32.72.639 1.2 1.119 1.84-1.84 3.76-3.678 5.44-5.597 2.16-2.398 3.68-1.678 5.12.64 1.6 2.638 1.68 5.516 1.04 8.394-.48 2.239-1.6 4.237-3.2 5.916-.16.16-.4.4-.4.64v4.957h1.76c1.44 0 2.24.8 2.24 2.158v35.576c0 1.36-.8 2.159-2.16 2.159H2.8c-2.16 0-2.8-.56-2.8-2.718V82.665c0-2.079.64-2.718 2.72-2.718h6.96Zm-5.6 7.994h107.76v4.078H96v9.673c0 1.359-.72 2.159-1.92 2.159H77.84c-.96 0-1.76-.64-1.84-1.519-.16-2.159-.08-4.237-.08-6.396H80v3.837h11.84V91.94H28.08v7.835H40v-3.838h4.08v5.756c0 1.359-.72 2.159-2.16 2.159H26.16c-1.44 0-2.16-.72-2.16-2.159v-9.674H4.16v23.745h111.68v-31.82H4.08v3.997Zm38-31.978h3.84v3.997h-3.84v3.997h3.84v3.998H42v3.917h3.84v4.077H42v3.838h11.84V53.564c0-2.238 0-2.238-2.08-2.638-1.36-.32-1.92-1.12-1.84-2.478.08-.72.24-1.44.32-2.159.32-2.078.64-4.237.96-6.316h-9.28c.16 5.357.16 10.633.16 15.99ZM94 52.045c0 .32-.08.56-.08.8-.24 1.919-1.04 2.558-3.04 2.318-2.72-.4-5.44-.8-8.16-1.359-.88-.16-1.12.08-1.28.88-.48 3.517-1.04 7.115-1.6 10.633-.4 2.638-.8 5.276-1.28 7.834 1.6.88 1.84 1.44 1.52 3.198-.16 1.12-.4 2.239-.56 3.518.96 0 1.84.08 2.64 0 .48-.08 1.04-.24 1.36-.56 2.88-2.798 5.6-5.596 8.48-8.394 1.28-1.28 1.84-2.718 1.84-4.477 0-.96-.08-1.999 0-2.958.24-3.758 1.92-6.876 4.96-9.114 1.36-.96 3.04-1.6 4.4-2.319H94ZM79.92 11.912V6.716c0-2-.64-2.639-2.64-2.639-11.52-.08-23.04-.08-34.64-.08h-.88c-.96.16-1.68.64-1.68 1.68-.08 2.078 0 4.156 0 6.235h39.84Zm28.88 44.37c-4.88-1.439-9.84 1.6-10.56 6.316-.24 1.36-.16 2.719-.24 4.157-.08 2.16-.64 4.158-2 5.757-1.36 1.599-2.88 3.038-4.32 4.557-.88.879-1.76 1.678-2.64 2.558.08.08.08.16.16.24 1.44 0 2.8-.08 4.24 0 1.36.16 2.24-.32 3.04-1.36 2.8-3.517 6.48-5.116 10.96-4.716 1.76.16 3.44-.4 4.96-1.44 2.8-1.838 4.32-6.075 3.2-9.113-.16.16-.4.24-.56.4-1.76 1.758-3.52 3.437-5.2 5.196-1.28 1.28-2.48 1.28-3.76 0a60.397 60.397 0 0 0-3.2-3.198c-1.28-1.199-1.28-2.398 0-3.597 1.92-1.76 3.84-3.678 5.92-5.757ZM37.92 79.947V52.125h-9.84v11.912h1.84c1.28 0 2 .72 2 1.999v3.518c.08 1.359.08 2.798.4 4.077.48 2.079 1.28 4.077 2 6.236 1.04.08 2.24.08 3.6.08Zm25.84-41.253c-.4 2.479-.8 4.877-1.12 7.275 0 .16.4.64.72.64 7.76 1.28 15.44 2.478 23.2 3.677 1.12.16 2.16.24 3.28.4-.32-4.477-3.52-8.234-7.68-9.114-1.68-.32-3.28-.56-4.96-.88-4.4-.559-8.8-1.278-13.44-1.998ZM48 23.904h23.84V16.07H48v7.835ZM24 63.957v-1.279c0-6.555.08-13.191 0-19.747 0-2.318.32-4.477 1.52-6.475.24-.4.32-.96.24-1.36-.4-2.078-.8-4.237-1.28-6.315-.08-.24-.48-.64-.72-.64a23.58 23.58 0 0 0-3.36 0c-.32 0-.72.4-.8.72-.32 1.439-.56 2.958-.96 4.477-.32 1.519-.48 2.958.48 4.397.8 1.12.96 2.478.96 3.917-.08 7.035 0 14.07 0 21.186v1.2c1.36-.08 2.56-.08 3.92-.08Zm42.72 7.435c.16.08.24.16.32.16 2.32.4 4.64.72 6.88 1.12.64.08.64-.4.72-.8l2.16-13.91c.24-1.6.48-3.199.8-4.797-2.72-.4-5.2-.8-7.84-1.2-1.04 6.476-2 12.952-3.04 19.427Zm-50.88-3.357c.88 4.237-.64 7.994-2 11.832h16.24c-.32-.96-.48-1.839-.8-2.639-.96-2.078-1.44-4.157-1.28-6.395.08-.88 0-1.839 0-2.798H15.84ZM16 47.888c0-1.519-.08-3.038 0-4.477.24-2.238-.4-4.237-1.52-6.076-.48-.8-.48-1.599-.32-2.478.48-2.239.96-4.477 1.44-6.796H8.16v19.827H16Zm42.08 4.157v27.822c1.2.08 1.2 0 1.36-1.2.32-2.078.56-4.077 1.04-6.155.16-.56.72-1.44 1.2-1.52 1.2-.24 1.2-1.039 1.28-1.838.72-4.557 1.44-9.194 2.16-13.75.24-1.36.4-2.8.56-4.238-1.04-.16-2-.32-2.88-.56-.56-.08-.88-.08-1.2.56-.4.8-1.12 1.12-2 .96-.48 0-.96 0-1.52-.08Zm0-4.237c.08-.08.16-.16.16-.24.56-3.597 1.2-7.275 1.76-10.872 0-.16-.32-.64-.56-.64-.8-.16-1.6-.16-2.32-.4-.72-.16-.96.16-1.04.8l-.72 4.557c-.32 1.838-.56 3.677-.88 5.516-.08.56.08.8.64.88.96.16 2 .24 2.96.4Zm17.76 29.26c-4-.639-7.84-1.199-11.68-1.838-.24 1.599-.48 3.038-.72 4.637h12.08c.08-.88.16-1.76.32-2.798ZM40.08 16.07v7.835h3.76V16.07h-3.76Zm36 0v7.835h3.76V16.07h-3.76Zm24.88 63.798h10.88v-2.479c-1.28.16-2.48.4-3.76.56-1.04.08-2.08 0-3.12.08-1.52.08-2.88.64-4 1.839Z" fill="#6D6E71"/></g><defs><clipPath id="a"><path fill="#fff" d="M0 0h120v120H0z"/></clipPath></defs></svg>