<svg width="132" height="120" fill="none" xmlns="http://www.w3.org/2000/svg"><path d="M6.43 81.025c3.6-1.317 7.374-.79 10.973-.79 11.587-.088 23.175 0 34.762 0 4.916 0 9.48 1.053 13.607 3.686 3.423 2.195 5.881 5.18 7.373 8.954 1.493 3.6 2.107 7.462 2.107 11.324-.087 5.004 3.95 9.305 9.305 9.218 3.16-.088 6.32 0 9.569 0 .79 0 1.14-.264 1.404-.966 1.756-4.477 3.6-8.954 5.443-13.343 1.492-3.687 2.984-7.374 4.477-10.973.351-.966.965-1.229 1.58-.878.614.44.614.966.351 1.58-2.721 6.672-5.443 13.431-8.164 20.103-.79 1.843-1.492 3.687-2.282 5.618-.264.702-.79.965-1.493.965-4.3-.087-8.514.088-12.816-.175-4.916-.263-9.305-5.004-9.48-9.92-.088-3.774-.44-7.461-1.844-10.973l-.351-.702c-.263.44-.351.79-.527 1.141-2.107 5.092-4.213 10.183-6.408 15.275-.966 2.282-1.756 4.74-3.687 6.583-1.843 1.756-3.95 2.809-6.496 3.161-.614.087-1.317.087-1.931.087H11.697c-4.389 0-7.813-1.667-10.183-5.442-.878-1.492-1.492-3.073-1.492-4.828 0-6.408-.088-12.817.088-19.225 0-1.492.526-3.072 1.229-4.389 4.213-8.603 8.515-17.118 12.816-25.633 3.775-7.55 7.637-15.186 11.412-22.736a3685.074 3685.074 0 0 0 9.217-18.61c2.282-4.564 4.477-9.13 6.847-13.606 1.756-3.248 4.74-5.092 8.427-5.355C52.955.001 55.94.088 58.837.088c.702 0 1.229.176 1.229 1.054 0 .878-.527 1.053-1.317 1.053-2.195 0-4.39.088-6.584 0-4.74-.088-7.813 2.02-9.831 6.233-3.424 7.11-7.023 14.133-10.622 21.243-2.458 4.828-4.828 9.744-7.286 14.572-2.81 5.618-5.618 11.324-8.515 16.943-2.897 6.583-6.233 13.255-9.48 19.839Zm10.534 1.404H11.17c-4.915.088-8.69 3.6-8.778 8.515a626.873 626.873 0 0 0 0 18.171c.088 4.741 4.038 8.515 8.778 8.515h41.96c4.653 0 8.428-3.687 8.604-8.427.087-2.546 0-5.091 0-7.549 0-1.668-.44-3.073-1.317-4.477-.966-1.58-2.282-2.722-4.126-3.424-.263.44-.439.79-.614 1.141-2.195 4.302-4.302 8.691-6.496 12.992-.44.878-.966 1.229-2.02 1.229H18.633c-7.11 0-11.324-7.022-8.515-12.816.527-1.141 1.141-2.283 1.756-3.424 1.58-3.423 3.248-6.759 5.091-10.446ZM54.01 93.226c-.615 0-1.142-.087-1.58-.087H18.28c-4.214 0-7.286 3.072-7.198 7.11 0 3.687 3.16 6.672 7.022 6.759h28.091c.614 0 1.053 0 1.404-.614 1.668-3.336 3.248-6.584 4.916-9.92.44-1.053.878-2.106 1.493-3.248Zm9.831 11.412h.264c.088-.087.175-.175.175-.263 1.668-3.95 3.336-7.988 5.004-11.939.527-1.14.176-1.93-.527-2.72-3.95-4.829-9.13-7.023-15.098-7.111-11.149-.176-22.297-.088-33.446-.088-.614 0-.965.263-1.229.79-.878 1.931-1.931 3.775-2.809 5.706-.439.79-.79 1.668-1.229 2.546.966-.176 1.844-.44 2.721-.44h35.816c2.195 0 4.214.879 5.97 2.195 2.984 2.37 4.388 5.443 4.388 9.218v2.106ZM81.31.088h11.763c5.707-.088 10.71 4.916 10.71 10.358 0 3.248 1.141 5.97 3.863 7.9 1.667 1.23 3.599 1.669 5.705 1.669h15.45c.351 0 .703-.088.878 0 .351.263.79.614.878.965 0 .351-.351.79-.702 1.054-.176.175-.527.087-.79.087h-16.24c-5.179-.087-9.481-3.335-10.798-8.251-.263-.878-.351-1.756-.351-2.634-.175-5.355-3.95-9.041-9.392-9.041H68.67c-.44 0-.966-.088-1.23-.264-.263-.175-.35-.878-.263-1.053.176-.351.703-.615 1.142-.615C71.742 0 75.078 0 78.326 0c.966 0 2.019 0 2.985.088Zm50.561 27.827c-.088.351-.175.614-.263.79-2.019 4.916-3.95 9.832-5.969 14.66-2.107 5.179-4.126 10.27-6.233 15.45-1.756 4.389-3.599 8.866-5.355 13.255-1.229 2.985-2.37 5.881-3.599 8.866-.088.351-.175.79-.439.878-.351.263-.965.439-1.317.351-.614-.175-.702-.702-.526-1.317.614-1.492 1.141-2.897 1.755-4.389 1.668-4.038 3.248-8.164 4.916-12.202 2.107-5.179 4.214-10.446 6.321-15.625 2.106-5.267 4.213-10.622 6.408-15.977.614-1.58 1.229-3.248 2.019-4.828.175-.439.878-.702 1.317-.79.351 0 .702.615.965.878Z" fill="#6D6E71"/><path d="M52.517 39.064c-.527 1.053-.878 2.019-1.317 2.984a1944.425 1944.425 0 0 1-6.76 13.607v.088c-.35.614-.877.965-1.492.702-.702-.263-.79-.878-.439-1.58 1.054-2.282 2.195-4.565 3.336-6.847l4.477-9.218c.263-.526.702-.965 1.317-.702.35.264.614.615.877.966Zm-5.794-12.817c.439-.965.79-1.755 1.229-2.545 1.58-3.248 3.248-6.496 4.828-9.832.35-.702.79-1.317 1.668-.878.79.44.614 1.141.263 1.844-1.843 3.774-3.687 7.549-5.443 11.324-.175.263-.263.614-.526.79-.351.175-.79.35-1.142.263-.438-.263-.702-.702-.877-.966ZM79.816 40.82c.527-1.142.966-2.107 1.405-2.985l3.423-6.847c.352-.703.79-1.23 1.58-.79.878.439.703 1.053.352 1.843-1.493 2.985-2.985 6.057-4.565 9.042-.176.35-.79.702-1.229.702-.263-.088-.614-.702-.966-.966ZM69.458 66.013c-.176.527-.264.79-.44 1.141-1.404 2.81-2.808 5.706-4.3 8.515a1.836 1.836 0 0 1-.352.527c-.351.526-.79.79-1.404.439-.615-.351-.79-.878-.527-1.493.614-1.229 1.229-2.37 1.756-3.599a369.31 369.31 0 0 0 2.896-5.881c.264-.615.79-.79 1.317-.527.615.176.79.615 1.054.878Zm-12.815-1.58c-.614 1.229-1.053 2.282-1.58 3.423-.878 1.756-1.756 3.424-2.634 5.18-.35.702-.877 1.14-1.58.79-.702-.351-.614-1.054-.35-1.58 1.316-2.722 2.633-5.443 4.037-8.164.176-.351.878-.615 1.23-.527.35 0 .614.527.877.878Zm21.684-15.889c-.614 1.229-1.053 2.282-1.58 3.336-.79 1.58-1.668 3.16-2.458 4.828-.351.702-.79 1.316-1.668.965-.79-.35-.702-1.053-.351-1.755 1.229-2.546 2.546-5.092 3.862-7.637.176-.352.79-.615 1.23-.615.35 0 .614.527.965.878Zm16.853-34.06-.35 1.054a274.93 274.93 0 0 0-3.6 7.198c-.35.702-.79 1.053-1.492.702-.702-.35-.702-1.053-.351-1.668 1.229-2.457 2.458-5.003 3.775-7.461.175-.351.79-.615 1.228-.615.176.088.527.527.79.79ZM26.885 57.85c.965 0 1.58.702 1.229 1.404-.878 1.931-1.756 3.863-2.721 5.706-.264.527-.79.878-1.493.527-.614-.351-.702-.878-.35-1.58.877-1.756 1.667-3.512 2.633-5.267.087-.352.526-.615.702-.79Zm46.788-43.279c-1.053 0-1.58-.702-1.229-1.492a108.697 108.697 0 0 1 2.81-5.53c.175-.264.965-.44 1.14-.351.352.263.615.877.615 1.316-.176.703-.615 1.317-.878 1.932-.614 1.14-1.141 2.37-1.755 3.423a1.766 1.766 0 0 1-.703.702Zm-9.571 15.627c.263-.527.35-.878.526-1.23.703-1.404 1.405-2.896 2.107-4.3.263-.615.79-1.054 1.492-.615.615.35.79.877.352 1.668-.878 1.58-1.58 3.247-2.458 4.828-.176.35-.878.614-1.317.526-.176 0-.44-.614-.702-.877ZM32.766 49.51c-.175.526-.35.878-.439 1.229a59.896 59.896 0 0 1-2.019 4.126c-.263.614-.702 1.14-1.492.79-.79-.352-.79-1.054-.439-1.756.79-1.58 1.58-3.16 2.458-4.74.176-.264.79-.615 1.053-.527.264.088.615.614.878.878Zm12.993-20.453c.877 0 1.404.79 1.14 1.404-.701 1.492-1.404 2.985-2.194 4.477-.175.264-.965.439-1.316.264-.264-.176-.615-.878-.44-1.23a38.997 38.997 0 0 1 2.107-4.3c.088-.264.527-.44.703-.615Zm7.461 7.637c-.877 0-1.404-.703-1.14-1.405a20.323 20.323 0 0 1 1.58-3.072c.175-.264.878-.527 1.229-.352.263.088.702.79.526 1.142a38.394 38.394 0 0 1-1.492 3.335c-.088.176-.526.264-.702.352Zm3.245 23.174c.614-1.141 1.141-2.107 1.755-3.072.176-.176.79-.264 1.054-.088.263.176.614.79.527 1.053-.352.966-.79 1.932-1.317 2.81-.176.263-.79.35-1.141.263-.352-.088-.527-.527-.878-.966Z" fill="#F47400"/></svg>