<svg width="86" height="120" fill="none" xmlns="http://www.w3.org/2000/svg"><path d="M21.816 40.106c.797.956 1.674 1.993 2.152 3.109 1.116 2.47.399 4.782-1.275 6.775-.32.32-.638.638-.877.957-1.355 1.515-1.276 3.428 0 4.942.877 1.037 1.754 2.153 2.312 3.348.956 2.471.318 4.624-1.356 6.617-.637.717-1.355 1.594-1.674 2.55-.478 1.196-.08 2.312.718 3.349.877 1.036 1.833 2.152 2.312 3.348 1.036 2.391.398 4.623-1.276 6.536-1.036 1.116-1.993 2.232-2.073 3.906 0 .797-.876 1.276-1.594 1.116-.797-.16-1.275-.637-1.275-1.514 0-1.913.877-3.508 2.232-4.783 1.195-1.196 1.913-2.551 1.275-4.225-.319-.797-.956-1.435-1.514-2.152-2.153-2.392-2.631-4.943-1.196-7.653.398-.797.956-1.435 1.594-2.073 1.754-1.913 1.834-3.826 0-5.66-1.275-1.275-2.232-2.71-2.391-4.543-.16-2.152.637-3.906 2.152-5.42 1.196-1.117 1.993-2.472 1.355-4.146-.319-.797-.956-1.435-1.435-2.152-.637-1.037-1.434-1.913-1.833-3.03m49.501-6.855c.718.877 1.435 1.754 1.834 2.79.956 2.232.398 4.225-1.116 6.058-.24.32-.478.558-.797.877-1.196 1.355-1.116 3.03 0 4.385.717.956 1.514 1.913 1.993 3.029.876 2.152.239 4.145-1.196 5.899-.558.638-1.116 1.435-1.435 2.232-.399 1.036-.08 2.072.638 2.95.717.956 1.514 1.912 1.993 3.028.876 2.153.398 4.146-1.116 5.82-.877 1.036-1.674 1.992-1.754 3.427 0 .718-.718 1.116-1.355 1.037-.638-.16-1.116-.558-1.116-1.356 0-1.753.717-3.108 1.913-4.304 1.036-1.036 1.674-2.232 1.116-3.747-.24-.717-.797-1.275-1.276-1.913-1.833-2.152-2.232-4.384-1.036-6.855.319-.718.877-1.276 1.355-1.834 1.515-1.674 1.594-3.428 0-5.022-1.116-1.196-1.913-2.391-1.993-4.065-.16-1.914.558-3.508 1.834-4.783 1.036-1.037 1.674-2.153 1.196-3.667-.24-.718-.877-1.276-1.276-1.913-.558-.877-1.196-1.754-1.514-2.71" fill="#F47400"/><path d="M21.177 40.504H17.19c-.16 0-.32.638-.32.957V52.86c0 .558 0 1.116-.079 1.674-.319 2.79-1.833 4.703-4.304 5.979C6.35 63.7 3.08 68.722 3.002 75.657c-.08 8.29 0 16.501 0 24.792 0 7.971 5.5 14.827 13.392 16.182 3.985.717 8.13.797 12.116-.638 4.783-1.754 8.131-5.022 9.885-9.805.797-2.072 1.036-4.225 1.036-6.377V87.616c.08-.718.718-1.356 1.435-1.356.718 0 1.355.558 1.435 1.356v12.117c.08 5.26-1.515 9.964-5.102 13.87-3.029 3.348-6.775 5.5-11.32 6.058-3.586.399-7.174.558-10.681-.159-4.703-.957-8.45-3.508-11.32-7.334-2.55-3.508-3.826-7.414-3.826-11.718 0-8.53-.16-17.06.08-25.589.239-7.652 4.065-13.233 10.841-16.82 1.833-.956 2.95-2.311 2.95-4.543V41.38c0-.24-.08-.478-.08-.877H11.77c-1.116 0-1.674-.478-1.754-1.435-.08-.956.479-1.435 1.595-1.514.16 0 .319 0 .558-.08v-3.747c0-1.514.637-2.63 2.072-3.188.558-.24.638-.479.638-.957v-3.428c0-1.992 1.275-3.268 3.268-3.348h1.595V4.234c.08-.877.637-1.435 1.514-1.435.797 0 1.355.638 1.355 1.435v18.573h1.754c1.834.08 3.109 1.276 3.109 3.189v3.507c0 .558.08.797.638 1.037 1.355.558 1.993 1.674 1.993 3.188v3.667c.239.08.478.08.637.16.797.318 1.196.797 1.037 1.674-.16.797-.638 1.116-1.435 1.195-1.913.16-1.913.16-1.913 2.153v10.681c0 2.312 1.036 3.827 3.108 4.863 4.385 2.232 7.573 5.66 9.407 10.283.877 2.232 1.355 4.544 1.355 6.936 0 1.195-.478 1.913-1.435 1.913-.956 0-1.435-.638-1.514-1.834-.16-5.74-2.551-10.283-7.175-13.551-.877-.638-1.913-1.037-2.87-1.595-2.55-1.594-3.826-3.906-3.826-6.855V41.54c0-.398.24-.956-.478-1.036m-9.964-3.109h12.196V33.33c-.16-.08-.24-.08-.319-.08h-11.32c-.159 0-.557.319-.557.478v3.667Zm6.138-7.174h2.79c.478 0 .637-.16.637-.718v-3.029c0-.558-.239-.797-.797-.797h-5.42c-.559 0-.798.24-.798.797v2.87c0 .558.24.797.798.717 1.036.08 1.913.16 2.79.16Z" fill="#6D6E71"/><path d="M9.778 94.073v6.138c0 .877-.638 1.514-1.435 1.594-.797 0-1.355-.638-1.515-1.514V88.094c0-1.116.638-1.833 1.435-1.833.877 0 1.515.717 1.515 1.833a74.75 74.75 0 0 1 0 5.979Zm-2.87-12.595c0-.479-.08-.957 0-1.435.16-.797.558-1.355 1.435-1.276.877 0 1.355.558 1.355 1.356a14.5 14.5 0 0 1 0 2.63c-.08.797-.558 1.355-1.355 1.355-.797 0-1.435-.478-1.515-1.355 0-.398.08-.797.08-1.275Zm60.105-48.706h-3.428c-.08 0-.239.558-.239.797v9.805c0 .478 0 .956-.08 1.434-.239 2.392-1.594 4.066-3.666 5.102-5.262 2.71-8.052 7.095-8.132 12.994-.08 7.094 0 14.19 0 21.284 0 6.855 4.783 12.754 11.48 13.87 3.427.638 7.014.718 10.442-.558 4.145-1.514 6.935-4.305 8.53-8.45.637-1.753.876-3.587.876-5.5V61.947c.08-.638.638-1.196 1.196-1.196a1.29 1.29 0 0 1 1.276 1.117V83.39c.08 4.543-1.276 8.53-4.385 11.877-2.63 2.87-5.819 4.703-9.725 5.182-3.029.318-6.138.478-9.167-.16-3.986-.797-7.254-3.029-9.725-6.297-2.232-2.95-3.269-6.298-3.269-10.044 0-7.334-.16-14.668.08-22.002.16-6.616 3.508-11.399 9.247-14.428 1.594-.797 2.55-1.993 2.471-3.906V33.17c0-.24-.08-.398-.08-.717h-1.753c-.957 0-1.435-.399-1.515-1.196-.08-.797.399-1.196 1.355-1.355.16 0 .24 0 .479-.08v-3.268c0-1.276.558-2.232 1.753-2.71.479-.16.558-.4.479-.877v-2.95c0-1.754 1.116-2.79 2.79-2.87h1.434V1.204c.08-.797.559-1.275 1.356-1.195.637 0 1.195.558 1.195 1.275v15.863h1.515c1.594.08 2.63 1.116 2.71 2.71v3.03c0 .478.08.717.558.877 1.196.478 1.754 1.435 1.674 2.71v3.189c.24.08.399.08.558.16.638.238 1.037.716.877 1.434-.16.717-.558.957-1.275 1.036-1.674.08-1.674.08-1.674 1.834v9.167c0 1.993.877 3.268 2.71 4.225 3.826 1.913 6.457 4.862 8.051 8.848.797 1.913 1.116 3.906 1.196 5.979 0 1.036-.399 1.594-1.196 1.674-.797 0-1.275-.558-1.275-1.594-.16-4.943-2.153-8.849-6.138-11.639-.797-.558-1.674-.877-2.471-1.355-2.232-1.355-3.269-3.348-3.269-5.899V33.33c0-.32.24-.798-.398-.877m-8.69-2.392h10.523v-3.507c-.08-.08-.16-.08-.239-.08H62.31c-.16 0-.479.24-.479.399-.08 1.036-.08 2.152-.08 3.188Zm5.262-6.218h2.391c.399 0 .558-.159.558-.558v-2.55c0-.479-.159-.638-.637-.638H64.7c-.478 0-.637.239-.637.717v2.471c0 .479.239.638.637.638.797-.08 1.595-.08 2.312-.08Z" fill="#6D6E71"/></svg>