<svg width="121" height="120" fill="none" xmlns="http://www.w3.org/2000/svg"><path d="M120.014 43.951c-.26 1.958-.428 3.934-.781 5.89-1.359 7.476-4.447 14.15-9.452 19.872-1.731 1.958-3.722 3.691-5.62 5.5-.39.372-.502.652-.297 1.193 1.395 3.43 2.772 6.897 4.149 10.345.242.634.614 1.044 1.321 1.268 2.233.746 4.428 1.585 6.624 2.405 2.307.857 3.74 2.89 3.758 5.331.019 2.89.019 5.779 0 8.65-.018 3.262-2.325 5.611-5.582 5.704-2.102.056-2.028.093-2.697 2.088-1.024 3.057-3.052 5.331-5.973 6.655-4.336 1.957-8.448 1.398-12.169-1.566-2.028-1.603-3.293-3.747-3.851-6.282-.15-.671-.41-.895-1.098-.895-3.591.037-7.182.018-10.773 0-.614 0-.912.13-1.042.82-.93 4.959-5.731 8.966-10.774 8.985-2.735 0-5.507.093-8.224-.205-3.479-.391-6.344-2.181-8.67-4.753-.633-.69-1.08-.951-2.066-.597-4.41 1.603-8.856 1.51-13.229-.261-.502-.205-.763-.075-1.097.298-2.01 2.293-4.373 3.99-7.313 4.903-3.535 1.1-6.959.857-10.29-.69-6.995-3.262-10.605-11.147-9.47-18.622.316-2.125 1.08-4.157 1.675-6.376-.484-.26-1.21-.578-1.88-1.025C.913 89.66-.5 85.558.151 80.544c.726-5.667 2.735-10.85 6.029-15.51 2.381-3.392 5.284-6.3 8.726-8.63.428-.299.856-.597 1.358-.97-6.382-8.798-8-18.38-4.763-28.838-3.572-1.36-6.233-3.747-7.87-7.195-1.154-2.442-1.47-5.052-1.08-7.718C3.426 5.625 7.966 1.356 13.306.275c5.396-1.1 11.908 1.007 15.313 7.997 7.89-3.188 15.853-3.206 23.667-.056.968-1.342 1.768-2.721 2.847-3.84 3.777-3.99 8.41-5.2 13.713-3.821.558.149 1.172.205 1.712.111 4.689-.857 9.36-.838 14.048-.074 5.526.895 10.661 2.833 15.425 5.797a41.698 41.698 0 0 1 9.377 7.96c4.261 4.847 7.313 10.365 8.932 16.61.707 2.74 1.004 5.592 1.469 8.407.056.354.131.727.186 1.08.019 1.157.019 2.33.019 3.505ZM67.06 40.018c.037-.28.074-.69.13-1.118.037-.317.075-.616.093-.932.26-6.115-1.265-11.707-4.8-16.74C57.98 14.834 51.82 11.012 44.137 9.95c-7.666-1.063-14.643.876-20.598 5.89-8.075 6.804-11.22 15.603-9.303 25.93 1.6 8.65 6.605 15.118 14.532 18.921 9.526 4.567 18.755 3.617 27.5-2.349.782-.54.837-.97.428-1.79-2.865-5.76.149-13.272 6.178-15.434 1.32-.466 2.735-.727 4.186-1.1Zm-14.476 27.85c-.54-.503-1.116-.97-1.637-1.491-.503-.485-.986-.56-1.675-.355-5.786 1.66-11.592 1.697-17.397.02-.837-.243-1.395-.076-1.99.465-3.573 3.17-5.936 7.121-7.22 11.688-.633 2.219-.95 4.511-1.414 6.823.353.074.465.093.595.112 6.698.69 11.052 4.474 13.509 10.513 1.897 4.679 1.73 9.451-.13 14.149-.28.708-.057.951.557 1.118 2.53.727 5.099 1.026 7.704.411a73.524 73.524 0 0 0 2.325-.616l-.223-.671c-.744-2.125-1.526-4.25-1.507-6.561.037-4.586.019-9.19.037-13.776 0-.336.075-.671.205-.988 1.581-4.306 3.107-8.612 4.782-12.881 1.042-2.666 1.637-5.537 3.48-7.96Zm-4.652 23.544c0 4.51-.018 8.873.02 13.254.018.95.818 1.621 1.804 1.64 1.21.037 2.419.056 3.628-.019.298-.018.745-.354.8-.615.67-2.777 2.233-4.902 4.503-6.599 4.13-3.113 10.587-2.721 14.29.82 1.842 1.771 3.051 3.859 3.61 6.338.13.038.223.075.316.075 3.926 0 7.87 0 11.796.019.54 0 .633-.261.763-.709 1.191-4.101 3.759-6.897 7.87-8.183 5.862-1.846 12.095 1.528 14.067 7.177.596 1.715.558 1.733 2.345 1.696h.279c1.098-.056 1.898-.783 1.898-1.883.037-2.889.018-5.779 0-8.65 0-.857-.484-1.453-1.284-1.751-1.619-.616-3.219-1.25-4.875-1.771-1.191-.373-2.438-.802-3.666-.802-18.941-.056-37.882-.037-56.842-.037h-1.322Zm-15.052 11.8c0-3.244-.633-5.742-1.917-7.998-1.6-2.814-3.851-4.94-7.033-5.816-4.95-1.342-9.75.616-12.578 5.034-3.46 5.406-3.107 12.284.875 17.373 3.367 4.306 9.135 5.593 13.88 2.927 4.689-2.629 6.475-6.991 6.773-11.52Zm15.946-15.696h55.335c-.111-.317-.167-.54-.26-.765-1.917-4.734-3.852-9.45-5.73-14.186-1.043-2.647-1.955-3.318-4.783-3.318H59.227c-2.959 0-4 .802-4.968 3.598-1.005 2.852-2.103 5.686-3.145 8.52a665.13 665.13 0 0 0-2.288 6.15Zm53.214-15.491c7.982-6.748 12.411-15.137 13.843-25.203 1.061-7.42-1.767-20.561-5.265-24.103.632 17.243-4.95 31.765-19.035 42.688 2.42-.037 4.615-.149 6.624 1.063 2.047 1.23 3.052 3.169 3.833 5.555Zm-75.226-7.867c-.204-.167-.298-.28-.428-.354-2.605-1.323-4.93-3.038-7.033-5.07-.41-.392-.67-.243-1.042 0-3.256 1.976-6.01 4.53-8.317 7.568-3.647 4.81-5.787 10.197-6.14 16.255-.205 3.523 1.674 6.3 4.968 7.569.558.223.93.167 1.377-.299 1.842-1.938 4.018-3.374 6.623-4.082.707-.205.838-.578.875-1.25.223-4.25 1.321-8.294 3.163-12.135 1.47-3.057 3.424-5.76 5.954-8.202Zm76.491-47.926c-.055-.037-.111-.093-.167-.13-1.73.838-3.442 1.677-5.173 2.497-5.116 2.386-9.991 5.164-14.457 8.613-3.535 2.721-6.903 5.704-10.252 8.686-1.042.932-2.307 1.79-2.289 3.598.019 1.025 0 1.715 1.135 1.957.335.075.614.448.968.541.353.093.8.13 1.154 0 1.004-.373 1.935-.97 2.977-1.268 3.2-.913 6.233-.447 9.08 1.287.372.242.725.578 1.19.037 3.22-3.747 6.16-7.68 8.671-11.912 1.916-3.206 3.554-6.58 5.266-9.898.688-1.324 1.265-2.685 1.897-4.008ZM79.061 65.407c1.712 0 3.33 0 4.93-.018.224 0 .485-.112.69-.224 4.54-2.498 8.521-5.686 11.87-9.656 3.461-4.083 6.01-8.687 7.741-13.739 2.139-6.245 2.828-12.676 2.456-19.256-.056-1.119-.224-2.237-.354-3.355a1.1 1.1 0 0 0-.502.521c-1.098 2.219-2.159 4.456-3.275 6.655-3.35 6.6-7.517 12.658-12.355 18.231-.41.485-.484.82-.149 1.38 1.843 3.188 2.177 6.543.8 9.992-1.302 3.262-3.572 5.573-6.921 6.636-1.563.503-3.238.652-4.95.988.02.447.02 1.081.02 1.845ZM25.028 10.08c-.986-3.765-5.898-6.785-9.973-6.226-5.229.727-8.931 4.828-8.894 9.899.019 4.175 3.442 8.705 6.921 9.152 2.754-5.424 6.755-9.693 11.946-12.825Zm30.961-.074c.986.69 1.954 1.305 2.866 1.994 3.72 2.796 6.66 6.227 8.8 10.365.26.522.54.615 1.098.373 3.907-1.622 6.457-5.705 6.103-9.806-.372-4.324-3.46-7.903-7.647-8.854-4.708-1.063-9.75 1.584-11.22 5.928ZM75.08 65.35c.019-.223.056-.41.056-.596 0-1.212-.018-2.423.019-3.635.037-1.66.93-2.368 2.53-2.088.54.093 1.08.242 1.638.317 3.032.336 5.507-.746 7.219-3.225 1.786-2.591 1.916-5.425.335-8.165-2.493-4.269-7.852-5.126-11.648-1.939-1.153.951-1.972.914-3.126-.018-1.916-1.603-4.112-2.2-6.568-1.697-4.558.932-7.275 5.723-5.619 10.141 1.451 3.859 5.229 5.705 9.247 4.717 2.159-.522 3.015.149 3.033 2.386v3.821c1.042-.019 1.936-.019 2.884-.019Zm-4.037-32.678c8.577-8.388 18.439-14.708 29.398-19.48-.205-.149-.26-.186-.316-.205-.242-.056-.484-.093-.726-.13-6.717-.858-13.322-.205-19.834 1.603-.82.224-1.042.69-1.154 1.435-.447 3.244-1.99 5.928-4.447 7.997-1.321 1.119-2.903 1.94-4.335 2.89.446 1.845.911 3.803 1.414 5.89Zm-5.6 68.153c-4.224-.094-7.648 3.187-7.741 7.437a7.662 7.662 0 0 0 7.443 7.886c4.111.13 7.796-3.412 7.87-7.55.075-4.213-3.293-7.68-7.573-7.773Zm42.757 7.624c-.019-4.306-3.349-7.643-7.647-7.624a7.618 7.618 0 0 0-7.629 7.68c.019 4.138 3.517 7.643 7.647 7.643 4.187.018 7.629-3.468 7.629-7.699ZM78.41 10.863c5.861-1.733 11.703-2.349 17.676-2.218-6.605-3.672-13.638-5.201-21.416-4.679 1.935 2.106 3.126 4.306 3.74 6.897Zm-10.085 52.4c-3.126.206-5.842-.615-8.28-2.404-.186-.13-.688-.019-.949.149-.948.578-1.842 1.23-2.772 1.845-.67.448-1.377.84-1.99 1.212.762 1.473 1.878 1.864 3.33 1.36.297-.11.67-.036 1.023-.036h8.708c.316 0 .651-.038.949-.056-.019-.727-.019-1.324-.019-2.07ZM55.73 115.292c-.577-1.64-1.117-3.206-1.712-4.753-.075-.187-.317-.392-.503-.411-1.097-.037-2.195-.018-3.516-.018 1.433 2.516 3.349 4.12 5.73 5.182Z" fill="#6D6E71"/><path d="M38.574 51.967c0-2.274.019-4.511-.018-6.73 0-.186-.223-.428-.41-.54-1.06-.708-2.12-1.36-3.2-2.05-1.99-1.268-2.847-3.636-2.177-5.91.614-2.106 2.568-3.542 4.894-3.56h5.47c2.586 0 4.447 1.323 5.191 3.672.67 2.125-.26 4.511-2.307 5.872-1.023.69-2.084 1.324-3.126 1.995-.167.111-.372.298-.372.466-.019 2.255-.019 4.51-.019 6.841 3.108-.615 5.508-2.107 7.35-4.492.279-.373.558-.746.912-1.044.688-.578 1.563-.541 2.288.055.67.541.912 1.399.521 2.144-1.06 2.07-2.716 3.58-4.633 4.828-2.79 1.827-5.917 2.722-9.229 2.498-5.08-.335-9.135-2.647-12.057-6.841-.67-.95-.446-2.107.428-2.703.986-.671 2.028-.466 2.791.634 1.768 2.516 4.15 4.1 7.127 4.828.167.018.316.018.576.037Zm1.991-15.025c-.93 0-1.86-.093-2.772.038-.502.074-1.098.466-1.34.894-.316.578-.018 1.175.596 1.566.8.504 1.6 1.044 2.381 1.585.726.484 1.433.484 2.14 0 .763-.522 1.526-1.063 2.307-1.529.651-.391.986-1.007.651-1.622-.241-.447-.893-.801-1.414-.894-.818-.15-1.693-.038-2.549-.038Z" fill="#F47400"/><path d="M53.198 30.567c1.023 0 1.879.84 1.897 1.864.019 1.044-.893 1.939-1.953 1.92-1.023-.018-1.88-.895-1.86-1.92.037-1.025.893-1.864 1.916-1.864Zm-23.446 1.901c0 1.006-.875 1.882-1.898 1.882s-1.898-.838-1.916-1.864c-.019-1.043.874-1.938 1.935-1.92 1.023.02 1.879.895 1.879 1.902Zm57.791 60.864c.986 0 1.973-.018 2.959 0 1.135.019 1.972.839 1.972 1.902 0 1.025-.782 1.882-1.86 1.9-2.066.038-4.131.038-6.215 0-1.08-.018-1.86-.857-1.88-1.9 0-1.063.82-1.902 1.954-1.92 1.042 0 2.066.018 3.07.018Zm1.547-8.24c-2.009 0-4.018.019-6.028 0-2.158-.019-3.256-1.118-3.275-3.262a379.267 379.267 0 0 1 0-6.506c.019-2.144 1.135-3.243 3.294-3.243 3.126-.02 6.251 0 9.377 0 1.954 0 2.884.652 3.517 2.516.744 2.2 1.47 4.4 2.158 6.6.67 2.124-.595 3.84-2.828 3.895h-6.214Zm-5.47-3.896h10.494c-.576-1.696-1.079-3.318-1.656-4.884-.074-.186-.54-.335-.837-.335-2.474-.02-4.95-.02-7.405-.02-.205 0-.41.057-.596.094v5.145Zm-16.374 3.897c-2.01 0-4.02.018-6.029 0-2.53-.019-3.74-1.958-2.846-4.325.8-2.107 1.47-4.269 2.177-6.394.483-1.491 1.45-2.274 2.995-2.293 3.275-.019 6.55-.037 9.825 0 1.86.019 3.014 1.156 3.07 3.02.055 2.33.055 4.642 0 6.972-.038 1.864-1.228 2.982-3.07 3.001-2.029.037-4.075.019-6.122.019Zm5.359-9.135H66.39c-2.289 0-2.289 0-3.07 2.2-.354.988-.651 1.976-1.042 3.113 3.405 0 6.643 0 9.88-.018.149 0 .41-.299.428-.466.037-1.604.019-3.17.019-4.829Zm.017-24.233c.018 3.038-2.475 5.573-5.508 5.573s-5.563-2.516-5.563-5.536c0-3.001 2.567-5.555 5.582-5.536 2.977.018 5.47 2.516 5.489 5.499Zm-5.508-1.64c-.967 0-1.693.726-1.675 1.696.02.932.745 1.659 1.657 1.659.93 0 1.655-.709 1.674-1.622.019-.988-.67-1.734-1.656-1.734Zm13.288-3.86c3.051.112 5.451 2.61 5.377 5.611-.075 3.113-2.624 5.574-5.638 5.444-3.126-.131-5.489-2.648-5.359-5.705.13-3.057 2.624-5.443 5.62-5.35Zm-.13 3.859c-.968 0-1.694.727-1.675 1.696.018.932.8 1.697 1.749 1.66.893-.02 1.619-.783 1.619-1.678 0-.951-.745-1.678-1.694-1.678Zm-14.943 53.071c2.92 0 5.302 2.424 5.284 5.332-.019 2.926-2.42 5.312-5.34 5.294-2.922-.019-5.303-2.423-5.285-5.35a5.295 5.295 0 0 1 5.34-5.276Zm1.45 5.294c0-.82-.65-1.454-1.488-1.454-.874 0-1.432.597-1.432 1.473 0 .802.688 1.51 1.45 1.51.745-.019 1.49-.783 1.47-1.529Zm28.506-.037c.019-2.945 2.382-5.275 5.34-5.257 2.94.019 5.266 2.405 5.247 5.369a5.293 5.293 0 0 1-5.358 5.257c-2.922-.037-5.229-2.405-5.229-5.369Zm3.777.019c-.018.708.763 1.528 1.489 1.547.744.019 1.488-.708 1.488-1.491.019-.839-.595-1.473-1.451-1.473-.8-.037-1.507.615-1.526 1.417Z" fill="#6D6E71"/></svg>