<svg width="190" height="120" fill="none" xmlns="http://www.w3.org/2000/svg"><path d="M132.933 44.316c-1.007-2.518-1.889-5.162-3.022-8.057-10.953 12.212-21.78 24.172-32.607 36.132 3.021 4.533 3.525 9.317 1.007 14.101-1.637 3.273-4.407 5.54-7.932 6.673-.63.252-1.007.63-1.007 1.385v3.525c0 .755.252 1.007 1.007 1.007h1.637c1.51.126 2.518 1.259 2.518 2.644 0 1.385-1.007 2.77-2.392 2.77-3.651.126-7.302.126-10.953 0-1.511 0-2.644-1.385-2.518-2.896 0-1.511 1.133-2.518 2.518-2.644h2.518V93.92c0-.252-.252-.63-.504-.755l-5.665-2.644c-1.133 4.28-3.022 8.31-5.666 12.086-6.295 8.939-14.73 14.478-25.557 16.367-1.51.252-2.896-.63-3.273-2.014-.378-1.385.503-2.896 1.888-3.274 1.763-.503 3.651-.881 5.288-1.511 12.338-4.532 19.766-13.345 22.284-26.186.126-.882.252-1.763.377-2.77h-3.65c-.378 3.777-1.385 7.428-3.148 10.701-3.148 5.917-7.68 10.576-13.723 13.471-8.687 4.155-17.626 4.281-26.313 0-8.687-4.28-14.352-11.33-16.24-21.025-2.393-12.338 1.51-22.41 11.33-30.09 7.68-6.043 16.493-7.553 25.935-5.161.126 0 .378.126.504.126 3.021.755 3.021.755 4.154-2.77-2.895-.63-5.79-1.51-8.687-1.763-8.183-.881-15.737.756-22.661 5.414C12.826 57.284 7.916 64.46 6.027 73.399c-2.518 13.47 3.148 27.32 14.353 34.874 3.777 2.643 7.931 4.406 12.59 5.287 2.014.378 3.147 1.763 2.895 3.4-.252 1.51-1.636 2.518-3.273 2.266-8.939-1.511-16.367-5.792-22.536-12.464-5.036-5.54-8.183-12.086-9.442-19.388-1.763-10.45.252-20.27 6.295-29.083 5.413-8.058 12.967-13.345 22.284-15.99 7.302-2.014 14.604-1.888 21.906.378 3.525 1.134 3.525 1.134 5.162-2.014 2.392-4.658 4.784-9.442 7.05-14.226.252-.378.378-1.008.252-1.385a34.493 34.493 0 0 0-1.889-5.036c-.126-.378-.88-.504-1.258-.63-2.393-.126-4.91 0-7.303-.126-6.924-.251-12.464-6.672-11.582-13.47C41.908 2.77 44.93.125 48.329 0h28.327c5.162.126 8.94 2.518 11.205 7.176 1.637 3.4-.503 6.799-4.154 6.925-3.525.125-7.05.125-10.702 0-1.51 0-2.77.377-3.525 1.888-.252.378-.63.755-.881 1.133-.378.504-1.26 1.133-1.133 1.511.378 1.385 1.007 2.77 1.636 4.029.126.126.756.126 1.133.126h53.507c.378 0 .882-.126 1.511-.126-.629-1.763-1.133-3.4-1.762-4.91-1.889-4.155-1.259-6.421 4.028-6.295 5.288.252 10.702 0 16.115.126 1.007 0 1.511-.252 2.141-1.133 1.888-2.896 5.161-4.03 8.938-3.148 10.198 2.266 15.612 12.086 11.583 21.655-2.392 5.79-7.176 8.938-13.471 9.442-2.77.252-5.54.63-8.058-1.007-2.392-1.511-3.651-3.651-3.525-6.421.126-2.77 1.385-5.036 3.903-6.169 1.637-.755 3.399-.755 5.162-1.007.503-.126 1.007.126 1.385 0 .377-.126.881-.504 1.007-.882.126-.251-.504-.88-.755-.88-2.896-.253-5.162-1.512-6.547-4.155-.126-.252-.63-.378-1.007-.378h-14.856c.755 2.014 1.385 3.903 2.014 5.665l6.799 18.13c.377 1.133.881 1.259 1.888 1.007 13.093-3.022 25.054-.378 35.377 8.31 7.68 6.42 12.213 14.855 13.472 24.927 1.133 9.442-.756 18.381-5.918 26.313-4.91 7.554-11.582 12.967-20.269 15.863-7.806 2.77-15.738 3.022-23.669.755-11.961-3.525-20.522-11.079-25.558-22.535-3.776-8.813-4.28-17.878-1.384-26.943 3.273-10.575 9.946-18.38 19.766-23.543.377-.126.629-.377 1.007-.503-.378-.252-.378-.378-.126-.63Zm2.014 5.666a6.183 6.183 0 0 0-.881.377c-9.317 5.036-15.36 12.716-17.626 23.04-2.014 9.316-.377 18.003 4.91 25.809 5.792 8.561 13.975 13.597 24.425 14.73 9.82 1.133 18.632-1.763 26.06-8.309 6.799-5.918 10.576-13.597 11.331-22.536.63-7.302-.881-14.1-4.784-20.27-5.665-9.064-13.849-14.604-24.55-15.989-4.155-.503-8.309-.252-12.338.63-.378.126-.881.63-.881 1.007.126 2.014 1.007 2.644 3.021 2.266.126 0 .252 0 .378-.126 8.687-1.385 16.619.378 23.543 5.54 5.665 4.28 9.442 9.946 11.079 16.996.504 2.014-1.007 3.525-3.022 3.4-1.636-.127-2.266-1.386-2.643-2.77-3.022-11.583-14.479-19.389-26.313-18.004-1.007.126-2.015.378-3.022.63.126.377 0 .629.126.755 1.763 4.784 3.525 9.442 5.288 14.226.126.504 1.007.756 1.511 1.007 1.259.504 2.644.882 3.651 1.637 3.651 2.518 4.154 7.68 1.51 11.331-2.643 3.4-7.805 4.155-11.204 1.51-3.777-2.895-4.407-7.93-1.385-11.582.503-.63.881-1.259.503-2.14l-4.91-13.22c-.126-.377-.377-.755-.503-1.133-7.68 3.778-13.723 12.716-13.22 22.788.504 10.072 7.554 19.388 17.122 22.284 10.702 3.148 21.529-.503 27.698-9.694 1.511-2.392 2.392-5.288 3.525-7.932.63-1.51 2.015-2.392 3.399-2.014 1.511.378 2.644 1.889 2.015 3.525-1.133 2.896-2.014 6.043-3.651 8.687-5.036 8.058-12.338 12.842-21.781 13.975-8.938 1.133-16.996-1.259-23.794-7.302-7.428-6.673-10.828-15.108-9.946-25.18.881-10.072 5.917-17.752 14.352-23.165 2.518-1.637 2.518-1.511 1.385-4.28-.126-.127-.252-.253-.378-.504ZM70.865 28.579c1.763 4.658 3.4 8.939 5.036 13.345 3.022 7.932 5.917 15.863 8.813 23.92.377 1.008.881 1.134 1.762 1.26 1.763.126 3.526.377 5.036 1.007 1.26.504 1.889.378 2.644-.63 7.806-8.686 15.737-17.373 23.543-26.06 3.148-3.4 6.169-6.925 9.317-10.324.629-.63.755-1.385.251-1.889-.377-.377-1.133-.63-1.762-.63h-54.64ZM63.563 83.47c-.126 0-.126-.126-.252-.126H47.7c-.378 0-1.008.503-1.133.881-1.763 3.148-4.533 4.532-8.184 4.28-3.147-.251-5.791-2.517-6.798-5.79-1.385-4.407 1.762-9.947 7.428-10.325.63 0 1.385-.503 1.636-1.007 2.015-3.777 3.903-7.553 5.792-11.456.377-.756.755-1.637 1.133-2.518-7.554-3.274-18.507-1.637-25.81 5.791-7.427 7.554-9.19 19.766-3.399 29.712 4.785 8.309 16.115 13.345 25.558 11.457 11.582-2.266 19.01-11.96 19.64-20.9ZM52.86 59.8c-.377.63-.629 1.134-.755 1.637l-6.043 12.087c-.881 1.762.378 4.028 2.392 4.028H62.43c.377 0 .881 0 1.385-.126C62.682 70 59.03 64.334 52.862 59.802Zm13.474-26.94c-2.14 4.407-4.155 8.436-6.295 12.464-.504 1.008-.252 1.385.503 1.889 6.295 4.029 11.08 9.316 14.227 15.989 1.133 2.266 1.888 4.658 2.895 7.05 2.14-1.133 2.14-1.133 1.26-3.399-.63-1.889-1.385-3.777-2.015-5.665-2.644-7.177-5.288-14.353-8.057-21.529-.756-2.14-1.637-4.28-2.518-6.799Zm15.36-24.298c-1.637-2.014-3.022-2.644-5.288-2.644H48.832c-1.763 0-2.266.63-1.889 2.392.756 3.4 3.4 5.666 6.925 5.666 1.888 0 3.777-.126 5.665 0 2.518.126 4.784-.126 6.295-2.644 1.26-2.14 3.777-2.77 6.295-2.77h9.568Zm7.68 78.813c3.02-.504 5.413-4.91 4.91-7.932-.756-3.903-4.03-6.799-7.807-6.799-3.65.126-7.176 3.148-7.553 6.547-.378 3.777 1.636 7.428 4.784 8.184 0-2.14-.126-4.155 0-6.295.126-1.008.503-2.267 1.133-2.77.63-.504 1.888-.504 2.77-.252 1.133.252 1.51 1.385 1.636 2.518.126 2.14.126 4.406.126 6.799Zm60.808-54.389c2.896.126 5.539-.503 7.806-2.518 3.021-2.518 4.28-6.924 3.147-10.701-1.259-4.029-4.91-6.798-8.939-7.05-1.385-.126-2.266.503-2.266 1.636 0 1.26.756 1.763 1.889 1.889 1.762.126 3.273.755 4.406 2.014 2.014 2.14 2.392 4.533 1.385 7.302-1.133 2.644-3.273 3.903-6.043 4.03-1.133 0-2.392-.127-3.525.125-.63.126-1.385.881-1.511 1.51-.252 1.008.629 1.637 1.511 1.763.629.126 1.385 0 2.14 0ZM55.505 54.64c1.889 1.51 3.651 2.895 5.288 4.532 4.784 4.784 7.554 10.45 8.561 17.122.126.504.504 1.133.882 1.133.88.126 1.888 0 2.895 0-.377-9.946-7.05-21.025-16.115-25.935-.63 1.134-1.007 2.14-1.51 3.148Zm96.439 25.809c0-1.259-1.008-2.392-2.393-2.392-1.51 0-2.392.755-2.517 2.266-.126 1.385 1.007 2.518 2.392 2.518 1.259 0 2.518-1.133 2.518-2.392ZM39.39 78.057c-1.385 0-2.392 1.007-2.517 2.266 0 1.26 1.133 2.518 2.517 2.518 1.385 0 2.392-1.007 2.392-2.392s-1.007-2.392-2.392-2.392Z" fill="#6D6E71"/><path d="M39.5 108C54.688 108 67 95.688 67 80.5S54.688 53 39.5 53 12 65.312 12 80.5 24.312 108 39.5 108Zm110 0c15.188 0 27.5-12.312 27.5-27.5S164.688 53 149.5 53 122 65.312 122 80.5s12.312 27.5 27.5 27.5Z" stroke="#F47400" stroke-width="6.5" stroke-miterlimit="10"/></svg>