<svg width="156" height="50" fill="none" xmlns="http://www.w3.org/2000/svg"><path d="M34.911 11.437c.592-.284.846-.756.93-1.324.085-.378.17-.756.592-.756.422 0 .507.378.592.756.169.851.591 1.324 1.267 1.607.93.473 1.945.567 2.96.378.422 0 .675.095.76.473.422 1.418 1.437 2.268 2.62 2.93.592.284.761.756.677 1.418-.085 1.418-.592 2.74-1.184 4.064a12.47 12.47 0 0 0-.93 3.025c-.422 2.457-1.099 4.82-2.197 7.088-.254.567-.17 1.418-.254 1.985 1.352.378 2.536.85 3.804 1.134.169 0 .338-.094.507-.189 1.014-1.04 2.029-1.04 3.043 0l1.268 1.418c.845.945.845 2.174 0 3.214-.338.378-.338.661-.254 1.134.17.662.254 1.418.254 2.08v7.088c0 .851-.169 1.04-.93 1.04H24.6c-1.184 0-1.184 0-1.268-1.418H1.014c-.93 0-1.014-.094-1.014-1.134V1.134C0 .094.085 0 1.099 0h32.713c.93 0 1.015.095 1.015 1.134v9.736c.084.094.084.283.084.567ZM33.728 1.134H1.183v46.03h22.148V40.36h-3.466c-.423 0-.846 0-.846-.662 0-.567.423-.661.846-.661h3.973c-.846-.756-1.268-1.512-1.1-2.647h-6.761c-.338 0-.676-.189-.676-.661 0-.473.254-.662.676-.662h.254c1.775 0 3.55-.094 5.325 0 1.268.095 2.283-.189 3.044-1.418l.253-.283c.592-.473 1.606-.662 2.113 0 .677.756 1.268.567 1.945.283.253-.094.507-.189.76-.189.677-.189 1.353-.283 2.198-.378-.084-.756 0-1.701-.338-2.363-.676-1.512-1.268-3.024-1.606-4.631a31.712 31.712 0 0 0-.592-2.741c-.084-.473-.338-.662-.76-.662h-12.26c-.169 0-.422.095-.591-.094-.17-.095-.423-.378-.423-.662 0-.189.254-.472.423-.567.169-.095.422-.095.591-.095H28.91c-.085-.188-.17-.283-.17-.377-.676-1.324-1.183-2.742-1.267-4.348-.085-.662.169-1.04.676-1.324 1.183-.661 2.113-1.512 2.62-2.93.17-.378.423-.472.761-.472.676 0 1.352 0 2.113-.095.085-3.402.085-6.994.085-10.586Zm8.03 33.649c.085.094.17.283.338.378.592.756.592.945-.084 1.606-1.014 1.04-1.944 2.08-2.959 3.12-.169.189-.422.472-.676.567-.254 0-.507-.19-.845-.378 0 .283-.085.567 0 .756l.507 3.119c.253 1.607.507 3.213.76 4.726h5.242v-5.01c0-.472.084-.85.591-.85.508 0 .592.378.592.85v5.104h3.128v-7.183c0-.662-.17-1.418-.423-2.08-1.183-3.024-3.466-4.347-6.17-4.725Zm-10.566-.19a8.629 8.629 0 0 0-3.55 1.324c-1.945 1.418-3.128 3.308-3.043 5.954v6.617h3.127v-5.01c0-.472.085-.945.592-.945s.592.473.592.945v5.01h5.156c.423-2.647.93-5.293 1.352-7.94 0-.189-.084-.472-.084-.85-.423.472-.76.85-1.184.378-1.183-1.23-2.366-2.458-3.55-3.781a.682.682 0 0 1 0-.945c.085-.095.254-.378.592-.756Zm9.298-21.172c-1.521-.094-2.958-.377-4.057-1.7-1.184 1.133-1.184 1.133-4.058 1.7.085.19.085.379.17.568.337 1.228.337 2.552-.17 3.686-.169.283-.422.567-.676.662-.76.378-1.606.661-2.367 1.04.507 1.322.507 1.322 1.775 1.322h10.82c.846 0 1.353-.283 1.606-1.228v-.19c-.76-.283-1.606-.566-2.282-.944-.253-.095-.592-.379-.676-.662-.676-1.323-.592-2.741-.085-4.254Zm-9.383 12.193c.085.284.085.567.17.851.591 2.08 1.267 4.064 2.789 5.577 1.437 1.417 3.043 1.417 4.48.094 1.86-1.701 2.536-4.064 3.128-6.522-3.466 2.363-6.932 2.363-10.567 0Zm11.496-3.497H30.347c.253.945.676 1.701 1.352 2.269 1.437 1.323 3.128 1.701 4.903 1.701 1.775 0 3.381-.473 4.734-1.796.591-.567 1.099-1.323 1.267-2.174Zm-4.987 26.465c-.338-2.268-.76-4.442-1.099-6.71h-.084c-.338 2.268-.761 4.442-1.1 6.71h2.283Zm-4.48-15.784c-.169.567 0 .85.423 1.134.845.662 1.69 1.323 2.451 1.985.254.189.423.283.676 0 .846-.756 1.776-1.418 2.705-2.174.339-.284.339-.567.254-.945-2.113 2.08-4.227 2.08-6.509 0Zm2.451 4.442c-1.014-.85-2.028-1.607-2.958-2.457-.338.378-.592.756-.93 1.134.93.945 1.86 1.89 2.79 2.93.338-.567.676-1.04 1.099-1.607Zm2.79 1.607c.93-1.04 1.86-1.985 2.79-2.93-.339-.378-.592-.756-.93-1.134-1.015.85-1.945 1.606-2.959 2.457.338.567.676 1.04 1.099 1.607Zm-6.763-24.48a72.396 72.396 0 0 0-2.62 2.268.769.769 0 0 0-.169.473c0 .378.17.756.17 1.229.675-.284 1.182-.568 1.774-.757.592-.189.846-.661.846-1.228.084-.757 0-1.418 0-1.985Zm9.806 0c-.254.756-.254 1.606 0 2.457.085.19.17.378.254.378.76.284 1.521.662 2.282.945.085-.472.17-.85.17-1.228 0-.095-.085-.378-.17-.473a38.669 38.669 0 0 1-2.536-2.08Zm-14.624 20.51c-.422-.567-.76-.567-1.268 0l-1.268 1.418c-.507.567-.422.945 0 1.418l2.536-2.836Zm21.725 2.836c.422-.473.507-.851 0-1.418-.423-.473-.846-1.04-1.353-1.512-.422-.473-.845-.473-1.183.094l2.536 2.836Zm-12.088.472c-.592.662-.592.756 0 1.323.169-.283.253-.472.338-.756-.085-.189-.17-.378-.338-.567Z" fill="#000"/></svg>