<svg width="133" height="131" fill="none" xmlns="http://www.w3.org/2000/svg"><g fill="#6D6E71" clip-path="url(#a)"><path d="M26.458 115.885c-.511.907-.818 1.814-1.43 2.62-2.043 2.821-4.802 4.131-8.275 3.728-3.473-.403-5.925-2.217-7.252-5.441-.409-.907-.818-1.109-1.737-1.109-2.554.101-5.108 0-7.866 0V96.638c0-.806.307-1.612.715-2.318 3.576-5.643 7.151-11.286 10.624-16.929.51-.806 1.022-1.109 1.941-1.109 3.882.101 7.866 0 11.747 0h1.533v-3.728c0-4.434 2.758-7.155 7.252-7.155h32.688V20.356c3.065 1.511 5.823 2.821 8.888 4.333V-.101H93.06v32.247c0 .907.204 1.511 1.123 1.813 1.022.403 2.043 1.008 3.27 1.613V20.255l13.279 6.55V-.101h17.774v34.262c0 1.008.204 1.814 1.226 2.015 2.758.706 3.269 2.419 3.269 5.14-.103 29.323-.103 58.546-.103 87.87v1.713H.001v-4.232h128.403V42.021c0-1.108-.307-1.713-1.328-2.217l-23.903-11.79c-.409-.201-.818-.403-1.43-.605v81.523H97.35V41.82c0-1.109-.306-1.613-1.328-2.016-8.07-3.93-16.038-7.86-24.005-11.79-.409-.201-.715-.302-1.226-.504V65.4h15.016c4.188 0 7.048 2.72 7.048 6.953v38.896c.715 0 1.43.101 2.146.101v4.333H82.743c-.41 0-1.124.403-1.328.806-1.84 3.628-4.7 5.744-8.888 5.643-4.086 0-6.946-2.116-8.682-5.643-.205-.403-.715-.806-1.124-.806H26.458c.102.202 0 .202 0 .202Zm62.21-4.434V73.058c0-2.419-.716-3.023-3.167-3.023H34.119c-2.452 0-3.065.604-3.065 3.023v38.292h32.382c1.737-5.038 4.699-7.658 9.092-7.759 5.311 0 8.478 2.922 9.908 7.86h6.231ZM26.56 80.918H15.017c-.307 0-.715.403-.92.806-1.634 2.52-3.166 5.038-4.8 7.457-.92 1.511-1.942 3.023-2.963 4.635H26.56V80.918ZM4.495 111.35h4.597c2.043-4.333 4.495-6.348 8.172-6.449 4.597-.101 7.56 2.217 9.296 6.751v-13.2H4.495v12.898Zm119.516-98.149h-8.785v15.418c0 .302.103.705.307.806 2.758 1.41 5.516 2.72 8.478 4.232V13.201Zm-35.446 0H79.78v13.302c0 .302.204.705.409.806 2.758 1.41 5.516 2.72 8.376 4.131V13.201ZM67.83 112.962c0 2.822 2.145 5.039 5.005 5.14 2.758 0 5.108-2.318 5.108-5.039 0-2.721-2.35-5.038-5.108-5.038-2.758-.101-5.005 2.217-5.005 4.937Zm-45.662.706c0-2.419-1.94-4.333-4.392-4.434-2.452 0-4.495 1.915-4.495 4.434 0 2.418 2.043 4.333 4.393 4.333 2.451 0 4.494-1.915 4.494-4.333ZM79.78 8.666h8.785V4.535H79.78v4.131Zm35.549-4.232v4.232h8.682V4.434h-8.682Z"/><path d="M53.22 34.866c-1.531.403-3.064.806-4.596 1.109-1.43.403-2.043 1.713-1.328 2.922.817 1.31 1.635 2.62 2.554 4.03-1.941 1.916-3.882 3.83-5.823 5.644-.204.202-.715.1-1.021 0a35.278 35.278 0 0 1-3.269-2.015c-1.328-.807-2.758-.303-3.065 1.209a44.647 44.647 0 0 0-1.225 4.635h-8.785c-.409-1.511-.715-3.124-1.124-4.635-.306-1.21-1.736-1.814-2.86-1.21a68.347 68.347 0 0 0-3.984 2.419l-6.231-6.147c.715-1.21 1.634-2.52 2.451-3.93.715-1.21.103-2.52-1.225-2.922-1.533-.403-3.065-.706-4.597-1.109v-8.565c1.328-.302 2.656-.605 4.086-1.008 2.145-.504 2.656-1.713 1.532-3.527-.715-1.108-1.43-2.217-2.043-3.426v-.1c2.043-2.016 4.086-4.031 6.13-6.147l3.983 2.418c1.124.705 2.554.1 2.86-1.108.409-1.512.817-3.124 1.124-4.636h8.683c.408 1.512.715 3.023 1.123 4.636.307 1.31 1.737 1.914 2.963 1.209 0 0 .102 0 .102-.101 1.328-.806 2.758-2.217 4.086-2.116 1.226.1 2.247 1.914 3.269 2.922.919.907 1.838 1.713 2.86 2.72a413.084 413.084 0 0 1-2.554 4.132c-.715 1.21-.204 2.62 1.328 2.923 1.532.403 3.065.705 4.597 1.108v8.666Zm-4.494-5.139c-.408-.1-.715-.302-1.021-.302-2.554-.101-3.78-1.613-4.7-3.93-1.02-2.318-.816-4.031.716-5.845.408-.504.51-.907 0-1.511-.613-.605-1.022-.504-1.532 0-1.941 1.713-3.882 1.612-6.232.604-2.145-.907-3.473-1.914-3.575-4.232-.102-1.31-.817-1.512-2.043-1.21-.102.404-.306.807-.306 1.21-.103 2.318-1.533 3.325-3.678 4.232-2.35 1.109-4.29 1.109-6.23-.604-.512-.403-.92-.504-1.533 0-.613.604-.511 1.007 0 1.511 1.94 2.016 1.838 4.03.408 6.248-.306.504-.408 1.21-.817 1.713-.408.504-.817 1.008-1.43 1.21-1.021.402-2.247.604-3.269.805v1.713c.613.202 1.124.404 1.635.404 2.043.1 2.962 1.31 3.78 3.123 1.123 2.419 1.531 4.535-.512 6.651-.204.202-.102 1.008.103 1.31.306.302.919.302 1.328.202.919-.404 1.634-1.008 2.451-1.411.307-.202.715-.303 1.022-.202 3.064 1.21 6.844 1.713 6.742 6.248 0 .1.102.201.204.302h1.634c.103-.403.205-.806.307-1.108.204-2.419 1.532-3.527 3.78-4.434 2.247-.907 4.085-1.108 6.026.605.102.1.205.201.307.201.408 0 1.021 0 1.226-.201.204-.202.408-.907.204-1.21-.409-.907-1.022-1.612-1.43-2.418-.205-.302-.409-.706-.307-1.008.715-1.814 1.226-3.93 2.452-5.441.613-.806 2.35-.806 3.575-1.21.307-.1.51-.201.817-.302-.102-.604-.102-1.108-.102-1.713Z"/><path d="M5.62 38.695a45.89 45.89 0 0 0-3.984 1.31C-3.063 27.308 2.35 9.674 18.797 2.52c15.323-6.65 33.506.302 40.554 15.62 7.048 15.518-.306 32.649-13.995 39.5-.613-1.208-1.328-2.418-2.043-3.728 7.56-4.232 12.36-10.379 13.893-18.843 1.123-6.046.102-11.79-2.86-17.131C48.216 6.852 34.937 1.814 22.78 5.643 11.136 9.371.717 22.875 5.62 38.695Zm85.192 5.14v17.332H77.736V43.835h13.076Zm-4.495 13v-8.566h-4.188v8.565h4.188Zm22.372-13.101h13.076v17.332h-13.076V43.734Zm4.393 4.434v8.666h4.29v-8.666h-4.29Zm8.683 37.082h-13.076V67.919h13.076v17.333Zm-8.683-13.1v8.667h4.29V72.15h-4.29Zm-4.393 19.752h13.076v17.332h-13.076V91.902Zm8.683 12.898v-8.565h-4.29v8.565h4.29Zm-92.55-48.57c-.306 1.31-.613 2.72-1.021 4.333-2.452-.907-4.699-1.714-7.15-2.62.714-1.411 1.327-2.52 2.042-3.83a73.61 73.61 0 0 1 6.13 2.116ZM9.5 52.803c-1.634-1.914-3.166-3.829-4.8-5.744 1.43-.906 2.553-1.612 3.779-2.317 1.43 1.713 2.758 3.224 4.086 4.937-1.022.907-1.941 1.915-3.065 3.124Zm21.555 4.132c1.838-.202 3.575-.504 5.21-.605.306 0 .919.403 1.02.706.307 1.007.512 2.116.818 3.426l-7.048.906v-4.433Zm10.929 50.082h-4.29v-32.65h4.29v32.65Zm9.092-32.649h4.29v32.649h-4.29v-32.65Zm13.28 0h4.29v26.099h-4.29v-26.1Zm17.569 26.099h-4.29v-26.1h4.29v26.1Z"/><path d="M39.839 30.634c0 4.837-3.984 8.767-8.887 8.767-4.802 0-8.785-3.93-8.888-8.666 0-4.837 3.882-8.767 8.785-8.868 5.006 0 8.99 3.93 8.99 8.767ZM31.054 26.2c-2.452 0-4.393 1.915-4.495 4.233-.102 2.418 1.94 4.433 4.392 4.433 2.35 0 4.393-2.015 4.393-4.333.102-2.317-1.839-4.232-4.29-4.333Z"/></g><defs><clipPath id="a"><path fill="#fff" d="M0 0h133v131H0z"/></clipPath></defs></svg>