<svg width="134" height="115" fill="none" xmlns="http://www.w3.org/2000/svg"><g clip-path="url(#a)"><path d="M0 4.6c.212-.418.318-.836.53-1.254C1.693.94 4.34-.418 6.985.105c5.399.94 10.797 1.882 16.09 2.823 2.54.418 2.858 1.045 2.54 4.39 1.165.21 2.33.523 3.494.628 5.292.523 8.891 2.822 9.526 8.572 2.858.21 5.61.314 8.363.419 14.502.732 29.003 1.568 43.505 2.3 10.586.522 21.171 1.045 31.862 1.672.953 0 1.799.105 2.752.21 2.329.418 4.023 2.404 4.023 4.913.105 4.6 0 9.2 0 13.8 0 1.255-.847 2.091-2.012 2.091-1.058 0-1.799-.836-1.905-2.195 0-.314 0-.628-.106-.941h-24.769c.317 3.868.635 7.527.952 11.395 7.939-.523 15.878-1.045 23.711-1.568.106-.523.106-.94.106-1.255.212-.94.847-1.568 1.8-1.568 1.058-.104 1.693.523 2.011 1.464 0 .104.106.209.106.209-.106 3.24.211 6.586-.318 9.723-.953 5.645-5.398 9.304-11.855 10.036l-39.378 4.705c-3.81.418-7.727.836-11.538 1.359-.317 0-.846.209-.952.418-1.588 2.3-3.176 4.6-4.658 7.004v.419h16.936c.424 0 .953 0 1.377.104 1.058.21 1.588.941 1.482 1.987-.106.94-.635 1.568-1.694 1.672H59.701c-1.588 0-2.964-.313-3.705-1.777-.847-1.464-.317-2.823.53-4.077 1.164-1.569 2.222-3.241 3.493-5.019-1.694 0-3.176 0-3.917 1.673-.423.837-1.058 1.673-1.694 2.51-1.376 1.986-1.587 3.972-.423 6.063 1.164 1.986 2.964 2.927 5.293 2.927h68.381c.423 0 .846.105 1.164-.104.318-.21.847-.628.847-.941 0-.314-.318-.941-.741-1.046-.424-.209-1.059-.209-1.482-.209h-40.33c-2.011 0-2.964-.627-2.964-1.882 0-1.359.953-1.986 3.07-1.986h40.753c2.435 0 4.34.732 5.399 3.032 1.376 3.24-.953 6.795-4.446 6.9-2.646.104-5.293 0-7.939.104l-.212.21v6.377c0 .313.424.627.741.836 2.223 1.464 3.282 3.973 2.435 6.377-.741 2.405-3.176 3.973-5.61 3.764-2.647-.209-4.764-2.091-5.081-4.704-.318-2.091.423-3.973 2.328-5.123 1.165-.732 1.376-1.464 1.059-2.823-.424.105-.847.21-1.27.418a7.523 7.523 0 0 0-3.388 10.35c2.117 3.764 6.987 5.123 10.692 2.823 3.704-2.3 4.657-7.109 2.222-10.56-.211-.313-.529-.626-.741-.94-.635-.94-.529-1.986.318-2.614.847-.627 1.905-.522 2.646.314 2.012 2.195 2.964 4.809 2.858 7.841-.211 6.064-4.763 10.664-10.902 11.082-5.505.418-10.903-3.764-11.856-9.2-1.059-5.855 2.329-11.396 8.151-13.173.635-.21 1.587-.105 1.164-1.255H65.205v6.796c0 .209.53.523.741.732 2.223 1.463 3.282 3.972 2.435 6.377-.741 2.3-3.07 3.868-5.504 3.764-2.647-.209-4.764-1.987-5.187-4.705-.318-2.195.423-4.077 2.329-5.227 1.164-.732 1.27-1.568 1.058-2.614-2.329.21-4.657 2.51-5.398 5.227-.847 3.45.74 7.005 3.916 8.573 3.07 1.568 6.88.837 9.103-1.777 2.33-2.718 2.435-6.586.318-9.41-.212-.208-.423-.417-.53-.731-.634-.94-.423-1.777.318-2.51.741-.73 1.906-.626 2.647.21 1.482 1.568 2.434 3.45 2.752 5.645 1.058 6.064-2.964 11.919-8.998 13.173-6.14 1.255-12.067-2.509-13.549-8.573-1.482-5.854 2.117-11.918 8.045-13.59 1.059-.314 1.059-.314 1.164-1.255-4.34.314-8.15-.732-10.479-4.705-2.223-3.868-1.588-7.631 1.164-11.29-.529-.105-.952-.105-1.376-.21-2.01-.522-3.281-1.881-3.705-3.868-2.752-12.336-5.504-24.777-8.362-37.113l-4.128-18.191c-.424-2.091-1.694-3.241-3.705-3.66-1.905-.313-3.81-.731-5.716-1.045-.106.105-.212.105-.212.21-.423 3.031-1.482 3.554-4.552 2.927-4.657-.941-9.209-1.778-13.866-2.405C3.176 11.5.953 10.141 0 7.004V4.6Zm67.428 30.737c-.106-.523-.106-1.046-.211-1.36-.53-3.658-1.165-7.213-1.588-10.768-.106-1.15-.635-1.463-1.694-1.568-6.669-.313-13.232-.732-19.9-1.045-1.376-.105-2.858 0-4.34 0 1.058 4.495 2.011 8.99 2.964 13.486.211.941.529 1.255 1.587 1.255 7.304-.105 14.502-.105 21.806-.105.424.105.847.105 1.376.105Zm.741 3.972H43.93c1.164 4.914 2.223 9.723 3.281 14.637 7.728-.523 15.35-1.046 23.076-1.568-.74-4.391-1.482-8.678-2.117-13.069Zm1.27-17.25c0 .523 0 .837.106 1.15.53 3.555 1.165 7.005 1.694 10.56.212 1.359.741 1.568 1.905 1.568 7.304-.105 14.502-.105 21.806-.21h1.376c-.317-3.659-.635-7.004-.847-10.454-.105-.94-.423-1.359-1.376-1.359-3.175-.105-6.245-.314-9.42-.523-5.082-.209-10.057-.523-15.244-.732ZM47.951 57.71c.847 3.973 1.694 7.737 2.54 11.5.53 2.196.53 2.196 2.859 1.987 4.34-.523 8.68-1.046 12.914-1.568 2.117-.21 4.234-.523 6.457-.837-.635-4.286-1.376-8.363-2.011-12.545-7.516.523-15.031 1.045-22.759 1.463Zm48.587-18.504H72.086c.74 4.39 1.376 8.677 2.117 12.964 7.833-.523 15.56-1.046 23.393-1.569-.423-3.972-.74-7.736-1.058-11.395Zm28.792-4.286v-7.632c0-2.196-.212-2.405-2.435-2.51-6.563-.313-13.02-.731-19.583-1.045-1.376-.104-2.646 0-4.128 0 .318 3.764.635 7.527.953 11.187h25.193ZM98.867 65.76c-.318-3.868-.636-7.527-.953-11.29-7.727.522-15.455 1.045-23.076 1.568.635 4.181 1.376 8.259 2.011 12.336 7.304-.836 14.608-1.673 22.018-2.614Zm3.916-.418c5.399-.732 10.691-1.15 15.984-2.09 4.763-.837 7.621-5.855 6.351-10.56-7.727.523-15.454 1.046-23.288 1.568.318 3.764.636 7.319.953 11.082ZM21.7 6.587c-5.293-.941-10.374-1.778-15.455-2.718-1.164-.21-2.117.627-2.223 1.672-.211 1.15.318 1.987 1.482 2.196l3.176.627c4.022.732 8.15 1.464 12.279 2.09.317-1.254.53-2.508.74-3.867Zm43.188 97.018c0-.941-.53-1.568-1.482-1.568-.953 0-1.588.522-1.588 1.463 0 .941.53 1.569 1.482 1.569.953.104 1.482-.419 1.588-1.464Zm55.361-.105c-.106-.941-.635-1.463-1.588-1.463-.953 0-1.588.627-1.482 1.568 0 .941.635 1.568 1.588 1.464.953.104 1.482-.523 1.482-1.569Z" fill="#6D6E71"/></g><defs><clipPath id="a"><path fill="#fff" d="M0 0h133.798v115H0z"/></clipPath></defs></svg>