<svg width="114" height="115" fill="none" xmlns="http://www.w3.org/2000/svg"><g fill="#6D6E71" clip-path="url(#a)"><path d="M94.88 76.604c2.876.094 5.473.656 7.977 1.78 7.698 3.652 12.057 11.987 10.759 20.602-1.299 8.148-7.976 14.609-16.138 15.733-.928.094-1.855.187-2.69.187H19.291C8.44 114.906 0 106.197.185 95.24c.186-9.833 8.162-18.167 17.993-18.636h1.02V51.038c0-2.528.743-4.776 2.227-6.742 4.08-5.432 3.431-3.934 3.431-11.332 0-.093 0-.187-.093-.374-1.483-.188-3.71.468-3.617-2.06.093-2.248 2.134-1.686 3.71-1.874v-1.404c.093-3.465 2.69-6.181 6.122-6.181h10.295c3.617 0 6.306 2.622 6.306 6.274v1.311c1.577.188 3.803-.468 3.71 2.154-.092 2.248-2.133 1.686-3.71 1.873 0 1.967-.185 3.934.093 5.9.093 1.03.65 2.248 1.299 2.997 3.431 3.746 4.544 8.054 4.359 13.11-.464 7.118-.186 14.422-.186 21.82h7.606V50.946c0-2.529.649-4.683 2.226-6.65.185-.28.463-.561.649-.842 3.06-4.214 3.431-5.432 2.782-10.863h-1.762c-1.206-.094-1.948-.75-1.948-1.967V19.291c0-1.217.742-1.872 1.948-1.966h1.762v-5.713H6.585c-4.266 0-6.492-2.247-6.492-6.555V2.528C0 .657.649 0 2.319 0h108.514c2.597 0 2.968.468 2.968 3.09v2.53c0 3.465-2.411 5.9-5.843 5.9H89.223v5.712h1.762c1.206.094 1.948.75 1.948 1.873v11.519c0 1.124-.742 1.78-1.855 1.873h-1.855c0 2.06-.185 4.12.093 5.993.093 1.03.65 2.154 1.391 2.997 3.34 3.652 4.452 7.867 4.267 12.83-.279 6.93-.093 13.86-.093 20.79v1.498Zm-37.84 3.84H18.828c-9.739.093-16.88 9.365-14.562 18.917 1.67 7.023 7.698 11.799 14.933 11.799h76.238c7.791-.187 14.376-6.836 14.562-14.702.278-8.803-6.493-15.92-15.21-15.92-12.615-.094-25.228-.094-37.75-.094Zm-7.698-3.84V54.13c0-5.994.463-5.057-3.34-10.02-1.669-2.155-2.503-4.59-2.41-7.305.092-1.405 0-2.716 0-4.12H28.565c-.093.093-.093.187-.093.28 0 .281-.092.656 0 .937.65 4.87-.834 9.083-4.173 12.736-.186.187-.279.374-.371.562-.371.749-.928 1.592-.928 2.435-.092 2.622 0 5.244 0 7.96h9.182c5.658 0 9.739 4.12 9.739 9.833v9.271c2.411-.094 4.823-.094 7.42-.094ZM64.552 57.5c3.246 0 6.493-.094 9.646 0 3.525.094 6.307 1.78 8.07 4.776.927 1.498 1.298 3.278 1.298 5.057v9.178h7.605v-1.405c0-7.117-.186-14.328.093-21.446.092-3.652-.65-6.742-3.154-9.364-2.04-2.154-2.782-4.87-2.597-7.867.093-1.31 0-2.622 0-3.84H70.395v.656c.186 8.241-.278 7.96-4.451 13.673-.65.843-1.114 1.966-1.114 2.903-.37 2.528-.278 5.057-.278 7.679ZM110 3.933H3.803C3.617 7.305 3.988 7.68 7.14 7.68h101.095c1.021-.093 1.577-.749 1.67-1.686.185-.655.093-1.404.093-2.06ZM22.816 61.34v15.17h15.118v-1.123c0-2.903.092-5.713 0-8.616-.093-2.903-2.412-5.338-5.194-5.431-3.246-.094-6.585 0-9.924 0Zm41.736 0v15.264H79.67v-9.833c-.185-2.81-2.411-5.244-5.194-5.338-3.246-.187-6.492-.093-9.924-.093ZM89.13 21.164H66.5v7.492h22.63v-7.491Zm-3.802-9.645H70.303v5.619h15.025v-5.62ZM43.59 28.75c.279-2.903-.463-3.84-3.153-3.84H31.72c-2.597 0-3.525 1.124-2.968 3.84H43.59Z"/><path d="M18.92 107.321c-6.307 0-11.408-5.151-11.408-11.52 0-6.367 5.1-11.518 11.408-11.518 6.306 0 11.408 5.245 11.408 11.613 0 6.274-5.194 11.425-11.408 11.425Zm7.605-11.52c0-4.213-3.432-7.678-7.605-7.678-4.174 0-7.513 3.465-7.513 7.585 0 4.215 3.339 7.679 7.605 7.679 4.174.094 7.513-3.371 7.513-7.585Zm5.75.001c0-6.368 5.102-11.519 11.316-11.519 6.306 0 11.408 5.15 11.408 11.519 0 6.274-5.102 11.519-11.408 11.519-6.215 0-11.316-5.151-11.316-11.52Zm18.92 0c0-4.214-3.43-7.68-7.604-7.68-4.174 0-7.513 3.372-7.606 7.586 0 4.215 3.34 7.679 7.513 7.773 4.266 0 7.698-3.465 7.698-7.68Zm7.608 0c0-6.368 5.1-11.519 11.315-11.519 6.307 0 11.408 5.15 11.408 11.425s-5.101 11.519-11.315 11.519c-6.214.094-11.408-5.057-11.408-11.425Zm11.408 7.679c4.173 0 7.605-3.465 7.605-7.68 0-4.213-3.432-7.678-7.698-7.585-4.174 0-7.513 3.465-7.513 7.68 0 4.12 3.432 7.585 7.606 7.585ZM94.88 84.283c6.215 0 11.409 5.15 11.409 11.519 0 6.368-5.102 11.519-11.408 11.519-6.215 0-11.316-5.151-11.408-11.332 0-6.462 5.1-11.706 11.408-11.706Zm7.606 11.519c0-4.214-3.432-7.68-7.605-7.68-4.174 0-7.606 3.466-7.513 7.774 0 4.214 3.432 7.585 7.605 7.585 4.081 0 7.513-3.465 7.513-7.68Z"/><path d="M19.106 90.558c2.875 0 5.194 2.435 5.101 5.338-.093 2.903-2.411 5.244-5.287 5.15-2.875 0-5.193-2.434-5.193-5.431.092-2.81 2.504-5.15 5.379-5.057Zm-.186 3.84c-.834.093-1.39.561-1.39 1.498 0 .843.556 1.405 1.483 1.31.835 0 1.299-.561 1.299-1.404.092-.936-.464-1.31-1.392-1.405Zm29.958 1.31c0 2.904-2.319 5.245-5.101 5.338-2.875 0-5.287-2.34-5.287-5.244 0-2.903 2.319-5.244 5.194-5.244 2.783-.094 5.101 2.341 5.194 5.15Zm-3.803 0c-.185-.749-.556-1.404-1.484-1.31-.834 0-1.39.561-1.298 1.498 0 .843.556 1.31 1.391 1.31s1.299-.561 1.391-1.498Zm30.328 0c0 2.904-2.318 5.245-5.1 5.338-2.876 0-5.287-2.34-5.287-5.244 0-2.903 2.318-5.244 5.194-5.244 2.782-.094 5.193 2.341 5.193 5.15Zm-3.802.094c-.093-.843-.557-1.405-1.484-1.405-.835 0-1.392.562-1.299 1.499 0 .843.557 1.31 1.392 1.31.834 0 1.298-.561 1.39-1.404Zm23.187 5.244c-2.876 0-5.194-2.435-5.194-5.244 0-2.903 2.318-5.244 5.194-5.244 2.875 0 5.286 2.434 5.194 5.338.092 2.809-2.32 5.15-5.194 5.15Zm1.484-5.244c-.093-.75-.557-1.405-1.392-1.405-.834 0-1.39.468-1.39 1.311-.094.843.463 1.405 1.298 1.499.927 0 1.39-.562 1.484-1.405Z"/></g><defs><clipPath id="a"><path fill="#fff" d="M0 0h113.894v115H0z"/></clipPath></defs></svg>