<svg width="219" height="186" fill="none" xmlns="http://www.w3.org/2000/svg"><g fill="#FFB902" clip-path="url(#a)"><path d="M1.885 180.484C0 178.167 0 174.637 0 170.996V16.658C0 10.04 3.327 5.406 9.093 3.972c1.33-.331 2.772-.331 4.102-.331h95.806c8.316 0 13.085 4.633 13.085 12.907v82.078h18.185c-1.663-.772-3.105-1.213-4.436-1.985-1.885-1.104-3.991-2.097-5.544-3.53-4.324-4.193-3.659-9.82 1.442-13.129 4.435-2.868 9.425-3.861 14.526-4.302 10.423-.883 20.846-1.434 31.27-2.427a45.448 45.448 0 0 0 10.201-2.207c3.659-1.213 3.992-3.971.665-5.847-3.881-2.096-8.205-3.42-12.419-5.074-.665-.221-1.33-.331-1.996-.442-1.552-.33-2.661-1.103-2.217-2.758.443-1.654 1.774-1.985 3.215-1.434 4.768 1.655 9.758 3.09 14.305 5.185 3.437 1.545 6.209 4.192 5.655 8.495-.555 4.192-3.881 6.067-7.43 6.84a122.46 122.46 0 0 1-15.524 2.316c-8.538.773-17.187 1.104-25.836 1.986-3.327.331-6.542 1.324-9.758 2.207-2.107.662-4.325 1.765-4.436 4.302-.11 2.648 1.885 4.303 3.992 5.075 4.99 1.875 9.98 3.64 15.192 4.964 5.211 1.434 10.534 2.207 16.078 1.986 4.325-.22 6.432 2.096 6.432 6.399v6.619h2.661c8.538 0 17.076.11 25.725 0 3.992 0 6.654 1.655 8.206 5.295 2.661 6.288 5.433 12.577 7.984 18.865a9.523 9.523 0 0 1 .665 3.53c.111 7.943-.111 15.997.111 23.94.111 5.405-2.772 9.267-8.76 8.715h-1.663c-.555 1.655-.998 3.199-1.774 4.744-.777 1.434-1.775 2.868-2.884 4.633h12.309c1.441 0 2.661.662 2.661 2.207 0 1.544-1.109 2.206-2.661 2.206H3.548c-1.33 0-3.104.221-3.326-1.544 0-1.104.998-2.317 1.663-3.972ZM107.67 33.096H14.526v123.338h78.507v-50.637c0-4.854 2.107-6.95 6.875-6.95h7.762v-65.75ZM93.033 160.957H13.75c-3.549 0-3.881-.331-3.881-3.751V32.434c0-3.53.332-3.861 3.992-3.861h94.475c3.548 0 3.881.331 3.992 3.861v66.303h5.211c0-.662.111-1.103.111-1.655V15.997c0-5.075-2.994-8.054-8.205-8.054H12.752c-5.323 0-8.206 2.979-8.206 8.274v157.096c0 5.185 2.883 8.164 8.206 8.164h96.471c.554 0 1.22-.11 1.552-.11-1.552-3.089-2.994-5.958-4.546-9.157h-8.982c-2.772 0-4.214-1.544-4.325-4.302 0-2.207.111-4.303.111-6.951Zm76.068-2.206c.111-.772.111-1.324.111-1.765v-51.189c0-2.206-1.109-2.427-2.883-2.427h-65.977c-2.218 0-2.994.552-2.994 2.868.11 16.659 0 33.428.11 50.086 0 .772.112 1.434.112 2.427 3.992 0 7.873.11 11.754-.11 1.219 0 2.55-.442 3.548-1.214 5.877-4.192 13.417-4.302 19.294-.11 1.109.772 2.551 1.213 3.881 1.324 10.202.11 20.292.11 30.494.11h2.55Zm4.768-42.253v42.363c2.107 0 3.992.111 5.877 0 1.109-.11 2.218-.441 3.105-1.103 6.099-4.523 13.639-4.523 19.738.11.554.442 1.109.993 1.774.993 3.327.111 6.653 0 10.202 0v-19.747c0-.662-.444-1.324-.666-1.876-2.439-5.626-4.99-11.252-7.207-16.989-1.109-2.868-2.883-3.861-5.877-3.751-7.43.221-14.859.111-22.178.111-1.663-.111-3.104-.111-4.768-.111Zm7.097 64.869c-1.441-2.979-2.994-5.958-4.546-9.047h-37.48c-1.663 3.2-3.105 6.178-4.546 9.047h46.572Zm23.064-11.363c0-6.289-5.1-11.253-11.421-11.253-6.32 0-11.31 5.075-11.421 11.363 0 6.288 5.101 11.363 11.532 11.363 6.431-.11 11.421-5.185 11.31-11.473Zm-81.612 11.363c6.321 0 11.421-4.855 11.532-11.143.111-6.288-4.989-11.473-11.421-11.473-6.32 0-11.31 5.075-11.421 11.253 0 6.288 5.101 11.363 11.31 11.363Zm14.637-18.093c.222.662.444 1.103.444 1.545.222 2.537 1.663 3.089 4.103 3.089 10.312-.111 20.624-.111 30.937-.111 4.324 0 4.324 0 5.544-4.082 0-.11-.111-.22-.111-.441h-40.917Zm-39.475 4.523h7.762c.554 0 1.33-.441 1.552-.882.444-1.104.665-2.427.998-3.531H97.469c.11 1.435.11 2.758.11 4.413Zm116.763-4.413h-7.097c1.22 4.744 1.442 4.965 5.101 4.413 2.661-.551 2.107-2.537 1.996-4.413ZM174.756 0c13.417 0 22.399 13.018 17.52 25.705-3.216 8.384-9.204 14.893-15.857 20.85-.998.883-2.218 1.103-3.326.11-6.986-6.398-13.418-13.128-16.301-22.395C153.022 12.246 162.115 0 174.756 0Zm.111 42.142c1.996-2.096 3.881-3.971 5.655-5.957 3.327-3.971 6.431-8.053 7.984-13.128 1.885-6.068-.222-12.246-5.212-15.886-4.879-3.53-11.754-3.53-16.744-.11-5.211 3.64-7.429 9.928-5.433 16.106 2.439 7.612 7.873 13.239 13.75 18.975Z"/><path d="M60.986 98.516H33.71c-3.105 0-3.549-.441-3.549-3.53V47.217c0-3.2.555-3.75 3.66-3.75h54.334c3.215 0 3.77.55 3.77 3.86v47.549c0 3.199-.555 3.64-3.77 3.64H60.987Zm26.28-4.413V47.99H72.74v12.136c0 3.31-1.22 4.412-4.213 3.089-5.101-2.317-9.98-2.207-15.08 0-3.106 1.323-4.104.33-4.214-2.979V48.21H34.817v46.004c17.631-.11 35.04-.11 52.45-.11ZM54.001 47.99v10.702c4.879-2.759 9.536-2.538 14.193-.11V47.988H54.001Zm21.733 91.345c0 8.163-6.431 14.672-14.636 14.672-8.095 0-14.748-6.619-14.748-14.562s6.542-14.452 14.526-14.562a14.612 14.612 0 0 1 14.858 14.452Zm-14.636 10.259c5.655 0 10.201-4.523 10.201-10.149 0-5.516-4.546-10.149-10.202-10.149-5.766 0-10.312 4.523-10.312 10.259.11 5.627 4.657 10.039 10.313 10.039Zm-6.985-32.434h31.603c.665 0 1.552-.221 1.996.11.776.442 1.552 1.324 1.663 2.096.11.662-.776 1.655-1.442 1.986-.665.331-1.663.221-2.44.221H22.29c-1.774 0-3.992.331-3.992-2.207 0-2.537 2.107-2.206 3.88-2.206 10.646-.11 21.291 0 31.936 0Zm-5.103-6.729H22.177c-.665 0-1.552.22-1.996-.111-.776-.441-1.774-1.324-1.774-1.985.111-.773.998-1.655 1.774-2.207.444-.331 1.331-.11 1.996-.11H76.4c1.663 0 3.548 0 3.548 2.206 0 2.207-1.885 2.207-3.548 2.207H49.01Zm11.978 66.854H51.12c-3.77-.111-6.32-2.538-6.32-5.958 0-3.42 2.55-5.957 6.32-5.957h19.849c3.77 0 6.431 2.537 6.431 5.957s-2.66 5.958-6.32 6.068h-.444c-3.215-.11-6.431-.11-9.647-.11Zm.111-4.413c3.105 0 6.32.11 9.425-.11.777 0 1.553-.993 2.329-1.435-.776-.551-1.441-1.544-2.218-1.544-6.32-.11-12.64-.11-18.961 0-.776 0-1.553.993-2.329 1.544.776.552 1.553 1.545 2.329 1.545 2.994.11 6.21 0 9.425 0Zm-.001-156.875h13.307c1.552 0 2.994.33 2.994 2.206 0 1.986-1.442 2.206-2.994 2.206H47.57c-1.663 0-3.105-.44-2.994-2.206 0-1.875 1.442-2.206 3.105-2.206 4.436.11 8.982 0 13.417 0Zm96.138 114.953v-19.085c0-1.655.222-3.31 2.218-3.31s2.329 1.545 2.329 3.199v38.392c0 1.655-.333 3.199-2.329 3.199-1.885-.11-2.218-1.544-2.218-3.089V130.95Zm-33.487.111v19.306c0 1.544-.221 3.089-2.217 3.089-1.885 0-2.329-1.435-2.329-2.979v-38.943c0-1.655.444-3.089 2.329-2.979 1.885.111 2.217 1.545 2.107 3.089.11 6.509.11 13.018.11 19.417Zm8.206 0v-19.307c0-1.654.333-3.088 2.218-3.088s2.328 1.323 2.328 2.978v38.833c0 1.655-.554 2.979-2.328 2.979-1.885-.111-2.218-1.545-2.218-3.089v-19.306Zm-25.283 0v-19.086c0-1.655.111-3.309 2.218-3.309 1.996 0 2.328 1.544 2.328 3.199v38.391c0 1.655-.332 3.2-2.328 3.2-2.107 0-2.218-1.655-2.218-3.31v-19.085Zm42.359.11v19.085c0 1.545-.222 3.089-2.107 3.2-2.107.11-2.328-1.435-2.328-3.2v-38.612c0-1.544.332-3.089 2.217-3.089s2.218 1.434 2.218 3.089v19.527Zm44.798 7.833h-12.641c-2.107 0-3.105-.883-2.994-2.979 0-4.523.111-9.157 0-13.68 0-2.096.887-2.978 2.994-2.978h18.961c1.664 0 2.551.662 3.105 2.096 1.996 4.633 3.992 9.156 5.877 13.79.998 2.427.222 3.751-2.55 3.751h-12.752Zm-10.978-4.523h21.179c-1.109-2.538-1.996-4.855-2.994-7.061-1.441-3.53-1.441-3.42-5.433-3.42h-12.752v10.481Zm1.885 12.024c-1.331 0-2.661.221-3.881-.11-.776-.221-1.996-1.434-1.885-1.986.111-.883 1.22-2.096 1.996-2.096a45.52 45.52 0 0 1 7.762 0c.665.11 1.774 1.324 1.885 1.986 0 .772-.998 1.875-1.774 2.096-1.22.331-2.661 0-4.103.11Zm-.11 23.499c0-4.523 3.659-8.054 8.205-7.943 4.546.11 8.095 3.64 7.984 8.163 0 4.413-3.659 8.054-8.206 7.943-4.435-.11-8.094-3.64-7.983-8.163Zm11.753 0c0-1.986-1.663-3.641-3.659-3.641-1.996 0-3.77 1.765-3.659 3.751.111 1.986 1.663 3.53 3.77 3.53 1.996 0 3.548-1.544 3.548-3.64Zm-65.645.11c0 4.413-3.659 8.053-8.206 8.053-4.435 0-8.094-3.64-8.094-8.053 0-4.523 3.659-8.053 8.094-8.053 4.657 0 8.206 3.53 8.206 8.053Zm-8.206 3.53c1.996 0 3.66-1.544 3.66-3.53 0-1.986-1.775-3.751-3.771-3.751s-3.548 1.765-3.548 3.751c.111 1.986 1.663 3.53 3.659 3.53ZM174.756 8.715c5.101 0 9.314 4.193 9.314 9.267 0 5.075-4.213 9.267-9.314 9.267s-9.315-4.192-9.315-9.267c0-5.185 4.214-9.267 9.315-9.267Zm.111 4.413c-2.662 0-4.768 1.986-4.879 4.634 0 2.758 2.217 4.964 4.879 4.964 2.55 0 4.768-2.206 4.768-4.854s-2.107-4.744-4.768-4.744Z"/><path d="M73.85 83.843h6.21c1.553 0 2.772.552 2.772 2.207 0 1.654-1.33 2.206-2.883 2.206H67.641c-1.553 0-2.772-.662-2.661-2.427.11-1.655 1.22-2.096 2.66-2.096 2.108.11 4.104.11 6.21.11Zm0-2.317h-6.209c-1.552 0-2.772-.551-2.772-2.316 0-1.655 1.109-2.207 2.55-2.207h12.53c1.442 0 2.662.662 2.662 2.207 0 1.655-1.109 2.317-2.772 2.317H73.85Zm-15.08 57.808c1.773-1.875 3.326-3.53 4.99-5.074.997-.993 2.217-1.545 3.437-.331 1.22 1.213.776 2.427-.333 3.53-2.107 1.986-4.103 4.082-6.099 6.068-1.22 1.213-2.44 1.323-3.77.11-1.22-1.103-2.55-2.207-3.77-3.31-.998-.993-1.33-2.096-.222-3.199.998-1.103 2.107-.993 3.216-.11.665.662 1.441 1.434 2.55 2.316Z"/></g><defs><clipPath id="a"><path fill="#fff" d="M0 0h219v186H0z"/></clipPath></defs></svg>