<svg version="1.0" xmlns="http://www.w3.org/2000/svg" viewBox="0 0 194.5 175.5" style="enable-background:new 0 0 194.5 175.5" xml:space="preserve"><path d="M0 91.5V12.4c0-4.2.6-4.8 4.9-4.8h135.8c3.5 0 7 0 10.5.1.2 0 .4.1.6.2 1.2.5 1.6 2.2.7 3.2-.1.1-.2.2-.3.2-4.5 3.4-9.1 6.8-13.8 10-1.1.8-2.9 1-4.3 1-24.7.1-49.4.1-74 .1H17.9c-3 0-3.2.2-3.2 3v132.2c0 2.3.8 3 3.1 3 31.1-.1 62.1 0 93.2 0h38.1c3.7 0 3.7 0 3.7-3.8 0-30.8 0-61.7-.1-92.5 0-3.4.7-6.2 3.1-8.7 2.5-2.6 4.7-5.6 7.2-8.3.3-.4.8-.7 1.3-.9 1.1-.6 2.5-.1 3 1.1.2.5.4 1 .4 1.5.1 21.2.1 42.3.1 63.5V171c0 3.6-.8 4.4-4.3 4.4H4.9c-4.1 0-4.8-.6-4.8-4.7 0-26.3 0-52.7-.1-79.2z"/><path d="M49 47.1c4.1-.2 6.8 2.2 9.3 4.7 8.9 8.8 17.7 17.7 26.6 26.6 2.6 2.6 2.7 2.7 5.1-.2 11.8-14.2 24.4-27.6 38.4-39.7 9-7.7 18.3-15.1 28-22C165.5 10 175.3 4.2 186.1.7c1.3-.4 2.7-.7 4-.6 3.9.3 5.6 3.3 3.5 6.6-1.3 2.1-3 3.9-4.9 5.5-13.3 11.8-25.2 24.9-36.5 38.5-15.1 18-28.8 37-40.9 57.2-4.4 7.4-8.5 15-12.6 22.6-3.5 6.6-9.4 9.3-15.7 6.4-2.2-1-4.2-3.2-5.5-5.3-3.6-6-6.7-12.3-9.9-18.6-5-9.6-10.1-19.2-15.1-28.9-3.7-7-7.5-13.9-10.8-21.1-1.2-2.5-1.6-5.6-1.4-8.3.5-5 4-7.6 8.7-7.6z"/></svg>