<svg width="116" height="114" fill="none" xmlns="http://www.w3.org/2000/svg"><g fill="#6D6E71"><path d="M82.463 116.055c-2.121-.428-4.242-.748-6.256-1.282-6.362-1.816-11.451-5.768-15.587-10.896-18.449-22.752-36.898-45.504-55.347-68.15-7.634-9.4-6.892-22.11 1.802-30.015C11.21 1.973 16.088.264 21.495.264h39.761c12.512 0 25.024.107 37.641 0 9.013-.107 15.056 6.41 15.905 13.139 0 .106.106.213.212.32V88.39c-.106.214-.212.534-.212.748-1.485 12.604-10.073 22.752-22.267 26.063-1.696.427-3.393.641-5.195 1.068-1.59-.213-3.287-.213-4.877-.213Zm2.968-105.43h-45.91c3.498 6.623 4.029 13.353.848 20.082-3.181 6.73-8.589 10.575-16.01 12.07A9557.053 9557.053 0 0 0 55 80.485c2.544-11.43 8.906-19.547 19.721-23.393 10.815-3.845 20.782-1.602 29.901 5.555v-32.58c-5.832 1.603-11.133.534-15.48-3.738-4.348-4.487-5.408-9.72-3.712-15.703ZM84.69 112.85c14.844.107 27.038-11.963 27.144-26.918.106-15.168-11.876-27.559-26.826-27.559-15.056-.107-27.143 12.07-27.25 27.345-.105 14.634 12.194 27.025 26.932 27.132Zm3.075-97.418c0 6.623 5.407 12.07 11.981 12.07s11.982-5.447 11.982-12.07c0-6.73-5.408-12.177-12.088-12.177-6.468.107-11.875 5.554-11.875 12.177Zm-48.456 6.089c0-10.041-8.058-18.16-18.025-18.16-9.86 0-18.025 8.119-18.13 18.053 0 10.148 8.057 18.373 18.024 18.373s18.131-8.118 18.131-18.266Zm15.799 70.606c-.212-2.243-.318-4.165-.53-6.195-.106-.534-.212-1.175-.636-1.602-3.075-3.739-6.044-7.584-9.12-11.323-7.845-9.72-15.797-19.44-23.644-29.161-.318-.32-.636-.855-1.06-.855-1.803-.32-3.711-.64-5.62-.961 13.572 16.663 27.038 33.327 40.61 50.097ZM32.629 3.362c1.378 1.175 2.544 2.35 3.923 3.418.424.32 1.06.64 1.59.64 3.605.108 7.21 0 10.921 0h36.898c.425 0 .955 0 1.167-.213 1.06-1.175 2.12-2.563 3.18-3.845h-57.68Zm79.098 68.256V25.046c-1.061.961-2.121 1.922-3.287 2.777-.53.427-.742.855-.742 1.495v35.785c0 .32 0 .747.106.96 1.378 1.924 2.65 3.74 3.923 5.555Z"/><path d="M65.074 98.644c.318-.535.636-1.069.954-1.389 1.909-1.923 3.818-3.952 5.832-5.875.53-.427.636-.855.424-1.495-.954-2.778-.954-5.555 0-8.332.212-.641.106-1.068-.318-1.496-2.014-1.922-3.923-3.952-5.831-5.875-1.06-1.068-1.06-1.816 0-2.777 1.484-1.602 3.074-3.098 4.559-4.593.954-.962 1.696-.962 2.65 0 2.015 2.03 4.03 3.952 5.938 5.982.424.427.742.64 1.485.427 2.756-.961 5.513-.961 8.27 0 .636.214 1.06.107 1.59-.427a151.759 151.759 0 0 1 5.832-5.875c1.06-1.069 1.803-1.069 2.863 0l4.453 4.486c1.06 1.068 1.06 1.816 0 2.884-1.908 2.03-3.923 3.952-5.832 5.875-.424.427-.53.748-.318 1.389a12.795 12.795 0 0 1 0 8.438c-.212.534-.106.962.319 1.389 2.014 1.923 3.923 3.952 5.831 5.875 1.06 1.068 1.06 1.816 0 2.884-1.484 1.496-2.969 3.098-4.56 4.593-.953.962-1.802.962-2.756 0-2.014-1.922-3.923-3.952-5.832-5.875-.424-.534-.848-.64-1.59-.427-2.65.961-5.408.961-8.164 0-.636-.214-1.06-.107-1.59.32l-5.726 5.769c-1.167 1.175-1.909 1.175-3.075 0-1.485-1.496-2.97-2.884-4.347-4.38-.425-.534-.637-.961-1.06-1.495Zm4.03-25.957c2.014 1.923 3.922 3.952 5.937 5.875.954.854 1.166 1.709.53 2.884-1.272 2.67-1.166 5.448 0 8.118.636 1.496.636 1.816-.53 2.991l-5.832 5.875 2.863 2.884 5.726-5.768c1.272-1.282 1.378-1.282 3.075-.641 2.65 1.068 5.301 1.175 7.952 0 1.272-.534 2.12-.427 2.969.534 1.908 2.03 3.817 3.952 5.725 5.875.955-1.068 1.909-2.03 2.863-2.99-1.908-1.924-3.817-3.846-5.832-5.769-.954-.855-1.06-1.71-.53-2.884 1.167-2.564 1.167-5.234.106-7.905-.742-1.816-.742-1.922.637-3.311l5.619-5.661c-.954-1.069-1.908-1.923-2.863-2.991-1.908 2.03-3.923 3.952-5.831 5.982-.849.96-1.697 1.068-2.863.534-2.65-1.175-5.408-1.175-8.058 0-1.485.64-1.803.64-2.97-.534l-5.83-5.875c-.955.854-1.803 1.816-2.864 2.777ZM35.28 21.521c0 7.798-6.256 14.1-14.102 14.1-7.635 0-13.996-6.409-13.996-13.993 0-7.904 6.255-14.207 13.996-14.207 7.74 0 14.102 6.303 14.102 14.1Zm-3.181 0c0-5.981-4.878-11.002-10.815-11.002-6.044 0-10.921 4.914-10.921 11.002 0 6.089 4.877 11.003 10.92 11.003 5.938 0 10.816-4.914 10.816-11.003Z"/></g></svg>