<svg width="116" height="106" fill="none" xmlns="http://www.w3.org/2000/svg"><g fill="#6D6E71"><path d="M115.629 16.852c-.207.73-.311 1.566-.622 2.298-1.659 5.431-5.288 8.774-10.784 10.132-.415.105-.933.418-.933.836-2.696 13.37-8.399 25.384-15.657 36.77-4.355 6.79-9.229 13.162-15.346 18.49-.208.208-.415.73-.311 1.148 2.28 8.88-2.904 17.027-11.82 18.49-7.985 1.358-15.97-5.119-16.384-13.267-.103-1.775.311-3.551.519-5.222 0-.418-.104-.94-.311-1.15-7.362-6.372-12.962-14.206-17.939-22.667-5.495-9.402-9.954-19.221-12.443-29.876-.518-2.298-1.244-3.552-3.629-4.283C4.06 26.671.43 20.821.637 14.449.845 8.39 4.992 2.959 10.903 1.182c5.806-1.775 12.235.314 15.76 5.432.622.836 1.037.836 1.867.627 12.442-4.074 25.3-5.223 38.365-4.178 7.154.626 14.102 1.984 20.945 4.283.726.209 1.037.104 1.452-.523 3.422-4.91 9.332-7.312 14.931-5.85 6.118 1.567 9.851 5.537 11.095 11.804 0 .21.104.314.207.523.104 1.149.104 2.402.104 3.552ZM15.983 3.794c-6.843 0-11.82 4.805-12.131 10.655-.311 6.163 4.044 11.386 10.058 12.013 1.451.209 1.762.522 2.073 1.985.311 1.67.622 3.447 1.037 5.118 2.696 10.55 7.259 20.37 12.858 29.562 4.77 7.835 10.161 15.147 17.316 20.892.83.627.83 1.358.518 2.298-.83 2.09-1.14 4.283-.622 6.477 1.348 6.686 7.777 10.759 14.206 8.879 6.428-1.88 9.747-8.775 7.362-15.147-.415-1.149-.208-1.88.725-2.715 1.867-1.567 3.733-3.239 5.392-5.015 7.051-7.625 12.547-16.295 17.109-25.592 3.94-7.94 7.05-16.087 8.503-24.862.207-1.149.829-1.671 1.97-1.776 5.392-.627 9.539-4.805 10.058-10.237.518-5.223-2.8-10.341-7.881-11.908-5.08-1.567-10.576.626-13.168 5.223-.934 1.671-1.348 1.776-3.111 1.149C81.41 8.39 74.257 6.928 66.999 6.3c-13.273-1.15-26.337.104-39.091 4.596-1.66.627-2.074.418-3.007-1.149-2.178-3.97-5.496-5.85-8.918-5.954Z"/><path d="M40.66 43.802c0-9.82 7.777-17.654 17.627-17.758 9.54 0 17.42 7.938 17.42 17.549 0 9.819-7.776 17.862-17.42 17.862-9.85 0-17.627-7.834-17.627-17.653Zm3.11-.105c0 8.044 6.43 14.52 14.414 14.52 7.88 0 14.413-6.476 14.413-14.415 0-8.148-6.326-14.625-14.413-14.625-7.984 0-14.413 6.477-14.413 14.52Zm14.414 24.131h12.028c1.659 0 2.177.522 2.177 2.089v6.372c0 1.358-.622 1.88-1.866 1.88h-24.47c-1.349 0-1.867-.522-1.971-1.88v-6.477c0-1.462.518-2.089 2.074-2.089 3.94.105 7.984.105 12.028.105ZM47.193 74.93H69.07v-3.97H47.193v3.97Zm48.942-43.768c-.311.418-.415.94-.83 1.254l-5.288 4.387c-.933.731-1.762.627-2.488-.209-4.563-5.432-9.021-10.968-13.584-16.4-.622-.731-.622-1.671.208-2.298 1.762-1.567 3.629-3.03 5.392-4.596.83-.627 1.659-.627 2.385.313 4.458 5.432 9.02 10.864 13.48 16.296.31.418.414.835.725 1.253Zm-3.94-.209c-3.94-4.7-7.777-9.401-11.717-14.102-1.037.94-2.074 1.776-3.11 2.612 3.94 4.805 7.776 9.401 11.716 14.102 1.14-.94 2.074-1.776 3.11-2.612Zm-64.702 6.581c-.518-.313-.933-.417-1.244-.73a184.078 184.078 0 0 1-5.08-4.284c-.934-.835-1.038-1.671-.208-2.611 4.459-5.432 8.917-10.76 13.376-16.087.83-.94 1.555-1.045 2.592-.209a184.552 184.552 0 0 1 5.08 4.283c.934.836 1.038 1.671.208 2.611-4.458 5.328-8.813 10.76-13.272 16.087-.415.314-.933.627-1.452.94Zm8.296-20.787c-3.94 4.805-7.777 9.401-11.717 14.206 1.037.94 2.073 1.672 3.11 2.612 3.94-4.7 7.777-9.401 11.717-14.102a83.432 83.432 0 0 0-3.11-2.716Zm65.428-8.879c4.044 0 7.259 3.342 7.259 7.312s-3.215 7.208-7.259 7.208c-4.044 0-7.258-3.239-7.258-7.313 0-3.97 3.214-7.207 7.258-7.207Zm4.044 7.207a4.064 4.064 0 0 0-4.044-4.073c-2.28 0-4.147 1.88-4.147 4.178a4.064 4.064 0 0 0 4.044 4.074c2.281 0 4.147-1.88 4.147-4.179Zm-90.315 7.313c-4.044-.104-7.155-3.343-7.155-7.416.104-4.074 3.422-7.208 7.57-7.104 3.836.105 7.05 3.447 6.947 7.417 0 3.97-3.319 7.208-7.362 7.103Zm.207-3.134c2.177 0 4.044-1.775 4.147-4.074.104-2.298-1.762-4.178-4.043-4.178s-4.148 1.776-4.148 4.074c-.104 2.298 1.66 4.178 4.044 4.178ZM65.339 90.6c0 4.074-3.215 7.313-7.258 7.313-3.94 0-7.155-3.239-7.259-7.208 0-4.074 3.215-7.417 7.155-7.417 4.147 0 7.362 3.238 7.362 7.312Zm-3.11 0c0-2.298-1.764-4.074-4.045-4.074-2.281 0-4.147 1.776-4.147 4.179 0 2.298 1.866 4.074 4.147 4.074 2.281-.105 4.044-1.88 4.044-4.179Z"/></g></svg>