<svg width="134" height="115" fill="none" xmlns="http://www.w3.org/2000/svg"><g fill="#6D6E71"><path d="M.338 74.854c.944-1.253 2.253-1.662 3.962-1.632 4.677.08 9.354.028 14.035.028 2.646 0 3.24.357 4.146 2.555l8.094-1.177c.08-.116.163-.231.243-.347-1.298-1.055-2.65-2.062-3.882-3.169-10.74-9.633-13.445-24.85-6.549-36.899.302-.53.886-1.143 1.473-1.283.573-.138 1.656.112 1.906.497.358.555.455 1.503.156 2.076-1.57 2.995-2.733 6.081-3.139 9.36-1.087 8.815 1.469 16.653 8.313 23.282 1.861 1.802 3.833 3.516 5.823 5.212.347.296 1.063.46 1.556.39a921.603 921.603 0 0 0 15.868-2.339c5.257-.83 10.431-.384 15.595.576 2.114.394 4.278.607 6.371 1.068 4.008.881 7.168 2.763 8.372 6.425 1.299 3.943-1.58 7.843-6.465 8.566-2.174.32-4.48.156-6.705-.01-3.101-.228-6.188-.649-9.275-1.008-1.972-.23-3.097.36-3.403 1.832-.274 1.324.754 2.388 2.632 2.678 6.09.942 12.157 2.104 18.293 2.708 2.736.268 5.621-.58 8.43-.97.327-.046.612-.4.882-.64 8.997-8.079 18.154-16.02 26.932-24.277 8.941-8.411 10.851-18.364 7.108-29.266-.073-.21-.205-.403-.313-.604-14.417 6.117-29.956-1.66-33.168-13.89-1.566.698-3.218 1.21-4.57 2.082-2.777 1.796-5.486 3.696-8.052 5.721-2.899 2.284-3.892 2.412-6.597-.03-4.587-4.145-9.802-7.374-16.285-8.737-8.654-1.818-16.4-.43-22.855 5.239-1.05.92-2.09.997-2.97.277-.885-.726-.819-1.772.23-2.705 6.445-5.718 14.296-7.788 23.25-6.696 7.824.954 14.383 4.18 19.974 9.008.614.53 1.139 1.146 1.75 1.768 1.135-.948 2.066-1.735 3.003-2.512a36.491 36.491 0 0 1 11.657-6.496c.781-.265 1.025-.585 1.028-1.305.003-2.964.708-5.81 2.167-8.493.684-1.262 1.618-1.69 2.736-1.262 1.163.445 1.441 1.393.795 2.696-4.917 9.874.972 20.806 12.653 23.487 10.615 2.436 21.414-3.565 23.626-13.125 2.167-9.374-5.33-18.602-16.174-19.91-5.177-.626-9.872.436-14.098 3.125-.212.135-.413.278-.635.397-1.045.558-2.118.405-2.75-.384-.59-.738-.51-1.781.451-2.321 1.959-1.098 3.917-2.29 6.063-3.028 10.618-3.641 22.522.073 28.237 8.679 5.695 8.572 3.528 19.407-5.208 25.792-.712.522-.737.915-.48 1.626 4.653 12.801 2.098 24.24-8.587 34.035-7.16 6.566-14.455 13.018-21.688 19.523-.292.262-.563.546-1.063 1.034 3.32-.568 6.324-1.074 9.324-1.595 2.076-.363 4.132-.848 6.229-1.083a13.467 13.467 0 0 1 3.99.165c5.205 1.012 7.372 5.641 4.604 9.694-1.483 2.171-3.767 3.385-6.452 4.138-10.253 2.876-20.5 5.779-30.754 8.655a355.263 355.263 0 0 1-7.816 2.092c-5.011 1.28-9.983 1.037-14.98-.18-11.376-2.769-22.775-5.465-34.165-8.188-.243-.058-.5-.079-.732-.113-.955 2.141-1.566 2.504-4.16 2.504-4.764 0-9.532-.031-14.296.015-1.688.015-2.948-.454-3.688-1.824C.338 95.853.338 85.353.338 74.854Zm21.942 27.061c.35.119.625.235.913.302 11.966 2.87 23.935 5.733 35.904 8.6 3.966.948 7.976 1.171 11.917.085a4141.66 4141.66 0 0 0 39.651-11.112c1.188-.339 2.365-1.19 3.139-2.077 1.879-2.15.75-4.43-2.281-4.876a9 9 0 0 0-2.445-.04c-1.364.177-2.701.51-4.059.744-6.531 1.135-13.056 2.315-19.608 3.358-2.705.43-5.539 1.027-8.199.732-6.514-.72-12.976-1.83-19.424-2.95-3.43-.597-5.386-3.564-4.726-6.62.656-3.022 3.556-4.867 7.132-4.495 3.05.317 6.087.757 9.147.992 2.135.164 4.364.378 6.427.024 3.438-.589 4.379-3.647 2.066-5.977-1.337-1.345-3.073-2.056-5.052-2.36-1.789-.278-3.58-.543-5.358-.867-4.688-.853-9.376-1.369-14.167-.643A3890.728 3890.728 0 0 1 23.44 79.13c-.962.138-1.185.43-1.181 1.223.035 5.096.017 10.192.017 15.287.004 2.092.004 4.181.004 6.276Zm-3.945-25.152H4.31v27.881h14.025V76.763Z"/><path d="M71.975 48.327c-2.42 3.711-4.736 7.273-7.063 10.829-1.316 2.012-2.812 2.03-4.232.052-1.355-1.885-2.705-3.773-4.188-5.843-1.132 1.65-2.184 3.113-3.153 4.62-.625.97-1.472 1.369-2.746 1.35-3.636-.048-7.275-.012-10.914-.018-1.625-.003-2.493-.631-2.465-1.753.024-1.08.854-1.662 2.43-1.665 3.205-.01 6.41.027 9.615-.034.483-.009 1.136-.332 1.396-.689 1.337-1.817 2.563-3.699 3.847-5.547 1.167-1.677 2.688-1.683 3.903-.018 1.414 1.94 2.806 3.89 4.3 5.97.364-.53.628-.905.878-1.29 2.149-3.296 4.288-6.598 6.451-9.889 1.198-1.826 2.844-1.808 4.004.04 3.024 4.824 6.031 9.658 9.049 14.488.226.36.476.708.785 1.168 1.604-2.363 3.166-4.59 4.635-6.864.677-1.05 1.549-1.476 2.934-1.458 4.938.055 9.872.018 14.81.024 1.66 0 2.521.586 2.524 1.696.007 1.113-.864 1.723-2.503 1.726-4.375.006-8.75.042-13.122-.025-1.115-.018-1.677.314-2.212 1.14-1.66 2.58-3.42 5.112-5.157 7.652-1.24 1.812-2.86 1.793-4.017-.049-2.983-4.757-5.948-9.526-8.924-14.287-.243-.4-.51-.786-.865-1.326Zm36.404-29.777c0-1.67-.014-3.147.004-4.623.017-1.384.694-2.098 1.934-2.095 1.243.007 1.93.72 1.955 2.102.024 1.476.007 2.955.007 4.614 1.5 0 2.909-.007 4.319.003.563.003 1.132-.016 1.681.067 1.087.164 1.691.762 1.635 1.744-.055.982-.718 1.546-1.823 1.586-1.514.052-3.028.018-4.541.03-.379.003-.757.04-1.268.067 0 1.397.007 2.72-.003 4.044-.004.418.01.842-.084 1.247-.222.955-.941 1.464-2.038 1.388-1.024-.073-1.695-.625-1.733-1.552a55.426 55.426 0 0 1-.024-4.218c.024-.726-.215-1.025-1.094-.994-1.469.052-2.941.03-4.413.006-1.358-.021-2.174-.646-2.212-1.632-.038-1.027.795-1.74 2.208-1.771 1.761-.04 3.532-.012 5.49-.012Z"/></g></svg>