<svg width="122" height="115" fill="none" xmlns="http://www.w3.org/2000/svg"><g fill="#6D6E71"><path d="M49.08 99.155h-4.45c0 2.231-.112 4.357 0 6.589 0 1.275-.445 2.125-1.558 2.763-3.004 1.913-6.009 3.826-9.013 5.845-.779.425-1.558.957-2.337.425-.556-.425-.89-1.381-.89-2.019-.111-4.464 0-8.821 0-13.497H27.05c-5.007 0-7.789-2.657-7.789-7.44V78.963h-3.672V90.44c0 1.7-.667 2.338-2.448 2.338H3.126C1.456 92.778.9 92.14.9 90.546V52.181c.112-1.7.78-2.232 2.448-2.232h9.903c1.78 0 2.448.638 2.448 2.338v11.584h3.672V49.63c0-4.463 2.893-7.12 7.455-7.12h12.797v-3.826c-.445 0-.89-.106-1.447-.106-3.004 0-5.897.106-8.902-.106C23.6 38.047 19.26 33.37 19.26 27.95s4.34-9.883 9.903-10.415c.668-.106 1.447-.106 2.114-.106H57.76v-4.676H45.186c-2.003 0-2.56-.638-2.56-2.444V2.126C42.627.638 43.296 0 44.853 0h39.835c1.558 0 2.225.638 2.225 2.126v8.183c0 1.7-.667 2.232-2.336 2.232H71.78v4.782h27.372c5.898 0 10.348 3.72 11.239 9.352.89 5.739-4.117 11.478-10.237 11.69-3.338.107-6.565 0-10.015 0v3.932h17.692c.779 0 1.669.32 2.337.744 2.782 1.913 5.452 4.039 8.234 6.058 2.114 1.594 3.227 3.72 3.227 6.377v30.713c0 2.657-1.001 4.676-3.227 6.27-2.559 1.913-5.118 3.72-7.678 5.74-.89.637-1.669.956-2.781.85h-8.79c0 2.231-.112 4.357 0 6.482.11 1.276-.446 2.126-1.559 2.87-3.004 1.913-6.008 3.932-9.012 5.845-.557.319-1.558.531-2.226.425-.89-.213-1.001-1.169-1.001-2.019V99.155h-4.451v6.589c0 1.169-.334 1.913-1.447 2.55-3.115 1.913-6.12 3.933-9.124 5.952-.667.425-1.446.85-2.337.425-.89-.425-.89-1.275-.89-2.126v-13.39h-4.45c0 2.019-.112 4.038 0 6.057.11 1.488-.445 2.445-1.78 3.295-3.005 1.807-5.898 3.826-8.791 5.739-.779.531-1.558.956-2.337.319-.556-.426-.89-1.276-.89-1.913-.111-4.039 0-8.077 0-12.116.223-.319.223-.85.223-1.381Zm18.026-3.401V75.88c0-4.782 4.674-7.97 9.236-6.376 2.782.956 4.562 3.4 4.562 6.589v19.66h4.45V75.988c0-3.188 1.781-5.633 4.674-6.483 4.673-1.488 9.124 1.7 9.124 6.483v19.766h7.567V59.195h-84.01v32.626c0 .426 0 .85.112 1.276.222 1.382 1.335 2.55 2.781 2.657 1.67.106 3.339 0 5.119 0V75.88c0-4.782 4.673-7.97 9.235-6.376 2.782.956 4.562 3.4 4.562 6.589v19.66h4.451V75.88c0-4.782 4.674-7.97 9.236-6.376 2.782.956 4.562 3.4 4.562 6.589v19.66h4.34ZM64.881 35.07h25.926c3.004 0 6.12.106 9.124 0 4.451-.106 7.678-4.145 6.899-8.29-.668-3.613-3.672-6.057-7.678-6.057H30.276c-3.227 0-6.009 1.913-7.122 4.782-1.669 4.676 1.892 9.459 7.233 9.459 11.572.106 23.033.106 34.494.106Zm42.06 10.627H27.16c-.556 0-1.001 0-1.558.107-1.335.212-2.559.956-2.67 2.231-.223 2.551 0 4.995 0 7.546h84.009v-9.884Zm3.672 1.913v46.336c2.114-1.594 4.228-2.975 6.009-4.676.667-.638 1.112-1.807 1.112-2.657.112-10.627.112-21.148 0-31.776 0-.85-.445-2.02-1.112-2.657-1.781-1.594-3.783-2.976-6.009-4.57ZM4.683 89.165h7.456V53.35c-2.003 0-4.006.106-5.898 0-1.224-.106-1.557.319-1.557 1.488v34.327ZM52.42 110.1c2.003-1.275 3.783-2.551 5.675-3.613.778-.532 1.112-1.063 1.112-1.913v-27.95c0-.532 0-1.063-.111-1.595-.334-1.594-1.67-2.55-3.338-2.55-1.892 0-3.227 1.487-3.227 3.613v16.579c-.111 5.633-.111 11.371-.111 17.429Zm18.248 0c2.114-1.382 3.783-2.551 5.675-3.613.779-.532 1.112-1.063 1.112-2.02V76.731c0-.532 0-1.17-.11-1.7-.334-1.489-1.67-2.551-3.228-2.551-2.002 0-3.338 1.487-3.338 3.72v32.732c-.111.319-.111.638-.111 1.169Zm18.248 0c2.003-1.275 3.784-2.551 5.675-3.613.78-.532 1.113-1.063 1.113-1.913v-27.95c0-.532 0-1.063-.111-1.595-.334-1.594-1.67-2.55-3.338-2.55-1.892 0-3.227 1.487-3.227 3.613v15.835c-.112 5.951-.112 11.903-.112 18.173Zm-54.522 0c2.003-1.275 3.783-2.551 5.563-3.613.78-.532 1.113-.957 1.113-1.913V75.562c-.111-1.7-1.558-2.976-3.338-3.082-1.78 0-3.227 1.169-3.338 2.975v34.646ZM86.58 38.577H43.295v3.72h43.284v-3.72ZM73.338 9.352V4.145c0-.213-.334-.638-.557-.638h-6.008v5.845h6.565Zm-26.928 0h6.454V3.613H46.41v5.74Zm16.58 0V3.613h-6.454v5.74h6.453Zm20.473-.106V4.145c0-.213-.445-.638-.667-.638h-5.787v5.739h6.454Zm-15.355 3.507h-6.454v4.57h6.454v-4.57ZM19.26 67.06h-3.45v8.29h3.45v-8.29Z"/><path d="M64.992 23.168c2.781 0 4.895 2.231 4.895 4.782 0 2.55-2.336 4.676-5.007 4.676-2.781 0-4.896-2.125-4.896-4.782s2.226-4.677 5.008-4.677Zm-.446 6.27h.557c.334-.532 1.001-.957 1.113-1.488.11-.85-.557-1.488-1.336-1.382-.556.107-1.224.744-1.335 1.276 0 .531.668 1.062 1.001 1.594ZM46.298 27.95c0 2.657-2.226 4.783-5.008 4.783-2.67 0-4.895-2.126-4.895-4.676 0-2.657 2.225-4.783 5.007-4.783 2.67 0 4.896 2.02 4.896 4.677Zm-3.339.32v-.532c-.556-.319-1.112-1.063-1.557-.956-.557 0-1.224.637-1.447 1.169-.222.85.556 1.381 1.335 1.381.668-.213 1.224-.744 1.67-1.063Zm45.401-5.102c2.671 0 4.897 2.125 5.008 4.676 0 2.55-2.225 4.782-5.007 4.782-2.782 0-4.896-2.125-4.896-4.782s2.225-4.677 4.896-4.677Zm-.222 6.27h.557c.333-.532.89-.957 1.001-1.488.111-.744-.556-1.382-1.447-1.382-.89 0-1.446.638-1.335 1.382.223.637.89 1.063 1.224 1.488Z"/></g></svg>