<svg width="33" height="33" fill="none" xmlns="http://www.w3.org/2000/svg"><path d="M23.041 7.548c.391-.187.558-.499.614-.873.056-.25.112-.5.39-.5.28 0 .335.25.391.5.112.561.39.873.837 1.06.614.312 1.283.375 1.953.25.279 0 .446.062.502.312.279.936.948 1.497 1.73 1.934.39.187.501.499.446.935-.056.936-.39 1.81-.781 2.683a8.185 8.185 0 0 0-.614 1.996c-.28 1.622-.725 3.181-1.45 4.679-.168.374-.112.935-.168 1.31.893.25 1.674.561 2.51.748.112 0 .224-.062.335-.125.67-.686 1.34-.686 2.009 0l.837.936c.557.624.557 1.435 0 2.121-.224.25-.224.437-.168.749.112.436.168.935.168 1.372v4.679c0 .561-.112.686-.614.686H16.235c-.781 0-.781 0-.837-.936H.67c-.613 0-.669-.062-.669-.748V.749C0 .062.056 0 .725 0h21.591c.614 0 .67.062.67.749v6.425c.055.062.055.187.055.374Zm-.78-6.8H.78v30.38h14.617v-4.49H13.11c-.28 0-.558 0-.558-.438 0-.374.279-.436.558-.436h2.622c-.558-.5-.837-.998-.725-1.747h-4.463c-.224 0-.447-.125-.447-.437s.167-.436.446-.436h.168c1.171 0 2.343-.063 3.514 0 .837.062 1.507-.125 2.009-.936l.167-.187c.39-.312 1.06-.437 1.395 0 .446.499.837.374 1.283.187.168-.062.335-.125.502-.125.447-.125.893-.187 1.451-.25-.056-.498 0-1.122-.223-1.559-.447-.998-.837-1.996-1.06-3.057a20.98 20.98 0 0 0-.39-1.809c-.056-.312-.224-.436-.503-.436h-8.09c-.111 0-.278.062-.39-.063-.112-.062-.279-.25-.279-.436 0-.125.167-.312.279-.375.112-.062.279-.062.39-.062h8.313c-.055-.125-.111-.187-.111-.25-.447-.873-.781-1.809-.837-2.87-.056-.436.111-.685.446-.873.781-.436 1.395-.998 1.73-1.933.111-.25.279-.312.502-.312.446 0 .893 0 1.395-.063.055-2.245.055-4.616.055-6.986Zm5.3 22.208c.055.063.111.188.223.25.39.5.39.624-.056 1.06-.67.687-1.283 1.373-1.953 2.06-.111.124-.279.311-.446.373-.168 0-.335-.124-.558-.25 0 .188-.056.375 0 .5l.335 2.059c.167 1.06.334 2.12.502 3.119h3.459V28.82c0-.311.056-.561.39-.561.335 0 .39.25.39.561v3.37h2.065v-4.741c0-.437-.111-.936-.279-1.372-.78-1.997-2.287-2.87-4.073-3.12Zm-6.974-.124a5.693 5.693 0 0 0-2.343.873c-1.284.936-2.065 2.184-2.009 3.93v4.367h2.064v-3.307c0-.311.056-.623.39-.623.335 0 .391.312.391.624v3.306h3.404c.278-1.747.613-3.494.892-5.24 0-.125-.056-.312-.056-.562-.279.312-.502.562-.78.25a91.435 91.435 0 0 1-2.344-2.495.45.45 0 0 1 0-.624c.056-.063.167-.25.39-.5Zm6.137-13.974c-1.005-.062-1.953-.25-2.678-1.123-.781.749-.781.749-2.678 1.123.056.125.056.25.111.375.224.81.224 1.684-.111 2.432-.112.188-.28.375-.447.437-.502.25-1.06.437-1.562.686.335.874.335.874 1.172.874h7.141c.558 0 .893-.188 1.06-.811v-.125c-.502-.187-1.06-.374-1.506-.624-.168-.062-.39-.25-.447-.437-.446-.873-.39-1.809-.055-2.807Zm-6.193 8.047c.056.188.056.375.111.562.391 1.372.837 2.682 1.841 3.68.949.936 2.009.936 2.957.063 1.228-1.123 1.674-2.683 2.065-4.305-2.288 1.56-4.575 1.56-6.974 0Zm7.587-2.308h-8.09c.168.624.447 1.123.893 1.498.949.873 2.065 1.122 3.236 1.122 1.172 0 2.232-.311 3.125-1.185.39-.374.725-.873.836-1.435Zm-3.291 17.467c-.223-1.497-.502-2.932-.726-4.429h-.055c-.223 1.497-.502 2.932-.726 4.43h1.507ZM21.87 21.646c-.112.375 0 .562.279.75.558.436 1.116.872 1.618 1.31.167.124.279.186.446 0 .558-.5 1.172-.937 1.785-1.436.223-.187.223-.374.168-.623-1.395 1.372-2.79 1.372-4.296 0Zm1.618 2.932c-.67-.561-1.34-1.06-1.953-1.622-.223.25-.39.5-.614.75a55.146 55.146 0 0 1 1.841 1.933c.224-.374.447-.686.726-1.06Zm1.84 1.061a55.607 55.607 0 0 1 1.842-1.934c-.223-.25-.39-.499-.614-.748-.67.561-1.283 1.06-1.952 1.621.223.375.446.687.725 1.061ZM20.867 9.482c-.614.5-1.172.998-1.73 1.497a.507.507 0 0 0-.111.312c0 .25.111.5.111.811.446-.187.781-.374 1.172-.499.39-.125.558-.437.558-.81.055-.5 0-.937 0-1.311Zm6.471 0c-.167.5-.167 1.06 0 1.622.056.125.112.25.168.25.502.187 1.004.436 1.506.623.056-.312.112-.561.112-.81a.705.705 0 0 0-.112-.313 25.525 25.525 0 0 1-1.674-1.372Zm-9.651 13.537c-.28-.374-.503-.374-.837 0l-.837.936c-.335.374-.28.623 0 .935l1.674-1.871Zm14.338 1.871c.279-.312.334-.561 0-.935-.28-.312-.558-.687-.893-.998-.279-.312-.558-.312-.781.062l1.674 1.871Zm-7.978.312c-.39.437-.39.5 0 .874.111-.188.167-.312.223-.5a1.327 1.327 0 0 0-.223-.374Z" fill="#000"/><path d="M5.414 28.071h-2.4c-.445 0-.557-.125-.557-.623v-4.929c0-.499.112-.623.558-.623h4.854c.446 0 .558.124.558.623v4.929c0 .498-.112.623-.558.623H5.414Zm2.232-5.302H3.238v4.429h4.408v-4.43ZM5.414 3.867h2.455c.446 0 .558.125.558.624v4.928c0 .5-.112.624-.558.624H3.015c-.446 0-.558-.125-.558-.624V4.553c0-.499.112-.623.558-.623.781-.063 1.618-.063 2.399-.063Zm2.232.874H3.238V9.17h4.408V4.74ZM5.411 19.026H2.956c-.446 0-.558-.124-.558-.623v-4.929c0-.499.112-.623.558-.623H7.81c.502 0 .558.124.558.623v4.866c0 .5-.112.624-.558.624-.781.062-1.618.062-2.399.062Zm-2.231-.873h4.407v-4.43H3.18v4.43ZM15.176 6.05h-4.351c-.112 0-.28.063-.335-.062-.112-.125-.28-.25-.28-.437 0-.124.168-.312.28-.374.111-.062.223-.062.335-.062h8.759c.111 0 .223-.063.335 0 .111.124.334.25.278.374 0 .125-.167.312-.278.437-.056.062-.224 0-.335 0-1.45.124-2.957.124-4.408.124Zm.001 1.748h2.12c.279 0 .502.062.502.437 0 .374-.223.436-.502.436h-4.24c-.28 0-.502-.062-.502-.436 0-.312.223-.437.502-.437h2.12Zm.055 9.045h2.064c.279 0 .502.062.502.436 0 .375-.223.437-.502.437h-4.184c-.28 0-.503-.062-.503-.374 0-.374.223-.437.502-.437.726-.062 1.395-.062 2.12-.062Z" fill="#000"/><path d="M4.85 25.39c.447-.562.893-.998 1.283-1.498.168-.187.39-.374.614-.124.279.25.112.499-.112.748l-1.45 1.622c-.279.312-.446.312-.781 0-.167-.187-.335-.312-.446-.499a.45.45 0 0 1 0-.624c.167-.187.39-.187.557 0 .112.063.224.188.335.375Zm.002-18.091c.502-.562.893-1.06 1.339-1.497.167-.187.39-.375.614-.125.223.25.111.499-.056.686L5.242 8.047c-.223.25-.446.25-.67 0l-.501-.561a.45.45 0 0 1 0-.624c.167-.187.39-.187.558 0 .056.125.111.312.223.437Zm-.001 9.045c.502-.562.893-.998 1.283-1.497.168-.25.39-.375.614-.125.223.25.112.499-.111.686-.503.562-.949 1.123-1.451 1.622-.279.312-.446.312-.725 0-.168-.187-.335-.312-.447-.499-.167-.187-.223-.437 0-.624.168-.187.39-.125.558.063.112.062.168.187.28.374Z" fill="#000"/></svg>