<svg width="169" height="51" fill="none" xmlns="http://www.w3.org/2000/svg"><path d="M68.577 25.685h-8.509v5.208h9.428v4.014H54.895V13.1h14.142v4.014h-8.969v4.557h8.509v4.014Zm9.542 3.689-1.61 5.533h-5.403L78.119 13.1h6.784l7.128 21.807h-5.634l-1.724-5.533h-6.554Zm5.864-3.689-1.38-4.665c-.345-1.302-.805-2.93-1.15-4.232h-.115c-.345 1.302-.69 2.93-1.034 4.232l-1.38 4.665h5.059Zm11.153 4.123c1.38.65 3.564 1.302 5.749 1.302 2.414 0 3.679-.977 3.679-2.387 0-1.41-1.15-2.17-3.909-3.038-3.794-1.302-6.324-3.255-6.324-6.51 0-3.689 3.334-6.51 8.738-6.51 2.645 0 4.484.435 5.864 1.086l-1.15 3.905a10.987 10.987 0 0 0-4.829-1.085c-2.299 0-3.334.977-3.334 2.062 0 1.41 1.265 1.953 4.254 3.038 4.024 1.41 5.979 3.472 5.979 6.51 0 3.688-2.989 6.726-9.313 6.726-2.645 0-5.289-.65-6.554-1.302l1.15-3.797Zm22.651-12.477h-6.209V13.21h17.706v4.122h-6.323v17.577h-5.174V17.33Zm27.711 8.354h-8.508v5.208h9.428v4.014h-14.717V13.1h14.142v4.014h-8.968v4.557h8.508v4.014h.115Zm16.437 9.223-2.069-3.906-2.07-3.906h-.115c-.46 1.302-1.034 2.387-1.839 3.906l-1.84 3.906h-5.979l6.669-10.958-6.439-10.741h5.979l2.07 4.014c.69 1.302 1.149 2.387 1.724 3.58h.115a57.654 57.654 0 0 1 1.61-3.58l1.955-4.014h5.978l-6.553 10.632 6.898 11.175h-6.094v-.108ZM17.456 32.74V18.15h8.36L29.33 3.539a21.323 21.323 0 0 0-4.845-.567c-3.034 0-5.916.658-8.535 1.815L7.59 39.48c2.838 3.675 6.745 6.398 11.241 7.646l3.47-14.408h-4.845v.022ZM2.854 25.434c0 4.788 1.44 9.235 3.907 12.888L14.684 5.4C7.656 9.12 2.854 16.7 2.854 25.435ZM41.772 11.98 33.63 45.81c7.356-3.585 12.442-11.345 12.442-20.353.022-5.06-1.593-9.734-4.3-13.478ZM30.356 3.81l-3.449 14.34h4.562v14.59h-8.076L19.88 47.398c1.484.34 3.012.522 4.584.522a20.96 20.96 0 0 0 7.923-1.565l8.535-35.488c-2.729-3.336-6.396-5.831-10.565-7.057Z" fill="#FFB902"/><path d="M47.475 25.436c0 13.183-10.325 23.893-22.985 23.893-12.703.023-23.006-10.71-23.006-23.893 0-13.16 10.303-23.893 22.985-23.893 12.681 0 23.006 10.732 23.006 23.893ZM24.469 0C10.979 0 0 11.413 0 25.436c0 14.045 10.98 25.459 24.469 25.459 13.49 0 24.468-11.414 24.468-25.436C48.937 11.413 37.98 0 24.47 0Z" fill="#FFB902"/></svg>