<svg width="15" height="15" fill="none" xmlns="http://www.w3.org/2000/svg"><path d="M5.34 9.649V5.367h2.564l1.064-4.31A6.589 6.589 0 0 0 7.495.894c-.928 0-1.8.19-2.619.545l-2.563 10.2a6.708 6.708 0 0 0 3.436 2.264L6.813 9.65H5.34ZM.867 7.52a6.47 6.47 0 0 0 1.2 3.791L4.495 1.63A6.546 6.546 0 0 0 .867 7.521Zm11.919-3.98-2.482 9.955a6.628 6.628 0 0 0 3.819-6 6.893 6.893 0 0 0-1.337-3.955Zm-3.491-2.4L8.23 5.367h1.391v4.309H7.14l-1.09 4.31c.463.108.927.163 1.39.163.846 0 1.664-.164 2.428-.464L12.486 3.24a6.11 6.11 0 0 0-3.191-2.1Z" fill="#FFB902"/><path d="M14.536 7.5c0 3.873-3.163 7.036-7.036 7.036-3.873 0-7.036-3.163-7.036-7.036C.464 3.627 3.627.464 7.5.464A7.036 7.036 0 0 1 14.536 7.5ZM7.5 0A7.496 7.496 0 0 0 0 7.5C0 11.618 3.355 15 7.5 15c4.118 0 7.5-3.354 7.5-7.5C14.973 3.355 11.618 0 7.5 0Z" fill="#FFB902"/></svg>