<svg width="70" height="70" fill="none" xmlns="http://www.w3.org/2000/svg"><path d="M24.947 44.929V24.947H36.91l4.963-20.11c-2.163-.508-4.582-.763-6.873-.763-4.327 0-8.4.891-12.218 2.546L10.82 54.22c4.072 5.09 9.672 8.782 16.036 10.563L31.82 44.93h-6.873ZM4.074 35c0 6.619 2.037 12.728 5.6 17.691l11.328-45.18C10.947 12.474 4.073 22.91 4.073 35Zm55.618-18.58L48.111 62.874c10.563-4.963 17.818-15.654 17.818-28-.127-6.873-2.418-13.236-6.237-18.454Zm-16.29-11.2-4.964 19.727h6.49v20.109h-11.58l-5.091 20.11c2.164.508 4.327.763 6.49.763a30.91 30.91 0 0 0 11.328-2.164L58.292 15.02c-3.69-4.71-8.909-8.146-14.89-9.8Z" fill="#FFB902"/><path d="M67.836 35c0 18.073-14.763 32.836-32.836 32.836S2.164 53.073 2.164 35 16.927 2.164 35 2.164 67.836 16.8 67.836 35ZM35 0C15.654 0 0 15.655 0 35c0 19.218 15.655 35 35 35 19.218 0 35-15.654 35-35-.127-19.346-15.782-35-35-35Z" fill="#FFB902"/></svg>