<svg width="36" height="46" fill="none" xmlns="http://www.w3.org/2000/svg"><g filter="url(#a)" fill="#F47400"><path d="M24.16 29.056c-1.911 2.933-3.71 5.714-5.52 8.481-.338.51-.887.562-1.2.077-1.836-2.78-3.634-5.587-5.557-8.546 4.134 1.607 8.118 1.62 12.276-.012ZM13.988 18.404v-8.201h4.783l2.01-8.214a12.409 12.409 0 0 0-2.772-.32c-1.736 0-3.384.37-4.883 1.021L8.343 22.192c1.623 2.066 3.859 3.596 6.432 4.298l1.985-8.1h-2.772v.014Zm-8.355-4.107c0 2.69.824 5.19 2.235 7.244l4.534-18.506c-4.022 2.091-6.77 6.351-6.77 11.262ZM27.9 6.733 23.242 25.75c4.209-2.015 7.119-6.377 7.119-11.44a12.661 12.661 0 0 0-2.46-7.577Zm-6.53-4.591-1.974 8.06h2.61v8.202h-4.62l-2.01 8.239c.848.191 1.723.293 2.622.293 1.598 0 3.134-.319 4.533-.88l4.883-19.948a12.338 12.338 0 0 0-6.044-3.966Z"/><path d="M31.163 14.298c0 7.41-5.907 13.43-13.15 13.43-7.269.013-13.164-6.02-13.164-13.43C4.85 6.9 10.744.868 18 .868S31.163 6.9 31.163 14.297ZM18 0C10.282 0 4 6.415 4 14.298c0 7.895 6.282 14.31 14 14.31s14-6.415 14-14.298C32 6.415 25.73 0 18 0Z"/></g><defs><filter id="a" x="0" y="0" width="36" height="45.95" filterUnits="userSpaceOnUse" color-interpolation-filters="sRGB"><feFlood flood-opacity="0" result="BackgroundImageFix"/><feColorMatrix in="SourceAlpha" values="0 0 0 0 0 0 0 0 0 0 0 0 0 0 0 0 0 0 127 0" result="hardAlpha"/><feOffset dy="4"/><feGaussianBlur stdDeviation="2"/><feComposite in2="hardAlpha" operator="out"/><feColorMatrix values="0 0 0 0 0 0 0 0 0 0 0 0 0 0 0 0 0 0 0.25 0"/><feBlend in2="BackgroundImageFix" result="effect1_dropShadow_477_301"/><feBlend in="SourceGraphic" in2="effect1_dropShadow_477_301" result="shape"/></filter></defs></svg>