<svg width="15" height="15" fill="none" xmlns="http://www.w3.org/2000/svg"><path d="M5.342 4.19c.763-1.142 0-2.285-.763-3.047C4.197.762 3.816 0 3.053 0S1.908.762 1.526 1.143C.382 1.905 0 3.048 0 4.57c0 .762 0 1.524.382 2.286.381.762.763 1.524 1.144 1.905.764 1.143 1.908 2.667 3.053 3.81 1.145 1.142 2.671 1.904 4.197 2.285 1.527.381 3.053 0 4.198-1.143.381-.38 1.145-.762 1.145-1.524 0-.761-.382-1.142-.764-1.523-.763-.762-2.289-1.905-3.434-1.143-.381.38-.763 1.143-1.526 1.143s-1.145-.381-1.526-.762C5.724 9.143 4.96 8 4.197 6.857c-.381-.38-.381-1.143 0-1.524 0-.38.764-.762 1.145-1.143Z" fill="#FFB902"/></svg>