<svg width="94" height="95" fill="none" xmlns="http://www.w3.org/2000/svg"><g clip-path="url(#a)"><path d="M62.06 0c3.84 3.928 7.505 8.066 11.554 11.748 2.688 2.455 3.91 5.05 3.456 8.627-.21 1.543-.035 3.156-.035 4.91h-3.351v-7.646H65.83c-7.155.035-6.213.21-6.248-6.417v-7.96h-3.665c-12.81 0-25.585-.036-38.396.07-1.256 0-2.478.946-3.77 1.332-.767.246-1.605.28-3.036.491.21-1.964.384-3.577.558-5.155h50.788Zm8.064 13.992c-2.304-2.56-4.573-5.12-7.19-7.995v7.995h7.19Zm9.633 77.782V68.208c-.28-.21-.524-.42-.803-.631-3.526 3.752-7.12 7.434-10.507 11.292-1.885 2.139-3.176 1.963-5.096 0-6.318-6.558-12.775-13.01-19.303-19.393-1.815-1.789-2.129-3.051-.14-4.945 4.015-3.787 7.89-7.715 11.66-11.712 1.78-1.894 3.245-2.105 4.886 0 1.047 1.332 2.13 2.63 3.35 4.137 2.828-3.015 5.202-5.435 7.4-7.995.63-.736.804-1.859 1.048-2.84.977-4.244 3.42-7.26 7.575-8.698 4.083-1.402 7.644-.315 10.89 2.385 5.026 4.138 4.642 16.342-3.77 18.411-4.014.982-6.562 3.472-9.32 5.997-.942.841-1.884 1.718-3.141 2.84a1692.75 1692.75 0 0 0 5.236 4.349v-5.752c1.256-.14 2.129-.245 3.28-.385.106 1.122.21 2.069.21 2.98 0 10.942-.07 21.883.07 32.824.035 2.841-.768 3.858-3.77 3.858-19.233-.14-38.5-.07-57.733-.07H19.02c-.104-1.052-.174-1.929-.279-3.156 20.385.07 40.56.07 61.015.07ZM67.47 59.476c4.328-4.103 8.308-8.03 12.496-11.783 1.012-.912 2.478-1.543 3.805-1.788 4.433-.772 7.47-4.104 7.225-8.242-.21-3.997-3.386-7.189-7.33-7.434-4.224-.245-7.47 2.7-8.307 7.154-.28 1.543-1.082 3.156-2.13 4.348-3.63 4.103-7.47 8.031-11.24 12.029.455.526.734.841 1.048 1.157a300.211 300.211 0 0 1 4.433 4.559Zm4.992.28c-5.516 3.648-5.516 3.648-9.914-.7-4.782-4.77-4.782-4.77-1.186-9.855-1.117-1.263-2.2-2.525-3.282-3.752-2.233 2.314-4.502 4.593-6.527 6.663 6.388 6.487 12.81 13.01 18.675 19.007 2.303-2.14 4.677-4.349 6.841-6.383-1.501-1.613-3.072-3.296-4.608-4.98Zm-6.284 16.728c.629-.701 1.327-1.403 1.501-1.613a9865.024 9865.024 0 0 1-19.407-19.954c-.558.596-1.187 1.262-1.815 1.929 6.527 6.523 12.95 12.905 19.721 19.638Z" fill="#6D6E71"/><path d="M37.906 26.652c-3.316 12.029-9.983 18.096-19.442 17.815C10.05 44.222 2.058 37.979.486 30.405c-1.954-9.574 1.885-18.166 9.844-22.058 8.76-4.314 17.068-1.859 24.678 7.013 1.43-1.402 2.687-3.226 4.398-4.068 1.815-.911 4.363-1.753 6.143-1.192 5.061 1.508 8.831 6.838 7.505 10.24-1.117 2.876-2.06 5.576-5.725 7.26-3.77 1.717-6.178-.597-9.424-.948Zm-3.56-1.262c0-8.697-7.121-15.851-15.673-15.78-8.517.07-15.707 7.363-15.638 15.955.07 8.522 7.051 15.465 15.638 15.5 8.796.035 15.672-6.838 15.672-15.675Zm15.358-6.313c-.559-1.507-1.082-2.91-1.501-4.032-1.57-.702-3.002-1.368-4.189-1.894-1.57.631-3.037 1.227-4.328 1.718-.559 1.438-1.117 2.84-1.606 4.103.559 1.508 1.117 2.981 1.536 4.103 1.64.702 3.002 1.298 4.259 1.824 1.466-.561 2.932-1.157 4.223-1.648a201.89 201.89 0 0 0 1.606-4.174Z" fill="#F47400"/><path d="M14.067 85.216h59.618v-9.153h3.35v10.205c0 2.034-1.256 2.35-2.966 2.35-6.562-.035-13.125-.035-19.687-.035-13.334 0-26.632-.07-39.966.035-2.723.035-3.735-.772-3.7-3.612.14-11.573.035-23.145.07-34.718 0-1.262-.524-3.191 1.745-2.805.663.105 1.466 1.753 1.5 2.7.105 10.52.07 21.006.07 31.526-.034 1.158-.034 2.315-.034 3.507Z" fill="#6D6E71"/><path d="M47.435 64.912c-1.256 5.68-5.724 1.718-8.063 3.822v8.557h18.605v3.471c-6.772 0-13.404.07-20-.105-.664 0-1.781-1.473-1.816-2.28a98.146 98.146 0 0 1 0-11.116c.035-.806 1.326-2.14 2.13-2.244 2.757-.28 5.619-.105 9.144-.105ZM82.9 23.811c-.977-.035-1.85-.105-3.002-.175V9.679c-1.57-.07-2.897-.176-4.398-.246v-2.7c.35-.14.524-.28.733-.28 8.098-.14 6.876-.702 6.946 6.767.035 3.157-.035 6.348-.035 9.504.035.21-.07.42-.244 1.087ZM34.555 42.573v-2.84h18.604c.035.911.105 1.788.14 2.84H34.555Zm4.468 9.889v2.805H20.418v-2.805h18.605Zm.277-17.499v-3.05h15.43c.628 2.103.244 3.155-2.2 3.085-4.293-.105-8.586-.035-13.228-.035Zm6.042 11.152v2.77H29.844v-2.77h15.498ZM32.843 77.606a103.06 103.06 0 0 0-.14 3.051H20.451c-.07-.981-.14-1.893-.244-3.05h12.636Zm-12.46-3.331v-3.087H32.67v3.087H20.383Zm.07-9.188H32.6c.07.842.175 1.718.28 2.595-.454.175-.734.386-1.013.42-3.141.036-6.283-.034-9.424.07-2.374.071-2.514-1.121-1.99-3.085Z" fill="#6D6E71"/><path d="M42.48 74.275v-2.981h9.216v2.98H42.48ZM29.635 58.81v2.945c-2.374 0-4.678-.105-6.946.035-2.165.14-2.898-.701-2.27-2.98h9.216Zm3.349 2.735v-2.77h5.864c.42 3.401.42 3.401-5.864 2.77ZM20.383 46.01h6.004c.07.947.104 1.823.174 2.875h-6.178V46.01Z" fill="#6D6E71"/><path d="M6.281 30.124a415.195 415.195 0 0 1 2.513-2.665c1.257 1.157 2.374 2.174 3.875 3.542 4.677-4.98 9.285-9.89 14.311-15.255.908 1.333 1.431 2.07 2.2 3.191-5.027 5.015-10.054 10.1-15.255 15.01-.558.526-2.303.385-3.106-.106-1.606-.982-2.932-2.384-4.538-3.717Z" fill="#F47400"/></g><defs><clipPath id="a"><path fill="#fff" d="M0 0h94v95H0z"/></clipPath></defs></svg>