<svg width="88" height="94" fill="none" xmlns="http://www.w3.org/2000/svg"><g clip-path="url(#a)"><path d="M81.79 94H6.244c.035-.21-.14-.14-.244-.175a9.595 9.595 0 0 1-.942-.244 3.56 3.56 0 0 1-.523-.244c-.244-.14-.524-.28-.768-.42-.279-.174-.523-.313-.802-.523-.174-.14-.349-.279-.488-.419-.28-.279-.558-.523-.768-.837-.244-.315-.383-.664-.593-.978-.244-.349-.453-.733-.523-1.186 0-.035 0-.07-.035-.105-.104-.28-.279-.559-.313-.838a12.337 12.337 0 0 1-.175-1.955V15.533c0-.838-.105-1.676.105-2.478.104-.42-.035-.908.174-1.362.14-.28.175-.628.244-.942v-.035c.175-.314.314-.594.489-.908.209-.314.348-.698.593-.977.418-.419.872-.803 1.325-1.222.21-.174.488-.314.732-.454.14-.104.314-.174.454-.279.174-.104.349-.21.523-.279.244-.105.523-.175.767-.244.489-.105 1.012-.314 1.5-.314 2.651-.035 5.267 0 7.918-.035h.348v-.629c-.034-.768 0-1.5.175-2.234.035-.21.14-.384.21-.593.069-.175.209-.314.313-.489.105-.14.21-.314.314-.453.21-.245.384-.454.628-.664.21-.104.418-.244.663-.384a2.7 2.7 0 0 1 .558-.244c.314-.105.662-.244.976-.314.419-.035.837 0 1.29 0a.77.77 0 0 1 .28.035c.279.105.558.21.802.349.314.14.628.28.907.489.418.314.732.663 1.046 1.116.28.384.489.838.628 1.257.14.489.14 1.012.175 1.501.034.35 0 .663 0 1.012 0 .245.034.314.313.314h39.344v-1.71c0-.105 0-.244.035-.349l.314-1.152c.07-.21.14-.384.244-.558a3.32 3.32 0 0 1 .523-.698c.21-.21.419-.42.663-.629.314-.244.697-.419 1.081-.593.419-.175.837-.314 1.29-.314.21 0 .42.035.628 0 .419-.07.803.174 1.186.21.035 0 .035.034.07.034.28.175.593.314.872.489.21.14.453.279.628.488.279.315.558.594.767.978.21.349.349.698.454 1.047.14.454.14.942.174 1.431.035.384 0 .733 0 1.117 0 .105 0 .21.035.314h.384c1.5 0 2.964-.035 4.464 0 1.465.035 2.965-.174 4.43.175.314.07.593.14.907.244.14.035.314.105.453.175.28.174.558.383.837.488.314.105.523.35.802.524.175.104.35.279.524.419.279.244.523.523.767.802.21.245.384.559.523.838.14.28.28.559.419.873.07.174.14.384.209.558.105.315.279.594.314.908.105.628.174 1.256.174 1.92v71.73c0 .419.035.838-.104 1.257-.14.488 0 1.012-.21 1.466-.104.279-.174.593-.244.872 0 0 0 .035-.035.035-.104.175-.209.35-.279.559-.14.244-.279.523-.453.768-.21.279-.454.558-.698.837l-.837.838c-.279.244-.558.454-.907.593-.418.175-.837.454-1.255.664-.314.14-.663.14-1.012.244-.105-.105-.14-.035-.21.035ZM2.895 33.23v46.878c0 .383 0 .767.035 1.186.035.315.07.629.21.873.209.419.453.803.697 1.187.14.21.28.384.454.523.313.245.627.454.941.629.314.174.628.384.977.453.558.14 1.116.21 1.674.21h72.863c.07 0 .139 0 .209-.035L82 84.82l.628-.21c.14-.07.244-.104.349-.21.349-.348.802-.558 1.081-1.011.244-.42.558-.803.767-1.257.14-.349.175-.768.21-1.152.035-.314.035-.628.035-.942V33.649c0-.14 0-.28-.035-.42H19.567c-.384 0-.733-.07-1.047-.348-.349-.28-.593-.629-.593-1.082 0-.384.175-.698.419-.943.244-.314.628-.419 1.011-.419h65.224c.454 0 .454 0 .454-.453v-2.34c0-.558.035-.488-.489-.488H3.138c-.244-.035-.348.07-.313.314v2.583c0 .35.034.384.383.384h10.429c.419 0 .837 0 1.186.384.279.35.523 1.257.279 1.606-.314.454-.732.803-1.325.803H2.894Zm41.123-8.936h40.669c.453 0 .453 0 .453-.454V17c0-1.396 0-2.758-.035-4.154 0-.314-.07-.663-.209-.977-.174-.42-.453-.768-.697-1.152-.14-.21-.245-.419-.454-.559-.314-.244-.628-.419-.977-.628-.313-.174-.627-.384-.976-.489-.384-.104-.802-.21-1.22-.21-2.512-.034-5.058 0-7.57 0-.14 0-.244.036-.244.21v2.932c0 .07.035.14.105.175.174.07.349.14.558.175.384.104.802.593.837 1.012.035.419-.035.768-.314 1.082-.244.279-.488.523-.872.489h-.21c-.209.034-.348.07-.418.349a.931.931 0 0 1-.244.488 8.66 8.66 0 0 1-.872 1.047 4.531 4.531 0 0 1-.802.629c-.175.104-.419.174-.628.244-.349.105-.663.28-1.011.314-.489.035-1.012.14-1.5-.105-.244-.14-.558-.14-.802-.209-.175-.07-.35-.105-.489-.21a12.046 12.046 0 0 1-1.011-.872c-.384-.35-.628-.838-.837-1.292-.105-.209-.21-.314-.419-.314-.384.035-.732-.07-.977-.384-.209-.244-.418-.523-.418-.872 0-.245.035-.454.14-.698.209-.524.627-.698 1.08-.803.175-.035.245-.07.245-.245V9.215c0-.244-.07-.314-.314-.314H24.624c-.349 0-.349 0-.349.349v2.688c0 .209.07.244.244.279.245.07.454.21.698.314.21.105.314.314.419.558.174.384.209.978-.07 1.292-.314.349-.663.663-1.221.593-.21-.035-.384.07-.419.314a.264.264 0 0 1-.07.14c-.139.244-.313.489-.453.733a2.625 2.625 0 0 1-.976.977c-.21.14-.454.28-.663.42-.419.279-.872.348-1.325.453-.698.175-1.396 0-2.058-.174-.035 0-.035 0-.035-.035-.314-.175-.628-.315-.907-.524-.21-.14-.454-.28-.628-.454a5.547 5.547 0 0 1-.698-.838c-.174-.209-.313-.488-.418-.732-.07-.245-.21-.35-.454-.35-.278 0-.523.035-.767-.174-.314-.28-.593-.594-.628-1.047 0-.245 0-.454.14-.698.174-.35.349-.594.732-.663.175-.035.314-.105.454-.175.07-.035.14-.105.14-.175V9.11c0-.174-.07-.244-.245-.244H7.708c-.21 0-.419 0-.628.07-.349.07-.698.174-1.081.279-.21.07-.419.14-.593.244-.28.14-.489.35-.768.524-.383.244-.628.663-.907 1.012-.174.244-.244.524-.418.768-.21.349-.28.733-.314 1.082-.035.419-.035.838-.035 1.257v9.703c0 .524-.035.489.488.489h40.565ZM3.034 86.391c-.035.034-.07.034-.105.07 0 .104-.035.209 0 .279 0 .419 0 .837.21 1.221.104.21.139.454.244.663.14.28.314.524.488.768.314.49.767.768 1.186 1.083.279.174.628.279.942.418.453.21.941.314 1.43.35h67.665c2.163 0 4.36.244 6.557-.175.245-.035.489-.105.698-.21.279-.14.558-.314.802-.488.244-.175.454-.35.663-.559.174-.174.279-.349.418-.523.245-.35.489-.698.628-1.082.14-.384.175-.803.21-1.222.034-.14-.035-.314-.035-.489-.14.07-.28.14-.384.21h-.035c-.14.07-.279.14-.453.244l-.523.314c-.175.07-.384.14-.594.21-.279.104-.523.279-.802.314-.593.104-1.186.14-1.744.21H6.661c-.07 0-.14 0-.209-.036l-1.151-.314a9.82 9.82 0 0 1-1.081-.384c-.314-.14-.628-.349-.942-.558-.07-.14-.174-.21-.244-.314ZM18.102 9.005v3.072c0 .559.035 1.152 0 1.71 0 .384.209.664.453.908.21.21.523.28.767.419.454.28.838 0 1.151-.14.559-.279.838-.803.838-1.5-.035-3.002 0-6.004 0-8.971 0-.314 0-.629-.21-.908a1.826 1.826 0 0 0-1.22-.803c-.384-.07-.733.105-1.082.314-.418.245-.662.594-.662 1.083v.523c-.035 1.431-.035 2.862-.035 4.293Zm48.621-.034v4.363c0 .314-.035.663.105.872.209.384.523.803 1.046.873.035 0 .105.035.14.07.14.035.314.105.453.07.244-.07.488-.21.733-.314.418-.245.697-.594.697-1.117V4.607c0-.314 0-.628-.21-.977-.278-.489-.732-.663-1.22-.803-.488-.104-.907.105-1.256.42-.244.209-.523.488-.488.872 0 .279-.035.558-.035.803.035 1.326.035 2.687.035 4.049Z" fill="#6D6E71"/><path d="M16.671 60.596h-5.999c-.523 0-.977-.245-1.256-.663-.14-.21-.209-.49-.209-.768V46.983c0-.454.244-.838.628-1.117a1.94 1.94 0 0 1 1.15-.35h11.546c.628 0 1.116.28 1.465.769.14.209.174.488.209.733v12.077c0 .419-.21.837-.593 1.117a1.815 1.815 0 0 1-1.081.349c-1.988.035-3.941.035-5.86.035Zm0-12.147h-4.325c-.418 0-.418 0-.418.384v8.447c0 .384.104.488.488.488h8.476c.383 0 .418-.035.418-.419v-8.621c0-.244-.07-.314-.314-.314-1.43.07-2.895.035-4.325.035Z" fill="#F47400"/><path d="M71.362 60.596h-6.069c-.488 0-.872-.244-1.151-.663a1.848 1.848 0 0 1-.314-1.047V47.227c0-.628.28-1.117.767-1.466.21-.14.524-.21.768-.21h11.963c.524 0 1.012.28 1.326.734.14.21.209.488.209.733v12.147c0 .454-.349 1.082-.837 1.256a2.73 2.73 0 0 1-.907.14c-1.953.035-3.837.035-5.755.035Zm0-12.147h-4.325c-.279 0-.349.07-.349.349.035.419 0 .873 0 1.326v7.26c0 .42 0 .42.419.42h8.44c.42 0 .524-.105.524-.49v-8.446c0-.384 0-.42-.419-.42h-4.29Zm-25.706 4.607v-6.143c0-.454.21-.803.628-1.047.349-.244.767-.314 1.186-.314h11.58c.628 0 1.116.279 1.465.837.035.035.035.105.035.175.035.244.035.489.035.733v11.519c0 .244-.035.488-.035.698-.035.314-.244.489-.454.698-.383.349-.802.349-1.29.349H47.19c-.523 0-.977-.21-1.256-.628a1.341 1.341 0 0 1-.244-.768c-.035-1.99-.035-4.05-.035-6.109Zm12.103 4.748v-9.32h-9.312v8.971c0 .349 0 .349.383.349h8.93Zm-15.382-4.713V59.2c0 .559-.348.943-.837 1.222-.314.175-.628.14-.941.14H28.913c-.558 0-.907-.245-1.256-.698-.209-.28-.174-.559-.209-.838-.035-.768 0-1.536 0-2.304v-9.424c0-.21 0-.454.035-.663.035-.35.244-.594.523-.768.384-.28.802-.35 1.256-.35h11.545c.453 0 .837.175 1.15.42.245.209.454.558.454.942-.07 2.094-.035 4.154-.035 6.213Zm-2.79-4.607h-9.313v9.32h8.93c.418 0 .418 0 .418-.42v-8.586c-.035-.105-.035-.21-.035-.314ZM16.636 78.747h-6.313c-.384 0-.593-.21-.837-.454-.28-.314-.35-.698-.35-1.117V65.378c0-.524.21-.943.594-1.292.14-.14.418-.209.627-.209h12.557c.488 0 .907.489 1.081.907.21.629.14 1.222.14 1.85v10.612c0 .488-.175.942-.558 1.291-.175.14-.419.21-.628.21-2.093.034-4.186 0-6.313 0Zm4.674-7.4v-4.398c0-.245-.07-.314-.314-.314H12.31c-.384 0-.384 0-.384.383v8.517c0 .454 0 .454.454.454h8.58c.279 0 .349-.07.349-.349v-4.293Zm50.05 7.4h-6.278a1.12 1.12 0 0 1-.732-.28c-.21-.174-.314-.384-.42-.663-.173-.489-.104-.942-.104-1.43V65.377c0-.524.21-.943.593-1.292.14-.14.419-.209.628-.209h12.591c.454 0 .872.419 1.082.803.209.419.14.803.14 1.187V77.21c0 .663-.28 1.117-.838 1.466a.833.833 0 0 1-.314.07h-5.72c-.21.034-.419.034-.628 0 0 .034 0 .034 0 0Zm-4.639-7.4v4.328c0 .244.035.349.314.349h8.615c.419 0 .419 0 .419-.419v-8.552c0-.418 0-.418-.419-.418h-8.615c-.279 0-.349.07-.349.349.035 1.466.035 2.897.035 4.363Zm-13.601 7.4h-6.278c-.383 0-.593-.21-.837-.454-.349-.35-.349-.733-.349-1.187V65.273c0-.663.384-1.047.872-1.361.07-.035.21-.035.28-.035h12.625c.383 0 .697.244.906.593.244.384.21.733.21 1.117v11.38c0 .244 0 .488-.035.698-.07.383-.244.698-.663.907-.279.14-.558.14-.802.14-1.953.07-3.941.07-5.93.035 0 .034 0 .034 0 0Zm-4.673-12.078v9.32h9.312v-9.32h-9.312ZM34.914 78.746h-6.279c-.453 0-.732-.21-.976-.628-.175-.315-.175-.594-.175-.873V65.377c0-.21 0-.419.07-.593a1.23 1.23 0 0 1 .593-.733c.314-.21.628-.175.977-.175h12.068c.383 0 .628.21.872.454.314.349.349.733.349 1.152V77.35c0 .628-.384 1.012-.837 1.326-.07.07-.21.035-.314.035-2.163.035-4.256.035-6.348.035Zm-4.674-2.758h9.313v-9.32H30.24v9.32ZM16.672 42.235c-1.152 0-2.268.035-3.419 0-.348 0-.627-.244-.837-.593-.209-.35-.14-.664-.14-1.013 0-.314.21-.558.454-.767.384-.315.837-.385 1.326-.385h5.476c.523 0 .976.21 1.255.594.28.384.384.873.175 1.291-.21.524-.628.908-1.29.908-.943 0-1.989 0-3-.035 0 .035 0 .035 0 0Zm54.726.001h-3.383c-.418 0-.663-.314-.907-.628-.244-.315-.244-.699-.14-1.048a1.92 1.92 0 0 1 .42-.733c.348-.314.801-.384 1.29-.384h5.58c.524 0 .942.21 1.256.594.314.384.349.907.175 1.361-.175.524-.593.873-1.186.838a46.03 46.03 0 0 1-3.105 0c0 .035 0 .035 0 0Zm-36.485.034H31.88c-.419 0-.767-.104-1.046-.418-.21-.28-.419-.559-.419-.943 0-.314.14-.523.28-.767.348-.524.871-.699 1.464-.699h5.58c.629 0 1.152.315 1.396.838a1.3 1.3 0 0 1-.07 1.327c-.279.488-.697.628-1.256.628-.906.035-1.918.035-2.895.035Zm18.172 0H49.77c-.488 0-.976-.523-1.011-1.012v-.524c-.07-.419.488-.907.837-1.082.349-.174.698-.14 1.011-.14h5.232c.419 0 .733.105 1.082.315.453.279.627.698.627 1.187 0 .453-.279.767-.593 1.047-.244.244-.558.21-.872.21h-3Z" fill="#6D6E71"/></g><defs><clipPath id="a"><path fill="#fff" d="M0 0h88v94H0z"/></clipPath></defs></svg>