<svg width="90" height="92" fill="none" xmlns="http://www.w3.org/2000/svg"><g clip-path="url(#a)"><path d="M0 69.612V3.218c.2-.267.368-.533.568-.8.735-.965 1.671-1.664 2.84-2.03.302-.1.602-.233.903-.333h81.311c.234.066.468.133.668.233.802.3 1.571.666 2.206 1.232.836.766 1.437 1.531 1.437 2.83-.033 21.51-.033 43.02-.033 64.496v.6a.67.67 0 0 1-.1.365c-.602.966-1.337 1.732-2.373 2.298a6.355 6.355 0 0 1-3.108.799H64.702v3.396c0 .1.1.233.166.3l2.206 1.299c.902.532 1.838 1.032 2.74 1.531 1.204.7 2.44 1.365 3.643 2.065 1.17.632 1.872 1.565 1.905 2.896.034 1.199.067 2.431 0 3.63a3.563 3.563 0 0 1-.468 1.531c-.568.966-1.437 1.499-2.64 1.499H17.312c-.368 0-.77-.067-1.07-.233-1.203-.6-1.838-1.599-1.871-2.964 0-.699-.034-1.398 0-2.064.033-.733.066-1.465.167-2.198.133-.799.601-1.365 1.27-1.764.802-.5 1.637-.933 2.44-1.399a337.052 337.052 0 0 1 3.575-1.998c.836-.466 1.671-.932 2.473-1.398.435-.267.936-.466.769-1.132-.067-.233 0-.466 0-.7v-2.23H6.25c-.936 0-1.839-.034-2.74-.333a6.87 6.87 0 0 1-1.973-1A15.45 15.45 0 0 1 0 69.613Zm87.594-12.02V6.313c0-1.065-.334-1.964-1.203-2.63-.635-.5-1.37-.666-2.173-.666H5.18c-.635.067-1.203.266-1.704.7-.769.632-1.137 1.498-1.137 2.497v51.344h21.222c0-.167.034-.334.034-.5v-29.2c0-.533 0-.533-.535-.533H9.023c-.367 0-.768-.034-1.136-.167-.936-.3-1.203-1.265-.802-2.13.334-.733 1.036-.866 1.771-.866h72.187c.268 0 .535.066.802.1.535.1.936.466 1.07.965.167.633.1 1.299-.535 1.732-.367.266-.802.332-1.27.332H27.27c-.5 0-.5 0-.5.5v29.734c20.319.067 40.538.067 60.824.067Zm-42.577 3.063H2.908c-.468 0-.502.033-.502.5v5.36c0 .533.1 1.066.334 1.565.502.999 1.304 1.565 2.44 1.632h78.871c.234 0 .468.033.702 0 .334-.034.668-.1.97-.2 1.169-.433 1.804-1.365 1.87-2.564.101-1.965.034-3.962.034-5.927 0-.233-.133-.333-.334-.333h-.401c-14.003-.033-27.94-.033-41.875-.033Zm-.034 24.306H18.047c-.334 0-.435.1-.401.433.033.666 0 1.332 0 1.998 0 .566 0 .566.601.566h53.606c.468 0 .468 0 .468-.5v-1.897c0-.7.067-.6-.602-.6H44.983Zm-22.96-3.13c0 .034.034.034.034.067H68.01c-.234-.166-.401-.333-.602-.433-1.136-.666-2.34-1.265-3.442-1.964-.702-.433-1.437-.6-2.273-.6-6.784.034-13.568 0-20.352 0H27.505c-.168 0-.335-.033-.468.034-1.17.666-2.306 1.331-3.476 1.998-.535.3-1.036.599-1.537.898Zm39.704-8.923H28.24v2.53c0 .334.134.433.434.4h32.384c.134 0 .301.033.401-.033.1-.034.268-.167.268-.267v-2.63Z" fill="#6D6E71"/><path d="M56.379 37.88h15.774c.735 0 1.337.266 1.637.932.334.833.034 1.798-1.002 2.065-.334.1-.702.1-1.07.1H40.905c-.434 0-.902-.1-1.303-.3-.669-.333-.802-.966-.669-1.632.1-.532.435-.932.97-1.032.3-.066.601-.133.902-.133h15.574Z" fill="#6D6E71"/><path d="M20.752 15.205c-.067.833-.067 1.698-.234 2.53-.167.933-.669 1.699-1.37 2.332-.535.499-1.17.898-1.872 1.032-.535.1-1.07.233-1.67.133-.636-.133-1.27-.267-1.806-.6-.935-.532-1.604-1.331-2.005-2.33a4.94 4.94 0 0 1-.3-1.965v-2.464c0-1.831.768-3.263 2.339-4.195a4.207 4.207 0 0 1 2.907-.566c1.471.266 2.64.999 3.376 2.364.234.466.468.965.501 1.498 0 .766.067 1.499.134 2.231Zm-3.242 0v-1.698c0-.2-.067-.433-.2-.6-.502-.732-1.37-.898-2.14-.432-.5.333-.6.832-.634 1.365a36.2 36.2 0 0 0 0 2.697c0 .266.033.533.133.8.234.599 1.07.965 1.805.798.401-.1 1.07-.666 1.036-1.298v-1.632Zm60.994 0v1.398c-.033 1.399-.5 2.598-1.604 3.53a4.578 4.578 0 0 1-2.34 1.065c-.768.133-1.503.034-2.205-.233-1.17-.433-2.038-1.232-2.607-2.364-.367-.799-.468-1.665-.468-2.53 0-.766-.033-1.532 0-2.298.034-.832.201-1.665.669-2.397.601-1.032 1.504-1.765 2.64-2.098 2.139-.633 4.244.266 5.347 2.164.401.666.568 1.432.568 2.198v1.565Zm-6.049-.033c0 .532-.033 1.065 0 1.598 0 .233.067.5.2.732.435.8 1.505.866 2.106.433.502-.366.635-.899.669-1.465 0-.865.033-1.731 0-2.597 0-.3-.067-.6-.2-.899-.235-.533-.836-.932-1.672-.732a1.384 1.384 0 0 0-1.103 1.298v1.632Zm-31.951 0c-.067.832-.067 1.665-.167 2.464-.1.632-.401 1.232-.802 1.764-.635.833-1.47 1.432-2.473 1.698-.502.134-1.07.233-1.638.134-.669-.134-1.303-.267-1.872-.6-.868-.466-1.504-1.198-1.904-2.097-.268-.6-.435-1.266-.402-1.965.034-.966 0-1.931 0-2.897.034-1.798.87-3.13 2.373-4.029a4.306 4.306 0 0 1 2.807-.566c.702.1 1.37.367 1.972.766.769.5 1.27 1.199 1.671 1.998.301.633.334 1.332.368 1.998.033.433 0 .866 0 1.298a.104.104 0 0 0 .067.034Zm-3.175.033V13.44c-.034-.666-.87-1.365-1.504-1.265-1.036.2-1.37.566-1.47 1.631-.1.933-.034 1.865 0 2.764 0 .633.5 1.398 1.002 1.532 1.003.233 1.938-.2 2.005-1.365 0-.5-.033-1-.033-1.532Z" fill="#F47400"/><path d="M63.998 53.13H55.81c-.601 0-1.07-.2-1.437-.7-.635-.898-.1-2.164.87-2.297.3-.067.634-.1.968-.1H72.02c.602 0 1.203.1 1.604.633.535.7.368 1.998-.668 2.297-.368.133-.802.167-1.203.167h-7.754ZM51.064 34.85h-7.82c-.669 0-1.27-.633-1.27-1.333-.034-1.065.635-1.698 1.67-1.698h14.873c.668 0 1.203.233 1.504.833.468.932-.034 2.164-1.103 2.197-2.607.034-5.247 0-7.854 0Z" fill="#6D6E71"/><path d="M66.337 14.306v3.463c0 .3.1.466.368.533.601.166.969.599 1.102 1.165.134.733-.167 1.299-.802 1.632-.267.133-.601.2-.935.232-.87.034-1.738.034-2.607 0-.669-.033-1.237-.2-1.57-.865-.402-.766-.168-1.465.4-1.898.2-.167.468-.233.702-.366.1-.067.2-.2.2-.3 0-1.299 0-2.564.034-3.862 0-.4-.3-.367-.468-.433a1.519 1.519 0 0 1-.602-2.498 34.033 34.033 0 0 1 1.571-1.531c.735-.7 1.671-.566 2.24.133.267.3.367.8.367 1.232.033 1.066 0 2.23 0 3.363Zm-12.265-.566c-.501-.167-.969-.3-1.236-.766-.334-.533-.334-1.399.2-1.931a39.337 39.337 0 0 1 1.705-1.632c.735-.666 1.804-.333 2.172.4.167.333.234.732.234 1.132.033 2.23.033 4.495 0 6.726 0 .366.134.532.468.632.601.167 1.07.766 1.103 1.299.066.566-.301 1.265-.903 1.532-.267.133-.568.166-.869.166a34.9 34.9 0 0 1-2.64 0c-.702 0-1.27-.333-1.604-.932-.3-.5 0-1.532.501-1.865.167-.1.334-.166.502-.233.267-.1.4-.233.367-.566-.033-1.232 0-2.464 0-3.663v-.3Zm-9.124-.034c-.835-.1-1.37-.6-1.504-1.365-.067-.3.034-.732.234-.965.635-.7 1.304-1.366 2.006-2.032.367-.333.835-.4 1.303-.2.601.234 1.036.633 1.036 1.3v7.557c.3.166.635.266.902.432.502.3.736.833.669 1.366-.1.632-.401 1.265-1.203 1.331-1.137.1-2.273.167-3.41.1-.935-.066-1.303-.433-1.57-1.431-.067-.3.267-1.133.602-1.332.3-.167.601-.3.935-.433v-4.329Zm-16.707 4.395c.535.2 1.036.367 1.337.866.568.932-.1 2.164-.97 2.231-1.102.067-2.238.133-3.375.1-.768-.033-1.303-.4-1.537-1.265-.167-.7.267-1.432.902-1.732.168-.066.368-.133.569-.2V13.84c-.368-.233-.77-.366-1.036-.632-.602-.533-.635-1.499-.034-2.098.535-.533 1.07-1.032 1.604-1.565.401-.433.903-.566 1.437-.4.669.234 1.137.666 1.137 1.432v7.06c-.034.132-.034.299-.034.465Z" fill="#F47400"/><path d="M44.215 53.13h-5.18c-.602 0-1.103-.2-1.437-.733-.568-.899-.067-2.097.935-2.264.301-.067.602-.1.936-.1h9.759c.601 0 1.203.133 1.604.666.535.7.334 1.998-.702 2.298-.334.1-.735.166-1.07.166-1.67 0-3.241-.033-4.845-.033Zm14.47-9.19c.97 0 1.939-.034 2.908 0 .601.033 1.103.233 1.47.799.368.6.268 1.531-.334 1.93-.3.2-.735.4-1.103.4-1.938.034-3.91.034-5.848 0-1.003-.033-1.605-.599-1.671-1.498-.034-.932.635-1.565 1.637-1.631h2.941Zm-24.33 0h2.908c.568 0 1.036.2 1.37.666.635.865.2 2.097-.802 2.33-.367.1-.735.133-1.103.133h-5.247c-.701 0-1.236-.3-1.604-.899-.434-.665.134-1.964.903-2.097.4-.067.802-.133 1.203-.133.802-.034 1.57 0 2.372 0Zm12.131 3.163H43.68c-.501 0-.936-.167-1.337-.5-.468-.433-.501-.999-.367-1.532.133-.499.467-.898 1.035-.998.335-.067.669-.133.97-.133h5.38c.702 0 1.27.3 1.605.965.367.733-.134 1.865-.936 2.031-.368.067-.769.133-1.17.133-.769.034-1.57.034-2.373.034ZM34.287 34.85H30.98c-.535 0-1.137-.6-1.17-1.132-.1-.932.167-1.465 1.036-1.798.134-.067.3-.067.434-.067h6.116c.669 0 1.304.533 1.504 1.2.167.599-.167 1.331-.735 1.664a1.13 1.13 0 0 1-.568.166c-1.103 0-2.206-.033-3.309-.033Zm-1.469 3.03c.501 0 1.036-.033 1.537 0 .97.067 1.671.832 1.538 1.698-.1.766-.435 1.299-1.538 1.365-1.136.067-2.306 0-3.442-.1-.535-.033-1.003-.632-1.07-1.165-.066-.666.067-1.232.703-1.565a2.63 2.63 0 0 1 .868-.266c.435 0 .903.033 1.404.033Zm-14.436 6.06c.568-.034 1.136 0 1.637.332.335.233.736.966.669 1.299-.134.633-.401 1.199-1.136 1.365-.802.2-1.571.2-2.373 0-.568-.133-.936-.5-1.07-1.032-.167-.633-.033-1.265.568-1.698.535-.3 1.103-.3 1.705-.267Zm.065-6.06c.468-.034 1.036-.034 1.538.299.4.266.768.966.701 1.332-.167.866-.701 1.365-1.203 1.365-.768.033-1.57 0-2.373 0-.4 0-1.036-.732-1.036-1.199-.033-.632.134-1.165.702-1.498a2.28 2.28 0 0 1 .802-.266c.234-.067.502-.034.87-.034Zm-.1 15.316a15.929 15.929 0 0 1-1.337-.233c-.434-.1-.869-.699-.935-1.132-.067-.699.133-1.265.802-1.598.234-.1.501-.2.735-.2.668 0 1.337 0 2.005.133.568.134.87.566 1.003 1.166.133.732-.368 1.531-.936 1.665-.434.066-.869.133-1.337.2Zm13.703 0c-.602-.033-1.17-.033-1.672-.366-.635-.433-.635-1.065-.568-1.731.067-.367.602-.9 1.07-.933.768-.033 1.537-.066 2.272 0 .602.034 1.07.633 1.103 1.232.033.933-.167 1.299-1.07 1.599-.334.133-.735.133-1.136.2ZM18.347 34.85h-1.036c-.601-.034-1.17-.633-1.236-1.233-.1-.899.267-1.398 1.036-1.731a.928.928 0 0 1 .434-.1h1.504c.87 0 1.638.7 1.638 1.532 0 .666-.635 1.531-1.37 1.498-.301.033-.636.033-.97.033Zm26.637 28.801h2.807c.836 0 1.537.4 1.738 1.2.134.532-.1 1.364-.635 1.597-.368.167-.769.3-1.136.3-1.839.033-3.71.033-5.548 0-.97 0-1.504-.333-1.838-1.332-.134-.433.3-1.498.969-1.631.501-.1 1.036-.133 1.57-.167.703.033 1.404.033 2.073.033Z" fill="#6D6E71"/></g><defs><clipPath id="a"><path fill="#fff" transform="translate(0 .021)" d="M0 0h90v91H0z"/></clipPath></defs></svg>