<svg width="88" height="90" fill="none" xmlns="http://www.w3.org/2000/svg"><path d="M82.8 0C87 2 88 5.3 88 9.8c-.2 23.7-.1 47.3-.1 71 0 5.5-2.6 8.2-8.1 8.2-9.4.1-18.9 0-28.3 0H8.9c-1.7 0-3.6-.3-5.2-1C1.3 86.9 0 85.1 0 82.2.1 57.1.1 32 0 6.9 0 3 2.7 1.6 5.4 0h77.4ZM46.5 83.7h33.6c2.1 0 3.1-1.2 3.1-3.2 0-10.5 0-21-.1-31.5 0-.7-.9-1.8-1.5-1.8-2.5-.2-5.1-.1-7.5-.1-1 6.8-4.1 10.3-9 10.5-5.3.2-8.3-3-9.7-10.2h-8.9v11.5c0 3.6-1.1 4.4-4.6 3.2-2-.7-4-.7-4.9 1.2-.6 1.1-.5 3 .1 4 1.1 1.8 3 1.9 5 1.1 3.2-1.2 4.4-.3 4.4 3.1.1 4 0 7.9 0 12.2ZM5 47.1c-.1.7-.2 1-.2 1.3v31.2c0 3.5.7 4.1 4.2 4.1h29.8c.8 0 1.5-.1 2.5-.2v-6.7c0-.8-.1-1.5-.1-2.3-6.6-1.1-9.9-3.9-10.1-8.6-.3-5.3 2.2-7.8 10-10v-8.7H29.9c-4 0-4.7-1-3.5-4.6.7-2.1.5-3.9-1.4-4.9-1-.6-3.4-.6-4 .2-.9 1.2-1.4 3.2-1.1 4.7.8 3.7.4 4.7-3.5 4.7-3.7-.2-7.5-.2-11.4-.2Zm78.2-5.3V8.4c0-2.4-1.7-3-3.9-3-10 .1-20 0-30 0-.8 0-1.7.1-2.5.2v9.2c6.4.6 10.3 3.8 10.3 8.8-.1 6.3-4.1 9.1-10.3 9.5v8.7h11.1c4.1 0 4.7 1.1 3.8 5-.3 1.4.3 3.5 1.3 4.6.6.7 3.3.7 3.9 0 .9-1.1 1.6-3.2 1.3-4.6-.9-3.8-.2-5 3.9-5 3.5-.1 7.1 0 11.1 0Zm-42-36.5H8.9c-3.5 0-4.1.7-4.1 4.4v31.9h9c1.1-6.6 4-10 8.7-10 1.9 0 4 .6 5.6 1.5 3.2 1.8 4 5.2 4.3 8.4h8.9c0-4.1-.1-7.9 0-11.8.1-3 1.7-4.1 4.4-2.9 1.9.8 3.9 1 5-.8.7-1.1.8-3.1.2-4.3-1-1.9-3-1.9-5-1.2-3.2 1.1-4.6.1-4.7-3.3V5.3Z" fill="#6D6E71"/><path d="M41.3 89V74.6c-1.6-.5-3.1-.8-4.5-1.4-4.5-1.8-6.5-5.4-5.5-10.2.4-2 1.5-3.5 3.2-4.5 1.6-.9 3.3-1.7 5.1-2.3 1.3-.4 1.5-1 1.5-2.2-.1-4 0-8.1 0-12.3h17.8c2.6 0 3.4.8 3 3.5-.2 1.6-.5 3.2.2 4.8.5 1.2 1.4 1.8 2.7 1.8 1.3 0 2.3-.5 2.6-1.8.3-1.2.6-2.5.4-3.7-.6-3.7 0-4.5 3.8-4.5h16.2v38.4c0 1-.1 2-.2 3-.6 3.6-3.1 5.5-7.3 5.7-2.1.1-4.3 0-6.5 0H42.3c-.2.1-.5.1-1 .1Zm5.3-41.6v11.8c0 3.1-1.2 3.9-4.1 3-.7-.2-1.4-.4-2.1-.5-1.3-.2-2.5.1-3.2 1.4-.8 1.5-.8 3 .1 4.4.8 1.2 2 1.6 3.3 1.3.7-.1 1.4-.4 2.2-.6 2.4-.7 3.5 0 3.7 2.5v11.9c0 .3 0 .7.1 1 .2 0 .4.1.5.1h32.6c2.4 0 3.3-1 3.3-3.4V49.6c0-1.4-.7-2.4-1.7-2.5-2.4-.1-4.8 0-7.1 0-.6 1.8-1 3.5-1.6 5.1-1 2.4-2.7 4.2-5.3 5-4.4 1.3-8.3-.4-10.2-4.6-.8-1.6-1.2-3.4-1.9-5.2h-8.6Z" fill="#F47400"/><path d="M77 89.1H41.1V74.7c-.5-.1-1-.3-1.4-.4l-3-.9c-4.6-1.8-6.6-5.5-5.6-10.4.4-2 1.6-3.6 3.3-4.6 2-1.1 3.6-1.8 5.1-2.3 1.2-.4 1.4-.9 1.4-2-.1-2.9 0-5.8 0-8.8v-3.6h17.9c1.4 0 2.3.2 2.7.8.5.6.6 1.4.4 2.8-.2 1.5-.5 3.1.2 4.7.5 1.2 1.3 1.7 2.5 1.7 1.4 0 2.2-.6 2.5-1.7v-.1c.3-1.2.6-2.4.4-3.6-.3-1.8-.3-3.1.3-3.8.6-.7 1.9-.9 3.6-.9H88v38.5c0 1.2-.1 2.1-.2 3-.7 3.7-3.2 5.7-7.4 5.8-1.2.2-2.3.2-3.4.2Zm-3-.2h1.5c1.6 0 3.3 0 4.9-.1 4.2-.2 6.5-2 7.1-5.6.2-.9.2-1.8.2-3V42h-16c-1.9 0-2.9.2-3.4.8-.5.6-.6 1.6-.3 3.6.2 1.2-.1 2.5-.4 3.7v.1c-.3 1.2-1.2 1.9-2.8 1.9-1.3 0-2.2-.6-2.8-1.8-.7-1.7-.5-3.3-.3-4.9.2-1.3.1-2.1-.3-2.6s-1.2-.8-2.5-.8H41.3v12.2c0 1.2-.2 1.9-1.6 2.3-1.5.5-3.1 1.2-5.1 2.2-1.7.9-2.8 2.4-3.2 4.4-.9 4.7 1 8.3 5.4 10.1.9.4 1.9.6 3 .9.5.1 1 .3 1.5.4h.1v14.3h8.8c8 .1 15.9.1 23.8.1Zm-8.2-5.1H46.6V70.9c-.1-1.2-.4-2-1-2.4-.5-.4-1.4-.4-2.5 0-.2.1-.4.1-.7.2-.5.2-1 .3-1.5.4-1.5.3-2.7-.2-3.5-1.4-.9-1.4-.9-3-.1-4.6.6-1.2 1.7-1.7 3.3-1.4.7.1 1.4.3 2 .5h.1c1.5.4 2.4.4 3 0 .6-.4.9-1.3.9-2.9v-12h8.9v.1c.2.6.4 1.1.6 1.7.4 1.2.8 2.4 1.3 3.5 1.9 4.1 5.6 5.8 10 4.5 2.4-.7 4.2-2.3 5.2-4.9.5-1.1.8-2.2 1.1-3.4.2-.5.3-1.1.5-1.6v-.1h7.2c1.1 0 1.9 1.1 1.9 2.6v30.7c0 2.5-1 3.5-3.5 3.5-4.6-.1-9.3-.1-14-.1Zm-19-.3h33c2.3 0 3.2-.9 3.2-3.3V49.5c0-1.3-.7-2.3-1.6-2.3h-7c-.2.5-.3 1-.5 1.5-.4 1.2-.7 2.3-1.1 3.5-1.1 2.6-2.9 4.3-5.4 5-4.5 1.3-8.4-.5-10.4-4.7-.5-1.1-.9-2.4-1.3-3.5-.2-.5-.3-1-.5-1.6h-8.4v11.7c0 1.6-.3 2.6-1 3.1s-1.7.5-3.2 0h-.1c-.6-.2-1.3-.4-2-.5-1.5-.2-2.5.2-3 1.3-.8 1.5-.7 3 .1 4.3.9 1.4 2.2 1.4 3.2 1.3.5-.1 1-.3 1.5-.4.2-.1.5-.1.7-.2 1.3-.4 2.1-.3 2.8.1.6.4 1 1.2 1.1 2.6v12.5c-.1.1-.1.2-.1.3Z" fill="#F47400"/></svg>