<svg width="87" height="100" fill="none" xmlns="http://www.w3.org/2000/svg"><g clip-path="url(#a)"><path d="M40.768 0c.097.065.162.162.259.162.387.097.775.13 1.163.226.355.097.678.227 1.001.388.453.194.937.356 1.39.582.613.324 1.227.712 1.84 1.035.582.324 1.132.615 1.713.906.42.226.84.42 1.292.582a22.3 22.3 0 0 0 1.583.42c.485.13.97.227 1.454.356.032 0 .097.033.13.033.904.064 1.808.129 2.713.161.678 0 1.39-.064 2.068-.161.484-.065.936-.227 1.421-.324.55-.13 1.13-.259 1.68-.42.485-.13.937-.324 1.39-.485.322-.097.613-.194.936-.291.226-.065.485-.13.71-.227.26-.097.485-.194.808-.323.033.194.097.356.097.517v9.703c0 .873-.032 1.746-.097 2.587-.032.518-.193 1.067-.29 1.585-.097.42-.162.84-.259 1.261-.129.518-.29 1.003-.484 1.52-.097.291-.162.518.064.809.388.55.646 1.196.84 1.843.323 1.035.259 2.102.097 3.137-.097.68-.42 1.326-.775 1.94a5.855 5.855 0 0 1-1.939 2.038c-.484.291-1.001.518-1.518.744-.581.227-1.228.388-1.874.388-.29 0-.226.194-.226.388 0 1.294 0 2.588-.064 3.881-.033.55-.227 1.1-.356 1.617a9.85 9.85 0 0 1-.387 1.294 25.144 25.144 0 0 1-.97 1.843c-.226.42-.484.841-.807 1.165-.582.647-1.131 1.326-1.81 1.843-.775.582-1.55 1.165-2.487 1.456-.323.097-.646.258-.97.42-.096.032-.16.194-.193.291-.032.194 0 .388 0 .582.743.162 1.486.291 2.197.453.678.162 1.324.356 1.97.518.453.097.905.129 1.325.258.678.162 1.325.356 1.97.518.388.097.808.13 1.196.258.517.13 1.034.324 1.55.518.388.13.776.259 1.131.42.614.291 1.196.647 1.81.938 1.066.518 1.938 1.262 2.778 2.07.807.776 1.518 1.682 2.197 2.587.42.55.678 1.165 1.001 1.78.258.484.517.937.743 1.455.194.452.323.938.452 1.423.194.743.356 1.487.517 2.231.033.13.033.259.033.388.032 1.94.096 3.881.129 5.822v.356c0 .194.064.323.29.29h15.734v32.213h-87V58.02H7.88c.097-.388.194-.776.226-1.165.065-.582.323-1.1.55-1.649.484-1.1 1.291-1.908 2.26-2.587.453-.291 1.002-.485 1.519-.68 1.874-.679 3.844-.323 5.783-.355.452 0 .872.194 1.324.323.259.065.485.033.679-.194.678-.84 1.583-1.423 2.455-2.07.485-.355 1.066-.582 1.615-.84.55-.26 1.066-.518 1.616-.744.258-.097.549-.162.84-.227.42-.097.84-.226 1.292-.323.42-.097.807-.162 1.227-.259.453-.097.873-.194 1.325-.323.29-.065.582-.162.872-.227.42-.097.873-.161 1.293-.258.355-.065.71-.162 1.098-.26.452-.096.937-.226 1.389-.323a19.4 19.4 0 0 0 1.292-.355c.162-.033.323-.065.517-.097 0-.194.033-.389 0-.615 0-.097-.097-.226-.194-.259-.581-.29-1.163-.517-1.744-.808-.485-.259-.97-.485-1.39-.841-.775-.68-1.55-1.358-2.196-2.135-.517-.614-.937-1.358-1.325-2.07-.29-.55-.549-1.131-.743-1.681-.129-.356-.161-.776-.258-1.165-.388-1.617-.162-3.266-.226-4.915 0-.26-.097-.324-.356-.324-.937-.032-1.776-.323-2.616-.711-1.002-.485-1.745-1.23-2.359-2.07-.42-.55-.71-1.23-.904-1.908-.291-1.035-.227-2.07-.13-3.073.033-.485.291-.938.517-1.39.162-.356.42-.712.582-1.068a.63.63 0 0 0 0-.485c-.162-.485-.356-.97-.517-1.455a3.547 3.547 0 0 1-.194-.841c-.097-.42-.162-.841-.226-1.294-.097-.905-.194-1.81-.226-2.716-.032-.744-.032-1.488.064-2.232.065-.518.323-1.035.517-1.52.194-.453.356-.906.614-1.294.517-.808 1.13-1.552 1.939-2.102.484-.323.969-.614 1.486-.873.484-.227 1.001-.356 1.518-.518.29-.097.614-.097.872-.226.13-.065.259-.226.355-.356.808-1.035 1.745-1.94 2.844-2.652.678-.42 1.453-.711 2.196-1.067a7.211 7.211 0 0 1 2.165-.615c.097 0 .194-.097.29-.161C38.571 0 39.67 0 40.768 0Zm42.935 96.701V71.507c0-.517-.032-.517-.55-.517H77.92c-.517 0-.517 0-.517.517v11.805c0 .55-.097.68-.646.68h-14.99c-.517 0-.549 0-.549-.55V71.603c0-.55-.032-.614-.614-.614h-5.33c-.453 0-.485 0-.485.485V96.7h28.914Zm-28.914-70.02v-6.403c0-.42-.065-.873-.13-1.293-.128-.647-.807-1.197-1.453-1.197h-2.358c-.162 0-.259 0-.355-.194-.356-.712-.744-1.39-1.099-2.135-.258-.55-.904-.97-1.518-.938-.259.033-.582.033-.776.194-.614.42-1.195.906-1.776 1.326l-1.648 1.165a8.073 8.073 0 0 1-1.13.679 24.092 24.092 0 0 1-3.328 1.488c-.453.161-.905.355-1.357.485-.356.097-.71.162-1.034.258-.71.162-1.39.389-2.1.518-.71.13-1.421.162-2.132.226-.258.033-.355.097-.355.389.096 4.463-.194 8.926.161 13.389.032.453.097.938.258 1.358.194.55.453 1.067.744 1.553.323.582.678 1.132 1.13 1.617.517.517 1.131.97 1.712 1.423.291.226.647.42.97.582.581.291 1.195.485 1.744.808.614.389 1.034.97 1.228 1.682.161.55.194 1.164.161 1.747 0 .485.097.873.485 1.196.065.065.13.097.194.162.775.776 1.55 1.52 2.326 2.296.161.162.258.162.42 0 .775-.776 1.518-1.584 2.326-2.296.517-.453.678-.938.614-1.617-.033-.647.097-1.261.323-1.844.355-.84 1.001-1.39 1.809-1.746.355-.162.775-.259 1.13-.453a8.296 8.296 0 0 0 1.131-.711c.42-.291.84-.583 1.196-.938.71-.712 1.292-1.488 1.68-2.426.258-.614.516-1.229.646-1.876.129-.84.161-1.714.194-2.587-.033-1.94-.033-3.913-.033-5.886ZM3.293 61.353v35.35c.194 0 .356.032.517.032h24.617c.582 0 .582 0 .582-.582V61.642c0-.194-.065-.323-.29-.323h-4.62c-.098 0-.227.129-.291.226-.194.324-.356.68-.582.97-.226.324-.517.615-.775.873-.679.615-1.454 1.035-2.358 1.068-2.488.065-4.976.032-7.463.065-.71 0-1.357-.195-1.939-.518-.936-.518-1.712-1.197-2.132-2.232-.129-.29-.29-.452-.71-.452-1.39.032-2.746 0-4.136 0-.129.032-.258.032-.42.032Zm48.169 35.382V83.15c-.13.097-.194.162-.259.194l-1.97 1.973c-1.81 1.811-3.586 3.622-5.396 5.433-.226.227-.42.26-.646 0-.581-.582-1.163-1.196-1.744-1.778-1.939-1.94-3.91-3.881-5.848-5.822-.129-.13-.29-.323-.29-.485.032-.453.161-.906.226-1.358.064-.324.129-.615.194-.906.096-.42.226-.808.323-1.229.097-.485.161-.97.258-1.455.065-.259.13-.55.194-.809.097-.356.162-.711.226-1.067.097-.453.226-.906.323-1.39.097-.453.162-.906.259-1.359l.193-.873c.097-.453.227-.873.323-1.326.097-.453.162-.938.227-1.39.064-.324.129-.615.194-.939.096-.453.258-.905.322-1.326.098-.453.162-.905.227-1.358.064-.324.129-.615.194-.938.096-.42.258-.841.355-1.261.097-.453.161-.906.226-1.359.065-.388.162-.776.258-1.164.097-.453.227-.906.291-1.358.032-.162-.097-.356-.194-.518a2.696 2.696 0 0 0-.258-.388 442.7 442.7 0 0 0-3.23 4.043 5.718 5.718 0 0 1-.227-.42c-.032-.098-.032-.195-.064-.26-.13-.323-.259-.646-.356-.97-.161-.453-.258-.905-.42-1.358-.161-.55-.387-1.067-.549-1.585-.097-.258-.13-.517-.226-.776-.13-.323-.258-.647-.388-1.003-.161-.452-.258-.905-.42-1.358-.161-.453-.355-.906-.517-1.39-.161-.518-.29-1.035-.452-1.52-.258-.777-.55-1.52-.808-2.33-.129 0-.258 0-.387.033-.388.097-.743.227-1.13.324-.582.129-1.132.29-1.713.388-.743.129-1.486.29-2.165.614-.484.227-1.034.356-1.486.647-.807.485-1.583 1.002-2.261 1.682-.226.226-.13.388-.032.55.258.452.516.873.743 1.326.355.711.549 1.455.549 2.231 0 .065.032.13.032.227h7.947c0 .226.033.452.033.646v37.549c0 .485 0 .485.484.485h18.285c.227.065.388.065.55.065Zm9.756-89.522c-.258.033-.452.065-.678.097-.13.033-.291.097-.42.13-.388.064-.743.161-1.131.226-.614.13-1.228.323-1.841.356-1.39.064-2.779.032-4.2 0a2.88 2.88 0 0 1-.55-.065 121.39 121.39 0 0 0-1.583-.29c-.387-.066-.775-.13-1.162-.26-.679-.226-1.325-.485-1.971-.711-.517-.194-1.066-.388-1.583-.647a33.482 33.482 0 0 1-2.746-1.585c-.872-.55-1.81-.905-2.779-1.035-1.42-.194-2.907-.194-4.296.356-.743.291-1.454.712-2.1 1.164-1.034.712-1.777 1.714-2.423 2.782-.13.194-.258.388-.55.355-.71 0-1.42.098-2.131.292-.42.129-.808.323-1.163.582-.679.517-1.26 1.1-1.616 1.908-.323.679-.517 1.39-.484 2.102.032 1.003.194 2.005.323 2.976.097.743.29 1.455.42 2.199.161-.033.226-.033.323-.033.452-.097.904-.29 1.389-.323a50.042 50.042 0 0 1 3.812-.162c1.034 0 2.035-.162 3.037-.42.84-.227 1.68-.388 2.455-.647a18.255 18.255 0 0 0 2.165-.938c.872-.42 1.744-.873 2.52-1.39.969-.647 1.873-1.359 2.778-2.07.581-.42 1.227-.744 1.906-.809.775-.097 1.583-.13 2.39.13.679.226 1.26.582 1.81.97.678.517 1.033 1.26 1.389 1.908.549.097 1.066.194 1.583.258.71.065 1.26.453 1.841.777.71.453 1.26 1.067 1.55 1.81.227.518.485.518.905.55.356.033.744.098 1.099.162.323.065.614.162.872.194.097-.258.226-.485.258-.711.13-.647.291-1.261.388-1.908a17.84 17.84 0 0 0 .194-1.844V7.212ZM47.229 58.894c-.096.259-.129.485-.258.647-.226.226-.161.453-.097.679.097.453.259.906.355 1.326.098.42.13.873.227 1.326.161.744.355 1.488.549 2.232.194.873.388 1.778.581 2.652.13.614.259 1.196.388 1.81.194.939.388 1.876.614 2.782.13.582.258 1.197.388 1.779.129.614.258 1.261.387 1.876.162.776.291 1.552.42 2.296 0 .032 0 .097.032.13.13.452.259.873.356 1.325.097.42.161.841.226 1.294 0 .065.065.097.097.162.032 0 .065 0 .065-.033V67.723h15.539c.614 0 .646.13.646-.647-.032-1.908.097-3.816-.162-5.724-.064-.485-.161-1.003-.226-1.488 0-.032 0-.032-.032-.064-.162-.453-.323-.938-.517-1.391-.194-.518-.355-1.035-.646-1.52-.646-1.067-1.357-2.07-2.262-2.943-.936-.906-1.938-1.682-3.133-2.232a21.387 21.387 0 0 0-1.519-.647 11.85 11.85 0 0 0-1.518-.485c-.42-.097-.84-.161-1.26-.258-.323-.065-.614-.162-.937-.26a3.743 3.743 0 0 1-.581-.129c-.097.389-.194.712-.291 1.003a6.296 6.296 0 0 1-.258.712c-.162.452-.324.873-.485 1.325-.194.55-.355 1.1-.55 1.65-.096.259-.16.517-.258.776-.097.324-.194.647-.29.938l-.485 1.358c-.097.324-.194.647-.323 1.003-.162.453-.323.873-.452 1.326l-.291.97c-.162.518-.356 1.035-.517 1.553-.032.097-.097.194-.194.226-.032.032-.162-.065-.226-.13-.355-.42-.71-.873-1.066-1.325a46.792 46.792 0 0 1-2.035-2.426Zm.905 22.833c-.097-.453-.161-.808-.226-1.164-.097-.453-.226-.938-.323-1.39-.097-.454-.162-.906-.258-1.327a7.42 7.42 0 0 0-.227-.905c-.097-.42-.226-.841-.323-1.294-.097-.453-.161-.938-.258-1.423-.065-.324-.13-.615-.194-.938-.097-.453-.226-.906-.323-1.39-.097-.454-.162-.906-.259-1.359-.064-.323-.129-.615-.193-.938-.097-.453-.226-.906-.323-1.358-.097-.453-.162-.906-.259-1.359l-.194-.97c-.097-.485-.226-.938-.323-1.423-.097-.42-.161-.873-.258-1.294-.097-.55-.259-1.067-.323-1.617-.033-.29-.194-.323-.42-.323-.226 0-.356.032-.388.323-.032.453-.13.938-.226 1.391-.065.323-.162.647-.226 1.003-.097.452-.226.873-.323 1.326-.097.452-.162.905-.259 1.39-.064.324-.129.647-.226.97-.097.453-.226.874-.323 1.327-.097.452-.161.905-.226 1.358-.065.323-.13.614-.194.938-.097.453-.226.905-.323 1.39-.097.421-.161.874-.226 1.326l-.194.97c-.097.454-.226.906-.323 1.36-.097.452-.162.905-.226 1.358l-.194.97c-.097.42-.226.84-.323 1.261-.13.55-.258 1.1-.355 1.682-.033.097.032.258.096.323.194.227.42.42.647.647 1.227 1.261 2.487 2.49 3.715 3.752.161.161.226.161.387 0 .356-.356.743-.712 1.099-1.068 1.098-1.1 2.164-2.199 3.23-3.266 0-.194.065-.259.065-.259Zm25.974-1.067v-9.056c0-.614 0-.614-.614-.614h-8.432c-.581 0-.613.065-.613.647v8.44c0 .13 0 .26.032.389.032.097.162.226.226.226h2.972v-6.436h2.81c.356 0 .453.097.453.453v5.433c0 .13-.032.26 0 .356.032.065.13.194.194.194 1.002-.032 1.97-.032 2.972-.032Zm-57.99-19.373c1.035 0 2.1.033 3.135 0 .84-.032 1.68-.582 1.615-1.617a17.546 17.546 0 0 1 0-1.843 2.237 2.237 0 0 0-.452-1.456c-.614-.873-1.486-1.455-2.617-1.455-.97 0-1.939.032-2.908 0-.71-.032-1.357.065-1.97.42-.873.518-1.422 1.294-1.551 2.297-.097.776-.032 1.552-.032 2.328 0 .356.549 1.1.904 1.197.355.097.71.162 1.066.162.937 0 1.874-.033 2.81-.033ZM51.72 49.224a35.227 35.227 0 0 1-1.97-.42c-.097-.033-.162-.065-.259-.098-.29-.097-.581-.194-.84.097-.905.906-1.841 1.812-2.714 2.75-.064.064-.097.323-.032.42.29.453.646.873.97 1.294.807.97 1.614 1.94 2.487 3.007.775-2.328 1.55-4.657 2.358-7.05Zm-16.411.032c.84 2.329 1.518 4.69 2.39 7.018.291-.355.517-.647.743-.938.84-1.035 1.68-2.037 2.488-3.072.355-.42.355-.55.065-.873l-2.585-2.587c-.258-.26-.517-.227-.808-.162-.42.097-.807.226-1.227.355-.356.098-.711.195-1.066.26Zm-6.3-25.064V21.41c0-.259-.097-.42-.388-.356-.355.065-.775.098-1.066.26-.517.29-1.001.678-1.292 1.26-.29.55-.517 1.068-.485 1.682a3.2 3.2 0 0 0 .517 1.617c.55.874 1.325 1.326 2.294 1.456.323.032.42-.097.388-.42.032-.874.032-1.78.032-2.717Zm28.978.032v2.781c0 .259.097.356.356.356.646 0 1.227-.291 1.68-.647.775-.614 1.195-1.52 1.195-2.522a3.07 3.07 0 0 0-.775-2.038c-.517-.582-1.163-1.003-1.971-1.067-.388-.033-.452.032-.452.42-.033.906-.033 1.811-.033 2.717ZM42.157 55.95c.291.712.55 1.39.84 2.07h1.034c.291-.712.55-1.39.84-2.07-.388-.485-.775-.97-1.163-1.488-.161-.194-.226-.226-.387 0-.388.518-.776 1.003-1.163 1.488Z" fill="#6D6E71"/><path d="M80.57 93.597h-3.037c-.194 0-.29-.097-.29-.324v-2.587c0-.259.16-.42.42-.42h2.584c.161 0 .29.032.29.258a93.41 93.41 0 0 1 .033 3.073Zm-6.43 0H71.2c-.258 0-.388-.097-.355-.356.032-.841 0-1.65 0-2.49 0-.324.097-.453.42-.453h2.52c.193 0 .355 0 .355.259v3.04ZM46.873 34.768c.194.097.387.161.581.226.517.259 1.066.517 1.583.776.194.097.388.194.55.324.096.064.161.29.096.355-.549 1.1-1.324 2.07-2.358 2.75-.582.388-1.26.614-1.938.84-.517.194-1.099.259-1.648.324-.323.032-.678-.097-1.001-.097-.646 0-1.26-.194-1.842-.453-1.13-.485-2.1-1.197-2.843-2.2a13.363 13.363 0 0 1-.71-1.131c-.13-.227 0-.388.322-.518.614-.29 1.228-.614 1.842-.938.194-.097.388-.161.614-.258.71 1.487 1.841 2.36 3.489 2.296 1.518-.032 2.617-.873 3.263-2.296Zm-3.359-10.577h1.293c.226 0 .323.065.323.292.032.55.064 1.1.161 1.617.13.646.291 1.293.517 1.908.29.84.646 1.617.937 2.458.162.452-.097.873-.388 1.229-.387.452-.937.647-1.421.905l-1.842.97c-.193.097-.581.033-.678-.194-.226-.42-.42-.84-.614-1.26a31.194 31.194 0 0 0-.484-1.036c-.097-.194-.097-.29.096-.388.453-.194.905-.42 1.325-.647.097-.065.226-.29.194-.388-.13-.485-.355-.938-.517-1.39a4.42 4.42 0 0 1-.226-.939c-.097-.937-.162-1.908-.259-2.845-.032-.195.097-.26.259-.26.42-.032.872-.032 1.324-.032Zm8.011 0c0 1.003-.614 1.617-1.583 1.617-.97 0-1.518-.614-1.583-1.584-.065-.874.775-1.618 1.615-1.618.776 0 1.648.68 1.551 1.585Zm-16.055 0c-.13-.905.775-1.585 1.55-1.585.84 0 1.615.712 1.615 1.617 0 .906-.872 1.65-1.615 1.618-.937-.097-1.55-.68-1.55-1.65Z" fill="#6D6E71"/><path d="M25.748 93.564H6.46V74.256h19.287v19.308Zm-9.628-3.3h5.977c.42 0 .452-.031.452-.484V77.975c0-.453-.064-.485-.484-.485H10.144c-.323 0-.42.097-.42.42v11.967c0 .323.064.42.42.42 1.97-.032 3.973-.032 5.976-.032Zm9.659-22.508v2.975c0 .097-.13.194-.226.227-.097.032-.226.032-.356.032H13.18c-.226 0-.323-.097-.291-.323 0-.841.032-1.65 0-2.49 0-.324.065-.421.388-.389h12.017c.13-.032.291-.032.485-.032Zm-19.352 0h3.069c.097 0 .226.162.226.259.032.873 0 1.746 0 2.62 0 .258-.194.29-.355.29H6.653c-.097 0-.258-.161-.258-.226.032-.938.032-1.908.032-2.943Z" fill="#F47400"/><path d="M18.25 79.495c.743.744 1.486 1.488 2.326 2.361-.549.518-1.13 1.035-1.712 1.585a88.085 88.085 0 0 0-2.455 2.458c-.84.84-1.648 1.681-2.52 2.49-.065.065-.355.065-.42 0a51.227 51.227 0 0 1-1.874-1.876c-.064-.065-.064-.323 0-.388 1.454-1.455 2.876-2.91 4.33-4.366l2.196-2.2c.032 0 .065-.031.13-.064Z" fill="#F47400"/></g><defs><clipPath id="a"><path fill="#fff" d="M0 0h87v100H0z"/></clipPath></defs></svg>