<svg width="102" height="78" fill="none" xmlns="http://www.w3.org/2000/svg"><g clip-path="url(#a)"><path d="M0 32.345c.833-.341 1.704-.19 2.576-.19h13.408c.681 0 1.212.228 1.59.797.303.455.303.986.076 1.479-.19.417-.492.758-1.022.796-.417 0-.834.076-1.25.076H1.4c-.34 0-.72-.038-1.06-.076-.114 0-.19-.114-.303-.152C0 34.09 0 33.217 0 32.345Zm0 10.656c.114-.076.227-.152.34-.152.418-.038.834-.076 1.25-.076h13.94c.34 0 .68.038.984.076.909.114 1.44.91 1.212 1.82-.227.797-.795 1.252-1.629 1.252H.985c-.303 0-.606-.114-.91-.19C0 44.783 0 43.911 0 43.001ZM42.497 6.257H22.044c-.492 0-.947 0-1.364-.38-.681-.682-.681-1.971.341-2.464.265-.152.606-.19.91-.19h26.058c.455 0 .871-.151 1.288-.303.644-.228 1.25-.493 1.893-.72.569-.19 1.099-.418 1.667-.57.644-.189 1.288-.303 1.932-.454.265-.076.492-.152.757-.19.91-.19 1.818-.341 2.727-.53.038 0 .114-.039.152-.039 1.25-.076 2.462-.19 3.712-.265.757-.038 1.477-.114 2.234-.114 1.099 0 2.197.038 3.258.152 1.136.114 2.234.341 3.37.53.455.076.91.152 1.364.266.682.152 1.364.38 2.045.53.266.077.53.115.796.228.947.342 1.894.645 2.84 1.024 1.137.455 2.273.91 3.371 1.48 1.213.606 2.425 1.326 3.56 2.047.72.455 1.402 1.024 2.084 1.517a26.54 26.54 0 0 1 4.545 3.943c1.326 1.403 2.576 2.92 3.75 4.437.795 1.061 1.44 2.237 2.121 3.375.53.91 1.06 1.82 1.515 2.806.492 1.023.909 2.123 1.288 3.185.341.91.682 1.82.947 2.768.189.645.265 1.327.454 2.01.379 1.213.227 2.464.227 3.678.038 3.83 0 7.66 0 11.49 0 1.289-.189 2.54-.606 3.753-.189.57-.265 1.138-.454 1.707a15.486 15.486 0 0 1-.682 1.858c-.303.72-.606 1.479-.947 2.2-.416.91-.909 1.781-1.363 2.691-.417.797-.834 1.593-1.326 2.313-.682 1.024-1.44 2.01-2.159 3.034-1.44 1.896-3.106 3.602-4.848 5.195-.72.645-1.477 1.327-2.273 1.896-1.25.872-2.575 1.706-3.863 2.54a53.325 53.325 0 0 1-3.22 1.783c-.681.34-1.439.568-2.158.872-.606.227-1.212.53-1.818.72-.53.19-1.099.304-1.667.455-.265.076-.492.152-.757.228-.682.19-1.402.379-2.084.53-.378.077-.795.19-1.174.228-.606.076-1.174.152-1.78.228-1.288.114-2.575.114-3.825.265-1.667.19-3.296-.114-4.962-.114-.947 0-1.856-.227-2.803-.379-.795-.151-1.553-.379-2.348-.569-.644-.151-1.288-.265-1.932-.455-.72-.227-1.44-.493-2.159-.758-.568-.19-1.212-.38-1.742-.645-.455-.227-.947-.19-1.44-.19h-25.68c-.984 0-1.931-.796-1.704-1.933.114-.569.644-1.1 1.212-1.138.265 0 .568-.038.833-.038h20.151c0-.038.038-.038.038-.075-.151-.114-.265-.266-.416-.342a38.41 38.41 0 0 1-7.007-6.105c-.947-1.023-1.78-2.123-2.652-3.223-.53-.72-.984-1.479-1.477-2.2-.378-.568-.757-1.137-1.06-1.743a84.824 84.824 0 0 1-1.326-2.617c-.34-.682-.644-1.403-.947-2.085-.19-.418-.303-.873-.454-1.328-.19-.493-.341-.986-.53-1.516-.114-.342-.19-.72-.304-1.062-.075-.266-.151-.569-.227-.834l-.568-2.162c-.114-.417-.151-.834-.19-1.251-.075-.72-.189-1.441-.227-2.161-.075-1.707-.189-3.451-.189-5.157 0-1.214.114-2.39.227-3.603.076-.834.227-1.668.379-2.503.227-.985.492-1.971.758-2.92.189-.758.378-1.516.643-2.274.228-.683.493-1.328.758-1.972.34-.834.644-1.669 1.06-2.465.417-.872.91-1.706 1.364-2.54.34-.57.682-1.176 1.023-1.707.34-.53.87-.796 1.477-.683.568.114.947.493 1.212 1.062.303.645-.076 1.1-.303 1.555-.644 1.213-1.326 2.389-1.97 3.602-.34.645-.681 1.327-.947 2.01-.265.569-.416 1.213-.644 1.82-.189.53-.416 1.062-.568 1.63-.189.645-.303 1.29-.454 1.897l-.341 1.365-.227 1.365c-.076.493-.19.986-.228 1.44-.075 1.897-.151 3.793-.189 5.689 0 .796.076 1.592.19 2.35.113.91.227 1.82.416 2.693.19.986.492 1.934.758 2.882.265.948.53 1.934.833 2.844.303.872.682 1.706 1.06 2.502.53 1.138 1.137 2.238 1.743 3.3a22.56 22.56 0 0 0 1.666 2.54c1.174 1.479 2.349 2.995 3.636 4.36.871.949 1.894 1.707 2.879 2.541.682.569 1.363 1.1 2.083 1.593.796.569 1.629 1.1 2.462 1.592.795.493 1.629.948 2.462 1.365.682.342 1.401.607 2.083.873.606.227 1.174.493 1.78.682.53.19 1.06.341 1.629.493.644.19 1.326.38 1.97.569l.908.227c.53.114 1.099.19 1.667.266.758.114 1.477.227 2.235.341.113.038.265.038.416.038 1.97 0 3.977.038 5.947 0 .757 0 1.553-.227 2.31-.341a18.94 18.94 0 0 0 1.553-.266l1.591-.34c.303-.077.606-.115.871-.228 1.326-.417 2.651-.797 3.94-1.29.984-.379 1.931-.872 2.878-1.365 1.06-.53 2.12-1.062 3.106-1.706 1.174-.758 2.272-1.593 3.333-2.427 1.856-1.479 3.56-3.147 5.037-5.005.985-1.252 1.932-2.503 2.765-3.868.834-1.365 1.553-2.844 2.273-4.285.34-.72.682-1.44.947-2.161.265-.683.416-1.365.644-2.048l.568-1.82c.076-.303.151-.645.227-.948.076-.493.151-.986.265-1.479.114-.645.227-1.29.341-1.972 0-.038.038-.113.038-.151.076-1.972.151-3.944.19-5.878 0-.758-.077-1.555-.19-2.313a119.33 119.33 0 0 0-.606-3.602c-.152-.797-.341-1.63-.606-2.39-.341-1.061-.796-2.085-1.136-3.147-.53-1.554-1.288-3.033-2.084-4.436-.606-1.062-1.325-2.048-1.97-3.072-1.06-1.63-2.348-3.071-3.711-4.474-.985-1.062-2.121-1.972-3.257-2.882a40.913 40.913 0 0 0-3.03-2.2 25.72 25.72 0 0 0-2.803-1.63c-.947-.493-1.932-.872-2.917-1.289a50.205 50.205 0 0 0-3.068-1.138c-.606-.19-1.25-.303-1.856-.455l-2.386-.568c-.416-.076-.87-.114-1.287-.19-1.705-.265-3.41-.265-5.114-.265-.606 0-1.174-.038-1.78.037a95.176 95.176 0 0 0-3.257.38 28.81 28.81 0 0 0-1.78.265 42.45 42.45 0 0 0-2.121.493c-.569.152-1.175.303-1.743.493l-1.363.455c-.455.152-.871.341-1.288.53-.568.228-1.136.456-1.667.721-.87.417-1.742.835-2.575 1.328a29.77 29.77 0 0 0-2.31 1.478c-1.63 1.062-3.106 2.314-4.546 3.603a33.705 33.705 0 0 0-1.97 2.047c-.567.607-1.742.493-2.196-.037-.53-.645-.568-1.442-.038-2.048 1.25-1.403 2.576-2.73 4.09-3.868a220.266 220.266 0 0 0 3.144-2.389c.227-.076.303-.19.417-.341Z" fill="#6D6E71"/><path d="M63.82 66.094c.833 0 1.629.038 2.462 0 .985-.076 1.97-.228 2.955-.417a24.321 24.321 0 0 0 2.386-.57 26.68 26.68 0 0 0 1.856-.644c.681-.265 1.363-.606 2.045-.91.72-.341 1.44-.682 2.121-1.1 1.023-.644 2.045-1.25 2.954-2.01 1.477-1.213 2.917-2.502 4.09-4.019.758-.986 1.554-2.01 2.236-3.033.568-.834 1.022-1.744 1.439-2.655.454-.948.833-1.896 1.212-2.881.265-.797.454-1.631.644-2.427.227-.91.379-1.82.644-2.73.113-.418.492-.645.833-.797.644-.265 1.477.038 1.818.645.19.341.34.72.19 1.175-.152.417-.152.91-.228 1.365-.19.759-.379 1.555-.606 2.314-.151.53-.265 1.1-.454 1.63-.228.607-.493 1.175-.72 1.782-.227.493-.417 1.024-.644 1.517-.492.948-1.023 1.858-1.553 2.768-.416.683-.833 1.403-1.363 2.01-.72.91-1.478 1.782-2.273 2.616-.871.948-1.78 1.858-2.803 2.693-1.212.948-2.462 1.858-3.787 2.654-1.06.645-2.235 1.175-3.371 1.706-.758.342-1.515.683-2.31.948-.531.19-1.137.304-1.705.455-.682.19-1.364.38-2.046.531-.378.076-.757.19-1.136.228-.757.075-1.515.19-2.31.227-.985.076-2.008.152-2.992.152-.985 0-2.008-.114-2.993-.19-.833-.076-1.666-.227-2.5-.379a31.026 31.026 0 0 1-2.007-.53c-.568-.153-1.098-.266-1.666-.456a24.046 24.046 0 0 1-1.743-.644c-.681-.304-1.363-.57-2.007-.948a80.32 80.32 0 0 1-3.901-2.276c-1.515-.986-2.879-2.161-4.129-3.45-1.06-1.1-2.083-2.238-2.954-3.45-.947-1.328-1.78-2.731-2.576-4.134-.53-.948-.87-1.972-1.287-2.996a30.086 30.086 0 0 1-.758-1.972c-.19-.644-.303-1.289-.455-1.933-.189-.835-.34-1.707-.53-2.541 0-.076-.038-.114-.038-.19-.265-2.199-.265-4.436-.151-6.636.038-.985.227-1.971.379-2.92.151-.871.34-1.744.568-2.578a21.13 21.13 0 0 1 .985-2.73c.53-1.251 1.022-2.54 1.666-3.754.53-1.024 1.25-2.01 1.894-2.958a17.912 17.912 0 0 1 2.651-3.223c.834-.796 1.629-1.706 2.538-2.465 1.136-.91 2.31-1.744 3.522-2.578.871-.569 1.78-1.062 2.727-1.555.872-.417 1.78-.758 2.652-1.137a45.457 45.457 0 0 1 2.083-.759c.644-.19 1.326-.303 2.007-.455l1.477-.341c.038 0 .114-.038.152-.038 1.818-.114 3.598-.303 5.416-.38.985-.037 1.932.115 2.917.19.833.076 1.628.228 2.424.38.681.151 1.363.34 2.045.53.758.228 1.477.418 2.235.645.606.228 1.212.493 1.818.759.757.34 1.515.644 2.235 1.023 1.363.759 2.65 1.555 3.9 2.503 1.288.948 2.5 2.01 3.599 3.147.909.948 1.78 1.934 2.538 2.996a60.407 60.407 0 0 1 2.65 4.209c.493.834.872 1.744 1.213 2.654.34.91.606 1.82.871 2.768.265.948.53 1.896.758 2.844.113.455.189.873.227 1.328l.227 2.464c.076.91-1.174 1.896-2.083 1.403-.568-.303-.909-.682-.947-1.327-.114-1.062-.227-2.161-.417-3.185-.189-.986-.492-1.934-.757-2.882-.19-.645-.379-1.29-.606-1.896a21.029 21.029 0 0 0-.91-2.123c-.416-.797-.832-1.593-1.325-2.39a22.267 22.267 0 0 0-1.477-2.199c-1.136-1.516-2.386-2.92-3.863-4.133a40.75 40.75 0 0 0-2.879-2.161c-.985-.645-1.97-1.252-3.03-1.783-.795-.417-1.666-.758-2.538-1.061-.87-.304-1.78-.569-2.689-.834-1.098-.304-2.197-.456-3.333-.645-1.78-.265-3.56-.228-5.34-.152-1.137.038-2.31.228-3.447.417a17.44 17.44 0 0 0-2.424.607c-.682.19-1.326.493-1.97.758-.72.266-1.439.531-2.12.873-.872.455-1.743.91-2.576 1.44-2.197 1.404-4.205 3.034-5.909 5.044-.91 1.1-1.78 2.237-2.576 3.45-.681 1.024-1.25 2.124-1.78 3.224-.34.72-.606 1.478-.87 2.237a51.81 51.81 0 0 0-.758 2.275c-.114.455-.19.91-.266 1.403-.113.53-.227 1.1-.34 1.63 0 .076-.038.114-.038.19-.076 1.706-.19 3.45-.152 5.157 0 1.1.19 2.162.379 3.261.19.986.454 1.934.758 2.882.265.872.53 1.782.87 2.654.304.72.645 1.441 1.023 2.124.53.986 1.137 1.934 1.742 2.882 1.137 1.706 2.462 3.223 3.977 4.626a29.097 29.097 0 0 0 4.243 3.223c.909.569 1.893.986 2.84 1.479.72.341 1.44.682 2.197.986.53.19 1.099.303 1.667.455.34.076.644.227.984.303.341.114.72.152 1.061.228.379.076.757.19 1.136.227 1.402.114 2.841.228 4.28.341v-.075Z" fill="#6D6E71"/><path d="M65.336 37.426h4.924c.493 0 .947.152 1.288.531.833.91.303 2.275-.758 2.503a3.227 3.227 0 0 1-.87.114h-5.91c-.34 0-.719-.114-1.022-.266-.568-.303-.795-.834-.795-1.479V27.15c0-.38-.038-.796 0-1.175.075-.91.984-1.48 1.704-1.328.72.152 1.326.607 1.326 1.555V36.82c.113.19.113.34.113.606Z" fill="#F47400"/><path d="M15.075 17.367H7.31c-.606 0-1.098-.151-1.477-.644-.568-.759-.227-1.896.568-2.237.303-.152.682-.19 1.023-.19h15.34c.681 0 1.212.19 1.59.796.493.72.19 1.669-.492 2.01-.303.152-.72.227-1.098.227-2.538.076-5.114.038-7.69.038Zm0 43.266h7.803c.606 0 1.098.152 1.477.683.568.834.076 1.896-.72 2.199a6.575 6.575 0 0 1-.833.19H7.272c-.605 0-1.135-.19-1.514-.72-.341-.532-.379-1.1-.076-1.593.227-.418.644-.759 1.212-.759h5.492c.947-.038 1.818 0 2.69 0Zm4.279-32.952h-3.409c-.53 0-.947-.455-1.174-.948-.227-.607-.038-1.1.303-1.517.303-.379.796-.569 1.326-.569h6.098c.947 0 1.59.759 1.59 1.669 0 .607-.681 1.403-1.325 1.403-1.136-.076-2.31-.038-3.409-.038Zm0 22.639h3.409c.53 0 .909.379 1.174.871.265.607.114 1.062-.227 1.555-.265.38-.682.607-1.136.607-2.121.038-4.28 0-6.401 0-.455 0-1.25-.493-1.402-1.138-.19-.796.038-1.365.72-1.782.113-.076.303-.114.454-.114h3.41Z" fill="#6D6E71"/><path d="M84.768 37.35c.53.076 1.098.114 1.59.228.569.114.947.645 1.023 1.213.114 1.214-.757 1.783-1.742 1.783-.644.038-1.288.038-1.932 0-.644-.038-1.174-.266-1.515-.872-.454-.759.038-1.972.909-2.162.53-.076 1.098-.114 1.667-.19Zm-41.892 0c.568.076 1.098.114 1.628.19.568.076.91.455 1.023.986.151.645.114 1.251-.492 1.668-.341.228-.758.342-1.175.38-.606.076-1.212.038-1.856 0-.72-.038-1.363-.228-1.628-.948-.303-.834-.076-1.782.87-2.048.531-.152 1.1-.152 1.63-.227Zm8.52-12.361a1.49 1.49 0 0 1-.909 1.44c-.72.266-1.363.076-1.893-.454l-1.364-1.366c-.682-.72-.72-1.858.152-2.502.605-.455 1.515-.304 2.159.379.454.455.946.91 1.363 1.403.303.303.53.645.492 1.1ZM46.74 54.604c0-.531.227-.91.606-1.252.606-.569 1.174-1.213 1.818-1.668.606-.455 1.704-.19 2.045.607.379.834.265 1.25-.379 1.971-.492.493-.947 1.024-1.439 1.48-.72.644-1.553.72-2.234-.039-.228-.265-.341-.644-.493-.986 0-.075.038-.113.076-.113Zm34.2-.038a1.522 1.522 0 0 1-1.552 1.592c-.492 0-.909-.303-1.25-.644-.454-.455-.833-.948-1.326-1.365-.87-.834-.681-1.972.19-2.54.53-.342 1.477-.19 2.045.378.455.455.947.91 1.364 1.403.34.342.568.759.53 1.176Zm0-31.132c0 .493-.227.873-.606 1.214-.606.569-1.136 1.213-1.818 1.668-.644.455-1.667.19-2.045-.606-.38-.835-.303-1.252.416-1.972.53-.569 1.06-1.1 1.667-1.63.492-.456 1.098-.456 1.666-.152.417.34.758.758.72 1.478Zm-15.605-5.346v1.29c0 .947-1.174 1.743-2.083 1.288-.644-.303-.947-.758-.947-1.44v-2.162c0-1.062.53-1.44 1.363-1.668.455-.114 1.364.34 1.477.834.152.607.19 1.251.303 1.896-.037-.076-.075-.038-.113-.038Zm0 41.862v1.214c-.037.797-.681 1.48-1.477 1.517-.681.038-1.552-.645-1.552-1.327-.038-.948-.076-1.896 0-2.806.075-.948 1.174-1.555 2.045-1.176.72.304.984.834.984 1.555v1.024Z" fill="#F47400"/></g><defs><clipPath id="a"><path fill="#fff" d="M0 0h102v78H0z"/></clipPath></defs></svg>