<svg width="133" height="132" fill="none" xmlns="http://www.w3.org/2000/svg"><path d="M79.813 21.138c3.433 3.565 6.71 7.321 10.33 10.663 2.402 2.229 3.495 4.584 3.089 7.831-.187 1.4-.031 2.865-.031 4.457h-2.996v-6.94h-7.022c-6.398.032-5.555.191-5.586-5.825v-7.226H74.32c-11.453 0-22.875-.032-34.328.064-1.124 0-2.216.86-3.37 1.21-.687.222-1.436.254-2.716.445.188-1.783.343-3.247.5-4.68h45.407Zm7.209 12.7c-2.06-2.323-4.089-4.647-6.43-7.257v7.258h6.43Zm8.611 70.605V83.052c-.25-.191-.468-.382-.718-.573-3.152 3.406-6.366 6.748-9.393 10.25-1.686 1.942-2.84 1.782-4.557 0-5.648-5.953-11.422-11.81-17.257-17.603-1.623-1.624-1.904-2.77-.125-4.489 3.589-3.438 7.053-7.003 10.423-10.632 1.592-1.719 2.902-1.91 4.37 0 .935 1.21 1.903 2.388 2.995 3.756 2.528-2.737 4.65-4.934 6.616-7.257.562-.669.718-1.687.936-2.579.874-3.851 3.059-6.589 6.772-7.894 3.652-1.273 6.835-.287 9.737 2.165 4.494 3.756 4.151 14.833-3.37 16.711-3.59.892-5.867 3.152-8.333 5.444-.842.764-1.685 1.56-2.808 2.578 1.654 1.4 3.09 2.61 4.68 3.947v-5.22a286.81 286.81 0 0 0 2.934-.35c.094 1.018.188 1.878.188 2.705 0 9.932-.063 19.864.062 29.795.031 2.579-.687 3.502-3.37 3.502-17.196-.127-34.423-.064-51.618-.064h-2.465c-.094-.955-.156-1.75-.25-2.865 18.225.064 36.263.064 54.551.064ZM84.648 75.126c3.87-3.725 7.427-7.29 11.172-10.696.905-.828 2.216-1.4 3.402-1.624 3.963-.7 6.678-3.724 6.46-7.48-.187-3.629-3.027-6.526-6.554-6.748-3.776-.223-6.678 2.45-7.427 6.493-.25 1.4-.968 2.865-1.904 3.948-3.245 3.724-6.678 7.289-10.049 10.918.406.477.656.764.936 1.05a270.52 270.52 0 0 1 3.964 4.139Zm4.463.254c-4.931 3.31-4.931 3.31-8.863-.636-4.276-4.33-4.276-4.33-1.062-8.945-.998-1.146-1.966-2.292-2.933-3.406-1.997 2.1-4.026 4.17-5.836 6.048a7342.807 7342.807 0 0 1 16.696 17.253c2.06-1.942 4.182-3.947 6.117-5.794-1.342-1.464-2.746-2.992-4.12-4.52Zm-5.618 15.184c.562-.636 1.186-1.273 1.342-1.464a8914.622 8914.622 0 0 1-17.351-18.113c-.5.541-1.061 1.146-1.623 1.751 5.836 5.921 11.578 11.714 17.632 17.826Z" fill="#000"/><path d="M58.217 45.33c-2.965 10.92-8.927 16.426-17.383 16.171-7.521-.223-14.668-5.889-16.072-12.765-1.747-8.69 1.685-16.489 8.8-20.022 7.834-3.915 15.261-1.687 22.065 6.366 1.279-1.273 2.402-2.928 3.932-3.692 1.622-.828 3.9-1.592 5.492-1.083 4.525 1.37 7.896 6.208 6.71 9.296-.999 2.61-1.841 5.06-5.118 6.589-3.37 1.56-5.524-.541-8.426-.86Zm-3.184-1.146c0-7.894-6.366-14.388-14.012-14.324-7.614.064-14.043 6.685-13.98 14.484.062 7.735 6.303 14.038 13.98 14.07 7.865.031 14.012-6.208 14.012-14.23Zm13.732-5.73c-.5-1.368-.968-2.642-1.342-3.66-1.404-.637-2.684-1.242-3.745-1.72-1.404.574-2.715 1.115-3.87 1.56-.499 1.306-.998 2.58-1.435 3.725.5 1.369.998 2.706 1.373 3.724 1.467.637 2.684 1.178 3.807 1.656 1.31-.51 2.622-1.05 3.776-1.496.5-1.274.968-2.515 1.436-3.788ZM36.903 98.49h53.303v-8.308H93.2v9.263c0 1.847-1.123 2.133-2.652 2.133-5.867-.032-11.734-.032-17.601-.032-11.921 0-23.812-.063-35.733.032-2.434.032-3.34-.7-3.308-3.279.125-10.504.031-21.009.062-31.514 0-1.145-.468-2.896 1.56-2.546.594.095 1.311 1.591 1.343 2.45.093 9.55.062 19.068.062 28.618-.031 1.05-.031 2.101-.031 3.183Z" fill="#000"/><path d="M66.732 80.189c-1.123 5.157-5.118 1.56-7.209 3.47v7.767h16.634v3.15c-6.054 0-11.984.065-17.882-.094-.593 0-1.592-1.338-1.623-2.07a90.679 90.679 0 0 1 0-10.09c.031-.733 1.186-1.942 1.904-2.038 2.465-.254 5.024-.095 8.176-.095Zm31.712-37.437c-.874-.032-1.654-.096-2.684-.16V29.925c-1.404-.064-2.59-.16-3.932-.223V27.25c.312-.128.468-.255.656-.255 7.24-.127 6.147-.637 6.21 6.144.031 2.864-.031 5.761-.031 8.626.03.191-.063.382-.219.987Zm-43.225 17.03v-2.579h16.633c.032.828.094 1.624.125 2.578H55.22Zm3.997 8.977v2.546H42.582V68.76h16.634Zm.249-15.884v-2.77h13.794c.561 1.91.218 2.865-1.966 2.802-3.839-.096-7.678-.032-11.828-.032Zm5.399 10.122v2.515H51.008v-2.515h13.856ZM53.692 91.582a95.296 95.296 0 0 0-.125 2.77H42.613a138.79 138.79 0 0 0-.218-2.77h11.297ZM42.55 88.558v-2.801h10.986v2.801H42.55Zm.06-8.339h10.86c.063.764.156 1.56.25 2.355-.406.16-.655.35-.905.382-2.809.032-5.617-.032-8.426.064-2.122.064-2.247-1.019-1.779-2.801Z" fill="#000"/><path d="M62.305 88.558v-2.706h8.238v2.706h-8.238ZM50.82 74.52v2.674c-2.123 0-4.183-.095-6.211.032-1.935.128-2.59-.636-2.029-2.706h8.24Zm2.996 2.484v-2.515h5.243c.375 3.088.375 3.088-5.243 2.515ZM42.55 62.901h5.369c.062.86.093 1.656.156 2.61H42.55v-2.61Z" fill="#000"/><path d="M29.941 48.482c1-1.082 1.56-1.687 2.247-2.42 1.124 1.051 2.122 1.974 3.464 3.216 4.182-4.52 8.302-8.977 12.795-13.847.812 1.21 1.28 1.878 1.967 2.896-4.494 4.552-8.988 9.168-13.638 13.625-.5.477-2.06.35-2.778-.096-1.435-.891-2.621-2.165-4.057-3.374Z" fill="#F47400"/><g filter="url(#a)"><circle cx="66.313" cy="62" r="61" stroke="#000" stroke-width="2" shape-rendering="crispEdges"/></g><defs><filter id="a" x=".313" y="0" width="132" height="132" filterUnits="userSpaceOnUse" color-interpolation-filters="sRGB"><feFlood flood-opacity="0" result="BackgroundImageFix"/><feColorMatrix in="SourceAlpha" values="0 0 0 0 0 0 0 0 0 0 0 0 0 0 0 0 0 0 127 0" result="hardAlpha"/><feOffset dy="4"/><feGaussianBlur stdDeviation="2"/><feComposite in2="hardAlpha" operator="out"/><feColorMatrix values="0 0 0 0 0 0 0 0 0 0 0 0 0 0 0 0 0 0 0.25 0"/><feBlend in2="BackgroundImageFix" result="effect1_dropShadow_475_58"/><feBlend in="SourceGraphic" in2="effect1_dropShadow_475_58" result="shape"/></filter></defs></svg>