<svg width="133" height="132" fill="none" xmlns="http://www.w3.org/2000/svg"><path d="M15.371 51.71c.66-.6.904-1.48 1.356-2.184.8-1.198 1.287-2.607 2.364-3.593 1.565-1.408 3.443-1.866 5.39-1.127 1.564.599 2.677.141 3.824-.775.279-.21.592-.422.94-.528 1.32-.387 1.807-1.409 2.085-2.677.592-2.747 2.782-4.508 5.564-4.508h3.824c2.469 0 4.59 1.62 5.285 3.98.174.564.313 1.127.452 1.726.14.493.383.845.904 1.056 1.113.458 2.121 1.092 3.095 1.797.487.387.939.387 1.495.211 1.008-.317 2.017-.599 3.095-.528 1.808.105 3.233.88 4.207 2.395a56.235 56.235 0 0 1 2.399 4.19c1.078 2.114.765 4.685-.94 6.27-1.216 1.162-1.946 2.36-1.564 4.085.105.423.105.916 0 1.339-.382 1.303.348 2.042 1.182 2.852 1.808 1.656 2.33 3.734 1.635 6.058-.383 1.233-1.217 2.29-1.843 3.416-.487.916-.974 1.832-1.773 2.5-1.495 1.269-3.165 1.621-5.042 1.198-.104-.035-.174-.035-.278-.105-1.321-.599-2.504-.352-3.616.599-.66.563-1.426.915-2.226 1.232-.521.211-.625.704-.73 1.198-.347 1.55-.8 3.028-2.12 4.12-1.009.81-2.122 1.303-3.373 1.339-1.287.035-2.608-.036-3.895 0-2.816.14-5.215-1.832-5.737-4.544-.104-.493-.278-.986-.417-1.479-.104-.317-.313-.493-.59-.599-1.183-.493-2.296-1.162-3.339-1.937-.417-.317-.765-.281-1.217-.176-1.217.317-2.434.74-3.72.529-1.773-.282-3.13-1.198-3.999-2.783-.938-1.655-1.981-3.205-2.677-4.93V68.05c.07 0 .209 0 .209-.035.452-1.374 1.564-2.29 2.538-3.276.278-.317.382-.598.348-.986a19.367 19.367 0 0 1 0-4.015c.034-.387-.07-.669-.383-.986-.973-.95-2.051-1.867-2.503-3.275 0-.035-.14-.035-.209-.07v-3.699Zm39.255 23.244c.66 0 1.113-.282 1.426-.88.626-1.127 1.286-2.254 1.912-3.382.348-.598.348-1.232-.174-1.76-.347-.353-.66-.74-1.008-1.057-1.252-1.198-2.017-2.571-1.808-4.403a14.623 14.623 0 0 0 0-3.486c-.174-1.55.313-2.853 1.426-3.945.486-.493.973-1.021 1.46-1.55.452-.492.417-1.091.104-1.655a76.86 76.86 0 0 0-1.634-2.888c-.87-1.514-1.252-1.655-2.92-1.127-.105.035-.175.07-.279.106-1.565.458-3.13.599-4.555-.423a21.895 21.895 0 0 0-3.372-2.007c-1.217-.564-2.017-1.48-2.434-2.783a36.088 36.088 0 0 1-.557-2.078c-.208-.774-.73-1.232-1.53-1.232a74.402 74.402 0 0 0-3.963 0c-.765 0-1.287.387-1.495 1.162-.174.67-.383 1.338-.557 1.972-.347 1.268-1.078 2.22-2.294 2.818-1.217.599-2.434 1.233-3.512 2.078a3.954 3.954 0 0 1-1.808.74c-1.321.21-2.504-.247-3.72-.564-.94-.247-1.46-.035-1.982.81-.626 1.057-1.287 2.148-1.878 3.24-.452.81-.313 1.48.348 2.149.174.176.313.352.521.528 1.634 1.373 2.33 3.1 2.017 5.247-.14 1.092-.035 2.22.035 3.346.07 1.233-.279 2.29-1.113 3.17-.487.528-.974 1.022-1.46 1.55-.661.704-.8 1.303-.313 2.148.626 1.127 1.286 2.219 1.912 3.31.348.635.87.846 1.53.74.695-.07 1.39-.317 2.051-.493 1.078-.246 2.121-.317 3.13.247 1.425.775 2.677 1.76 4.172 2.43 1.252.528 1.982 1.514 2.364 2.818l.522 1.901c.278.951.695 1.268 1.704 1.303h3.094c1.67 0 1.982-.246 2.4-1.866.034-.106.034-.247.069-.352.382-1.867 1.252-3.311 3.094-4.05a9.54 9.54 0 0 0 2.573-1.515c1.495-1.198 3.13-1.338 4.903-.74.556.212 1.078.317 1.6.423Zm52.536-2.466v-.774c0-9.862-.035-19.688.034-29.55 0-1.443-.73-2.183-2.19-2.183-9.005.035-17.976 0-26.981 0-1.635 0-2.19.599-2.19 2.219v10.178c0 .845-.244 1.55-1.01 1.972-1.425.775-2.955-.14-2.99-1.796-.034-3.698 0-7.36 0-11.059 0-.634.174-1.197.348-1.796.765-2.254 2.92-3.803 5.46-3.803h27.12c.625 0 1.251.035 1.877.176 2.434.457 4.381 2.676 4.485 5.212v32.367c0 .563.174.88.592 1.232 3.025 2.5 4.867 5.67 5.076 9.65.104 2.114 0 4.227-.835 6.234-1.564 3.734-4.172 6.41-7.962 7.819-3.581 1.338-7.128 1.198-10.57-.493-3.755-1.867-6.189-4.86-7.302-8.946-.173-.634-.313-1.268-.347-1.902-.035-.528-.244-.563-.66-.563h-11.44c-2.19 0-3.86-.951-5.007-2.782-.522-.81-.835-1.726-.835-2.712 0-3.628.035-7.22-.034-10.848 0-1.233 1.008-2.148 1.912-2.113 1.078.035 2.086.67 2.086 2.148v10.108c0 1.55.66 2.184 2.19 2.184H89.29c.591 0 .765-.176.939-.74 1.356-4.684 4.38-7.819 8.9-9.368 2.435-.775 4.417-1.022 8.033-.07Zm-3.86 22.928c5.285 0 9.527-4.261 9.562-9.615.035-5.388-4.381-9.755-9.562-9.79-5.18-.036-9.666 4.508-9.631 9.755.035 5.318 4.381 9.72 9.631 9.65ZM87.344 23.04c.07-.704-.244-1.303-.348-1.937-.278-1.303.174-2.254 1.217-2.676 1.147-.423 2.364.105 2.642 1.303.418 1.655.696 3.31 1.043 5 .174.81.348 1.656.522 2.466.313 1.444-.278 2.5-1.739 2.747a299.7 299.7 0 0 1-7.788 1.268c-.904.141-1.912-.634-2.086-1.479-.243-1.127.313-2.219 1.39-2.5.696-.177 1.391-.247 2.087-.353.313-.035.626-.14 1.078-.211-1.495-.986-2.92-1.761-4.381-2.5-3.095-1.515-6.328-2.572-9.666-3.276a39.952 39.952 0 0 0-9.388-.775 40.309 40.309 0 0 0-8.936 1.338 39.825 39.825 0 0 0-10.883 4.685c-1.6.986-3.13 2.148-4.624 3.31-.94.74-2.226.599-2.921-.281-.66-.81-.487-2.149.417-2.888 3.303-2.712 6.92-4.966 10.883-6.622a43.496 43.496 0 0 1 8.588-2.712c3.999-.81 7.997-1.056 12.1-.774 3.408.21 6.815.845 10.153 1.901 3.65 1.163 7.163 2.747 10.396 4.896.07.035.14.035.244.07Zm-47.319 77.271c.14.845.243 1.515.383 2.184.312 1.303-.244 2.5-1.391 2.782-1.148.317-2.26-.493-2.539-1.831-.521-2.466-1.008-4.931-1.53-7.361-.243-1.127.592-2.325 1.74-2.5 2.294-.353 4.623-.776 6.918-1.093.87-.14 1.808-.352 2.538.458.522.564.73 1.233.522 1.972-.243.81-.765 1.304-1.565 1.48-.869.176-1.773.317-2.781.493 1.46.986 2.92 1.69 4.38 2.36a39.576 39.576 0 0 0 8.45 2.747c3.13.634 6.328.88 9.527.774a41.183 41.183 0 0 0 9.04-1.338 39.388 39.388 0 0 0 10.813-4.684c.522-.317 1.113-.634 1.6-1.021 1.043-.846 2.295-.529 2.955.387.73 1.057.383 2.29-.73 3.064-3.546 2.36-7.302 4.262-11.37 5.565a44.972 44.972 0 0 1-17.037 2.007 44.308 44.308 0 0 1-10.083-1.902c-3.234-1.021-6.328-2.395-9.214-4.155-.14-.141-.313-.212-.626-.388Z" fill="#0F0E0E"/><path d="M91.622 63.331h-7.684c-1.321 0-2.19-.88-2.156-2.078.035-.95.66-1.69 1.565-1.83.278-.036.521-.107.8-.107h14.881c.487 0 .974.036 1.426.282.765.458 1.147 1.303.973 2.148a2.05 2.05 0 0 1-1.738 1.585c-.278.036-.522.036-.8.036-2.434-.036-4.868-.036-7.267-.036Zm0-15.215h7.684c1.217 0 2.052.81 2.121 1.902.07 1.233-.834 2.113-2.19 2.113h-15.23c-1.39 0-2.26-.845-2.225-2.113.035-.986.8-1.867 1.773-1.867 2.713-.035 5.39-.035 8.067-.035Zm-5.286 26.802h-2.573c-1.112-.035-1.947-.775-1.981-1.831-.07-1.127.73-2.113 1.842-2.148 1.843-.07 3.651-.07 5.494 0 1.182.035 1.912.986 1.843 2.148-.07 1.127-.8 1.796-1.982 1.831h-2.643Zm-14.5-13.383c0-1.127.87-1.972 1.947-1.937 1.182.035 2.017.845 2.052 1.937 0 1.127-.974 2.078-2.121 2.078-1.044-.035-1.878-.986-1.878-2.078Z" fill="#0F0E0E"/><path d="M54.627 74.954c-.522-.141-1.043-.212-1.565-.388-1.773-.599-3.407-.458-4.902.74-.765.634-1.67 1.127-2.573 1.514-1.843.74-2.712 2.219-3.095 4.05-.035.106-.035.247-.07.353-.417 1.62-.73 1.866-2.398 1.866h-3.095c-1.008 0-1.425-.352-1.704-1.303l-.521-1.902c-.383-1.303-1.113-2.289-2.365-2.817-1.495-.67-2.746-1.656-4.172-2.43-1.008-.564-2.086-.493-3.13-.247-.695.176-1.355.423-2.05.493-.661.07-1.183-.14-1.53-.74-.626-1.127-1.287-2.183-1.913-3.31-.452-.845-.348-1.444.313-2.148.487-.529.974-1.022 1.46-1.55.835-.916 1.183-1.973 1.113-3.17-.07-1.127-.174-2.219-.035-3.346.313-2.148-.382-3.874-2.016-5.248-.174-.14-.348-.352-.522-.528-.66-.669-.8-1.338-.348-2.148.591-1.092 1.252-2.184 1.878-3.24.521-.846 1.043-1.057 1.982-.81 1.217.317 2.399.774 3.72.563a3.954 3.954 0 0 0 1.808-.74c1.113-.81 2.295-1.479 3.512-2.077 1.182-.6 1.912-1.55 2.295-2.818.174-.67.382-1.303.556-1.972.209-.775.73-1.163 1.495-1.163a74.402 74.402 0 0 1 3.964 0c.8 0 1.321.458 1.53 1.233.174.705.347 1.374.556 2.078.383 1.303 1.217 2.219 2.434 2.782a20.367 20.367 0 0 1 3.373 2.008c1.425 1.021 2.99.88 4.554.423.105-.036.174-.07.279-.106 1.669-.528 2.051-.352 2.92 1.127.557.95 1.113 1.902 1.634 2.888.313.563.313 1.127-.104 1.655a20.22 20.22 0 0 1-1.46 1.55c-1.078 1.092-1.6 2.395-1.426 3.944.14 1.163.14 2.325 0 3.487-.243 1.796.522 3.205 1.808 4.403.348.352.661.704 1.009 1.056.521.529.486 1.163.173 1.761-.625 1.127-1.286 2.254-1.912 3.381-.348.564-.8.846-1.46.846ZM27.924 61.746c-.105 5.952 4.867 10.989 10.778 10.989 5.911 0 10.883-4.79 10.883-10.953 0-6.129-4.833-10.918-10.709-10.989-6.085-.035-10.918 4.825-10.952 10.953Z" fill="#F47400"/><path d="M27.924 61.746c.034-6.163 4.867-10.988 10.952-10.953 5.876.035 10.71 4.825 10.71 10.989 0 6.163-4.973 10.953-10.884 10.953-5.876 0-10.883-5.037-10.778-10.989Zm10.778 6.903a6.863 6.863 0 0 0 6.885-6.903c0-3.803-3.095-6.903-6.85-6.903-3.72 0-6.78 3.1-6.78 6.868-.035 3.84 2.99 6.938 6.745 6.938Zm60.431 15.85c1.043-.07 1.565.774 2.19 1.373.348.352.522.352.87 0 1.112-1.162 2.26-2.29 3.372-3.451 1.217-1.268 2.886-.916 3.512.669.313.775.035 1.444-.487 1.972a407.522 407.522 0 0 1-5.459 5.565c-.869.845-1.947.81-2.816-.035a98.092 98.092 0 0 1-2.677-2.712c-.556-.6-.8-1.303-.417-2.114.382-.774.938-1.303 1.912-1.267Z" fill="#0F0E0E"/><g filter="url(#a)"><circle cx="66.371" cy="62" r="61" stroke="#000" stroke-width="2" shape-rendering="crispEdges"/></g><defs><filter id="a" x=".371" y="0" width="132" height="132" filterUnits="userSpaceOnUse" color-interpolation-filters="sRGB"><feFlood flood-opacity="0" result="BackgroundImageFix"/><feColorMatrix in="SourceAlpha" values="0 0 0 0 0 0 0 0 0 0 0 0 0 0 0 0 0 0 127 0" result="hardAlpha"/><feOffset dy="4"/><feGaussianBlur stdDeviation="2"/><feComposite in2="hardAlpha" operator="out"/><feColorMatrix values="0 0 0 0 0 0 0 0 0 0 0 0 0 0 0 0 0 0 0.25 0"/><feBlend in2="BackgroundImageFix" result="effect1_dropShadow_475_57"/><feBlend in="SourceGraphic" in2="effect1_dropShadow_475_57" result="shape"/></filter></defs></svg>