<svg width="133" height="132" fill="none" xmlns="http://www.w3.org/2000/svg"><path d="M45.073 15.046c.488.39 1.115.4 1.65.684 1.904.979 3.17 2.476 3.67 4.587.105.46.383.401.685.401h19.016c.51 0 .987.095 1.44.33.279.154.558.32.709.579.278.483.673.518 1.161.518 5.39-.011 10.78.024 16.17-.035 1.603-.012 3.043 1.345 2.938 2.972-.046.684.035 1.38-.023 2.064-.046.578.174.684.674.66.674-.035 1.347-.011 2.033-.011 1.73 0 2.904 1.167 2.904 2.924 0 24 0 48 .011 71.999 0 1.604-1.347 2.925-2.857 2.913-18.063-.035-36.138-.035-54.2 0-1.545 0-2.95-1.403-2.858-2.913.047-.767-.011-1.533.023-2.3.024-.401-.127-.495-.488-.483-.731.023-1.475-.047-2.206.023-1.545.13-2.928-1.32-2.928-2.983.035-11.169.012-22.337.012-33.494 0-.424-.012-.766-.453-1.096-.685-.52-.93-1.333-.93-2.218.012-3.007 0-6.002 0-9.01v-27.49c0-1.404.628-2.323 1.894-2.83.186-.071.372-.119.558-.119h.929c.72 0 1.51.19 2.126-.058.615-.248.499-1.192.824-1.781 1.057-1.875 2.463-3.208 4.612-3.597.162-.036.29-.071.36-.236h2.544Zm-5.576 7.017c-.093.118-.07.26-.07.4v13.54c0 .554.105 1.097.268 1.615.639 2.005 2.648 3.232 4.785 2.854 1.987-.353 3.346-1.957 3.45-3.726.128-2.088.047-4.199.035-6.298 0-.554-.418-1.097-.93-1.274-1.068-.377-1.974.307-2.009 1.545-.023.885.012 1.77-.023 2.654-.035.884-.534 1.38-1.336 1.356-.72-.012-1.254-.578-1.266-1.392a43.33 43.33 0 0 1 .012-3.007c.093-2.17 1.916-3.95 4.019-3.962 2.172-.012 4.193 1.662 4.193 4.269 0 1.828.012 3.644 0 5.472-.011 1.25-.29 2.43-.883 3.538-1.777 3.314-6.203 4.576-9.385 2.653-2.347-1.415-3.52-3.526-3.532-6.285-.011-4.022-.011-8.044 0-12.065 0-.425-.08-.601-.534-.566a9.549 9.549 0 0 1-1.742 0c-.604-.06-.72.165-.72.755.023 11.828.011 23.669.011 35.498 0 .766 0 .766.767.766 11.674 0 23.336 0 35.01.012.523 0 .697-.118.697-.684-.011-11.888-.011-23.787.012-35.675 0-.542-.151-.684-.685-.684-8.527.012-17.041.012-25.567.012-1.08 0-1.44-.283-1.72-1.321.07-.826.674-1.415 1.604-1.368 1.243.059 2.486.012 3.74.012-.418-1.663-2.474-3.491-5.03-2.854a4.285 4.285 0 0 0-3.17 4.21Zm51.656 11.263c-.86-.165-1.243-.59-1.243-1.474-.011-2.1-.023-4.199.012-6.298.012-.578-.105-.767-.72-.767-5.192.024-10.396.024-15.589 0-.522 0-.627.142-.627.649.023 5.743.012 11.498.012 17.254v17.3c0 .708-.151 1.345-.546 1.935-.674.979-1.661 1.144-2.73 1.144-11.244 0-22.489.011-33.733 0-.57 0-.743.118-.743.743.023 10.885.011 21.782.011 32.667 0 .802-.14.767.732.767 13.544 0 27.089 0 40.633.023.546 0 .72-.118.708-.695-.034-3.02.024-6.039-.023-9.07-.023-1.757 1.301-3.042 2.962-3.007 2.95.071 5.913.024 8.875.024.778 0 .778 0 .778-.79V38.055c0-1.18.151-1.392 1.255-1.793 1.01.26 1.347.637 1.347 1.604v46.75c0 1.178-.395 2.193-1.196 3.018-3.613 3.692-7.249 7.36-10.873 11.039-.906.86-1.975 1.285-3.23 1.285-11.847-.011-23.696-.011-35.532-.011-.151 0-.314.011-.465 0-.302-.036-.407.094-.395.401.023.613 0 1.214.012 1.828 0 .754 0 .754.766.754h53.167c.731 0 .731 0 .731-.778V31.274c0-.118-.011-.236 0-.354.047-.378-.139-.472-.476-.46-.407.023-.813 0-1.22 0-1.277 0-1.277 0-1.3 1.309-.024.955-.442 1.439-1.36 1.557ZM79.956 95.159c2.648-2.678 5.25-5.308 7.864-7.961-2.51 0-5.018.012-7.528-.012-.418 0-.336.26-.336.507v7.466Z" fill="#0D0D09"/><path d="M91.154 36.25c-1.104.401-1.255.614-1.255 1.793v45.676c0 .79 0 .79-.778.79-2.962 0-5.913.047-8.875-.024-1.66-.035-2.985 1.25-2.962 3.008.047 3.019 0 6.038.023 9.069 0 .578-.174.695-.708.695-13.533-.011-27.077-.011-40.621-.011-.871 0-.732.035-.732-.767 0-10.885 0-21.782-.012-32.667 0-.626.186-.743.744-.743 11.244.011 22.488 0 33.733 0 1.068 0 2.056-.166 2.73-1.145.406-.59.545-1.226.545-1.934v-17.3c0-5.756.012-11.5-.011-17.254 0-.507.104-.649.627-.649 5.192.024 10.396.024 15.589 0 .615 0 .731.189.72.767-.035 2.099-.023 4.198-.012 6.297 0 .873.383 1.31 1.243 1.474.012.968.012 1.946.012 2.925ZM67.492 67.526h-15.24c-.895 0-1.464.52-1.476 1.286-.011.731.605 1.309 1.452 1.356h30.179c.255 0 .488-.024.743-.082.535-.13.825-.472.941-.98.116-.506-.058-.907-.418-1.261-.349-.342-.767-.307-1.185-.307-4.995-.012-10.001-.012-14.996-.012Zm.011 7.076h-6.9c-2.857 0-5.714 0-8.572.012-.627 0-.976.378-1.185.92-.209.578.024 1.05.442 1.415.348.307.801.319 1.254.319h29.784c.174 0 .348.011.522-.012.686-.083 1.127-.484 1.255-1.097.104-.542-.14-1.05-.65-1.392-.326-.212-.674-.153-1.011-.153-4.972-.023-9.955-.012-14.938-.012Zm-5.622 7.076h-9.676c-.79 0-1.324.46-1.417 1.168-.081.613.337 1.191 1.01 1.45.233.083.454.06.686.06h19.003c.628 0 1.116-.283 1.383-.873.383-.838-.348-1.84-1.313-1.828-3.229.047-6.446.023-9.676.023Zm19.527-45.546h1.324c.802-.011 1.336-.495 1.394-1.238.046-.684-.511-1.38-1.243-1.427a30.757 30.757 0 0 0-2.95 0c-.732.035-1.243.672-1.22 1.38.023.755.57 1.262 1.347 1.285h1.348Zm.011 7.076c.442 0 .883.012 1.325 0 .801-.011 1.335-.507 1.394-1.25.046-.684-.512-1.368-1.255-1.415a23.655 23.655 0 0 0-2.892 0c-.779.047-1.29.672-1.266 1.392.023.72.604 1.332 1.417 1.273.43-.035.848 0 1.278 0Zm0 14.14c.523.013 1.046-.011 1.569.013.58.023 1.138-.626 1.161-1.239.023-.637-.43-1.238-1.068-1.309a14.43 14.43 0 0 0-3.346.012c-.604.07-1.01.637-.987 1.285.023.66.441 1.18 1.069 1.215.51.047 1.057.024 1.603.024Zm-37.682 24.33c-.441 0-.894.024-1.336-.011-.766-.06-1.394.648-1.394 1.32 0 .708.57 1.333 1.325 1.357.929.035 1.858.035 2.776 0 .778-.024 1.29-.602 1.278-1.368-.012-.779-.511-1.274-1.325-1.297-.43-.012-.882 0-1.324 0Zm37.706-31.405c.464.011.929-.012 1.394.011.743.036 1.254-.625 1.3-1.214.059-.637-.383-1.298-1.08-1.368-1.126-.118-2.276-.177-3.403.035-.616.118-.976.708-.918 1.356.058.649.511 1.132 1.15 1.168.511.035 1.034.012 1.557.012ZM43.726 74.614c-.477 0-.965.024-1.44-.012-.593-.047-1.174.531-1.255 1.133-.093.625.279 1.273.94 1.403a8.957 8.957 0 0 0 3.544-.012c.673-.141.94-.672.86-1.427-.07-.613-.524-1.061-1.15-1.085-.489-.023-1 0-1.5 0Zm-.035-4.434c.569-.06 1.138.07 1.719-.083.732-.2 1.057-.672.976-1.474-.07-.637-.523-1.073-1.208-1.085-.964-.023-1.929.012-2.893-.012-.731-.011-1.208.649-1.266 1.192-.07.648.372 1.214 1.057 1.391.535.13 1.069.024 1.615.07Z" fill="#EAE8E9"/><path d="M42.378 22.063c.279 1.05.639 1.32 1.719 1.32 8.526 0 17.04 0 25.567-.011.534 0 .685.13.685.684-.023 11.887-.023 23.787-.012 35.675 0 .566-.174.684-.697.684-11.674-.012-23.336-.012-35.01-.012-.767 0-.767 0-.767-.767 0-11.829 0-23.67-.011-35.498 0-.59.127-.814.72-.755.569.06 1.161.047 1.742 0 .453-.035.535.154.535.566-.012 4.022-.024 8.043 0 12.065.011 2.76 1.173 4.87 3.53 6.286 3.184 1.922 7.62.66 9.386-2.653a7.391 7.391 0 0 0 .883-3.539c.012-1.827 0-3.644 0-5.472 0-2.606-2.02-4.293-4.193-4.269-2.103.012-3.926 1.793-4.02 3.963-.046 1.002-.023 2.005-.01 3.007.01.802.545 1.368 1.265 1.392.802.023 1.301-.472 1.336-1.357.035-.884 0-1.769.023-2.653.035-1.227.941-1.922 2.01-1.545.511.177.93.72.93 1.274.01 2.099.092 4.21-.036 6.297-.104 1.77-1.463 3.385-3.45 3.727-2.137.377-4.135-.85-4.785-2.854a5.41 5.41 0 0 1-.268-1.616V22.463c0-.13-.034-.27.07-.389.941-.012 1.894-.012 2.858-.012Zm9.734 28.233h7.41c1.29 0 2.591 0 3.88-.035.593-.012 1.011-.425 1.15-1.027.14-.59-.116-1.037-.569-1.367-.336-.248-.755-.248-1.161-.248H41.39c-.267 0-.534.012-.801.082-.558.142-.86.52-.953 1.05-.104.578.151 1.026.628 1.344.325.224.708.177 1.068.177 3.59.036 7.179.024 10.78.024Zm7.62-7.088c1.162 0 2.312.012 3.473 0 .813-.012 1.394-.566 1.406-1.309.011-.696-.628-1.356-1.394-1.368a329.58 329.58 0 0 0-6.889 0c-.766.012-1.382.672-1.37 1.38.011.566.523 1.344 1.417 1.309 1.115-.047 2.23-.012 3.357-.012Zm.023-7.076c1.162 0 2.312.012 3.473 0 .767-.012 1.348-.566 1.371-1.285.023-.684-.627-1.38-1.359-1.392a454.361 454.361 0 0 0-6.946 0c-.732.012-1.348.66-1.336 1.344 0 .673.615 1.368 1.382 1.345 1.138-.047 2.277-.012 3.415-.012Zm31.398.118v-2.924c.918-.118 1.348-.602 1.36-1.557.011-1.31.011-1.31 1.3-1.31.407 0 .813.013 1.22 0 .337-.01.523.084.476.46-.011.119 0 .237 0 .355v70.878c0 .778 0 .778-.731.778H41.61c-.767 0-.767 0-.767-.754 0-.614.012-1.215-.011-1.828-.012-.307.093-.437.395-.401.15.011.313 0 .465 0 11.848 0 23.696 0 35.533.011 1.266 0 2.323-.412 3.206-1.309 3.624-3.68 7.26-7.347 10.872-11.038.802-.826 1.197-1.84 1.197-3.02V37.844c0-.956-.326-1.333-1.348-1.593Z" fill="#F47400"/><path d="M79.956 95.158v-7.465c0-.236-.082-.507.337-.507 2.508.011 5.018.011 7.527.011a5061.847 5061.847 0 0 0-7.864 7.96ZM42.377 22.063h-2.869a4.256 4.256 0 0 1 3.195-4.21c2.544-.637 4.611 1.19 5.03 2.853-1.255 0-2.51.048-3.74-.011-.942-.047-1.546.542-1.616 1.368Z" fill="#EAE8E9"/><path d="M67.493 67.526h15.008c.418 0 .848-.035 1.185.307.36.354.534.767.418 1.262-.116.507-.407.86-.941.979a3.123 3.123 0 0 1-.743.082H52.242c-.849-.047-1.464-.625-1.453-1.356.012-.766.581-1.285 1.475-1.285 5.065 0 10.141.011 15.229.011Zm.012 7.077h14.95c.337 0 .685-.06 1.01.153.5.33.755.85.65 1.391-.127.626-.568 1.015-1.254 1.097-.174.024-.348.012-.522.012H52.555c-.453 0-.906-.012-1.254-.318-.418-.366-.65-.826-.442-1.416.198-.554.558-.92 1.185-.92 2.858 0 5.715-.011 8.573-.011 2.3.012 4.588.012 6.888.012Zm-5.622 7.076c3.23 0 6.447.023 9.677-.012.964-.012 1.684.979 1.312 1.828-.267.59-.743.873-1.382.873H52.486c-.232 0-.453.023-.685-.06-.686-.247-1.104-.837-1.01-1.45.092-.707.627-1.167 1.416-1.167 3.23-.012 6.459-.012 9.676-.012Zm19.524-45.547c-.442 0-.883.012-1.324 0-.79-.011-1.325-.53-1.348-1.285-.023-.708.488-1.345 1.22-1.38a30.757 30.757 0 0 1 2.95 0c.732.035 1.301.731 1.243 1.427-.058.743-.592 1.227-1.394 1.238h-1.347Zm.011 7.076c-.418 0-.848-.023-1.266 0-.813.06-1.394-.554-1.417-1.273-.023-.732.488-1.357 1.266-1.392a26.278 26.278 0 0 1 2.893 0c.755.047 1.3.72 1.254 1.415-.046.743-.592 1.238-1.394 1.25h-1.336Zm.001 14.141c-.546 0-1.08.035-1.615-.012-.627-.047-1.045-.566-1.069-1.215-.023-.649.384-1.215.988-1.285 1.115-.13 2.23-.118 3.345-.012.65.07 1.104.672 1.069 1.309-.023.613-.581 1.262-1.162 1.238-.523-.035-1.034-.023-1.556-.023ZM43.734 81.678c.441 0 .883-.011 1.336 0 .813.024 1.312.52 1.324 1.298.011.766-.5 1.344-1.278 1.368-.93.035-1.858.035-2.776 0a1.383 1.383 0 0 1-1.324-1.357c0-.672.627-1.38 1.394-1.32.44.047.882.011 1.324.011Zm37.709-31.405c-.523 0-1.045.023-1.568-.012-.639-.035-1.092-.519-1.15-1.167-.058-.637.302-1.239.918-1.357 1.126-.212 2.265-.153 3.403-.035.697.07 1.138.72 1.08 1.368-.046.59-.569 1.262-1.3 1.215-.454-.024-.918 0-1.383-.012ZM43.725 74.614c.5 0 .999-.023 1.498 0 .627.024 1.08.472 1.15 1.085.081.755-.197 1.297-.86 1.427a9.421 9.421 0 0 1-3.542.012c-.662-.13-1.034-.778-.941-1.404.093-.613.673-1.179 1.254-1.132.477.036.964 0 1.44.012Zm-.032-4.434c-.546-.047-1.092.059-1.615-.07-.685-.178-1.115-.744-1.057-1.392.058-.543.534-1.203 1.266-1.192.964.024 1.928-.011 2.892.012.686.012 1.139.449 1.208 1.085.082.79-.243 1.262-.975 1.474-.57.154-1.15.024-1.72.083Zm8.419-19.884h-10.78c-.36 0-.731.06-1.068-.177-.477-.33-.732-.766-.628-1.344.093-.543.395-.908.953-1.05a3.09 3.09 0 0 1 .802-.082h21.431c.406 0 .825 0 1.162.247.453.33.708.779.569 1.368-.14.602-.558 1.014-1.15 1.026-1.29.036-2.59.024-3.88.036a1556.39 1556.39 0 0 0-7.411-.024Zm7.619-7.087c-1.115 0-2.242-.036-3.357.011-.894.036-1.394-.743-1.417-1.309-.011-.707.604-1.38 1.37-1.38 2.3-.023 4.59-.023 6.89 0 .754.012 1.393.673 1.393 1.368-.012.743-.592 1.31-1.405 1.31-1.162.011-2.324 0-3.474 0Zm.023-7.077c-1.138 0-2.276-.035-3.415.012-.766.024-1.382-.672-1.382-1.344 0-.684.604-1.345 1.336-1.345 2.311-.023 4.635-.023 6.946 0 .732 0 1.383.708 1.36 1.392-.036.731-.605 1.285-1.371 1.285-1.15.012-2.312 0-3.474 0Z" fill="#0D0D09"/><g filter="url(#a)"><circle cx="66.227" cy="62" r="61" stroke="#000" stroke-width="2" shape-rendering="crispEdges"/></g><defs><filter id="a" x=".227" y="0" width="132" height="132" filterUnits="userSpaceOnUse" color-interpolation-filters="sRGB"><feFlood flood-opacity="0" result="BackgroundImageFix"/><feColorMatrix in="SourceAlpha" values="0 0 0 0 0 0 0 0 0 0 0 0 0 0 0 0 0 0 127 0" result="hardAlpha"/><feOffset dy="4"/><feGaussianBlur stdDeviation="2"/><feComposite in2="hardAlpha" operator="out"/><feColorMatrix values="0 0 0 0 0 0 0 0 0 0 0 0 0 0 0 0 0 0 0.25 0"/><feBlend in2="BackgroundImageFix" result="effect1_dropShadow_475_59"/><feBlend in="SourceGraphic" in2="effect1_dropShadow_475_59" result="shape"/></filter></defs></svg>