<svg width="132" height="132" fill="none" xmlns="http://www.w3.org/2000/svg"><path d="M77.39 93.417v5.13c0 .527.354.46.676.46h5.655c1.542 0 3.02.297 4.273 1.284 1.318 1.019 2.057 2.368 2.121 4.078.032 1.118 0 2.236 0 3.355 0 1.184-.578 1.743-1.735 1.743H41.756c-1.124 0-1.703-.592-1.703-1.743 0-1.349-.128-2.697.097-4.013.385-2.467 2.345-4.308 4.916-4.539 2.185-.164 4.402-.098 6.587-.131 1.35-.033 1.125.033 1.125-1.151v-4.375c-.322 0-.579-.032-.836-.032H36.037c-2.346 0-4.241-.921-5.688-2.862-.835-1.118-1.317-2.4-1.317-3.782C29 74.078 29 61.383 29 48.655c0-3.06 2.41-5.953 5.398-6.414 1.382-.23 2.828-.197 4.274-.197.835 0 1.381.723 1.381 1.513-.032.822-.578 1.414-1.413 1.48-.804.033-1.64 0-2.442.033-2.571 0-4.178 1.644-4.178 4.308 0 12.235 0 24.503-.032 36.737 0 2.138 1.414 4.243 4.113 4.243 19.344-.033 38.687-.033 58.03 0 2.668 0 4.114-2.105 4.114-4.243-.033-12.234 0-24.502-.033-36.737 0-2.631-1.606-4.308-4.177-4.308-.803 0-1.638.032-2.442-.033-.867-.033-1.414-.625-1.414-1.48 0-.823.547-1.513 1.382-1.513 1.414 0 2.828-.066 4.177.164 2.796.494 4.499 2.303 5.238 5.065.16.56.225 1.151.225 1.71v37.363c0 3.98-2.989 7.038-6.877 7.038-5.334.033-10.635 0-15.97 0-.32.033-.578.033-.963.033Zm-34.284 12.958h43.989v-1.809c0-.756-.29-1.315-.868-1.776-.835-.625-1.8-.691-2.763-.691h-36.76c-.385 0-.77-.032-1.156.066-1.093.198-2.12.592-2.41 1.809-.16.724-.032 1.579-.032 2.401Zm12.628-7.466c.16.033.225.066.289.066 5.977 0 11.953 0 17.93.033.482 0 .482-.263.482-.625v-4.44c0-.165-.032-.296-.065-.428H55.766c-.032 1.81-.032 3.585-.032 5.394Z" fill="#000"/><path d="M41.082 47.371c0-9.373 0-18.747.032-28.12 0-.69.16-1.447.482-2.04.45-.789 1.253-1.15 2.217-1.15H79.77c.996 0 1.67.526 2.346 1.216 1.96 2.04 3.952 4.046 5.944 6.085.707.724 1.028 1.579 1.028 2.631-.032 6.183 0 12.334 0 18.517 0 10.327-.032 20.654.032 30.948 0 2.171-1.317 3.388-3.277 3.388-13.881-.033-27.762-.033-41.643-.033-1.542 0-2.442-.592-2.892-1.907-.16-.46-.16-.954-.16-1.448-.065-9.373-.065-18.713-.065-28.087Zm44.985-20.687c-.16-.033-.225-.099-.29-.099-1.413 0-2.86-.033-4.273 0-1.607.033-2.795-.625-2.699-2.763.064-1.282-.032-2.565.032-3.815.032-.658-.128-.92-.835-.92-11.086.032-22.107 0-33.128.032-.225 0-.482.033-.772.033v55.616c0 .954 0 .954.9.954h40.165c.9 0 .9 0 .9-.954V26.684Zm-2.41-3.19c.064-.1.129-.198.193-.296-.61-.593-1.221-1.217-1.832-1.81a.673.673 0 0 0-.193.132c0 .526-.032 1.085.033 1.612 0 .131.224.329.353.361.45.033.964 0 1.446 0Z" fill="#000"/><path d="M36.421 81.181h57.291V50.562c0-.921 0-.889-.931-.921-.675-.033-1.382-.066-2.025-.33-.61-.23-.707-.92-.578-1.545.16-.69.61-1.118 1.285-1.151a26.702 26.702 0 0 1 3.246 0c1.028.066 1.863.953 1.96 2.072.032.23.032.46.032.69v32.89c0 .329-.032.657-.097.953-.16.625-.61.954-1.22 1.02-.226.033-.45 0-.675 0H35.456c-1.542 0-1.992-.46-1.992-2.006v-32.89c0-1.94.803-2.762 2.699-2.762h2.313c.932.033 1.575.658 1.575 1.546 0 .855-.61 1.48-1.542 1.513-.45.032-.9.032-1.35 0-.578-.066-.771.197-.707.756v29.831c-.032.296-.032.592-.032.953Z" fill="#000"/><path d="M55.443 19.416c5.27-.066 9.768 4.341 9.768 9.932 0 5.526-4.177 9.999-9.8 9.999-5.623 0-9.704-4.638-9.704-9.999 0-5.492 4.37-9.932 9.736-9.932Zm6.298 12.465c1.317-3.223-.129-6.644-2.538-8.255-2.668-1.81-6.266-1.448-8.387.723-2.25 2.27-2.667 5.69-1.478 7.696.193-.23.353-.493.546-.723.193-.23.386-.527.675-.691.964-.526 1.157-1.184.739-2.27-.643-1.71.064-3.584 1.478-4.703 1.542-1.184 3.438-1.315 4.948-.361 1.64 1.052 2.442 2.828 2.089 4.67-.129.592-.321 1.118-.514 1.71.096-.099.193-.197.29-.329.674.855 1.413 1.71 2.152 2.533Zm-2.185 2.993c-.096-.23-.16-.362-.193-.494-.739-1.71-2.088-2.63-3.856-2.664-1.735-.033-3.084.888-3.888 2.533-.257.526-.096.822.322 1.052.674.296 1.35.658 2.056.822 2.024.494 3.856 0 5.559-1.25Zm-4.08-6.216c.77 0 1.413-.691 1.38-1.48-.031-.757-.642-1.382-1.413-1.382s-1.446.658-1.414 1.447c0 .757.675 1.415 1.446 1.415Z" fill="#F47400"/><path d="M51.778 69.539h-4.273c-1.125 0-1.736-.592-1.736-1.743v-8.683c0-1.118.675-1.776 1.736-1.776h8.547c1.028 0 1.67.658 1.67 1.677v8.88c0 1.086-.578 1.645-1.67 1.645h-4.274Zm-2.956-4.966c-.032.427-.064.69-.064.953 0 .987 0 .987.932.987h4.98v-3.19c-.225.197-.353.296-.482.427-.771.691-1.51 1.382-2.281 2.04-.675.558-1.221.526-1.896-.034-.354-.328-.707-.723-1.189-1.183Zm5.88-3.388c.097-.46.129-.79-.45-.79-1.638 0-3.31 0-4.948.033-.16 0-.482.198-.482.297-.064.526-.032 1.085-.032 1.512.643-.032 1.253-.263 1.67-.065.611.296.9.098 1.286-.264.16-.164.321-.328.482-.46.9-.79 1.382-.855 2.474-.263Zm3.021-12.629v4.308c0 1.217-.547 1.776-1.736 1.776H47.57c-1.221 0-1.8-.592-1.8-1.842v-8.55c0-1.218.643-1.843 1.8-1.843h8.418c1.157 0 1.703.592 1.736 1.743v4.407Zm-8.772 1.25c-.065 0-.129.032-.193.032 0 .46-.032.921.032 1.349.032.131.29.361.45.361 1.703.033 3.406.033 5.077 0 .16 0 .417-.197.417-.296.032-.92.032-1.808.032-2.894-.257.23-.417.33-.546.428-.77.69-1.542 1.414-2.345 2.105-.547.46-1.157.46-1.736 0-.417-.296-.77-.724-1.188-1.086Zm5.751-3.487c.065-.428.225-.855-.385-.855-1.703 0-3.374 0-5.077.033-.16 0-.418.23-.45.362-.064.526-.032 1.085-.032 1.743.803-.526 1.478-.69 2.185-.132.064.033.289-.066.385-.131.257-.23.514-.46.74-.691.77-.79 1.606-1.118 2.634-.329Zm15.876 16.215h-9.254c-1.092 0-1.703-.527-1.767-1.415-.064-.855.385-1.48 1.22-1.677.226-.033.45-.033.676-.033h18.283c.739 0 1.413.165 1.735.921.418.921-.032 1.875-.996 2.105a4.48 4.48 0 0 1-.932.099h-8.965Zm-.03-14.966H61.39c-1.22 0-1.831-.559-1.799-1.545 0-.856.61-1.48 1.51-1.513.868-.033 1.767 0 2.635 0h16.098c.643 0 1.221.164 1.575.756.61 1.053-.032 2.27-1.286 2.302-2.12.066-4.209.033-6.33.033-1.092 0-2.152-.033-3.245-.033Zm.064 16.84h9.382c1.318 0 2.057 1.217 1.414 2.335-.353.592-.9.724-1.51.724H61.294c-1.029 0-1.671-.526-1.703-1.381-.065-1.02.546-1.678 1.606-1.678h9.415ZM70.61 49.51c3.053 0 6.105-.034 9.158.032.482 0 1.06.164 1.414.46.835.724.482 2.105-.547 2.434a2.637 2.637 0 0 1-.867.132H61.453a2.64 2.64 0 0 1-.868-.132c-.739-.23-1.06-.756-1.028-1.578.032-.691.514-1.184 1.189-1.316.257-.033.546-.033.803-.033h9.061Zm5.241-14.867h-6.973a2.58 2.58 0 0 1-1.22-.296c-.58-.296-.836-.855-.708-1.513.129-.625.514-1.085 1.157-1.217.225-.032.45-.065.675-.065h14.106c.707 0 1.317.131 1.67.822.483 1.02-.096 2.105-1.22 2.236-.546.066-1.125.033-1.703.033H75.85Zm-4.017-5.69h-3.117c-1.092-.033-1.799-.625-1.799-1.546 0-.92.739-1.546 1.831-1.546h6.298c.772 0 1.414.428 1.607 1.053.193.658.064 1.282-.482 1.677-.321.23-.803.329-1.189.329-1.06.066-2.12.033-3.149.033Z" fill="#000"/><g filter="url(#a)"><circle cx="66" cy="62" r="61" stroke="#000" stroke-width="2" shape-rendering="crispEdges"/></g><defs><filter id="a" x="0" y="0" width="132" height="132" filterUnits="userSpaceOnUse" color-interpolation-filters="sRGB"><feFlood flood-opacity="0" result="BackgroundImageFix"/><feColorMatrix in="SourceAlpha" values="0 0 0 0 0 0 0 0 0 0 0 0 0 0 0 0 0 0 127 0" result="hardAlpha"/><feOffset dy="4"/><feGaussianBlur stdDeviation="2"/><feComposite in2="hardAlpha" operator="out"/><feColorMatrix values="0 0 0 0 0 0 0 0 0 0 0 0 0 0 0 0 0 0 0.25 0"/><feBlend in2="BackgroundImageFix" result="effect1_dropShadow_475_56"/><feBlend in="SourceGraphic" in2="effect1_dropShadow_475_56" result="shape"/></filter></defs></svg>