<svg width="133" height="132" fill="none" xmlns="http://www.w3.org/2000/svg"><path d="M52.253 13.036c1.061.108 2.087.215 3.148.395 1.91.287 3.82.538 5.695 1.005a42.307 42.307 0 0 1 5.589 1.795c2.263.934 4.315 2.19 5.73 4.308.707 1.042.955 2.154.955 3.375-.036 6.642 0 13.284 0 19.926v14.648c.636-.072 1.238-.108 1.804-.18 3.218-.43 6.437-.646 9.691-.395 1.132.108 2.3.108 3.431.216 2.653.287 5.235.754 7.782 1.508 2.3.682 4.527 1.543 6.544 2.872 1.45.97 2.759 2.118 3.395 3.805.283.754.46 1.58.46 2.37.035 8.975 0 17.987.035 26.962 0 2.298-.919 4.057-2.582 5.493-2.051 1.795-4.492 2.872-7.074 3.626-1.592.467-3.183.898-4.81 1.221-3.891.754-7.817.969-11.779.826-1.875-.072-3.75-.18-5.589-.431-1.768-.251-3.537-.682-5.305-1.041-.177-.036-.46 0-.602.107a21.635 21.635 0 0 1-6.154 3.411c-3.467 1.257-7.004 1.759-10.682 1.328-3.042-.359-5.907-1.22-8.596-2.692-3.29-1.723-5.977-4.165-8.1-7.216a23.88 23.88 0 0 1-3.36-6.965 24.178 24.178 0 0 1-.99-6.14c-.036-.502-.212-.718-.601-.969-1.628-.862-3.078-1.903-4.174-3.447-.779-1.113-1.097-2.37-1.097-3.733v-51.7c0-.897.035-1.758 0-2.656-.177-2.728 1.026-4.775 3.113-6.354 2.051-1.58 4.35-2.514 6.756-3.268 2.157-.682 4.35-1.184 6.614-1.436 1.167-.107 2.335-.251 3.537-.395.39-.035.778-.143 1.168-.215 1.98.036 4.032.036 6.048.036Zm17.933 58.95c-.283.396-.495.719-.743.97-.778.718-1.768.467-2.051-.538-.212-.718.248-1.15.707-1.544.425-.36.425-.575 0-.97-2.759-2.333-5.907-3.877-9.444-4.595-.955-.215-1.945-.287-3.006-.43v1.256c-.036.79-.496 1.292-1.168 1.292-.672 0-1.202-.538-1.202-1.292v-1.22c-4.952.358-9.197 2.153-12.91 5.42.353.36.636.683.919 1.006.354.43.389 1.184.035 1.58-.389.466-.955.574-1.485.25-.283-.179-.53-.43-.779-.681-.247-.252-.495-.36-.742 0-.46.646-.955 1.256-1.415 1.902-1.663 2.442-2.724 5.17-3.29 8.078-.177.862-.212 1.795-.318 2.765h1.273c.708.035 1.168.538 1.168 1.22 0 .682-.46 1.185-1.168 1.221h-1.344c.177 1.185.319 2.262.53 3.303.638 3.267 2.017 6.175 4.069 8.796.778.969.778.969 1.697.143.566-.502 1.203-.502 1.733 0 .46.467.425 1.185-.07 1.724-.248.287-.53.574-.814.897 3.714 3.267 7.959 5.098 12.91 5.386v-1.221c.036-.754.496-1.221 1.203-1.221.672 0 1.132.467 1.168 1.185 0 .251.035.503 0 .754-.036.395.106.539.495.503.813-.108 1.627-.108 2.405-.288 3.36-.754 6.438-2.118 9.126-4.308.884-.718.884-.718.141-1.544-.601-.646-.636-1.328-.141-1.83.53-.503 1.203-.503 1.804.107.247.251.389.575.636.969 3.396-3.949 5.165-8.293 5.518-13.283h-1.308c-.708 0-1.203-.61-1.203-1.185 0-.538.424-1.257 1.238-1.22h1.273c-.318-5.135-2.087-9.443-5.447-13.356Zm.778-43.512c-.99.646-1.874 1.256-2.83 1.795-2.581 1.4-5.305 2.297-8.17 2.8-2.087.36-4.21.79-6.331.934-3.36.215-6.686.215-10.046-.144-2.653-.287-5.306-.718-7.888-1.436-2.122-.61-4.209-1.328-6.119-2.55-.707-.43-1.38-.933-2.122-1.4-.036.144-.071.216-.071.288 0 1.364-.035 2.729 0 4.129.035.933.354 1.795 1.061 2.405.814.718 1.698 1.364 2.582 2.047.39.323.672.718.566 1.256-.106.503-.424.934-.955.934a2.38 2.38 0 0 1-1.096-.288c-.708-.395-1.345-.897-2.158-1.436 0 1.257.07 2.406 0 3.519-.177 2.046.849 3.41 2.405 4.523 2.229 1.544 4.705 2.55 7.322 3.088 2.547.538 5.094 1.077 7.64 1.292 3.36.288 6.72.252 10.081-.107 3.042-.323 6.049-.898 8.984-1.903 1.91-.646 3.785-1.508 5.377-2.8 1.167-.97 1.945-2.083 1.84-3.734-.072-.826 0-1.652 0-2.478v-1.472c-.284.216-.46.36-.602.467-.85.539-1.627 1.113-2.511 1.58-3.007 1.615-6.297 2.441-9.622 2.98-2.016.323-4.032.466-6.048.646-4.068.359-8.135-.036-12.168-.646-.778-.108-1.096-.647-.99-1.472.07-.61.53-.934 1.273-.898.283 0 .53.036.814.072 1.344.144 2.723.395 4.067.467 5.13.359 10.258.107 15.28-1.113 2.83-.682 5.519-1.58 7.96-3.196 1.167-.79 2.334-1.723 2.51-3.195.107-1.651-.035-3.303-.035-4.954ZM49.211 31.74c1.733-.108 3.431-.18 5.164-.323 3.856-.323 7.605-1.077 11.213-2.621 1.698-.718 3.325-1.616 4.528-3.088 1.096-1.328 1.167-2.62.212-4.02-.85-1.257-2.123-2.047-3.396-2.73-2.724-1.435-5.66-2.261-8.666-2.764-2.334-.395-4.704-.61-7.039-.754a53.551 53.551 0 0 0-11.708.97c-2.157.395-4.28.969-6.296 1.795-1.733.718-3.43 1.58-4.74 3.015-1.414 1.58-1.45 3.303.071 4.776a14.206 14.206 0 0 0 2.335 1.83c2.688 1.616 5.66 2.442 8.701 3.016 3.183.61 6.367.97 9.621.898Zm14.502 32.491c0 .072.036.144.036.215.283.144.566.252.849.395 4.775 2.406 8.418 5.96 10.894 10.77.141.252.46.54.707.575 1.627.144 3.22.36 4.846.323 2.76-.071 5.518-.25 8.277-.466 3.325-.287 6.508-1.15 9.586-2.477 1.521-.683 2.935-1.472 4.103-2.729 1.415-1.544 1.415-3.231 0-4.74-1.344-1.471-3.042-2.333-4.846-3.05-3.148-1.33-6.508-2.011-9.869-2.37-2.334-.252-4.74-.252-7.11-.287-3.147 0-6.26.287-9.337 1.005-1.875.43-3.714 1.005-5.518 1.651-.92.216-1.733.754-2.618 1.185Zm-36.22-17.197c-.035.215-.07.323-.07.43 0 1.365-.036 2.693 0 4.058.035.502.176 1.04.389 1.508.707 1.4 1.98 2.226 3.289 2.944 2.83 1.58 5.907 2.44 9.09 2.944 1.946.323 3.927.466 5.872.682 3.89.359 7.711.036 11.531-.575 1.875-.287 3.714-.79 5.553-1.328 2.123-.61 4.103-1.508 5.872-2.908.92-.718 1.804-1.58 1.91-2.836.106-1.58.035-3.196 0-4.811 0-.036-.07-.036-.106-.072-1.415 1.185-2.971 2.046-4.67 2.764-2.581 1.077-5.27 1.831-8.064 2.19-2.44.288-4.881.61-7.322.718-3.537.18-7.11-.107-10.611-.718-2.511-.43-4.987-1.04-7.357-1.938a17.278 17.278 0 0 1-5.306-3.052Zm76.437 44.877-.212.108c-1.662 1.329-3.537 2.262-5.553 3.016-2.405.897-4.881 1.472-7.393 1.867-1.52.251-3.042.395-4.598.502-3.396.216-6.827.18-10.222-.18-.354-.035-.495.073-.708.36-.884 1.4-1.804 2.8-2.759 4.165-.353.502-.813.969-1.273 1.472.177.071.248.179.354.179 2.44.359 4.88.862 7.322.969 5.553.288 11.07-.071 16.447-1.651 2.229-.646 4.35-1.472 6.226-2.836 1.096-.79 2.193-1.688 2.299-3.196.106-1.543.07-3.123.07-4.667.106-.036.071-.072 0-.108Zm.142-9.406c-.283.18-.389.216-.495.287-1.875 1.58-4.068 2.513-6.367 3.267a41.217 41.217 0 0 1-8.843 1.831 56.26 56.26 0 0 1-9.833.216c-.39-.036-.53.072-.566.466-.07.683-.142 1.329-.283 2.011-.283 1.257-.637 2.513-.99 3.77-.107.43-.036.61.389.61.495 0 .99.036 1.485.036 4.21.251 8.419.215 12.592-.646a73.177 73.177 0 0 0 6.12-1.58 14.148 14.148 0 0 0 4.598-2.405c.955-.754 1.91-1.58 2.016-2.908.106-1.329.106-2.657.141-3.986.071-.25.036-.538.036-.969Zm-.177-9.263c-1.839 1.544-3.926 2.55-6.12 3.303-3.36 1.185-6.861 1.867-10.398 2.119-2.865.215-5.73.071-8.596.107h-1.768c.424 2.262.813 4.524 1.238 6.858a34.03 34.03 0 0 0 2.193.18c4.527.107 9.02-.252 13.44-1.33 2.618-.645 5.13-1.507 7.394-2.98 1.096-.717 2.193-1.507 2.546-2.8.495-1.759.283-3.59.177-5.385 0 0-.035-.036-.106-.072ZM71 56.37c-.213.143-.319.25-.46.323-1.309.79-2.582 1.687-3.962 2.297-3.042 1.4-6.225 2.19-9.55 2.55-2.547.25-5.093.574-7.64.538-3.007-.036-6.013-.287-8.984-.646-1.84-.216-3.679-.826-5.483-1.293-2.547-.682-4.916-1.759-7.039-3.41-.106-.108-.283-.144-.424-.216 0 1.652-.036 3.231.035 4.811.036.538.319 1.113.637 1.544 1.38 1.867 3.395 2.8 5.447 3.626 1.344.538 2.724.97 4.138 1.328.602.144 1.31.575 1.946.036 1.556-1.328 3.29-2.37 5.129-3.231 2.546-1.149 5.164-1.867 7.923-2.046 2.547-.18 5.093-.036 7.57.718.247.071.6-.072.848-.216.637-.359 1.238-.826 1.91-1.185 2.335-1.328 4.846-2.118 7.428-2.764.177-.036.425-.323.46-.503.106-.718.07-1.436.07-2.261Zm-43.578 9.262v4.524c0 .718.248 1.4.708 1.974 1.273 1.688 3.077 2.55 4.916 3.375.107.036.425-.143.531-.287l2.334-3.554c.354-.539.779-1.041 1.239-1.616-3.538-.826-6.792-1.975-9.728-4.416Zm.036 9.622c0 .215-.036.43-.036.646 0 1.041.071 2.118 0 3.16-.177 2.082 1.804 3.949 3.502 4.667.46-1.903.92-3.842 1.38-5.709-1.592-.897-3.184-1.83-4.846-2.764Z" fill="#000"/><path d="M74.923 85.743c.106 2.477-.636 5.098-1.839 7.61-.495 1.006-1.238 1.222-1.98.611-.425-.359-.496-1.005-.213-1.615 1.096-2.19 1.662-4.488 1.627-6.965-.07-4.452-1.698-8.186-4.952-11.166-2.158-1.975-4.704-3.123-7.57-3.59-6.402-1.041-12.698 2.334-15.492 8.114-1.486 3.051-1.945 6.283-1.238 9.693.884 4.452 3.325 7.791 7.11 10.053 2.653 1.58 5.553 2.19 8.666 1.903 1.803-.144 3.501-.647 5.128-1.4.46-.216.956-.288 1.415.035.779.539.708 1.652-.177 2.047-1.238.538-2.51 1.041-3.82 1.4-2.193.61-4.456.574-6.685.215a15.835 15.835 0 0 1-5.73-2.118c-2.794-1.651-5.023-3.913-6.544-6.857-1.91-3.662-2.511-7.54-1.697-11.668.778-4.057 2.758-7.36 5.836-10.017 2.405-2.046 5.2-3.303 8.347-3.806 7.676-1.256 15.104 2.909 18.287 9.981 1.026 2.226 1.557 4.308 1.521 7.54Z" fill="#000"/><path d="M53.417 90.77h-1.945c-.743 0-1.167-.468-1.167-1.186 0-.682.46-1.184 1.132-1.22.636-.036 1.273 0 1.945 0v-1.76h-1.804c-.814 0-1.273-.43-1.273-1.22 0-.718.495-1.185 1.273-1.22h1.84v-7.899c0-.97.353-1.4 1.343-1.436 1.804 0 3.608-.108 5.341.107 1.981.252 3.715 1.688 4.387 3.914.884 2.908-.213 5.636-2.83 7.037-.672.359-1.521.538-2.3.646-.919.107-1.874.036-2.794.036-.212 0-.46.035-.707.035v1.688c.248 0 .46.036.672.036h5.306c.849 0 1.344.466 1.344 1.22s-.46 1.185-1.344 1.185h-5.978v3.088c0 .682-.354 1.077-.99 1.185-.566.107-1.026-.144-1.274-.683-.106-.18-.106-.43-.106-.682-.07-.897-.07-1.83-.07-2.872Zm2.441-13.392v6.785a.864.864 0 0 0 .283.036c.955 0 1.91.036 2.865-.036a4.563 4.563 0 0 0 1.663-.43c1.202-.575 1.945-2.155 1.733-3.555-.177-1.292-1.345-2.693-2.583-2.8-1.308-.108-2.617 0-3.961 0Z" fill="#F47400"/><path d="M51.08 16.99h1.45c.673.037 1.168.54 1.168 1.221 0 .683-.46 1.15-1.167 1.185-2.016.108-4.068.18-6.084.431-1.84.215-3.608.682-5.412 1.077-.743.18-1.38-.072-1.627-.754-.212-.646.106-1.364.884-1.544 1.592-.395 3.22-.754 4.846-1.005 1.98-.287 3.962-.467 5.943-.682v.072Zm-13.477 4.524c-.283.323-.495.718-.813 1.006-.46.395-.99.718-1.486 1.113-.53.43-1.309.466-1.733 0a1.187 1.187 0 0 1 .07-1.724c.673-.574 1.416-1.149 2.194-1.58.778-.43 1.627.18 1.768 1.185Z" fill="#000"/><g filter="url(#a)"><circle cx="66.285" cy="62" r="61" stroke="#000" stroke-width="2" shape-rendering="crispEdges"/></g><defs><filter id="a" x=".285" y="0" width="132" height="132" filterUnits="userSpaceOnUse" color-interpolation-filters="sRGB"><feFlood flood-opacity="0" result="BackgroundImageFix"/><feColorMatrix in="SourceAlpha" values="0 0 0 0 0 0 0 0 0 0 0 0 0 0 0 0 0 0 127 0" result="hardAlpha"/><feOffset dy="4"/><feGaussianBlur stdDeviation="2"/><feComposite in2="hardAlpha" operator="out"/><feColorMatrix values="0 0 0 0 0 0 0 0 0 0 0 0 0 0 0 0 0 0 0.25 0"/><feBlend in2="BackgroundImageFix" result="effect1_dropShadow_475_60"/><feBlend in="SourceGraphic" in2="effect1_dropShadow_475_60" result="shape"/></filter></defs></svg>