<svg width="133" height="132" fill="none" xmlns="http://www.w3.org/2000/svg"><g filter="url(#a)"><circle cx="66.313" cy="62" r="61" stroke="#000" stroke-width="2" shape-rendering="crispEdges"/></g><path d="M106.316 82.627c-.394 1.799-1.929 2.398-3.267 3.198-1.299.759-2.598 1.478-3.897 2.237-.984.56-2.007.56-2.991.04-.315-.16-.473-.12-.67.12-1.417 1.559-3.07 2.758-4.88 3.757-.08.04-.197.08-.276.12-.63.24-1.18.12-1.378-.36-.236-.52 0-1.119.63-1.399 1.85-.879 3.385-2.158 4.763-3.636.118-.16.157-.52.079-.68-1.93-3.397-3.897-6.793-5.865-10.19-1.614-2.838-3.267-5.675-4.842-8.553-.275-.48-.512-.719-1.141-.56-1.654.48-3.346.84-5 1.24-1.495.36-2.912.08-4.33-.44-2.243-.8-4.487-1.678-6.73-2.438-1.929-.639-3.78-.16-5.472.92-2.913 1.838-5.865 3.596-8.738 5.475-.827.559-1.417 1.518-2.047 2.357-1.378 1.919-2.716 3.917-4.094 5.875-.433.64-.275 1.159.433 1.479 2.992 1.359 6.22.6 8.384-1.918.945-1.12 1.89-2.278 2.756-3.477.472-.64 1.063-1 1.771-1.2 1.338-.399 2.716-.759 4.054-1.198.473-.16.867-.04 1.181.24 2.835 2.477 5.669 4.955 8.542 7.473 2.244 1.958 4.448 3.876 6.692 5.835a856.589 856.589 0 0 1 6.612 5.794c1.496 1.319 1.85 3.397 1.103 5.115-.827 1.959-2.716 2.958-4.724 2.638-.197-.04-.433-.04-.669-.08-.118 3.477-3.779 5.755-7.125 3.557-.511 3.117-3.62 5.075-6.888 3.357-.157.559-.276 1.119-.512 1.638-1.18 2.318-4.093 3.517-6.73 1.239-1.024-.879-2.126-1.678-3.189-2.517-.157-.12-.315-.2-.551-.36-.984 1.558-2.283 2.438-4.094 2.318-1.771-.12-2.991-1.159-3.7-2.838-1.417.76-2.794.959-4.212.24-1.377-.719-2.165-1.838-2.4-3.437-1.497.28-2.914.08-4.016-.999-1.102-1.039-1.495-2.398-1.299-3.956-2.125-.04-3.62-1.04-4.25-3.037-.67-2.079.472-3.637 1.574-5.076a107.202 107.202 0 0 0-3.07-2.997c-.119-.12-.433-.2-.552-.16-1.26.6-2.44.44-3.582-.4-1.613-1.159-3.267-2.237-4.92-3.357-1.614-1.119-1.929-3.037-.827-4.675 2.638-3.957 5.314-7.913 7.952-11.87 1.732-2.597 3.503-5.235 5.235-7.872 1.26-1.919 3.149-2.198 5.038-.84 1.496 1.08 3.07 2.119 4.606 3.158 1.26.839 1.85 2.078 1.535 3.556-.118.52.079.68.433.76 1.377.36 2.755.68 4.133 1.039.866.24 1.732.44 2.598.72.59.199 1.023.239 1.574-.12 1.85-1.2 3.7-2.359 5.59-3.478 2.519-1.478 5.078-1.358 7.715-.32 1.89.76 3.818 1.44 5.747 2.119 1.377.48 2.834.4 4.211 0 1.339-.36 2.638-.72 3.937-1.04.078-.519.118-1.078.236-1.598.197-.919.787-1.518 1.574-1.958 1.772-1.04 3.504-2.078 5.275-3.077 1.692-.96 3.424-.48 4.409 1.239 2.125 3.676 4.211 7.353 6.337 11.07 1.81 3.157 3.621 6.274 5.432 9.43.275.48.472.96.708 1.44.079.48.079.919.079 1.318Zm-47.825 23.059c.078.08.118.16.157.2 1.457 1.119 2.874 2.238 4.33 3.317.59.44 1.26.4 1.929.08 1.81-.879 2.007-3.197.433-4.516-1.024-.879-2.086-1.718-3.15-2.557-.59-.48-.668-.92-.275-1.439.355-.48.906-.48 1.457 0 1.928 1.558 3.818 3.157 5.747 4.716 1.574 1.278 3.857.399 4.133-1.559.157-1.119-.394-1.918-1.22-2.598-2.599-2.118-5.196-4.276-7.794-6.394-.59-.48-.709-1.039-.315-1.518.354-.44.905-.44 1.456.04l5.432 4.436c1.89 1.558 3.779 3.117 5.668 4.635.788.64 2.087.6 2.874 0 1.417-1.079 1.417-2.997.04-4.156a2065.619 2065.619 0 0 0-9.605-7.913c-.551-.48-.67-.959-.276-1.438.355-.48.866-.48 1.457 0 1.062.879 2.125 1.758 3.188 2.597l8.03 6.594c.905.72 2.44.6 3.267-.24.866-.839 1.023-2.317.276-3.317-.394-.52-.906-.959-1.378-1.398-2.874-2.518-5.747-4.996-8.62-7.513-3.858-3.357-7.716-6.754-11.573-10.111-.158-.16-.472-.2-.709-.16-1.18.32-2.4.68-3.582 1.079-.236.08-.472.24-.63.44-.826 1.039-1.652 2.038-2.44 3.077-.984 1.279-2.204 2.358-3.7 2.997-2.283.96-4.566.92-6.928.04-1.889-.72-2.716-2.877-1.417-4.636 1.417-1.878 2.677-3.876 4.055-5.794.708-1 1.299-2.079 2.361-2.758.355-.24.709-.48 1.181-.76-.59-.16-1.063-.359-1.495-.399-1.85-.2-3.622-.6-5.314-1.399-.118-.04-.394 0-.473.12-.354.44-.669.96-.984 1.439l-7.44 11.15a389.96 389.96 0 0 1-3.463 5.115c-.236.36-.276.68.079 1 .866.798 1.692 1.598 2.558 2.397.276.24.433.2.709 0 1.653-1.199 3.7-1.159 5.235.2.472.4.787.959 1.22 1.439 1.023-1.44 2.401-2.119 4.094-1.919 1.732.24 2.834 1.319 3.464 2.918 1.928-.96 3.7-.96 5.274.56 1.575 1.558 1.653 3.396.67 5.394.235.08.432.12.63.2 2.951.64 4.29 3.996 2.597 6.514-.433.639-.827 1.239-1.22 1.798ZM37.944 59.409c-.315.2-.748.36-.945.639-.866 1.199-1.653 2.438-2.48 3.677-1.929 2.877-3.857 5.794-5.786 8.672-1.732 2.597-3.464 5.155-5.157 7.753-.511.759-.314 1.478.433 1.998.158.12.355.24.512.36 1.496.999 2.952 2.038 4.448 3.037.787.52 1.456.4 2.008-.4a486.182 486.182 0 0 0 4.998-7.433c2.756-4.116 5.511-8.273 8.267-12.389.59-.919.511-1.598-.355-2.238a358.9 358.9 0 0 0-4.96-3.397c-.275-.08-.59-.12-.983-.28Zm53.1.24c-.276.08-.552.16-.788.28-1.732.998-3.424 1.997-5.117 2.996-.905.52-1.102 1.12-.59 2.038a729.286 729.286 0 0 0 4.29 7.514c2.52 4.436 5.078 8.872 7.597 13.307.472.84 1.26 1 2.086.52a348.966 348.966 0 0 1 5.196-3.037c.748-.44.984-1.12.551-1.879-.433-.799-.905-1.598-1.377-2.437-2.165-3.757-4.33-7.513-6.495-11.31-1.378-2.438-2.795-4.876-4.173-7.273-.275-.44-.63-.72-1.18-.72Zm-38.182 32.89c-.787 0-1.456.32-1.929.998-1.89 2.758-3.779 5.475-5.668 8.233-.787 1.119-.551 2.638.512 3.357 1.141.799 2.598.519 3.385-.64 1.85-2.717 3.74-5.435 5.59-8.152.55-.84.668-1.718.157-2.638-.472-.759-1.142-1.119-2.047-1.159Zm-11.14 9.311c.827.04 1.457-.4 1.93-1.039 1.613-2.358 3.266-4.716 4.84-7.074.473-.72.434-1.558 0-2.318-.944-1.598-2.951-1.598-4.054-.04a667.823 667.823 0 0 0-4.566 6.634c-.55.8-.63 1.719-.157 2.598.472.799 1.141 1.199 2.007 1.239Zm9.487 3.197c0 1.359.669 2.318 1.535 2.598 1.023.319 2.047 0 2.676-.84.394-.559.827-1.119 1.22-1.718.63-.959 1.3-1.878 1.772-2.877.472-.92-.157-2.278-1.102-2.758-.984-.52-2.323-.2-2.873.6-.748 1.118-1.536 2.237-2.283 3.356-.394.64-.748 1.279-.945 1.639Zm-9.762-12.948c-.079-1.04-.551-1.759-1.338-2.158-.827-.4-1.811-.48-2.44.28-.906 1.078-1.772 2.237-2.441 3.516-.512.96.157 2.278 1.102 2.798 1.023.52 2.243.24 2.913-.76.55-.799 1.141-1.598 1.653-2.437.197-.4.354-.84.55-1.24ZM97.106 25.2c.984.439 2.087.799 2.952 1.398 1.851 1.279 2.835 3.157 2.874 5.435.079 2.877.039 5.755.039 8.672 0 .72-.393 1.08-1.181 1.08H90.73c0 .279-.04.479-.04.719v6.114c0 .52-.197.84-.669.999-.433.16-.826 0-1.063-.4a1.48 1.48 0 0 1-.118-.6c0-5.634 0-11.309.04-16.944 0-1.518.708-2.837 1.653-3.996.118-.12.236-.24.315-.36.04-.04.04-.08.118-.2H42.944c-2.008 0-3.07 1.08-3.07 3.118v22.5c0 .279-.04.599-.08.838-.117.48-.472.68-.905.64-.433-.04-.748-.32-.826-.8-.04-.2-.04-.4-.04-.639v-22.62c0-1.798.63-3.236 2.126-4.235.472-.32.984-.48 1.456-.72h55.501ZM90.69 39.785c.118.04.158.08.197.08h9.762c.433 0 .433-.24.433-.56v-6.913c0-1.479-.472-2.798-1.535-3.797-1.693-1.598-3.7-1.998-5.905-1.039-1.731.72-2.952 2.758-2.952 4.836v7.393Z" fill="#000"/><path d="M69.001 55.891c-.748 1.319-1.535 2.638-3.149 2.958-1.614.32-2.716-.68-3.779-1.719-3.306 3.317-7.006 2.797-9.132-1.319-.512.2-1.063.44-1.614.64a92.42 92.42 0 0 1-3.07 1.039c-.512.16-1.023-.12-1.142-.64-.118-.52.08-.919.552-1.119.708-.28 1.495-.48 2.204-.719.669-.24 1.26-.56 1.929-.8.354-.12.433-.319.315-.719-.827-3.556-.04-6.554 2.834-8.872 1.023-.839 2.165-1.438 3.542-.879 2.047.8 2.795 2.798 1.85 4.916-1.102 2.517-2.952 4.356-5.196 5.794-.433.28-.511.48-.315.92.985 2.158 3.897 2.677 5.393.919.276-.32.394-.84.512-1.319.118-.48.275-.84.787-1 .512-.119.787.16 1.063.56.512.68 1.023 1.36 1.614 1.919.905.839 1.771.719 2.44-.36a15.4 15.4 0 0 0 1.102-2.118c.473-1.08 1.181-1.159 1.93-.24.432.56.944 1.08 1.495 1.519.827.64 1.574.48 2.165-.36.315-.44.55-.96.826-1.439.394-.799.945-.959 1.654-.36.157.16.315.32.511.44 1.063.6 1.614.48 2.598-.52.59-.599 1.378-.479 1.575.28.078.32-.079.8-.276 1.04-1.063 1.278-2.637 1.878-4.212 1.079-.433-.2-.669-.2-.984.32-.433.759-1.062 1.358-1.928 1.678-1.3.44-2.362-.04-3.346-.8-.236-.24-.472-.48-.748-.719Zm-15.036-2.877c.472-.32.905-.6 1.298-.92 1.457-1.158 2.717-2.517 3.386-4.276.354-.879.157-1.478-.433-1.958-.551-.4-1.26-.4-1.93.08-2.282 1.559-3.187 4.276-2.321 7.074Zm10.51-14.906H48.769c-.984 0-1.417-.32-1.456-.96 0-.679.432-.959 1.416-.959h31.924c.59.08.945.44.906.96 0 .52-.394.879-.945.919h-.551c-5.156.04-10.392.04-15.587.04Z" fill="#F47400"/><path d="M90.964 53.493c0 .68-.552 1.199-1.22 1.199-.591 0-1.181-.56-1.181-1.16 0-.639.55-1.238 1.18-1.238.67 0 1.22.56 1.22 1.199ZM30.779 80.11c0 .998-.866 1.838-1.811 1.798-.945-.04-1.81-.92-1.771-1.839.039-.919.866-1.758 1.81-1.758.945-.04 1.772.84 1.772 1.798Zm67.941 2.557c-1.023 0-1.77-.76-1.77-1.798 0-.96.787-1.759 1.77-1.759.985 0 1.772.8 1.772 1.799.039.999-.709 1.758-1.772 1.758Z" fill="#000"/><defs><filter id="a" x=".313" y="0" width="132" height="132" filterUnits="userSpaceOnUse" color-interpolation-filters="sRGB"><feFlood flood-opacity="0" result="BackgroundImageFix"/><feColorMatrix in="SourceAlpha" values="0 0 0 0 0 0 0 0 0 0 0 0 0 0 0 0 0 0 127 0" result="hardAlpha"/><feOffset dy="4"/><feGaussianBlur stdDeviation="2"/><feComposite in2="hardAlpha" operator="out"/><feColorMatrix values="0 0 0 0 0 0 0 0 0 0 0 0 0 0 0 0 0 0 0.25 0"/><feBlend in2="BackgroundImageFix" result="effect1_dropShadow_475_61"/><feBlend in="SourceGraphic" in2="effect1_dropShadow_475_61" result="shape"/></filter></defs></svg>